<?xml version="1.0" standalone="no"?>
<!DOCTYPE svg PUBLIC "-//W3C//DTD SVG 20010904//EN"
 "http://www.w3.org/TR/2001/REC-SVG-20010904/DTD/svg10.dtd">
<svg version="1.0" xmlns="http://www.w3.org/2000/svg"
 width="1500.000000pt" height="1500.000000pt" viewBox="0 0 1500.000000 1500.000000"
 preserveAspectRatio="xMidYMid meet">
<metadata>
Created by potrace 1.10, written by Peter Selinger 2001-2011
</metadata>
<g transform="translate(0.000000,1500.000000) scale(0.100000,-0.100000)"
fill="#000000" stroke="none">
<path d="M0 7500 l0 -7500 7500 0 7500 0 0 7500 0 7500 -7500 0 -7500 0 0
-7500z m6930 4024 c107 -31 195 -83 267 -158 64 -67 113 -128 113 -141 0 -3
41 -66 90 -140 50 -74 90 -137 90 -141 0 -3 14 -23 30 -44 17 -21 30 -41 30
-46 0 -4 33 -58 74 -118 40 -61 101 -156 136 -211 35 -55 95 -149 135 -210
100 -153 105 -162 105 -180 0 -18 -8 -18 -90 1 -94 22 -377 72 -505 89 -240
31 -392 39 -740 39 -411 0 -579 -13 -940 -76 -219 -39 -236 -37 -196 20 10 15
63 95 117 177 126 192 116 176 139 214 11 19 29 45 41 60 11 14 36 52 55 85
62 107 73 124 200 313 69 103 136 204 148 224 23 40 155 169 171 169 6 0 27
10 48 23 117 73 327 94 482 51z m145 -1404 c226 -16 370 -32 403 -46 l32 -13
0 -93 c-1 -116 -22 -260 -53 -359 -36 -113 -120 -274 -192 -369 -36 -48 -60
-89 -55 -94 13 -13 138 -10 155 4 52 43 207 332 220 411 4 24 11 50 16 59 20
36 39 167 39 267 0 152 2 156 59 150 60 -5 333 -63 392 -82 56 -19 81 -45 104
-108 21 -56 16 -157 -11 -209 -19 -38 -170 -189 -447 -446 -27 -25 -35 -38
-27 -46 8 -8 332 -12 1098 -13 1008 -3 1088 -4 1100 -20 9 -13 12 -153 12
-620 0 -590 0 -603 -20 -623 -19 -19 -33 -20 -505 -20 -474 0 -485 0 -485 -20
0 -10 4 -29 9 -42 5 -13 17 -50 26 -83 18 -67 41 -147 80 -280 15 -49 37 -128
50 -175 13 -47 32 -114 43 -150 12 -36 28 -92 38 -125 9 -33 22 -80 29 -105
12 -39 38 -144 90 -365 12 -51 23 -129 49 -340 13 -112 -45 -279 -127 -363
-82 -85 -231 -141 -427 -162 -138 -14 -390 -13 -390 2 0 6 9 30 19 52 36 77
68 210 86 356 11 89 26 113 102 164 38 25 72 46 75 46 3 0 46 24 95 54 50 29
99 57 110 60 34 11 93 77 93 104 0 32 -27 62 -54 62 -24 0 -87 -32 -228 -114
-118 -68 -133 -71 -123 -18 10 50 33 174 45 242 5 30 14 78 20 105 5 28 19 97
31 155 11 58 32 159 46 225 33 158 35 293 6 350 -28 53 -98 131 -142 159 -84
53 -50 51 -916 56 l-810 5 -5 70 -5 70 -59 3 c-32 2 -64 -2 -69 -7 -6 -6 -11
-39 -11 -73 l-1 -63 -825 -5 c-876 -6 -836 -4 -925 -52 -43 -24 -107 -95 -138
-154 -48 -91 -47 -151 8 -421 24 -116 43 -212 60 -303 9 -47 22 -116 30 -155
49 -245 49 -245 22 -245 -14 0 -105 47 -127 65 -23 19 -172 94 -202 101 -32 7
-68 -24 -68 -58 0 -26 67 -98 91 -98 10 0 21 -5 24 -10 4 -6 30 -22 58 -36 29
-15 59 -32 67 -39 8 -7 38 -25 65 -40 87 -48 154 -95 159 -113 5 -16 23 -115
46 -250 5 -29 15 -70 21 -90 31 -96 43 -128 51 -137 4 -5 8 -15 8 -22 0 -21
-440 -18 -511 3 -261 77 -438 299 -439 547 0 84 30 246 81 437 17 63 35 133
40 155 5 22 18 72 29 110 12 39 25 84 29 100 5 17 36 125 69 240 34 116 78
269 97 340 20 72 43 153 52 180 8 28 16 59 16 70 2 20 -6 20 -631 25 -548 4
-634 7 -642 20 -12 18 -13 1229 -2 1248 7 10 248 12 1210 12 661 0 1220 3
1243 6 24 4 39 12 37 19 -2 7 -73 77 -158 155 -208 190 -306 292 -325 336 -38
90 -28 204 24 279 41 60 28 56 420 130 102 19 103 18 95 -80 -8 -94 20 -285
58 -399 58 -175 198 -419 248 -433 38 -12 129 -8 142 5 8 8 -2 25 -41 67 -28
31 -51 62 -51 70 0 7 -7 18 -15 25 -42 35 -141 252 -176 386 -19 73 -23 116
-23 237 0 111 3 150 13 156 7 4 56 12 109 16 53 4 126 11 162 15 92 10 661 10
805 0z m-3961 -1462 c14 -20 16 -80 16 -455 l0 -433 58 -37 c31 -19 82 -52
112 -73 30 -20 71 -44 90 -53 56 -27 97 -64 84 -76 -7 -8 -112 -10 -340 -9
l-329 3 -3 23 c-2 12 11 55 28 95 56 127 117 277 135 333 7 23 21 56 29 72 18
34 21 83 7 98 -12 12 -201 490 -201 507 0 7 3 17 7 20 3 4 71 7 149 7 136 0
144 -1 158 -22z m7293 6 c3 -9 -4 -36 -16 -60 -11 -25 -21 -52 -21 -60 0 -9
-7 -28 -15 -42 -17 -31 -69 -154 -95 -227 -10 -27 -27 -70 -39 -95 -11 -25
-21 -59 -21 -75 0 -27 72 -222 128 -345 60 -133 83 -200 77 -219 -6 -21 -12
-21 -334 -21 -180 0 -331 3 -334 6 -14 14 17 46 73 74 32 16 62 34 65 40 4 6
35 24 70 41 35 16 69 36 76 45 7 8 25 22 41 30 l28 15 0 442 c0 331 3 446 12
455 8 8 57 12 155 12 123 0 145 -2 150 -16z m-6771 -928 c20 -8 19 -105 -1
-112 -8 -4 -45 14 -84 40 -74 48 -90 64 -73 75 12 7 137 5 158 -3z m6089 -10
c0 -16 -128 -106 -152 -106 -11 0 -13 13 -11 57 3 66 9 69 106 67 45 -1 57 -5
57 -18z m-1238 -188 c60 -33 103 -113 103 -190 0 -22 -9 -83 -19 -136 -11 -54
-29 -149 -41 -212 -28 -152 -49 -261 -65 -340 -7 -36 -21 -108 -30 -160 -9
-52 -23 -124 -31 -160 -7 -36 -34 -173 -60 -305 -55 -285 -77 -338 -159 -383
-27 -16 -149 -17 -1420 -20 -1263 -2 -1394 -1 -1433 14 -85 32 -133 94 -151
196 -5 29 -14 82 -21 118 -6 36 -18 88 -26 116 -8 28 -14 61 -14 75 0 13 -9
66 -20 119 -20 100 -76 388 -110 575 -27 144 -47 243 -67 335 -24 109 -21 214
7 268 27 52 78 93 128 103 20 4 793 6 1717 5 1579 -1 1682 -2 1712 -18z
m-6016 -2390 c93 -114 134 -158 143 -155 18 6 9 137 -10 158 -22 25 -10 39 35
39 47 0 69 -20 40 -38 -17 -11 -19 -24 -19 -122 0 -107 -1 -110 -22 -110 -23
0 -143 116 -175 170 -31 54 -53 34 -53 -48 0 -29 8 -59 20 -80 11 -18 20 -35
20 -37 0 -3 -25 -5 -55 -5 -59 0 -62 2 -40 40 21 36 20 168 -1 191 -23 26 -9
39 40 39 39 0 47 -4 77 -42z m584 28 c26 -19 13 -51 -18 -41 -12 5 -54 10 -93
12 -55 4 -73 1 -83 -11 -26 -31 -6 -46 59 -46 47 0 60 -3 60 -15 0 -11 -12
-15 -45 -15 -68 0 -107 -47 -69 -84 24 -24 132 -21 164 4 14 11 28 20 33 20
10 0 9 -67 -1 -74 -4 -2 -68 -6 -142 -7 -114 -2 -135 0 -138 13 -2 8 4 21 13
28 23 19 21 166 -2 192 -15 17 -15 20 -3 28 24 16 243 12 265 -4z m170 3 c4
-5 -1 -19 -11 -30 -16 -18 -16 -21 0 -61 38 -93 56 -128 65 -128 13 0 31 24
41 57 5 15 16 48 25 72 12 33 13 46 4 57 -20 25 -3 44 40 44 51 0 59 -14 27
-47 -15 -14 -31 -46 -37 -70 -7 -24 -15 -46 -20 -49 -5 -3 -9 -16 -9 -28 0
-39 -37 -76 -76 -76 -24 0 -36 5 -40 18 -3 9 -10 28 -16 42 -6 14 -22 54 -34
90 -13 36 -34 73 -46 82 -20 15 -21 19 -8 28 20 13 87 13 95 -1z m556 -10 c16
-31 -2 -45 -39 -30 -43 18 -152 10 -166 -12 -16 -25 7 -37 71 -37 48 0 74 -12
59 -28 -4 -3 -30 -6 -59 -7 -47 0 -52 -2 -61 -28 -17 -46 1 -62 74 -65 52 -2
69 1 91 17 38 28 41 27 37 -16 l-3 -38 -135 -5 c-74 -3 -139 -2 -144 2 -5 3 1
22 13 42 19 31 21 43 15 110 -4 48 -11 77 -20 80 -8 3 -11 12 -8 21 5 12 28
15 135 15 120 0 129 -1 140 -21z m350 -17 c16 -18 29 -39 29 -46 0 -20 -49
-76 -65 -76 -23 0 -28 -20 -11 -39 9 -10 16 -23 16 -29 0 -6 18 -26 40 -43 46
-37 51 -59 16 -59 -26 0 -62 39 -96 102 -22 42 -81 73 -109 58 -24 -13 -26
-37 -6 -64 23 -31 18 -36 -35 -36 -53 0 -58 4 -35 34 22 30 21 182 -2 194 -10
6 -14 16 -9 27 5 15 19 17 122 13 l116 -3 29 -33z m499 23 c7 -9 10 -25 6 -41
-7 -25 -8 -26 -26 -9 -13 12 -40 19 -85 21 -81 4 -95 -1 -95 -32 0 -22 4 -24
54 -24 54 0 81 -15 55 -30 -7 -5 -25 -6 -40 -3 -41 8 -69 -12 -69 -49 0 -17 7
-39 16 -49 9 -10 13 -23 9 -28 -7 -13 -115 -15 -115 -2 0 4 9 20 20 34 30 37
29 158 -1 186 -37 34 -16 41 125 41 106 0 136 -3 146 -15z m324 -15 c38 -23
54 -48 61 -97 5 -31 1 -46 -21 -79 -33 -51 -79 -74 -147 -74 -143 0 -227 126
-144 216 17 19 50 41 72 50 50 18 137 11 179 -16z m380 1 c15 -15 26 -35 26
-51 0 -28 -37 -80 -57 -80 -20 0 -24 -17 -10 -41 26 -50 49 -77 67 -82 24 -6
37 -34 22 -49 -18 -18 -67 21 -100 82 -24 43 -41 61 -72 75 -32 15 -42 15 -55
5 -19 -16 -19 -41 0 -66 23 -30 18 -34 -35 -34 -27 0 -50 2 -50 3 0 2 7 19 16
37 13 26 15 49 10 108 -3 41 -11 81 -17 88 -24 29 2 36 116 32 104 -3 116 -5
139 -27z m351 15 c23 -1 31 -6 33 -24 7 -50 -27 -59 -77 -20 -30 23 -75 23
-128 -1 -121 -56 -62 -181 86 -181 35 0 53 5 66 20 17 19 17 21 0 40 -10 11
-27 20 -37 20 -36 0 -12 25 26 28 49 4 66 -11 66 -59 0 -31 -5 -42 -26 -56
-31 -20 -138 -31 -148 -14 -4 6 -20 11 -35 11 -36 0 -80 34 -97 75 -10 24 -10
41 -2 73 17 70 89 105 188 94 30 -3 69 -6 85 -6z m369 8 c9 -3 16 -17 16 -31
0 -22 -3 -24 -22 -18 -13 5 -55 10 -94 12 -55 4 -73 1 -83 -11 -24 -29 -6 -45
55 -48 74 -4 82 -24 13 -30 -70 -7 -100 -46 -63 -82 21 -22 131 -22 162 0 25
17 42 11 42 -15 0 -36 -20 -41 -157 -41 -106 0 -133 3 -133 14 0 7 7 19 15 26
22 18 21 157 -1 189 -14 19 -14 25 -3 32 16 10 229 12 253 3z m394 -3 c21 -13
10 -47 -13 -41 -11 2 -40 4 -65 5 l-45 0 -3 -83 c-2 -71 0 -86 18 -109 11 -14
19 -27 17 -29 -6 -6 -117 -7 -124 -1 -3 4 6 20 20 35 24 25 27 36 27 99 0 50
-4 74 -15 83 -15 12 -78 10 -122 -5 -20 -6 -23 -4 -23 18 0 14 6 28 13 30 21
9 301 7 315 -2z m426 -58 c111 -137 124 -150 131 -130 10 24 1 150 -11 154 -5
2 -16 8 -24 13 -13 9 -13 11 0 20 19 12 80 13 100 0 13 -8 11 -12 -9 -26 -22
-16 -23 -20 -16 -98 13 -159 -13 -174 -116 -66 -38 39 -76 84 -86 100 -9 17
-22 29 -28 27 -5 -2 -11 -35 -13 -73 -2 -60 0 -73 18 -89 32 -29 24 -35 -40
-35 -63 0 -73 9 -44 41 24 27 24 161 0 188 -25 28 -12 41 39 41 42 0 46 -3 99
-67z m564 50 c5 -10 7 -24 5 -30 -6 -15 -39 -17 -48 -3 -8 12 -135 13 -153 1
-8 -5 -12 -17 -10 -27 2 -15 15 -20 62 -24 35 -3 61 -10 64 -17 4 -13 -20 -18
-61 -13 -52 5 -90 -67 -48 -90 31 -16 136 -13 151 5 20 24 50 19 50 -9 0 -13
-6 -28 -13 -34 -7 -6 -70 -12 -142 -13 -109 -2 -130 0 -133 13 -2 8 4 21 13
28 23 19 21 166 -2 192 -27 31 -2 38 134 38 106 0 123 -2 131 -17z m159 6 c9
-9 9 -16 0 -29 -12 -20 0 -73 35 -147 16 -36 22 -41 37 -33 26 13 54 96 55
160 l1 55 39 3 c54 5 66 -11 33 -44 -15 -15 -31 -41 -36 -58 -17 -58 -50 -137
-62 -152 -7 -9 -25 -14 -43 -12 -32 3 -51 30 -75 103 -26 81 -40 109 -61 125
-13 10 -20 22 -16 29 9 14 79 14 93 0z m561 -1 c18 -18 15 -48 -6 -48 -10 0
-23 5 -28 10 -6 6 -43 10 -85 8 -71 -3 -74 -4 -74 -28 0 -23 4 -25 55 -28 30
-2 59 -8 65 -13 16 -16 -13 -27 -54 -22 -43 6 -71 -14 -71 -51 0 -35 20 -46
86 -46 47 0 67 5 88 21 28 22 46 18 46 -10 0 -44 -18 -50 -159 -52 -92 -2
-136 1 -139 9 -2 6 7 24 19 41 19 27 21 37 15 97 -4 38 -12 74 -18 81 -5 7 -8
20 -4 28 4 12 28 15 129 15 82 0 127 -4 135 -12z m353 -26 c16 -18 29 -36 29
-40 0 -19 -43 -74 -65 -82 -29 -11 -31 -22 -10 -40 8 -7 15 -18 15 -25 0 -8
19 -29 42 -48 44 -37 49 -71 8 -60 -23 6 -80 77 -80 99 0 17 -61 63 -86 65
-42 4 -54 -1 -54 -24 0 -13 9 -32 20 -42 31 -28 24 -35 -35 -35 -59 0 -63 4
-40 34 22 29 21 173 -1 197 -31 34 -8 41 113 37 l115 -3 29 -33z m490 28 c20
-11 26 -45 10 -54 -5 -3 -24 0 -42 8 -41 16 -149 12 -161 -6 -15 -24 -2 -33
57 -38 65 -6 91 -30 31 -30 -60 0 -86 -15 -86 -50 0 -17 7 -38 15 -46 31 -32
18 -44 -45 -44 -33 0 -60 3 -60 8 0 4 9 18 20 32 29 37 29 161 -1 189 -12 11
-18 24 -14 30 8 14 249 15 276 1z m340 -24 c46 -31 66 -90 48 -144 -21 -66
-78 -102 -161 -102 -143 0 -228 126 -145 216 17 19 50 41 72 50 54 19 139 10
186 -20z m372 10 c21 -14 27 -26 27 -54 0 -37 -31 -82 -56 -82 -44 0 -5 -77
70 -138 20 -16 20 -28 -1 -36 -22 -9 -58 26 -94 90 -19 33 -41 56 -64 67 -45
22 -52 21 -65 -3 -8 -15 -7 -27 5 -51 9 -17 15 -32 13 -34 -3 -3 -73 -8 -96
-6 -10 1 -7 9 7 27 17 22 21 41 21 105 0 56 -4 82 -15 93 -8 8 -15 22 -15 31
0 15 13 17 118 13 93 -3 123 -7 145 -22z m328 14 c50 0 65 -15 54 -51 -8 -24
-32 -24 -70 1 -34 23 -54 24 -109 9 -109 -30 -117 -133 -13 -177 43 -18 111
-15 138 7 21 17 22 21 9 36 -8 9 -25 21 -38 26 -33 13 -18 29 27 29 48 0 63
-18 59 -67 -3 -32 -8 -41 -38 -55 -39 -19 -97 -23 -132 -9 -13 5 -35 12 -49
15 -15 3 -41 19 -58 35 -56 53 -37 153 36 183 61 26 66 28 103 23 19 -3 56 -5
81 -5z m234 0 c3 -6 -3 -22 -14 -36 -30 -38 -30 -150 -1 -187 11 -14 20 -28
20 -31 0 -3 -27 -6 -60 -6 -64 0 -72 6 -40 35 17 15 20 31 20 97 0 65 -3 81
-20 95 -14 13 -17 20 -8 30 12 15 94 18 103 3z m172 -7 c4 -9 1 -19 -5 -21 -7
-2 -12 -14 -12 -26 0 -32 34 -123 57 -154 l21 -27 20 45 c57 128 63 155 40
162 -25 9 1 38 34 38 56 0 65 -13 35 -50 -15 -17 -27 -38 -27 -45 0 -14 -9
-38 -51 -132 -17 -39 -22 -43 -54 -43 -38 0 -61 24 -75 82 -19 74 -42 124 -67
144 -34 29 -22 44 33 44 33 0 46 -5 51 -17z m561 -15 c3 -22 -1 -28 -17 -28
-11 0 -23 5 -26 10 -8 12 -135 13 -153 1 -8 -5 -12 -17 -10 -27 2 -15 15 -20
62 -24 35 -3 61 -10 64 -17 4 -13 -17 -17 -69 -13 -18 1 -32 -6 -43 -22 -20
-28 -20 -42 0 -62 22 -22 131 -22 155 0 34 31 69 -12 37 -44 -13 -13 -278 -18
-278 -4 0 4 7 16 15 26 18 23 21 166 5 197 -19 35 -3 40 128 37 l127 -3 3 -27z
m148 -4 c7 -26 -1 -108 -12 -126 -12 -19 -25 9 -31 65 -3 31 -3 63 0 71 10 25
36 19 43 -10z m-4628 -218 c2 -10 0 -22 -5 -27 -16 -16 -43 2 -43 28 0 20 4
24 22 21 13 -2 24 -11 26 -22z m4620 7 c-5 -25 -28 -28 -28 -4 0 12 6 21 16
21 9 0 14 -7 12 -17z"/>
<path d="M6528 8611 c-69 -23 -119 -73 -138 -141 -18 -64 16 -127 100 -183 37
-26 173 -23 234 3 33 15 46 27 46 42 0 16 -4 19 -22 13 -72 -21 -109 -26 -161
-21 -76 8 -115 29 -133 73 -36 84 52 173 171 173 31 0 92 -31 110 -57 6 -9 20
-13 31 -11 15 3 19 12 19 48 l0 45 -55 7 c-127 15 -176 17 -202 9z"/>
<path d="M4107 8603 c-4 -3 -7 -21 -7 -40 0 -45 24 -54 56 -19 19 20 34 26 67
26 73 0 78 -9 75 -135 l-3 -110 -32 -14 c-18 -8 -33 -21 -33 -28 0 -11 20 -13
92 -11 50 2 93 8 94 13 2 6 -11 17 -29 25 l-32 15 -3 109 c-2 71 1 113 9 122
18 21 92 18 122 -6 33 -26 45 -25 53 5 13 52 0 55 -221 55 -111 0 -205 -3
-208 -7z"/>
<path d="M4674 8598 c-4 -6 3 -20 17 -31 22 -18 24 -27 27 -127 4 -105 3 -108
-22 -128 -43 -33 -33 -42 47 -42 41 0 77 3 81 7 3 4 -7 19 -24 34 -34 31 -37
50 -14 74 12 11 25 14 43 10 53 -13 84 -41 123 -110 44 -79 79 -115 111 -115
58 1 60 41 3 65 -25 11 -45 32 -70 75 -20 34 -36 65 -36 71 0 5 16 19 35 31
38 22 65 63 65 98 0 31 -29 76 -57 89 -34 15 -320 15 -329 -1z m296 -43 c24
-13 30 -22 30 -50 0 -46 -20 -55 -124 -55 -74 0 -87 3 -96 19 -15 29 -12 67 6
85 21 22 144 22 184 1z"/>
<path d="M5215 8599 c-4 -6 2 -20 13 -32 18 -19 21 -37 23 -127 2 -102 1 -104
-26 -126 -15 -12 -24 -27 -21 -33 9 -13 152 -15 161 -2 3 5 -8 19 -25 31 -32
23 -40 59 -17 78 6 5 46 12 87 16 41 3 94 8 117 12 39 6 43 4 49 -20 9 -39 -3
-75 -32 -88 -13 -6 -23 -16 -21 -22 4 -13 157 -20 169 -8 5 5 -6 20 -27 36
l-35 27 0 100 c0 95 1 101 26 124 14 13 23 29 19 34 -8 14 -132 15 -140 2 -3
-6 4 -19 15 -29 15 -14 21 -29 18 -53 -3 -32 -6 -34 -58 -47 -71 -18 -144 -26
-175 -18 -21 5 -25 12 -25 45 0 37 19 71 41 71 5 0 9 9 9 20 0 18 -7 20 -69
20 -39 0 -73 -5 -76 -11z"/>
<path d="M5910 8598 c0 -6 9 -21 19 -32 19 -21 19 -22 -13 -120 -27 -83 -38
-104 -70 -130 -20 -18 -34 -35 -30 -39 10 -10 162 -9 168 2 3 4 -9 21 -26 36
l-31 28 22 19 c19 14 41 18 110 18 89 0 111 -8 111 -40 0 -9 -11 -23 -25 -30
-14 -7 -25 -20 -25 -27 0 -11 19 -13 87 -11 95 3 112 15 60 40 -28 13 -38 28
-61 90 -53 140 -54 147 -27 167 44 33 18 41 -130 41 -100 0 -139 -3 -139 -12z
m182 -55 c22 -25 42 -88 35 -107 -8 -21 -129 -23 -146 -2 -12 14 7 85 30 113
16 19 63 16 81 -4z"/>
<path d="M6934 8595 c-4 -8 6 -24 22 -38 27 -23 28 -28 28 -123 l1 -98 -32
-21 c-18 -11 -31 -24 -29 -30 4 -13 168 -13 173 0 2 6 -7 15 -19 20 -40 17
-34 47 17 83 61 43 84 41 123 -7 36 -45 40 -66 15 -80 -13 -7 -15 -13 -7 -21
14 -14 179 -9 179 5 0 6 -19 19 -42 30 -44 21 -132 125 -133 157 0 19 88 86
128 97 15 4 27 14 27 22 0 11 -19 15 -84 17 -89 3 -109 -6 -88 -39 6 -10 9
-20 7 -22 -57 -47 -147 -107 -161 -107 -16 0 -19 8 -19 55 0 47 3 57 25 71 14
9 25 23 25 30 0 21 -148 20 -156 -1z"/>
<path d="M7554 8598 c-4 -6 4 -19 19 -30 26 -19 27 -22 27 -129 0 -105 -1
-109 -25 -125 -49 -32 -32 -44 60 -44 68 0 85 3 85 15 0 8 -14 22 -30 30 l-31
16 3 86 c2 50 8 88 14 90 5 2 59 -51 118 -117 108 -121 108 -121 149 -118 l41
3 -3 136 -3 136 28 20 c40 30 23 43 -56 43 -79 0 -95 -12 -56 -44 25 -20 27
-27 29 -110 1 -59 -2 -90 -9 -93 -10 -3 -43 32 -198 210 -31 35 -36 37 -94 37
-35 0 -64 -5 -68 -12z"/>
<path d="M8284 8599 c-48 -14 -122 -84 -135 -129 -18 -60 -4 -109 45 -156 38
-36 52 -42 117 -53 116 -20 217 12 259 82 24 39 27 125 5 167 -18 35 -67 73
-114 89 -40 13 -132 13 -177 0z m174 -53 c50 -26 75 -62 76 -110 2 -94 -101
-140 -240 -105 -57 15 -84 48 -84 103 0 53 13 70 75 101 57 28 131 33 173 11z"/>
<path d="M8720 8592 c0 -9 9 -23 20 -30 18 -11 20 -23 20 -121 0 -107 -1 -110
-27 -129 -15 -11 -23 -24 -19 -30 9 -15 162 -16 171 -2 3 5 -10 20 -29 32
l-36 23 0 83 c0 68 3 84 16 89 12 4 24 -3 38 -23 12 -16 59 -71 105 -122 82
-91 85 -93 125 -90 l40 3 -3 137 -3 136 26 17 c48 32 33 45 -48 45 -85 0 -101
-12 -63 -44 23 -18 27 -31 32 -101 7 -95 -2 -119 -36 -90 -12 11 -62 68 -111
128 l-90 107 -64 0 c-54 0 -64 -3 -64 -18z"/>
<path d="M6621 7034 c-165 -51 -272 -164 -315 -331 -20 -77 -20 -124 0 -209
21 -92 46 -138 117 -212 73 -76 130 -106 238 -127 102 -19 188 -8 276 35 74
37 164 116 187 165 9 19 21 37 26 40 19 11 42 123 43 205 1 133 -33 218 -127
318 -42 45 -129 97 -195 116 -66 19 -189 19 -250 0z m240 -140 c55 -17 138
-95 168 -157 12 -24 26 -68 31 -98 19 -101 -37 -229 -129 -297 -60 -44 -92
-54 -180 -55 -103 -1 -159 21 -227 88 -72 72 -89 115 -88 220 1 111 21 159 96
231 91 88 196 109 329 68z"/>
<path d="M3944 5142 c-16 -11 -23 -47 -12 -66 7 -13 25 -16 83 -16 66 0 76 3
86 21 8 16 8 28 0 45 -10 22 -17 24 -78 24 -38 0 -73 -4 -79 -8z"/>
<path d="M4800 5129 c-47 -13 -80 -52 -80 -93 0 -44 16 -61 73 -80 65 -22 99
-20 133 6 40 31 44 38 44 79 0 44 -23 73 -69 88 -39 13 -53 13 -101 0z"/>
<path d="M5144 5136 c-3 -8 -4 -27 -2 -43 3 -27 4 -28 74 -31 60 -2 73 0 89
18 16 18 17 23 5 45 -12 23 -19 25 -87 25 -54 0 -75 -4 -79 -14z"/>
<path d="M8314 5136 c-3 -8 -4 -27 -2 -43 3 -28 4 -28 80 -31 70 -3 78 -1 88
19 9 16 9 28 1 45 -10 22 -16 24 -86 24 -56 0 -77 -4 -81 -14z"/>
<path d="M9180 5128 c-43 -12 -64 -30 -80 -68 -18 -43 6 -81 67 -103 71 -25
106 -22 148 14 61 54 44 132 -34 158 -40 13 -54 13 -101 -1z"/>
<path d="M9524 5126 c-3 -14 -3 -34 1 -45 6 -18 14 -21 71 -21 76 0 104 12
104 43 0 38 -19 47 -97 47 -69 0 -73 -1 -79 -24z"/>
</g>
</svg>
