<?xml version="1.0" standalone="no"?>
<!DOCTYPE svg PUBLIC "-//W3C//DTD SVG 20010904//EN"
 "http://www.w3.org/TR/2001/REC-SVG-20010904/DTD/svg10.dtd">
<svg version="1.0" xmlns="http://www.w3.org/2000/svg"
 width="500.000000pt" height="500.000000pt" viewBox="0 0 500.000000 500.000000"
 preserveAspectRatio="xMidYMid meet">
<metadata>
Created by potrace 1.10, written by Peter Selinger 2001-2011
</metadata>
<g transform="translate(0.000000,500.000000) scale(0.050000,-0.050000)"
fill="#ff0000" stroke="none">
<path d="M4473 9985 c3944 -4 4484 -9 4494 -35 7 -17 1 -28 -13 -25 -18 4 -24
-94 -26 -400 -1 -278 6 -405 20 -405 13 0 11 -8 -4 -17 -19 -12 -20 -30 -5
-71 12 -30 13 -50 4 -44 -19 12 -18 -288 2 -320 8 -12 8 -28 1 -35 -22 -22
-28 -136 -6 -123 13 8 13 -5 1 -36 -12 -33 -11 -56 4 -71 13 -13 15 -23 3 -23
-11 0 -20 -53 -20 -119 0 -65 7 -114 16 -109 9 6 8 -12 -3 -38 -12 -33 -11
-56 4 -71 17 -17 17 -23 -1 -23 -13 0 -24 -14 -24 -31 0 -17 9 -26 20 -19 13
8 14 -4 4 -34 -18 -53 -18 -709 1 -727 6 -7 3 -38 -8 -70 -13 -37 -13 -69 -1
-91 13 -23 12 -55 0 -92 -14 -39 -13 -65 2 -83 16 -19 16 -44 1 -87 -13 -38
-14 -77 -2 -109 12 -30 12 -62 1 -82 -11 -20 -12 -65 0 -114 10 -44 12 -81 5
-81 -16 0 -14 -615 2 -632 6 -6 3 -37 -8 -69 -13 -37 -13 -69 -1 -91 13 -23
12 -55 0 -92 -15 -41 -13 -65 4 -86 14 -17 17 -30 7 -30 -9 0 -16 -927 -15
-2125 3 -2436 22 -2214 -191 -2208 -81 2 -144 -5 -149 -17 -6 -13 -9 -13 -10
0 -2 21 -619 23 -674 2 -16 -6 -26 -5 -20 4 14 24 -715 18 -733 -6 -9 -13 -14
-13 -15 0 0 21 -617 23 -672 2 -16 -6 -26 -5 -20 4 14 24 -715 18 -733 -6 -9
-13 -14 -13 -15 0 0 21 -617 23 -672 2 -16 -6 -26 -4 -20 5 12 19 -361 17
-380 -2 -7 -8 -30 -5 -49 6 -23 12 -41 12 -48 0 -7 -11 -26 -14 -44 -7 -55 21
-1026 18 -1035 -4 -6 -13 -9 -13 -10 0 -1 13 -188 19 -522 18 -369 -2 -520 4
-520 20 -1 14 -6 15 -15 2 -23 -30 -92 -38 -74 -8 11 17 7 19 -13 6 -42 -27
-619 -26 -603 1 8 14 3 14 -16 -1 -20 -15 -176 -21 -489 -18 -277 3 -470 -4
-485 -15 -16 -13 -25 -13 -25 0 0 23 -371 19 -425 -4 -24 -10 -35 -6 -35 12
-1 19 -5 20 -15 4 -8 -12 -37 -22 -65 -21 -98 1 -140 -6 -140 -26 0 -13 1513
-20 4500 -20 l4500 0 0 4500 0 4500 -4505 -5 -4505 -5 4483 -5z"/>
<path d="M4427 7698 c-159 -29 -211 -84 -493 -513 -147 -223 -264 -408 -260
-412 4 -4 58 4 121 19 401 93 1102 78 1484 -32 98 -28 97 -25 -55 203 -76 114
-190 288 -253 387 -202 315 -319 391 -544 348z m220 -267 c27 -27 53 -44 59
-39 5 6 22 -17 37 -51 15 -33 33 -61 40 -61 24 0 98 -143 84 -165 -8 -12 -4
-15 10 -7 13 8 23 5 23 -7 0 -11 0 -28 0 -36 0 -8 -8 -15 -18 -15 -10 0 -25
-6 -32 -14 -8 -7 -33 -6 -57 2 -24 9 -56 12 -71 7 -19 -7 -23 -1 -12 17 13 23
11 23 -11 3 -15 -14 -57 -25 -93 -25 -39 0 -67 10 -68 25 -1 20 -3 20 -11 0
-16 -40 -385 -35 -400 5 -15 39 100 230 198 332 96 99 239 112 322 29z"/>
<path d="M4083 6747 l-87 -10 7 -144 c8 -165 103 -390 188 -446 60 -39 46 -67
-32 -67 -103 0 -232 252 -253 494 -14 167 16 154 -228 106 -247 -48 -206 -233
108 -482 52 -42 95 -82 95 -90 -1 -7 -379 -11 -841 -9 l-840 3 0 -432 0 -432
431 6 c423 6 432 5 422 -34 -5 -22 -46 -166 -92 -320 -199 -679 -217 -816
-121 -956 86 -125 162 -160 377 -175 228 -16 211 -22 174 65 -16 38 -35 116
-43 173 -15 117 -38 141 -217 235 -68 35 -111 71 -111 92 0 62 40 59 154 -12
145 -91 140 -105 68 245 -121 585 -123 583 666 583 l549 0 7 55 c4 40 17 55
46 55 29 0 42 -15 46 -55 l7 -55 543 0 c781 0 782 -1 655 -598 -72 -339 -77
-319 65 -230 115 72 154 74 154 10 0 -23 -49 -62 -142 -113 -157 -86 -167 -99
-185 -234 -7 -53 -27 -123 -44 -157 -41 -79 -50 -76 175 -57 495 43 532 182
282 1046 -60 211 -112 395 -113 409 -2 22 65 26 332 25 l335 -3 0 433 0 432
-750 -6 c-413 -4 -750 -1 -750 6 0 6 49 50 110 97 364 281 314 499 -115 500
-8 0 -15 -48 -15 -107 0 -184 -127 -483 -215 -506 -99 -25 -114 8 -40 91 128
141 225 518 142 551 -43 17 -775 31 -904 18z m259 -212 c1 -20 3 -20 11 0 13
32 131 33 163 1 19 -19 24 -19 24 0 0 28 43 24 65 -6 9 -12 15 -10 15 5 0 48
139 31 158 -19 16 -46 7 -116 -15 -116 -27 0 -39 -212 -15 -265 15 -32 -3 -35
-236 -35 -139 0 -252 4 -252 9 0 5 10 32 23 60 19 42 15 75 -23 188 -41 120
-43 141 -19 169 35 39 98 44 101 9z m-1757 -707 c7 -7 5 -33 -5 -58 -13 -33
-7 -68 22 -123 63 -123 47 -157 -72 -157 l-100 0 -6 175 -6 175 78 0 c42 0 83
-5 89 -12z m3775 -168 c0 -161 -24 -236 -49 -155 -32 100 -23 335 12 335 33 0
37 -18 37 -180z m-3320 61 c0 -34 -10 -38 -60 -28 -69 14 -95 -115 -29 -141
51 -19 12 -52 -61 -52 -73 0 -112 33 -61 52 20 8 31 37 31 82 0 70 -1 70 -70
57 -61 -11 -70 -8 -70 28 0 38 12 41 160 41 146 0 160 -3 160 -39z m329 8 c41
-42 39 -60 -12 -107 l-43 -40 62 -59 c65 -60 65 -83 0 -83 -22 0 -50 27 -70
69 -31 65 -79 104 -102 82 -5 -6 1 -22 13 -37 28 -34 10 -54 -49 -54 -51 0
-80 30 -48 50 26 16 26 144 0 160 -49 30 -11 50 99 50 81 0 128 -10 150 -31z
m231 12 c0 -10 -9 -24 -20 -31 -55 -34 -19 -74 55 -60 90 16 99 24 69 54 -40
40 -27 56 46 56 39 0 70 -9 70 -20 0 -11 -9 -20 -20 -20 -26 0 -26 -154 0
-170 32 -20 2 -50 -50 -50 -51 0 -92 43 -54 55 63 21 21 62 -51 51 -92 -14
-97 -18 -68 -52 28 -34 10 -54 -49 -54 -50 0 -89 43 -52 55 29 10 32 138 4
155 -42 26 -17 50 50 50 39 0 70 -8 70 -19z m560 1 c0 -10 -9 -22 -20 -25 -30
-10 21 -157 55 -157 46 0 16 -49 -34 -57 -60 -8 -102 31 -61 58 22 13 11 18
-43 19 -56 0 -72 -8 -70 -34 3 -38 -50 -57 -103 -36 -32 12 -32 15 1 39 48 35
90 156 58 167 -62 20 -10 44 97 44 66 0 120 -8 120 -18z m380 -32 c0 -53 -19
-63 -53 -29 -44 44 -156 14 -163 -44 -7 -61 51 -85 157 -64 81 16 75 -31 -8
-59 -154 -51 -280 99 -173 206 65 65 240 58 240 -10z m200 40 c0 -6 -11 -28
-24 -49 -34 -55 -9 -70 51 -31 30 19 46 45 40 62 -9 21 8 28 71 28 96 0 108
-33 22 -63 -81 -28 -54 -137 35 -137 15 0 25 -11 20 -25 -16 -48 -146 -31
-139 18 8 59 -32 79 -73 37 -25 -26 -27 -37 -8 -44 42 -16 6 -46 -55 -46 -65
0 -99 34 -51 52 19 8 31 37 31 78 0 41 -12 70 -31 78 -48 18 -14 52 52 52 33
0 59 -5 59 -10z m464 -75 c73 -84 74 -84 75 -31 1 29 -8 59 -19 66 -42 26 -17
50 50 50 67 0 92 -24 50 -50 -11 -7 -20 -52 -20 -100 0 -122 -32 -131 -124
-33 -91 97 -96 99 -96 33 0 -27 9 -50 20 -50 11 0 20 -13 20 -30 0 -20 -20
-30 -59 -30 -61 0 -96 28 -61 50 26 16 26 170 0 170 -11 0 -20 9 -20 20 0 56
112 16 184 -65z m492 54 c31 -22 44 -52 44 -99 0 -122 -158 -175 -267 -89
-143 113 71 294 223 188z m275 -49 c33 -43 66 -79 74 -80 22 0 18 96 -5 110
-42 26 -17 50 50 50 39 0 70 -9 70 -20 0 -11 -9 -20 -19 -20 -10 0 -22 -47
-25 -103 -8 -134 -36 -141 -135 -33 -79 85 -81 85 -81 32 0 -29 9 -59 20 -66
32 -20 2 -50 -50 -50 -52 0 -82 30 -50 50 26 16 26 144 0 160 -38 24 -20 50
36 50 42 0 71 -20 115 -80z m-2641 -460 c-56 -24 -190 -24 -190 0 0 11 51 19
115 19 83 -1 104 -7 75 -19z m2530 0 c0 -24 -134 -24 -190 0 -29 12 -8 18 75
19 64 0 115 -8 115 -19z"/>
<path d="M3213 5707 c-7 -8 -13 -26 -13 -40 0 -33 112 -37 131 -5 25 39 -83
80 -118 45z"/>
<path d="M4013 5687 c-27 -28 -12 -67 27 -67 27 0 40 13 40 40 0 39 -39 54
-67 27z"/>
<path d="M5515 5679 c-83 -49 9 -137 115 -111 43 11 51 23 46 68 -7 60 -93 83
-161 43z"/>
<path d="M1866 5776 c5 -14 43 -104 83 -198 l73 -173 -80 -186 c-45 -103 -79
-189 -76 -191 12 -11 472 -16 483 -6 7 7 -13 25 -43 40 -31 16 -93 49 -138 75
l-82 47 1 303 2 303 -117 6 c-90 5 -115 0 -106 -20z"/>
<path d="M6739 5785 c0 -8 0 -146 1 -306 l2 -291 -86 -49 c-47 -27 -103 -58
-124 -69 -90 -47 -48 -60 181 -55 273 5 261 -1 209 101 -22 43 -58 127 -81
185 l-40 107 70 171 c39 94 76 182 82 196 8 18 -18 25 -101 25 -62 0 -112 -7
-113 -15z"/>
<path d="M2324 5158 c10 -30 112 -89 127 -74 33 33 -16 96 -74 96 -34 0 -57
-9 -53 -22z"/>
<path d="M6372 5148 c-32 -83 10 -91 98 -19 l60 50 -73 0 c-48 1 -77 -10 -85
-31z"/>
<path d="M3320 5000 c-55 -55 -53 -81 58 -659 83 -436 103 -514 142 -545 57
-46 1906 -57 1965 -11 41 32 55 87 163 663 92 485 94 530 24 577 -60 40 -2311
16 -2352 -25z m2191 -206 c6 -24 -8 -137 -30 -251 -23 -114 -37 -214 -31 -223
6 -9 0 -20 -11 -24 -12 -4 -26 -52 -31 -106 -5 -54 -16 -103 -24 -109 -8 -6
-17 -24 -21 -41 -16 -72 -45 -80 -297 -80 -158 0 -244 7 -236 20 7 11 -2 14
-22 7 -23 -10 -30 -5 -23 15 5 15 21 26 34 23 13 -4 20 1 14 10 -5 9 25 67 68
129 99 145 111 278 37 428 -26 54 -45 105 -43 113 3 8 -2 13 -10 10 -8 -3 -17
3 -19 12 -2 9 -20 30 -40 46 -20 17 -25 25 -12 18 13 -6 29 -3 36 9 7 11 -4
22 -24 24 -93 9 288 25 469 20 192 -6 206 -9 216 -50z m-1291 21 c0 -14 -37
-66 -82 -115 -46 -50 -82 -94 -81 -100 3 -25 -23 -100 -35 -100 -7 0 -14 -44
-14 -99 0 -54 6 -95 13 -90 7 4 24 -26 38 -67 13 -41 55 -109 93 -152 111
-125 98 -132 -231 -132 -185 0 -241 6 -261 30 -14 17 -17 30 -7 30 9 0 6 8 -7
16 -14 9 -28 51 -31 95 -4 44 -12 88 -18 99 -13 21 -28 91 -47 210 -7 39 -20
102 -31 140 -22 81 -25 227 -6 247 27 26 707 15 707 -12z m493 -202 c86 -87
98 -122 87 -253 -21 -243 -338 -345 -509 -164 -276 290 139 700 422 417z"/>
<path d="M4428 4601 c-73 -31 -128 -120 -128 -205 0 -173 202 -259 337 -145
177 149 3 441 -209 350z"/>
<path d="M1540 3460 c0 -11 9 -20 20 -20 28 0 25 -107 -4 -136 -19 -19 -10
-24 40 -24 35 0 64 9 64 20 0 11 -9 20 -20 20 -11 0 -20 23 -20 51 0 50 1 49
63 -21 76 -87 109 -82 100 17 -3 43 3 73 15 73 12 0 22 9 22 20 0 11 -23 20
-52 20 -42 0 -49 -7 -38 -35 42 -101 31 -113 -36 -40 -63 70 -154 102 -154 55z"/>
<path d="M1851 3461 c-8 -12 -4 -21 8 -21 29 0 27 -106 -3 -136 -19 -19 1 -24
90 -24 104 0 114 4 114 44 0 34 -5 39 -24 20 -29 -29 -116 -32 -116 -4 0 11
18 20 40 20 22 0 40 9 40 20 0 11 -18 20 -40 20 -22 0 -40 10 -40 23 0 14 25
18 71 11 51 -9 69 -5 64 12 -10 30 -187 43 -204 15z"/>
<path d="M2084 3465 c4 -8 24 -53 44 -100 48 -111 97 -113 130 -5 13 44 33 80
44 80 11 0 15 9 8 20 -21 34 -96 24 -83 -10 7 -17 2 -55 -10 -85 l-22 -55 -25
59 c-14 33 -21 71 -16 85 7 16 -6 26 -34 26 -24 0 -40 -7 -36 -15z"/>
<path d="M2354 3411 c7 -43 1 -82 -14 -101 -22 -26 -10 -30 88 -30 102 0 112
4 112 44 0 34 -5 39 -24 20 -29 -29 -116 -32 -116 -4 0 11 18 20 40 20 22 0
40 9 40 20 0 11 -18 20 -40 20 -22 0 -40 10 -40 23 0 14 25 18 71 11 51 -9 69
-5 64 12 -5 13 -50 27 -100 30 l-93 6 12 -71z"/>
<path d="M2571 3461 c-6 -10 -3 -24 9 -31 28 -17 25 -97 -4 -126 -19 -19 -12
-24 31 -24 47 0 54 6 42 42 -11 37 -8 39 29 19 23 -12 42 -34 42 -49 0 -38 54
-78 81 -62 15 10 4 33 -31 70 -44 45 -47 57 -21 67 40 15 40 85 -1 101 -48 18
-164 14 -177 -7z m159 -51 c0 -11 -20 -23 -45 -26 -31 -5 -45 3 -45 26 0 23
14 31 45 26 25 -3 45 -15 45 -26z"/>
<path d="M2890 3460 c-7 -11 -3 -20 9 -20 29 0 27 -106 -3 -136 -19 -19 -9
-24 44 -24 53 0 63 5 44 24 -35 35 -29 56 16 56 54 0 51 35 -5 47 -25 6 -11 8
30 6 61 -4 75 2 75 31 0 40 -186 55 -210 16z"/>
<path d="M3164 3449 c-96 -68 -38 -176 89 -165 104 8 143 98 69 158 -56 46
-99 48 -158 7z m146 -79 c0 -29 -16 -42 -57 -47 -68 -7 -104 21 -86 67 20 50
143 33 143 -20z"/>
<path d="M3394 3410 c7 -42 1 -81 -14 -100 -21 -25 -17 -30 29 -30 45 0 52 6
40 42 -11 37 -8 39 29 19 23 -12 42 -30 42 -40 0 -31 62 -82 83 -69 12 7 1 33
-25 60 -35 38 -40 54 -22 72 64 64 15 116 -106 116 -66 0 -67 -2 -56 -70z
m146 0 c0 -19 -19 -30 -50 -30 -31 0 -50 11 -50 30 0 19 19 30 50 30 31 0 50
-11 50 -30z"/>
<path d="M3641 3441 c-76 -76 -8 -171 113 -157 73 8 96 96 25 96 -37 0 -40 -5
-19 -30 21 -25 18 -30 -16 -30 -62 0 -104 21 -104 53 0 38 81 67 124 45 48
-25 56 -23 56 18 0 54 -127 57 -179 5z"/>
<path d="M3870 3380 l0 -100 94 0 c99 0 124 15 97 58 -11 18 -20 20 -30 4 -17
-27 -111 -29 -111 -2 0 11 17 20 39 20 21 0 44 9 51 20 7 11 -10 20 -39 20
-28 0 -51 10 -51 23 0 14 25 18 70 11 53 -9 70 -4 70 17 0 21 -26 29 -95 29
l-95 0 0 -100z"/>
<path d="M4080 3450 c0 -23 13 -27 50 -18 56 14 75 -79 26 -128 -19 -19 -10
-24 40 -24 35 0 64 9 64 20 0 11 -9 20 -20 20 -27 0 -26 94 1 111 11 7 34 2
50 -12 24 -20 29 -16 29 19 0 38 -11 42 -120 42 -94 0 -120 -7 -120 -30z"/>
<path d="M4470 3460 c-7 -11 -2 -20 11 -20 17 0 21 -25 14 -80 -10 -74 -8 -80
37 -80 26 0 48 9 48 20 0 11 -9 20 -20 20 -11 0 -20 23 -20 51 0 50 1 49 62
-20 86 -98 122 -94 106 9 -9 54 -6 80 9 80 13 0 23 9 23 20 0 11 -22 20 -50
20 -51 0 -67 -27 -30 -50 11 -7 20 -32 19 -56 0 -39 -8 -36 -65 31 -63 73
-119 95 -144 55z"/>
<path d="M4771 3461 c-8 -12 -4 -21 8 -21 29 0 27 -106 -3 -136 -19 -19 1 -24
90 -24 86 0 114 7 114 29 0 21 -17 26 -70 17 -45 -7 -70 -3 -70 11 0 13 18 23
40 23 22 0 40 9 40 20 0 11 -18 20 -40 20 -22 0 -40 10 -40 23 0 14 25 18 71
11 51 -9 69 -5 64 12 -10 30 -187 43 -204 15z"/>
<path d="M5003 3467 c33 -69 55 -122 65 -152 21 -67 84 -41 110 45 13 44 33
80 44 80 11 0 15 9 8 20 -21 34 -96 24 -83 -10 20 -52 -25 -148 -50 -105 -10
20 -17 56 -13 80 5 34 -5 47 -41 52 -26 3 -44 -1 -40 -10z"/>
<path d="M5274 3410 c7 -42 1 -81 -14 -100 -22 -26 -10 -30 88 -30 102 0 112
4 112 44 0 34 -5 39 -24 20 -29 -29 -116 -32 -116 -4 0 11 18 20 40 20 22 0
40 9 40 20 0 11 -18 20 -40 20 -22 0 -40 10 -40 23 0 14 25 18 70 11 53 -9 70
-4 70 17 0 21 -26 29 -99 29 l-98 0 11 -70z"/>
<path d="M5491 3461 c-6 -10 -3 -24 9 -31 28 -17 25 -97 -4 -126 -19 -19 -12
-24 31 -24 47 0 54 7 43 40 -10 30 -5 37 18 28 17 -6 36 -28 42 -48 16 -50 63
-86 91 -70 15 10 7 30 -23 62 -35 38 -40 54 -22 72 34 34 30 90 -8 104 -48 18
-164 14 -177 -7z m159 -51 c0 -11 -20 -23 -45 -26 -31 -5 -45 3 -45 26 0 23
14 31 45 26 25 -3 45 -15 45 -26z"/>
<path d="M5810 3460 c-7 -11 -3 -20 9 -20 29 0 27 -106 -3 -136 -19 -19 -9
-24 44 -24 53 0 63 5 44 24 -35 35 -29 56 16 56 54 0 51 35 -5 47 -25 6 -11 8
30 6 61 -4 75 2 75 31 0 40 -186 55 -210 16z"/>
<path d="M6067 3429 c-69 -69 -30 -136 84 -145 119 -10 168 77 89 156 -54 54
-111 50 -173 -11z m163 -59 c0 -29 -16 -42 -57 -47 -68 -7 -104 21 -86 67 20
50 143 33 143 -20z"/>
<path d="M6310 3380 c0 -83 6 -100 36 -100 28 0 34 10 24 40 -18 58 33 33 89
-43 32 -43 51 -55 66 -40 15 15 7 33 -27 61 -38 31 -43 44 -23 65 63 64 17
117 -102 117 -62 0 -63 -1 -63 -100z m151 30 c0 -11 -23 -23 -50 -26 -36 -5
-51 3 -51 26 0 23 15 31 51 26 27 -3 50 -15 50 -26z"/>
<path d="M6560 3440 c-76 -76 -7 -170 114 -156 73 8 96 96 25 96 -37 0 -40 -5
-19 -30 21 -25 17 -30 -25 -30 -60 0 -111 52 -81 82 25 25 84 28 131 9 26 -12
35 -6 35 22 0 55 -127 60 -180 7z"/>
<path d="M6769 3458 c-6 -10 -2 -18 10 -18 29 0 27 -106 -3 -136 -19 -19 -9
-24 44 -24 53 0 63 5 44 24 -41 41 -30 136 15 136 29 0 46 -22 63 -80 34 -111
84 -107 137 13 50 112 50 107 0 107 -22 0 -38 -11 -36 -25 3 -14 -2 -52 -11
-85 l-17 -60 -25 59 c-14 33 -21 70 -16 83 10 28 -188 34 -205 6z"/>
<path d="M7150 3460 c-7 -11 -3 -20 9 -20 11 0 21 -27 21 -60 0 -33 -9 -60
-20 -60 -11 0 -20 -9 -20 -20 0 -11 50 -20 110 -20 82 0 110 7 110 29 0 21
-17 26 -70 17 -45 -7 -70 -3 -70 11 0 13 18 23 40 23 22 0 40 9 40 20 0 11
-18 20 -40 20 -22 0 -40 10 -40 23 0 14 25 18 70 11 53 -9 70 -4 70 17 0 34
-190 42 -210 9z"/>
<path d="M7409 3455 c-16 -42 -5 -96 21 -101 28 -6 38 86 12 112 -14 14 -24
11 -33 -11z"/>
</g>
</svg>
