<?xml version="1.0" standalone="no"?>
<!DOCTYPE svg PUBLIC "-//W3C//DTD SVG 20010904//EN"
 "http://www.w3.org/TR/2001/REC-SVG-20010904/DTD/svg10.dtd">
<svg version="1.0" xmlns="http://www.w3.org/2000/svg"
 width="1500.000000pt" height="1500.000000pt" viewBox="0 0 1500.000000 1500.000000"
 preserveAspectRatio="xMidYMid meet">
<metadata>
Created by potrace 1.10, written by Peter Selinger 2001-2011
</metadata>
<g transform="translate(0.000000,1500.000000) scale(0.100000,-0.100000)"
fill="#000000" stroke="none">
<path d="M6659 11540 c-82 -8 -152 -30 -211 -67 -21 -13 -42 -23 -48 -23 -16
0 -148 -129 -171 -169 -12 -20 -79 -121 -148 -224 -127 -189 -138 -206 -200
-313 -19 -33 -44 -71 -55 -85 -12 -15 -30 -41 -41 -60 -23 -38 -13 -22 -139
-214 -54 -82 -107 -162 -117 -177 -40 -57 -23 -59 196 -20 361 63 529 76 940
76 348 0 500 -8 740 -39 128 -17 411 -67 505 -89 82 -19 90 -19 90 -1 0 18 -5
27 -105 180 -40 61 -100 155 -135 210 -35 55 -96 150 -136 211 -41 60 -74 114
-74 118 0 5 -13 25 -30 46 -16 21 -30 41 -30 44 0 4 -40 67 -90 141 -49 74
-90 137 -90 140 0 13 -49 74 -113 141 -131 138 -315 197 -538 174z"/>
<path d="M6270 10120 c-36 -4 -109 -11 -162 -15 -53 -4 -102 -12 -109 -16 -10
-6 -13 -45 -13 -156 0 -121 4 -164 23 -237 35 -134 134 -351 176 -386 8 -7 15
-18 15 -25 0 -8 23 -39 51 -70 39 -42 49 -59 41 -67 -13 -13 -104 -17 -142 -5
-50 14 -190 258 -248 433 -38 114 -66 305 -58 399 8 98 7 99 -95 80 -392 -74
-379 -70 -420 -130 -52 -75 -62 -189 -24 -279 19 -44 117 -146 325 -336 85
-78 156 -148 158 -155 2 -7 -13 -15 -37 -19 -23 -3 -582 -6 -1243 -6 -962 0
-1203 -2 -1210 -12 -11 -19 -10 -1230 2 -1248 8 -13 94 -16 642 -20 625 -5
633 -5 631 -25 0 -11 -8 -42 -16 -70 -9 -27 -32 -108 -52 -180 -19 -71 -63
-224 -97 -340 -33 -115 -64 -223 -69 -240 -4 -16 -17 -61 -29 -100 -11 -38
-24 -88 -29 -110 -5 -22 -23 -92 -40 -155 -51 -191 -81 -353 -81 -437 1 -248
178 -470 439 -547 71 -21 511 -24 511 -3 0 7 -4 17 -8 22 -8 9 -20 41 -51 137
-6 20 -16 61 -21 90 -23 135 -41 234 -46 250 -5 18 -72 65 -159 113 -27 15
-57 33 -65 40 -8 7 -38 24 -67 39 -28 14 -54 30 -58 36 -3 5 -14 10 -24 10
-24 0 -91 72 -91 98 0 34 36 65 68 58 30 -7 179 -82 202 -101 22 -18 113 -65
127 -65 27 0 27 0 -22 245 -8 39 -21 108 -30 155 -17 91 -36 187 -60 303 -55
270 -56 330 -8 421 31 59 95 130 138 154 89 48 49 46 925 52 l825 5 1 63 c0
34 5 67 11 73 5 5 37 9 69 7 l59 -3 5 -70 5 -70 810 -5 c866 -5 832 -3 916
-56 44 -28 114 -106 142 -159 29 -57 27 -192 -6 -350 -14 -66 -35 -167 -46
-225 -12 -58 -26 -127 -31 -155 -6 -27 -15 -75 -20 -105 -12 -68 -35 -192 -45
-242 -10 -53 5 -50 123 18 141 82 204 114 228 114 27 0 54 -30 54 -62 0 -27
-59 -93 -93 -104 -11 -3 -60 -31 -110 -60 -49 -30 -92 -54 -95 -54 -3 0 -37
-21 -75 -46 -76 -51 -91 -75 -102 -164 -18 -146 -50 -279 -86 -356 -10 -22
-19 -46 -19 -52 0 -15 252 -16 390 -2 196 21 345 77 427 162 82 84 140 251
127 363 -26 211 -37 289 -49 340 -52 221 -78 326 -90 365 -7 25 -20 72 -29
105 -10 33 -26 89 -38 125 -11 36 -30 103 -43 150 -13 47 -35 126 -50 175 -39
133 -62 213 -80 280 -9 33 -21 70 -26 83 -5 13 -9 32 -9 42 0 20 11 20 485 20
472 0 486 1 505 20 20 20 20 33 20 623 0 467 -3 607 -12 620 -12 16 -92 17
-1100 20 -766 1 -1090 5 -1098 13 -8 8 0 21 27 46 277 257 428 408 447 446 27
52 32 153 11 209 -23 63 -48 89 -104 108 -59 19 -332 77 -392 82 -57 6 -59 2
-59 -150 0 -100 -19 -231 -39 -267 -5 -9 -12 -35 -16 -59 -13 -79 -168 -368
-220 -411 -17 -14 -142 -17 -155 -4 -5 5 19 46 55 94 72 95 156 256 192 369
31 99 52 243 53 359 l0 93 -32 13 c-33 14 -177 30 -403 46 -144 10 -713 10
-805 0z m460 -1518 l55 -7 0 -45 c0 -36 -4 -45 -19 -48 -11 -2 -25 2 -31 11
-18 26 -79 57 -110 57 -119 0 -207 -89 -171 -173 31 -75 148 -96 294 -52 18 6
22 3 22 -13 0 -35 -77 -62 -174 -62 -87 0 -102 6 -164 64 -91 85 -40 233 96
277 26 8 75 6 202 -9z m-2200 -7 c14 -17 6 -65 -11 -65 -6 0 -22 9 -36 20 -30
24 -104 27 -122 6 -8 -9 -11 -51 -9 -122 l3 -109 32 -15 c18 -8 31 -19 29 -25
-1 -5 -44 -11 -94 -13 -72 -2 -92 0 -92 11 0 7 15 20 33 28 l32 14 3 110 c3
126 -2 135 -75 135 -33 0 -48 -6 -67 -26 -32 -35 -56 -26 -56 19 0 19 3 37 7
40 3 4 97 7 208 7 167 0 205 -3 215 -15z m473 4 c28 -13 57 -58 57 -89 0 -35
-27 -76 -65 -98 -19 -12 -35 -26 -35 -31 0 -6 16 -37 36 -71 25 -43 45 -64 70
-75 57 -24 55 -64 -3 -65 -32 0 -67 36 -111 115 -39 69 -70 97 -123 110 -18 4
-31 1 -43 -10 -23 -24 -20 -43 14 -74 17 -15 27 -30 24 -34 -4 -4 -40 -7 -81
-7 -80 0 -90 9 -47 42 25 20 26 23 22 128 -3 100 -5 109 -27 127 -44 36 -20
43 139 43 86 0 159 -5 173 -11z m357 -9 c0 -11 -4 -20 -9 -20 -22 0 -41 -34
-41 -71 0 -33 4 -40 25 -45 31 -8 104 0 175 18 52 13 55 15 58 47 3 24 -3 39
-18 53 -11 10 -18 23 -15 29 8 13 132 12 140 -2 4 -5 -5 -21 -19 -34 -25 -23
-26 -29 -26 -124 l0 -100 35 -27 c21 -16 32 -31 27 -36 -12 -12 -165 -5 -169
8 -2 6 8 16 21 22 29 13 41 49 32 88 -6 24 -10 26 -49 20 -23 -4 -76 -9 -117
-12 -41 -4 -81 -11 -87 -16 -23 -19 -15 -55 17 -78 17 -12 28 -26 25 -31 -9
-13 -152 -11 -161 2 -3 6 6 21 21 33 27 22 28 24 26 126 -2 90 -5 108 -23 127
-30 32 -15 43 63 43 62 0 69 -2 69 -20z m836 9 c4 -7 -4 -20 -17 -30 -27 -20
-26 -27 27 -167 23 -62 33 -77 61 -90 52 -25 35 -37 -60 -40 -68 -2 -87 0 -87
11 0 7 11 20 25 27 14 7 25 21 25 30 0 32 -22 40 -111 40 -69 0 -91 -4 -110
-18 l-22 -19 31 -28 c17 -15 29 -32 26 -36 -6 -11 -158 -12 -168 -2 -4 4 10
21 30 39 32 26 43 47 70 130 32 98 32 99 13 120 -38 40 -27 44 120 44 94 0
142 -4 147 -11z m894 -3 c0 -7 -11 -21 -25 -30 -22 -14 -25 -24 -25 -71 0 -47
3 -55 19 -55 14 0 104 60 161 107 2 2 -1 12 -7 22 -21 33 -1 42 88 39 65 -2
84 -6 84 -17 0 -8 -12 -18 -27 -22 -40 -11 -128 -78 -128 -97 1 -32 89 -136
133 -157 23 -11 42 -24 42 -30 0 -14 -165 -19 -179 -5 -8 8 -6 14 7 21 25 14
21 35 -15 80 -39 48 -62 50 -123 7 -51 -36 -57 -66 -17 -83 12 -5 21 -14 19
-20 -5 -13 -169 -13 -173 0 -2 6 11 19 29 30 l32 21 -1 98 c0 95 -1 100 -28
123 -45 38 -29 53 59 53 57 0 75 -3 75 -14z m626 -23 c155 -178 188 -213 198
-210 7 3 10 34 9 93 -2 83 -4 90 -29 110 -39 32 -23 44 56 44 79 0 96 -13 56
-43 l-28 -20 3 -136 3 -136 -41 -3 c-41 -3 -41 -3 -149 118 -59 66 -113 119
-118 117 -6 -2 -12 -40 -14 -90 l-3 -86 31 -16 c16 -8 30 -22 30 -30 0 -12
-17 -15 -85 -15 -92 0 -109 12 -60 44 24 16 25 20 25 125 0 107 -1 110 -27
129 -38 28 -22 42 49 42 58 0 63 -2 94 -37z m745 26 c47 -16 96 -54 114 -89
22 -42 19 -128 -5 -167 -25 -42 -56 -61 -127 -80 -49 -13 -69 -13 -132 -2 -65
11 -79 17 -117 53 -49 47 -63 96 -45 156 13 45 87 115 135 129 45 13 137 13
177 0z m477 -96 c49 -60 99 -117 111 -128 34 -29 43 -5 36 90 -5 70 -9 83 -32
101 -38 32 -22 44 63 44 81 0 96 -13 48 -45 l-26 -17 3 -136 3 -137 -40 -3
c-40 -3 -43 -1 -125 90 -46 51 -93 106 -105 122 -14 20 -26 27 -38 23 -13 -5
-16 -21 -16 -89 l0 -83 36 -23 c19 -12 32 -27 29 -32 -9 -14 -162 -13 -171 2
-4 6 4 19 19 30 26 19 27 22 27 129 0 98 -2 110 -20 121 -11 7 -20 21 -20 30
0 15 10 18 64 18 l64 0 90 -107z"/>
<path d="M4786 8554 c-18 -18 -21 -56 -6 -85 9 -16 22 -19 96 -19 104 0 124 9
124 55 0 28 -6 37 -30 50 -40 21 -163 21 -184 -1z"/>
<path d="M6011 8547 c-23 -28 -42 -99 -30 -113 17 -21 138 -19 146 2 7 19 -13
82 -35 107 -18 20 -65 23 -81 4z"/>
<path d="M8285 8535 c-62 -31 -75 -48 -75 -101 0 -55 27 -88 84 -103 139 -35
242 11 240 105 -2 107 -130 157 -249 99z"/>
<path d="M2807 8673 c-4 -3 -7 -13 -7 -20 0 -17 189 -495 201 -507 14 -15 11
-64 -7 -98 -8 -16 -22 -49 -29 -72 -18 -56 -79 -206 -135 -333 -17 -40 -30
-83 -28 -95 l3 -23 329 -3 c228 -1 333 1 340 9 13 12 -28 49 -84 76 -19 9 -60
33 -90 53 -30 21 -81 54 -112 73 l-58 37 0 433 c0 375 -2 435 -16 455 -14 21
-22 22 -158 22 -78 0 -146 -3 -149 -7z"/>
<path d="M10102 8668 c-9 -9 -12 -124 -12 -455 l0 -442 -28 -15 c-16 -8 -34
-22 -41 -30 -7 -9 -41 -29 -76 -45 -35 -17 -66 -35 -70 -41 -3 -6 -33 -24 -65
-40 -56 -28 -87 -60 -73 -74 3 -3 154 -6 334 -6 322 0 328 0 334 21 6 19 -17
86 -77 219 -56 123 -128 318 -128 345 0 16 10 50 21 75 12 25 29 68 39 95 26
73 78 196 95 227 8 14 15 33 15 42 0 8 10 35 21 60 36 73 31 76 -134 76 -98 0
-147 -4 -155 -12z"/>
<path d="M3478 7739 c-17 -11 -1 -27 73 -75 39 -26 76 -44 84 -40 20 7 21 104
1 112 -21 8 -146 10 -158 3z"/>
<path d="M9588 7740 c-20 -5 -23 -13 -26 -63 -4 -71 2 -72 94 -12 87 58 90 77
12 79 -31 0 -67 -1 -80 -4z"/>
<path d="M5058 7551 c-50 -10 -101 -51 -128 -103 -28 -54 -31 -159 -7 -268 20
-92 40 -191 67 -335 34 -187 90 -475 110 -575 11 -53 20 -106 20 -119 0 -14 6
-47 14 -75 8 -28 20 -80 26 -116 7 -36 16 -89 21 -118 18 -102 66 -164 151
-196 39 -15 170 -16 1433 -14 1271 3 1393 4 1420 20 82 45 104 98 159 383 26
132 53 269 60 305 8 36 22 108 31 160 9 52 23 124 30 160 16 79 37 188 65 340
12 63 30 158 41 212 10 53 19 114 19 136 0 77 -43 157 -103 190 -30 16 -133
17 -1712 18 -924 1 -1697 -1 -1717 -5z m1813 -517 c66 -19 153 -71 195 -116
94 -100 128 -185 127 -318 -1 -82 -24 -194 -43 -205 -5 -3 -17 -21 -26 -40
-23 -49 -113 -128 -187 -165 -88 -43 -174 -54 -276 -35 -108 21 -165 51 -238
127 -71 74 -96 120 -117 212 -20 85 -20 132 0 209 43 167 150 280 315 331 61
19 184 19 250 0z"/>
<path d="M6705 6913 c-96 -13 -205 -93 -247 -183 -32 -68 -32 -209 0 -268 32
-60 100 -125 158 -153 63 -29 201 -31 255 -3 133 68 212 208 189 333 -14 78
-44 134 -103 191 -65 63 -160 95 -252 83z"/>
<path d="M2345 5179 c-4 -5 0 -18 9 -28 21 -23 22 -155 1 -191 -22 -38 -19
-40 40 -40 30 0 55 2 55 5 0 2 -9 19 -20 37 -12 21 -20 51 -20 80 0 82 22 102
53 48 32 -54 152 -170 175 -170 21 0 22 3 22 110 0 98 2 111 19 122 29 18 7
38 -40 38 -45 0 -57 -14 -35 -39 19 -21 28 -152 10 -158 -9 -3 -50 41 -143
155 -30 38 -38 42 -77 42 -23 0 -46 -5 -49 -11z"/>
<path d="M2790 5180 c-12 -8 -12 -11 3 -28 23 -26 25 -173 2 -192 -9 -7 -15
-20 -13 -28 3 -13 24 -15 138 -13 74 1 138 5 142 7 10 7 11 74 1 74 -5 0 -19
-9 -33 -20 -32 -25 -140 -28 -164 -4 -38 37 1 84 69 84 33 0 45 4 45 15 0 12
-13 15 -60 15 -65 0 -85 15 -59 46 10 12 28 15 83 11 39 -2 81 -7 93 -12 31
-10 44 22 18 41 -22 16 -241 20 -265 4z"/>
<path d="M3130 5180 c-13 -9 -12 -13 8 -28 12 -9 33 -46 46 -82 12 -36 28 -76
34 -90 6 -14 13 -33 16 -42 4 -13 16 -18 40 -18 39 0 76 37 76 76 0 12 4 25 9
28 5 3 13 25 20 49 6 24 22 56 37 70 32 33 24 47 -27 47 -43 0 -60 -19 -40
-44 9 -11 8 -24 -4 -57 -9 -24 -20 -57 -25 -72 -10 -33 -28 -57 -41 -57 -9 0
-27 35 -65 128 -16 40 -16 43 0 61 10 11 15 25 11 30 -8 14 -75 14 -95 1z"/>
<path d="M3506 5175 c-3 -9 0 -18 8 -21 9 -3 16 -32 20 -80 6 -67 4 -79 -15
-110 -12 -20 -18 -39 -13 -42 5 -4 70 -5 144 -2 l135 5 3 38 c4 43 1 44 -37
16 -22 -16 -39 -19 -91 -17 -73 3 -91 19 -74 65 9 26 14 28 61 28 29 1 55 4
59 7 15 16 -11 28 -59 28 -64 0 -87 12 -71 37 14 22 123 30 166 12 37 -15 55
-1 39 30 -11 20 -20 21 -140 21 -107 0 -130 -3 -135 -15z"/>
<path d="M3864 5175 c-5 -11 -1 -21 9 -27 23 -12 24 -164 2 -194 -23 -30 -18
-34 35 -34 53 0 58 5 35 36 -20 27 -18 51 6 64 28 15 87 -16 109 -58 34 -63
70 -102 96 -102 35 0 30 22 -16 59 -22 17 -40 37 -40 43 0 6 -7 19 -16 29 -17
19 -12 39 11 39 16 0 65 56 65 76 0 7 -13 28 -29 46 l-29 33 -116 3 c-103 4
-117 2 -122 -13z m237 -49 c8 -17 8 -29 0 -45 -10 -18 -20 -21 -86 -21 -80 0
-98 11 -87 54 8 31 20 36 95 36 61 0 68 -2 78 -24z"/>
<path d="M4345 5179 c-4 -6 2 -19 14 -30 30 -28 31 -149 1 -186 -11 -14 -20
-30 -20 -34 0 -13 108 -11 115 2 4 5 0 18 -9 28 -9 10 -16 32 -16 49 0 37 28
57 69 49 15 -3 33 -2 40 3 26 15 -1 30 -55 30 -50 0 -54 2 -54 24 0 31 14 36
95 32 45 -2 72 -9 85 -21 18 -17 19 -16 26 9 12 50 -5 56 -152 56 -84 0 -135
-4 -139 -11z"/>
<path d="M4775 5176 c-22 -9 -55 -31 -72 -50 -83 -90 1 -216 144 -216 68 0
114 23 147 74 42 63 25 136 -40 176 -42 27 -129 34 -179 16z m126 -47 c46 -15
69 -44 69 -88 0 -41 -4 -48 -44 -79 -34 -26 -68 -28 -133 -6 -57 19 -73 36
-73 80 0 73 94 121 181 93z"/>
<path d="M5075 5181 c-4 -7 -2 -18 4 -25 6 -7 14 -47 17 -88 5 -59 3 -82 -10
-108 -9 -18 -16 -35 -16 -37 0 -1 23 -3 50 -3 53 0 58 4 35 34 -19 25 -19 50
0 66 13 10 23 10 55 -5 31 -14 48 -32 72 -75 33 -61 82 -100 100 -82 15 15 2
43 -22 49 -18 5 -41 32 -67 82 -14 24 -10 41 10 41 20 0 57 52 57 80 0 16 -11
36 -26 51 -23 22 -35 24 -139 27 -77 3 -115 1 -120 -7z m235 -56 c12 -22 11
-27 -5 -45 -16 -18 -29 -20 -89 -18 -70 3 -71 4 -74 31 -6 52 1 57 81 57 68 0
75 -2 87 -25z"/>
<path d="M5510 5178 c-56 -16 -86 -44 -98 -90 -8 -32 -8 -49 2 -73 17 -41 61
-75 97 -75 15 0 31 -5 35 -11 10 -17 117 -6 148 14 21 14 26 25 26 56 0 48
-17 63 -66 59 -38 -3 -62 -28 -26 -28 10 0 27 -9 37 -20 17 -19 17 -21 0 -40
-13 -15 -31 -20 -66 -20 -111 0 -177 68 -138 142 13 25 84 57 125 58 17 0 42
-8 55 -18 50 -39 84 -30 77 20 -2 18 -10 23 -33 24 -16 0 -55 3 -85 6 -30 4
-71 2 -90 -4z"/>
<path d="M5801 5181 c-11 -7 -11 -13 3 -32 22 -32 23 -171 1 -189 -8 -7 -15
-19 -15 -26 0 -11 27 -14 133 -14 137 0 157 5 157 41 0 26 -17 32 -42 15 -31
-22 -141 -22 -162 0 -37 36 -7 75 63 82 69 6 61 26 -13 30 -61 3 -79 19 -55
48 10 12 28 15 83 11 39 -2 81 -7 94 -12 19 -6 22 -4 22 18 0 14 -7 28 -16 31
-24 9 -237 7 -253 -3z"/>
<path d="M6133 5183 c-7 -2 -13 -16 -13 -30 0 -22 3 -24 23 -18 44 15 107 17
122 5 11 -9 15 -33 15 -83 0 -63 -3 -74 -27 -99 -14 -15 -23 -31 -20 -35 7 -6
118 -5 124 1 2 2 -6 15 -17 29 -18 23 -20 38 -18 109 l3 83 45 0 c25 -1 54 -3
65 -5 23 -6 34 28 13 41 -14 9 -294 11 -315 2z"/>
<path d="M6725 5179 c-4 -5 1 -19 11 -30 24 -27 24 -161 0 -188 -29 -32 -19
-41 44 -41 64 0 72 6 40 35 -18 16 -20 29 -18 89 2 38 8 71 13 73 6 2 19 -10
28 -27 10 -16 48 -61 86 -100 103 -108 129 -93 116 66 -7 78 -6 82 16 98 20
14 22 18 9 26 -20 13 -81 12 -100 0 -13 -9 -13 -11 0 -20 8 -5 19 -11 24 -13
12 -4 21 -130 11 -154 -7 -20 -20 -7 -131 130 -53 64 -57 67 -99 67 -24 0 -47
-5 -50 -11z"/>
<path d="M7170 5180 c-12 -8 -12 -11 3 -28 23 -26 25 -173 2 -192 -9 -7 -15
-20 -13 -28 3 -13 24 -15 133 -13 72 1 135 7 142 13 7 6 13 21 13 34 0 28 -30
33 -50 9 -15 -18 -120 -21 -151 -5 -42 23 -4 95 48 90 41 -5 65 0 61 13 -3 7
-29 14 -64 17 -47 4 -60 9 -62 24 -2 10 2 22 10 27 18 12 145 11 153 -1 9 -14
42 -12 48 3 2 6 0 20 -5 30 -8 15 -25 17 -131 17 -67 0 -129 -4 -137 -10z"/>
<path d="M7504 5179 c-4 -7 3 -19 16 -29 21 -16 35 -44 61 -125 24 -73 43
-100 75 -103 18 -2 36 3 43 12 12 15 45 94 62 152 5 17 21 43 36 58 33 33 21
49 -33 44 l-39 -3 -1 -55 c-1 -64 -29 -147 -55 -160 -15 -8 -21 -3 -37 33 -35
74 -47 127 -35 147 9 13 9 20 0 29 -14 14 -84 14 -93 0z"/>
<path d="M7894 5175 c-4 -8 -1 -21 4 -28 6 -7 14 -43 18 -81 6 -60 4 -70 -15
-97 -12 -17 -21 -35 -19 -41 3 -8 47 -11 139 -9 141 2 159 8 159 52 0 28 -18
32 -46 10 -21 -16 -41 -21 -88 -21 -66 0 -86 11 -86 46 0 37 28 57 71 51 41
-5 70 6 54 22 -6 5 -35 11 -65 13 -51 3 -55 5 -55 28 0 24 3 25 74 28 42 2 79
-2 85 -8 17 -17 46 -12 46 8 0 36 -20 42 -147 42 -101 0 -125 -3 -129 -15z"/>
<path d="M8245 5180 c-4 -6 0 -19 9 -29 22 -24 23 -168 1 -197 -23 -30 -19
-34 40 -34 59 0 66 7 35 35 -11 10 -20 29 -20 42 0 23 12 28 54 24 25 -2 86
-48 86 -65 0 -22 57 -93 80 -99 41 -11 36 23 -8 60 -23 19 -42 40 -42 48 0 7
-7 18 -15 25 -21 18 -19 29 10 40 22 8 65 63 65 82 0 4 -13 22 -29 40 l-29 33
-115 3 c-80 3 -117 1 -122 -8z m236 -54 c8 -17 8 -29 -1 -45 -10 -20 -18 -22
-88 -19 -76 3 -77 3 -80 31 -6 52 1 57 83 57 70 0 76 -2 86 -24z"/>
<path d="M8725 5179 c-4 -6 2 -19 14 -30 30 -28 30 -152 1 -189 -11 -14 -20
-28 -20 -32 0 -5 27 -8 60 -8 63 0 76 12 45 44 -8 8 -15 29 -15 46 0 35 26 50
86 50 60 0 34 24 -31 30 -59 5 -72 14 -57 38 12 18 120 22 161 6 18 -8 37 -11
42 -8 16 9 10 43 -10 54 -27 14 -268 13 -276 -1z"/>
<path d="M9155 5176 c-22 -9 -55 -31 -72 -50 -129 -140 139 -300 277 -167 54
51 44 155 -19 197 -47 30 -132 39 -186 20z m126 -47 c47 -15 69 -44 69 -89 0
-31 -7 -44 -35 -69 -42 -36 -77 -39 -148 -14 -61 22 -85 60 -67 103 16 38 37
56 80 68 47 14 61 14 101 1z"/>
<path d="M9450 5175 c0 -9 7 -23 15 -31 11 -11 15 -37 15 -93 0 -64 -4 -83
-21 -105 -14 -18 -17 -26 -7 -27 23 -2 93 3 96 6 2 2 -4 17 -13 34 -12 24 -13
36 -5 51 13 24 20 25 65 3 23 -11 45 -34 64 -67 36 -64 72 -99 94 -90 21 8 21
20 1 36 -35 29 -65 62 -79 91 -15 31 -12 47 9 47 25 0 56 45 56 82 0 58 -31
72 -172 76 -105 4 -118 2 -118 -13z m238 -37 c18 -18 14 -56 -7 -68 -11 -5
-49 -10 -85 -10 -57 0 -65 3 -71 21 -4 11 -4 31 -1 45 6 23 10 24 79 24 43 0
78 -5 85 -12z"/>
<path d="M9910 5184 c-95 -34 -120 -62 -120 -134 0 -34 6 -48 31 -71 17 -16
43 -32 58 -35 14 -3 36 -10 49 -15 35 -14 93 -10 132 9 30 14 35 23 38 55 4
49 -11 67 -59 67 -45 0 -60 -16 -27 -29 13 -5 30 -17 38 -26 34 -41 -76 -73
-147 -43 -104 44 -96 147 13 177 55 15 75 14 109 -9 38 -25 62 -25 70 -1 11
36 -4 51 -54 51 -25 0 -62 2 -81 5 -19 2 -42 2 -50 -1z"/>
<path d="M10172 5177 c-9 -10 -6 -17 8 -30 17 -14 20 -30 20 -95 0 -66 -3 -82
-20 -97 -32 -29 -24 -35 40 -35 33 0 60 3 60 6 0 3 -9 17 -20 31 -29 37 -29
149 1 187 11 14 17 30 14 36 -9 15 -91 12 -103 -3z"/>
<path d="M10344 5179 c-3 -6 5 -21 19 -33 25 -20 48 -70 67 -144 14 -58 37
-82 75 -82 32 0 37 4 54 43 42 94 51 118 51 132 0 7 12 28 27 45 30 37 21 50
-35 50 -33 0 -59 -29 -34 -38 23 -7 17 -34 -40 -162 l-20 -45 -21 27 c-23 31
-57 122 -57 154 0 12 5 24 12 26 6 2 9 12 5 21 -7 20 -91 25 -103 6z"/>
<path d="M10745 5180 c-3 -5 -1 -18 5 -29 16 -31 13 -174 -5 -197 -8 -10 -15
-22 -15 -26 0 -14 265 -9 278 4 32 32 -3 75 -37 44 -24 -22 -133 -22 -155 0
-20 20 -20 34 0 62 11 16 25 23 43 22 52 -4 73 0 69 13 -3 7 -29 14 -64 17
-47 4 -60 9 -62 24 -2 10 2 22 10 27 18 12 145 11 153 -1 3 -5 15 -10 26 -10
16 0 20 6 17 28 l-3 27 -127 3 c-77 2 -129 -1 -133 -8z"/>
<path d="M11113 5164 c-3 -8 -3 -40 0 -71 6 -56 19 -84 31 -65 11 18 19 100
12 126 -7 29 -33 35 -43 10z"/>
<path d="M6480 4937 c0 -26 27 -44 43 -28 15 15 3 46 -21 49 -18 3 -22 -1 -22
-21z"/>
<path d="M11120 4939 c0 -24 23 -21 28 4 2 10 -3 17 -12 17 -10 0 -16 -9 -16
-21z"/>
</g>
</svg>
