<?xml version="1.0" standalone="no"?>
<!DOCTYPE svg PUBLIC "-//W3C//DTD SVG 20010904//EN"
 "http://www.w3.org/TR/2001/REC-SVG-20010904/DTD/svg10.dtd">
<svg version="1.0" xmlns="http://www.w3.org/2000/svg"
 width="500.000000pt" height="500.000000pt" viewBox="0 0 500.000000 500.000000"
 preserveAspectRatio="xMidYMid meet">
<metadata>
Created by potrace 1.10, written by Peter Selinger 2001-2011
</metadata>
<g transform="translate(0.000000,500.000000) scale(0.050000,-0.050000)"
fill="#000000" stroke="none">
<path d="M9000 5500 l0 -4500 -4500 0 -4500 0 0 -500 0 -500 5000 0 5000 0 0
5000 0 5000 -500 0 -500 0 0 -4500z"/>
<path d="M0 5511 l0 -4469 95 4 c52 2 102 13 110 24 9 12 15 9 15 -7 0 -18 11
-22 35 -12 54 23 425 27 425 4 0 -13 9 -13 25 0 15 11 208 18 485 15 313 -3
469 3 489 18 19 15 24 15 16 1 -16 -27 561 -28 603 -1 20 13 24 11 13 -6 -18
-30 51 -22 74 8 9 13 14 12 15 -2 0 -16 151 -22 520 -20 330 1 523 -5 528 -18
6 -13 9 -13 10 0 2 22 973 25 1029 4 18 -7 37 -4 44 7 7 12 25 12 48 0 19 -11
42 -14 49 -6 19 19 392 21 380 2 -6 -9 4 -11 20 -5 55 21 672 19 672 -2 1 -13
6 -13 15 0 18 24 747 30 733 6 -6 -9 4 -10 20 -4 55 21 672 19 672 -2 1 -13 6
-13 15 0 18 24 747 30 733 6 -6 -9 4 -10 20 -4 55 21 671 19 680 -2 6 -13 9
-13 10 0 1 13 58 19 143 17 213 -6 194 -229 191 2208 -1 1198 6 2125 15 2125
10 0 7 13 -7 30 -17 21 -19 45 -4 86 12 37 13 69 0 92 -12 22 -12 54 1 91 11
32 14 63 8 69 -16 17 -18 632 -2 632 7 0 5 37 -5 81 -11 49 -11 94 -1 114 11
19 11 53 0 85 -12 34 -11 73 3 109 15 40 15 63 -2 83 -15 19 -16 44 -2 84 12
37 13 69 0 92 -12 22 -12 54 1 91 11 32 14 63 8 70 -19 18 -19 674 -1 727 10
30 9 42 -4 34 -11 -7 -20 2 -20 19 0 17 11 31 24 31 18 0 18 6 1 23 -15 15
-16 38 -4 71 11 26 12 44 3 38 -9 -5 -16 44 -16 109 0 66 9 119 20 119 12 0
10 10 -3 23 -15 15 -16 38 -4 71 12 31 12 44 -1 36 -21 -13 -17 87 6 123 7 12
7 28 -1 35 -20 20 -21 332 -2 320 9 -6 8 14 -4 44 -15 41 -14 59 5 71 15 9 17
17 4 17 -14 0 -21 127 -20 405 2 306 8 404 26 400 14 -3 20 8 13 25 -10 26
-543 30 -4489 30 l-4478 0 0 -4469z m4700 2148 c92 -46 133 -93 271 -309 63
-99 177 -273 253 -387 152 -228 153 -231 55 -203 -382 110 -1083 125 -1484 32
-63 -15 -117 -23 -121 -19 -21 21 533 821 598 863 130 85 288 93 428 23z m287
-930 c83 -33 -14 -410 -142 -551 -74 -83 -59 -116 40 -91 88 23 215 322 215
506 0 59 7 107 15 107 429 -1 479 -219 115 -500 -61 -47 -110 -91 -110 -97 0
-7 337 -10 750 -6 l750 6 0 -432 0 -433 -335 3 c-267 1 -334 -3 -332 -25 1
-14 53 -198 113 -409 250 -864 213 -1003 -282 -1046 -225 -19 -216 -22 -175
57 17 34 37 104 44 157 18 135 28 148 185 234 93 51 142 90 142 113 0 64 -39
62 -154 -10 -142 -89 -137 -109 -65 230 127 597 126 598 -655 598 l-543 0 -7
55 c-4 40 -17 55 -46 55 -29 0 -42 -15 -46 -55 l-7 -55 -549 0 c-789 0 -787 2
-666 -583 72 -350 77 -336 -68 -245 -114 71 -154 74 -154 12 0 -21 43 -57 111
-92 179 -94 202 -118 217 -235 8 -57 27 -135 43 -173 37 -87 54 -81 -174 -65
-215 15 -291 50 -377 175 -96 140 -78 277 121 956 46 154 87 298 92 320 10 39
1 40 -422 34 l-431 -6 0 432 0 432 840 -3 c462 -2 840 2 841 9 0 8 -43 48 -95
90 -314 249 -355 434 -108 482 244 48 214 61 228 -106 21 -242 150 -494 253
-494 78 0 92 28 32 67 -85 56 -180 281 -188 446 l-7 144 87 10 c129 13 861 -1
904 -18z m-2900 -1242 l-1 -303 82 -47 c45 -26 107 -59 138 -75 30 -15 50 -33
43 -40 -11 -10 -471 -5 -483 6 -3 2 31 88 76 191 l80 186 -73 173 c-40 94 -78
184 -83 198 -9 20 16 25 106 20 l117 -6 -2 -303z m4866 288 c-6 -14 -43 -102
-82 -196 l-70 -171 40 -107 c23 -58 59 -142 81 -185 52 -102 64 -96 -209 -101
-229 -5 -271 8 -181 55 21 11 77 42 124 69 l86 49 -2 291 c-1 160 -1 298 -1
306 1 8 51 15 113 15 83 0 109 -7 101 -25z m-4503 -637 c19 -59 -4 -71 -65
-34 -76 46 -79 76 -8 76 43 0 64 -12 73 -42z m4020 -9 c-88 -72 -130 -64 -98
19 8 21 37 32 85 31 l73 0 -60 -50z m-798 -104 c70 -47 68 -92 -24 -577 -108
-576 -122 -631 -163 -663 -59 -46 -1908 -35 -1965 11 -44 35 -239 938 -240
1109 -1 140 -50 135 1225 135 630 0 1155 -7 1167 -15z m-3978 -1620 c67 -73
78 -61 36 40 -11 28 -4 35 38 35 29 0 52 -9 52 -20 0 -11 -10 -20 -22 -20 -12
0 -18 -30 -15 -73 9 -99 -24 -104 -100 -17 -62 70 -63 71 -63 21 0 -28 9 -51
20 -51 11 0 20 -9 20 -20 0 -11 -29 -20 -64 -20 -50 0 -59 5 -40 24 29 29 32
136 4 136 -11 0 -20 9 -20 20 0 47 91 15 154 -55z m361 41 c5 -17 -13 -21 -64
-12 -46 7 -71 3 -71 -11 0 -13 18 -23 40 -23 22 0 40 -9 40 -20 0 -11 -18 -20
-40 -20 -22 0 -40 -9 -40 -20 0 -28 87 -25 116 4 19 19 24 14 24 -20 0 -40
-10 -44 -114 -44 -89 0 -109 5 -90 24 30 30 32 136 3 136 -12 0 -16 9 -8 21
17 28 194 15 204 -15z m99 8 c-5 -14 2 -52 16 -85 l25 -59 22 55 c12 30 17 68
10 85 -13 34 62 44 83 10 7 -11 3 -20 -8 -20 -11 0 -31 -36 -44 -80 -33 -108
-82 -106 -130 5 -20 47 -40 92 -44 100 -4 8 12 15 36 15 28 0 41 -10 34 -26z
m381 -8 c5 -17 -13 -21 -64 -12 -46 7 -71 3 -71 -11 0 -13 18 -23 40 -23 22 0
40 -9 40 -20 0 -11 -18 -20 -40 -20 -22 0 -40 -9 -40 -20 0 -28 87 -25 116 4
19 19 24 14 24 -20 0 -40 -10 -44 -112 -44 -98 0 -110 4 -88 30 15 19 21 58
14 101 l-12 71 93 -6 c50 -3 95 -17 100 -30z m213 22 c41 -16 41 -86 1 -101
-26 -10 -23 -22 21 -67 35 -37 46 -60 31 -70 -27 -16 -81 24 -81 62 0 15 -19
37 -42 49 -37 20 -40 18 -29 -19 12 -36 5 -42 -42 -42 -43 0 -50 5 -31 24 29
29 32 109 4 126 -60 37 85 70 168 38z m352 -24 c0 -29 -14 -35 -75 -31 -41 2
-55 0 -30 -6 56 -12 59 -47 5 -47 -45 0 -51 -21 -16 -56 19 -19 9 -24 -44 -24
-53 0 -63 5 -44 24 30 30 32 136 3 136 -12 0 -16 9 -9 20 24 39 210 24 210
-16z m222 -2 c74 -60 35 -150 -69 -158 -127 -11 -185 97 -89 165 59 41 102 39
158 -7z m226 26 c38 -14 42 -70 8 -104 -18 -18 -13 -34 22 -72 26 -27 37 -53
25 -60 -21 -13 -83 38 -83 69 0 10 -19 28 -42 40 -37 20 -40 18 -29 -19 12
-36 5 -42 -40 -42 -46 0 -50 5 -29 30 15 19 21 58 14 100 -12 73 53 97 154 58z
m272 -32 c0 -41 -8 -43 -56 -18 -43 22 -124 -7 -124 -45 0 -32 42 -53 104 -53
34 0 37 5 16 30 -21 25 -18 30 19 30 71 0 48 -88 -25 -96 -121 -14 -189 81
-113 157 52 52 179 49 179 -5z m240 15 c0 -21 -17 -26 -70 -17 -45 7 -70 3
-70 -11 0 -13 23 -23 51 -23 29 0 46 -9 39 -20 -7 -11 -30 -20 -51 -20 -22 0
-39 -9 -39 -20 0 -27 94 -25 111 2 10 16 19 14 30 -4 27 -43 2 -58 -97 -58
l-94 0 0 100 0 100 95 0 c69 0 95 -8 95 -29z m260 -13 c0 -35 -5 -39 -29 -19
-16 14 -39 19 -50 12 -27 -17 -28 -111 -1 -111 11 0 20 -9 20 -20 0 -11 -29
-20 -64 -20 -50 0 -59 5 -40 24 49 49 30 142 -26 128 -37 -9 -50 -5 -50 18 0
23 26 30 120 30 109 0 120 -4 120 -42z m294 -33 c57 -67 65 -70 65 -31 1 24
-8 49 -19 56 -37 23 -21 50 30 50 28 0 50 -9 50 -20 0 -11 -10 -20 -23 -20
-15 0 -18 -26 -9 -80 16 -103 -20 -107 -106 -9 -61 69 -62 70 -62 20 0 -28 9
-51 20 -51 11 0 20 -9 20 -20 0 -11 -22 -20 -48 -20 -45 0 -47 6 -37 80 7 55
3 80 -14 80 -13 0 -18 9 -11 20 25 40 81 18 144 -55z m361 41 c5 -17 -13 -21
-64 -12 -46 7 -71 3 -71 -11 0 -13 18 -23 40 -23 22 0 40 -9 40 -20 0 -11 -18
-20 -40 -20 -22 0 -40 -10 -40 -23 0 -14 25 -18 70 -11 53 9 70 4 70 -17 0
-22 -28 -29 -114 -29 -89 0 -109 5 -90 24 30 30 32 136 3 136 -12 0 -16 9 -8
21 17 28 194 15 204 -15z m109 -21 c-4 -24 3 -60 13 -80 25 -43 70 53 50 105
-13 34 62 44 83 10 7 -11 3 -20 -8 -20 -11 0 -31 -36 -44 -80 -26 -86 -89
-112 -110 -45 -10 30 -32 83 -65 152 -4 9 14 13 40 10 36 -5 46 -18 41 -52z
m376 26 c0 -21 -17 -26 -70 -17 -45 7 -70 3 -70 -11 0 -13 18 -23 40 -23 22 0
40 -9 40 -20 0 -11 -18 -20 -40 -20 -22 0 -40 -9 -40 -20 0 -28 87 -25 116 4
19 19 24 14 24 -20 0 -40 -10 -44 -112 -44 -98 0 -110 4 -88 30 15 19 21 58
14 100 l-11 70 98 0 c73 0 99 -8 99 -29z m208 17 c38 -14 42 -70 8 -104 -18
-18 -13 -34 22 -72 30 -32 38 -52 23 -62 -28 -16 -75 20 -91 70 -6 20 -25 42
-42 48 -23 9 -28 2 -18 -28 11 -33 4 -40 -43 -40 -43 0 -50 5 -31 24 29 29 32
109 4 126 -60 37 85 70 168 38z m352 -24 c0 -29 -14 -35 -75 -31 -41 2 -55 0
-30 -6 56 -12 59 -47 5 -47 -45 0 -51 -21 -16 -56 19 -19 9 -24 -44 -24 -53 0
-63 5 -44 24 30 30 32 136 3 136 -12 0 -16 9 -9 20 24 39 210 24 210 -16z
m220 -4 c79 -79 30 -166 -89 -156 -114 9 -153 76 -84 145 62 61 119 65 173 11z
m228 28 c38 -15 42 -70 7 -105 -20 -21 -15 -34 23 -65 34 -28 42 -46 27 -61
-15 -15 -34 -3 -66 40 -56 76 -107 101 -89 43 10 -30 4 -40 -24 -40 -30 0 -36
17 -36 100 0 105 47 131 158 88z m272 -35 c0 -28 -9 -34 -35 -22 -47 19 -106
16 -131 -9 -30 -30 21 -82 81 -82 42 0 46 5 25 30 -21 25 -18 30 19 30 71 0
48 -88 -25 -96 -121 -14 -190 80 -114 156 53 53 180 48 180 -7z m234 19 c-5
-13 2 -50 16 -83 l25 -59 17 60 c9 33 14 71 11 85 -2 14 14 25 36 25 50 0 50
5 0 -107 -53 -120 -103 -124 -137 -13 -17 58 -34 80 -63 80 -45 0 -56 -95 -15
-136 19 -19 9 -24 -44 -24 -53 0 -63 5 -44 24 30 30 32 136 3 136 -12 0 -16 8
-10 18 17 28 215 22 205 -6z m386 -1 c0 -21 -17 -26 -70 -17 -45 7 -70 3 -70
-11 0 -13 18 -23 40 -23 22 0 40 -9 40 -20 0 -11 -18 -20 -40 -20 -22 0 -40
-10 -40 -23 0 -14 25 -18 70 -11 53 9 70 4 70 -17 0 -22 -28 -29 -110 -29 -60
0 -110 9 -110 20 0 11 9 20 20 20 11 0 20 27 20 60 0 33 -10 60 -21 60 -12 0
-16 9 -9 20 20 33 210 25 210 -9z m97 -54 c-4 -26 -16 -45 -27 -43 -26 5 -37
59 -21 101 18 47 56 1 48 -58z"/>
<path d="M4325 7402 c-98 -102 -213 -293 -198 -332 15 -40 384 -45 400 -5 8
20 10 20 11 0 1 -15 29 -25 68 -25 36 0 78 11 93 25 22 20 24 20 11 -3 -11
-18 -7 -24 12 -17 15 5 47 2 71 -7 24 -8 49 -9 57 -2 7 8 22 14 32 14 10 0 18
7 18 15 0 8 0 25 0 36 0 12 -10 15 -23 7 -14 -8 -18 -5 -10 7 14 22 -60 165
-84 165 -7 0 -25 28 -40 61 -15 34 -32 57 -37 51 -6 -5 -32 12 -59 39 -83 83
-226 70 -322 -29z"/>
<path d="M4241 6526 c-24 -28 -22 -49 19 -169 38 -113 42 -146 23 -188 -13
-28 -23 -55 -23 -60 0 -5 113 -9 252 -9 233 0 251 3 236 35 -24 53 -12 265 15
265 22 0 31 70 15 116 -19 50 -158 67 -158 19 0 -15 -6 -17 -15 -5 -22 30 -65
34 -65 6 0 -19 -5 -19 -24 0 -32 32 -150 31 -163 -1 -8 -20 -10 -20 -11 0 -3
35 -66 30 -101 -9z"/>
<path d="M2424 5665 l6 -175 100 0 c119 0 135 34 72 157 -29 55 -35 90 -22
123 23 59 10 70 -84 70 l-78 0 6 -175z"/>
<path d="M6294 5685 c16 -279 66 -298 66 -25 0 162 -4 180 -37 180 -34 0 -36
-14 -29 -155z"/>
<path d="M2720 5719 c0 -36 9 -39 70 -28 69 13 70 13 70 -57 0 -45 -11 -74
-31 -82 -51 -19 -12 -52 61 -52 73 0 112 33 61 52 -66 26 -40 155 29 141 50
-10 60 -6 60 28 0 36 -14 39 -160 39 -148 0 -160 -3 -160 -41z"/>
<path d="M3100 5741 c0 -10 9 -24 20 -31 26 -16 26 -144 0 -160 -32 -20 -3
-50 48 -50 59 0 77 20 49 54 -12 15 -18 31 -13 37 23 22 71 -17 102 -82 20
-42 48 -69 70 -69 65 0 65 23 0 83 l-62 59 43 40 c51 47 53 65 12 107 -35 34
-269 45 -269 12z m218 -39 c41 -26 7 -62 -59 -62 -55 0 -79 34 -46 67 19 18
72 16 105 -5z"/>
<path d="M3460 5741 c0 -10 9 -24 20 -31 28 -17 25 -145 -4 -155 -37 -12 2
-55 52 -55 59 0 77 20 49 54 -29 34 -24 38 68 52 72 11 114 -30 51 -51 -38
-12 3 -55 54 -55 52 0 82 30 50 50 -26 16 -26 170 0 170 11 0 20 9 20 20 0 11
-31 20 -70 20 -73 0 -86 -16 -46 -56 30 -30 21 -38 -69 -54 -74 -14 -110 26
-55 60 42 26 17 50 -50 50 -38 0 -70 -8 -70 -19z"/>
<path d="M3920 5742 c0 -10 10 -22 23 -26 32 -11 -10 -132 -58 -167 -33 -24
-33 -27 -1 -39 53 -21 106 -2 103 36 -2 26 14 34 70 34 54 -1 65 -6 43 -19
-41 -27 1 -66 61 -58 50 8 80 57 34 57 -34 0 -85 147 -55 157 59 20 5 43 -100
43 -66 0 -120 -8 -120 -18z m160 -82 c0 -27 -13 -40 -40 -40 -39 0 -54 39 -27
67 28 27 67 12 67 -27z"/>
<path d="M4300 5720 c-107 -107 19 -257 173 -206 83 28 89 75 8 59 -106 -21
-164 3 -157 64 7 58 119 88 163 44 34 -34 53 -24 53 29 0 68 -175 75 -240 10z"/>
<path d="M4610 5740 c-7 -11 2 -26 19 -32 19 -8 31 -37 31 -78 0 -41 -12 -70
-31 -78 -48 -18 -14 -52 51 -52 61 0 97 30 55 46 -19 7 -17 18 8 44 41 42 81
22 73 -37 -7 -49 123 -66 139 -18 5 14 -5 25 -20 25 -89 0 -116 109 -35 137
86 30 74 63 -22 63 -63 0 -80 -7 -71 -28 6 -17 -10 -43 -40 -62 -60 -39 -85
-24 -51 31 13 21 24 43 24 49 0 19 -118 10 -130 -10z"/>
<path d="M5020 5740 c0 -11 9 -20 20 -20 26 0 26 -154 0 -170 -35 -22 0 -50
61 -50 39 0 59 10 59 30 0 17 -9 30 -20 30 -11 0 -20 23 -20 50 0 66 5 64 96
-33 92 -98 124 -89 124 33 0 48 9 93 20 100 42 26 17 50 -50 50 -67 0 -92 -24
-50 -50 11 -7 20 -37 19 -66 -1 -53 -2 -53 -75 31 -72 81 -184 121 -184 65z"/>
<path d="M5469 5711 c-63 -63 -62 -118 4 -170 109 -86 267 -33 267 89 0 127
-173 179 -271 81z m207 -75 c8 -65 -68 -95 -147 -59 -95 43 -37 128 81 118 49
-4 61 -15 66 -59z"/>
<path d="M5800 5741 c0 -10 9 -24 20 -31 26 -16 26 -144 0 -160 -32 -20 -2
-50 50 -50 52 0 82 30 50 50 -11 7 -20 37 -20 66 0 53 2 53 81 -32 99 -108
127 -101 135 33 3 56 15 103 25 103 10 0 19 9 19 20 0 11 -31 20 -70 20 -67 0
-92 -24 -50 -50 23 -14 27 -110 5 -110 -8 1 -41 37 -74 80 -56 76 -171 117
-171 61z"/>
<path d="M3140 5220 c0 -24 134 -24 190 0 29 12 8 18 -75 19 -64 0 -115 -8
-115 -19z"/>
<path d="M5670 5220 c56 -24 190 -24 190 0 0 11 -51 19 -115 19 -83 -1 -104
-7 -75 -19z"/>
<path d="M4940 4839 c-82 -7 -134 -13 -114 -15 20 -2 31 -13 24 -24 -7 -12
-23 -15 -36 -9 -13 7 -8 -1 12 -18 20 -16 38 -37 40 -46 2 -9 11 -15 19 -12 8
3 13 -2 10 -10 -2 -8 17 -59 43 -113 74 -150 62 -283 -37 -428 -43 -62 -73
-120 -68 -129 6 -9 -1 -14 -14 -10 -13 3 -29 -8 -34 -23 -7 -20 0 -25 23 -15
20 7 29 4 22 -7 -8 -13 78 -20 236 -20 252 0 281 8 297 80 4 17 13 35 21 41 8
6 19 55 24 109 5 54 19 102 31 106 11 4 17 15 11 24 -6 9 8 109 31 223 59 299
62 293 -186 301 -113 3 -272 1 -355 -5z"/>
<path d="M3513 4827 c-19 -20 -16 -166 6 -247 11 -38 24 -101 31 -140 19 -119
34 -189 47 -210 6 -11 14 -55 18 -99 3 -44 17 -86 31 -95 13 -8 16 -16 7 -16
-10 0 -7 -13 7 -30 20 -24 76 -30 261 -30 329 0 342 7 231 132 -38 43 -80 111
-93 152 -14 41 -31 71 -38 67 -7 -5 -13 36 -13 90 0 55 7 99 14 99 12 0 38 75
35 100 -1 6 35 50 81 100 45 49 82 101 82 115 0 27 -680 38 -707 12z"/>
<path d="M4299 4624 c-267 -267 76 -681 383 -463 93 67 126 151 120 307 -8
207 -346 313 -503 156z m336 -48 c152 -126 61 -376 -138 -376 -218 0 -272 315
-69 401 53 23 166 9 207 -25z"/>
<path d="M2640 3410 c0 -23 14 -31 45 -26 25 3 45 15 45 26 0 11 -20 23 -45
26 -31 5 -45 -3 -45 -26z"/>
<path d="M3167 3390 c-18 -46 18 -74 86 -67 41 5 57 18 57 47 0 53 -123 70
-143 20z"/>
<path d="M3440 3410 c0 -19 19 -30 50 -30 31 0 50 11 50 30 0 19 -19 30 -50
30 -31 0 -50 -11 -50 -30z"/>
<path d="M5560 3410 c0 -23 14 -31 45 -26 25 3 45 15 45 26 0 11 -20 23 -45
26 -31 5 -45 -3 -45 -26z"/>
<path d="M6087 3390 c-18 -46 18 -74 86 -67 41 5 57 18 57 47 0 53 -123 70
-143 20z"/>
<path d="M6360 3410 c0 -23 15 -31 51 -26 27 3 50 15 50 26 0 11 -23 23 -50
26 -36 5 -51 -3 -51 -26z"/>
</g>
</svg>
