<?xml version="1.0" standalone="no"?>
<!DOCTYPE svg PUBLIC "-//W3C//DTD SVG 20010904//EN"
 "http://www.w3.org/TR/2001/REC-SVG-20010904/DTD/svg10.dtd">
<svg version="1.0" xmlns="http://www.w3.org/2000/svg"
 width="300.000000pt" height="404.000000pt" viewBox="0 0 300.000000 404.000000"
 preserveAspectRatio="xMidYMid meet">
<metadata>
Created by potrace 1.10, written by Peter Selinger 2001-2011
</metadata>
<g transform="translate(0.000000,404.000000) scale(0.100000,-0.100000)"
fill="#000000" stroke="none">
<path d="M0 2020 l0 -2020 1500 0 1500 0 0 2020 0 2020 -1500 0 -1500 0 0
-2020z m1632 1929 c126 -42 251 -104 385 -188 l111 -71 32 -83 c114 -291 236
-714 224 -771 -24 -117 -136 -299 -260 -424 l-87 -87 73 80 c141 154 240 335
240 437 0 29 -11 96 -25 148 -45 166 -154 482 -200 576 -42 86 -48 94 -112
136 -173 114 -315 182 -447 215 -63 15 -66 15 -158 -11 -157 -46 -371 -159
-464 -248 -48 -45 -108 -183 -189 -436 -83 -260 -104 -366 -85 -439 19 -77 95
-213 172 -309 40 -49 64 -82 53 -74 -32 26 -133 157 -174 228 -22 37 -52 102
-66 145 -26 78 -26 79 -11 165 19 111 109 413 178 602 l54 145 74 52 c153 106
463 242 557 243 17 0 74 -14 125 -31z m-2 -220 c129 -49 227 -113 325 -213 81
-82 159 -192 178 -251 7 -23 14 -32 -61 84 -90 137 -224 251 -377 321 -154 72
-207 73 -361 9 -188 -78 -346 -225 -446 -413 -21 -39 -38 -66 -38 -60 0 18 88
183 125 234 93 127 261 241 445 304 84 29 98 28 210 -15z m524 -505 c3 -8 2
-12 -4 -9 -6 3 -10 10 -10 16 0 14 7 11 14 -7z m-878 -33 c80 -49 102 -168 44
-234 -60 -69 -164 -70 -230 -2 -62 64 -57 158 11 220 34 31 46 35 92 35 33 0
63 -7 83 -19z m631 -9 c39 -28 68 -98 59 -144 -22 -117 -154 -174 -248 -107
-82 59 -77 194 11 255 30 21 45 25 92 22 37 -3 66 -11 86 -26z m-247 -346
c108 -28 293 -91 330 -113 14 -8 18 -12 9 -10 -9 3 -74 23 -145 45 -159 50
-293 82 -343 82 -52 0 -206 -35 -339 -77 -62 -19 -115 -33 -118 -30 -8 8 161
66 281 98 136 35 203 36 325 5z m940 -21 c7 -9 13 -32 14 -53 1 -33 -2 -37
-27 -40 -36 -4 -57 13 -57 49 0 48 44 76 70 44z m-2136 -14 c35 -39 4 -90 -47
-77 -20 5 -27 13 -27 32 0 59 40 83 74 45z m143 -63 c-3 -8 -6 -5 -6 6 -1 11
2 17 5 13 3 -3 4 -12 1 -19z m-70 -100 c-2 -24 -4 -7 -4 37 0 44 2 63 4 43 2
-21 2 -57 0 -80z m500 85 c-4 -3 -10 -3 -14 0 -3 4 0 7 7 7 7 0 10 -3 7 -7z
m-560 -183 c-3 -99 -4 -180 -1 -180 2 0 18 29 35 65 33 71 50 79 90 46 22 -18
23 -22 10 -43 -53 -84 -50 -113 5 -55 59 62 94 43 94 -52 0 -27 -5 -53 -11
-57 -8 -5 -9 6 -4 37 l6 44 -20 -30 c-17 -24 -21 -46 -21 -108 0 -120 -32
-170 -125 -196 -43 -12 -95 -2 -129 24 -17 13 -17 15 -2 31 15 15 14 18 -28
44 -25 16 -52 40 -61 54 -25 37 -45 150 -45 248 0 82 2 88 26 107 15 12 31 21
35 21 5 0 9 -32 9 -71 0 -71 13 -115 31 -104 5 4 9 48 9 99 0 51 3 127 6 169
l7 75 32 -5 c19 -3 35 0 39 6 4 6 10 11 13 11 3 0 3 -81 0 -180z m163 131 c0
-11 -4 -9 -15 5 -8 10 -15 25 -15 33 0 11 4 9 15 -5 8 -10 15 -25 15 -33z
m360 39 c-8 -5 -19 -10 -25 -10 -5 0 -3 5 5 10 8 5 20 10 25 10 6 0 3 -5 -5
-10z m1624 -85 c3 -44 6 -116 6 -160 0 -77 11 -118 26 -102 4 4 10 45 12 92 3
47 9 85 14 85 5 0 21 -12 35 -26 25 -26 26 -27 20 -142 -3 -65 -11 -134 -17
-155 -15 -49 -60 -100 -113 -125 -24 -12 -34 -21 -24 -22 10 0 15 -4 12 -10
-3 -5 0 -10 7 -10 27 0 -19 -31 -55 -37 -125 -20 -208 69 -192 207 7 61 -4
100 -30 100 -7 0 -16 -8 -18 -17 -3 -10 -5 6 -4 36 2 44 6 56 25 69 22 14 25
13 67 -34 42 -45 45 -47 45 -24 0 14 -11 42 -25 62 -32 47 -31 54 4 72 39 20
62 3 91 -69 26 -64 45 -73 36 -17 -3 20 -9 98 -12 172 l-6 135 45 0 44 0 7
-80z m-1085 -30 c26 -49 26 -79 1 -125 l-19 -35 -1 50 c-1 28 -5 59 -9 70 -7
16 -9 14 -14 -14 -4 -19 -7 -50 -7 -70 l-1 -36 -14 25 c-22 38 -18 106 7 151
24 43 26 42 57 -16z m-939 25 c0 -5 -5 -10 -11 -10 -5 0 -7 5 -4 10 3 6 8 10
11 10 2 0 4 -4 4 -10z m-40 -76 c0 -2 -7 -4 -15 -4 -8 0 -15 4 -15 10 0 5 7 7
15 4 8 -4 15 -8 15 -10z m1930 2 c0 -3 -4 -8 -10 -11 -5 -3 -10 -1 -10 4 0 6
5 11 10 11 6 0 10 -2 10 -4z m-1048 -65 c9 -9 20 -28 23 -42 6 -24 4 -26 -19
-22 -30 6 -66 47 -66 75 0 15 5 18 23 13 12 -4 30 -14 39 -24z m198 2 c0 -27
-41 -63 -72 -63 -30 0 -34 10 -17 41 18 35 89 53 89 22z m1164 -14 c-6 -11
-24 -2 -24 11 0 5 7 7 15 4 8 -4 12 -10 9 -15z m-2584 1 c0 -5 -5 -10 -11 -10
-5 0 -7 5 -4 10 3 6 8 10 11 10 2 0 4 -4 4 -10z m-14 -48 c6 -4 14 -39 17 -79
4 -39 10 -80 13 -90 4 -10 -5 0 -20 21 -36 51 -61 72 -113 92 -49 19 -52 27
-21 48 23 16 104 22 124 8z m2722 -8 c30 -20 28 -29 -9 -44 -17 -7 -49 -28
-70 -46 -53 -44 -65 -38 -61 36 4 65 6 67 77 69 22 0 51 -6 63 -15z m-1478
-14 c13 -8 12 -11 -5 -24 -23 -17 -44 -20 -64 -7 -11 7 -7 12 15 25 35 18 35
18 54 6z m57 -7 c-4 -3 -7 0 -7 7 0 7 3 10 7 7 3 -4 3 -10 0 -14z m121 -5 c33
-33 -16 -39 -63 -8 l-30 20 41 0 c22 0 45 -5 52 -12z m-169 -61 c-32 -26 -38
-3 -8 30 21 22 24 23 28 7 2 -10 -7 -26 -20 -37z m121 -15 c-16 -6 -50 33 -50
57 0 11 10 6 32 -18 22 -25 27 -36 18 -39z m-50 -2 c0 -9 -6 -25 -14 -36 -14
-18 -15 -18 -21 9 -4 15 -4 39 0 54 6 27 7 27 21 9 8 -11 14 -27 14 -36z
m-623 -7 c-4 -3 -7 0 -7 7 0 7 3 10 7 7 3 -4 3 -10 0 -14z m1113 13 c0 -3 -5
-8 -12 -12 -7 -4 -8 -3 -4 4 7 12 16 16 16 8z m90 -138 c16 -43 30 -89 30
-103 0 -18 5 -25 19 -25 10 0 33 -5 51 -11 l33 -12 -28 -14 c-22 -12 -29 -12
-35 -3 -6 10 -18 10 -53 1 -61 -15 -62 -15 -43 14 21 32 20 69 -4 133 -21 55
-28 140 -10 112 6 -8 23 -50 40 -92z m-1155 55 c-4 -21 -16 -66 -26 -100 -19
-58 -19 -64 -4 -93 9 -18 15 -33 13 -35 -2 -2 -21 0 -43 5 -21 5 -46 5 -55 0
-9 -5 -25 -3 -40 5 l-24 13 39 11 c22 6 46 11 53 11 7 0 12 14 12 35 0 38 57
185 72 185 5 0 6 -17 3 -37z m741 -470 c-3 -7 -15 -13 -26 -13 -15 0 -20 7
-20 24 0 14 5 28 10 31 20 12 10 45 -15 51 -14 4 -27 5 -28 3 -1 -2 -9 -24
-17 -48 -8 -25 -21 -47 -28 -49 -11 -3 -11 1 1 19 9 13 17 38 19 54 l3 30 -87
3 -88 3 0 -26 c0 -14 7 -39 15 -55 9 -17 11 -30 6 -30 -9 0 -26 38 -36 81 -5
20 -11 25 -25 22 -29 -8 -46 -31 -32 -45 16 -16 15 -68 0 -68 -36 1 -39 14
-36 171 3 140 5 154 21 151 9 -2 18 3 19 10 1 7 4 -36 7 -97 l6 -110 35 5 c51
7 159 6 205 -2 l40 -7 3 107 c2 88 6 109 20 120 16 12 18 2 25 -154 4 -92 6
-173 3 -181z m499 337 c3 -5 4 -10 1 -10 -3 0 -8 5 -11 10 -3 6 -4 10 -1 10 3
0 8 -4 11 -10z m-1358 -7 c-4 -3 -10 -3 -14 0 -3 4 0 7 7 7 7 0 10 -3 7 -7z
m229 -74 c-7 -75 -69 -375 -87 -420 -6 -15 -24 -39 -40 -55 -16 -15 -29 -36
-29 -45 0 -19 58 -69 80 -69 7 0 10 -3 7 -6 -9 -9 -68 15 -94 39 -31 28 -29
48 12 122 32 57 72 196 140 483 11 47 18 19 11 -49z m1038 -434 l45 -83 -20
-26 c-12 -15 -37 -33 -56 -41 -53 -22 -63 -18 -19 8 61 34 65 49 28 91 -17 20
-38 49 -46 64 -24 46 -78 312 -82 407 l-5 90 55 -213 c44 -173 63 -229 100
-297z m166 495 c0 -5 -8 -10 -17 -10 -15 0 -16 2 -3 10 19 12 20 12 20 0z
m-1555 -35 c24 -52 12 -68 -13 -18 -24 47 -26 53 -13 53 5 0 16 -16 26 -35z
m60 25 c-3 -5 -10 -10 -16 -10 -5 0 -9 5 -9 10 0 6 7 10 16 10 8 0 12 -4 9
-10z m1535 -51 c-14 -33 -20 -38 -20 -21 0 27 31 92 37 76 2 -6 -5 -31 -17
-55z m-2003 34 c-4 -3 -7 0 -7 7 0 7 3 10 7 7 3 -4 3 -10 0 -14z m2403 7 c0
-5 -5 -10 -11 -10 -5 0 -7 5 -4 10 3 6 8 10 11 10 2 0 4 -4 4 -10z m-2010 -61
c12 -23 19 -43 17 -45 -5 -6 -47 63 -47 77 0 18 10 8 30 -32z m1629 -8 c-12
-23 -24 -39 -26 -37 -3 2 5 23 17 46 12 23 24 40 27 37 3 -3 -5 -24 -18 -46z
m-1985 -36 c-3 -11 4 -37 15 -57 10 -21 15 -35 10 -32 -25 15 -44 78 -39 129
1 20 1 20 10 0 4 -11 6 -29 4 -40z m2326 -42 c-9 -15 -10 -12 -6 16 3 18 7 43
8 55 1 11 3 4 5 -16 2 -21 -1 -46 -7 -55z m-1854 38 c22 -34 49 -111 38 -111
-11 0 -84 125 -80 136 8 21 13 18 42 -25z m1434 25 c0 -7 -8 -24 -18 -37 -10
-13 -31 -44 -45 -69 -21 -36 -27 -40 -27 -22 0 31 27 92 52 119 24 26 38 29
38 9z m-1863 -23 c-4 -3 -7 0 -7 7 0 7 3 10 7 7 3 -4 3 -10 0 -14z m2235 -5
c-7 -7 -12 -8 -12 -2 0 14 12 26 19 19 2 -3 -1 -11 -7 -17z m-45 -5 c-4 -3 -7
0 -7 7 0 7 3 10 7 7 3 -4 3 -10 0 -14z m73 -77 c0 -2 -8 -10 -17 -17 -16 -13
-17 -12 -4 4 13 16 21 21 21 13z m-88 -173 c-41 -79 -134 -141 -227 -150 -58
-6 -154 17 -175 42 -9 11 1 9 36 -6 70 -31 158 -29 229 5 53 26 116 87 138
134 5 12 12 20 14 18 3 -2 -5 -21 -15 -43z m-1215 0 c-4 -3 -10 -3 -14 0 -3 4
0 7 7 7 7 0 10 -3 7 -7z m90 0 c-4 -3 -10 -3 -14 0 -3 4 0 7 7 7 7 0 10 -3 7
-7z m318 -3 c3 -5 4 -10 1 -10 -3 0 -8 5 -11 10 -3 6 -4 10 -1 10 3 0 8 -4 11
-10z m135 -45 c0 -33 -5 -47 -19 -54 -14 -8 -20 -7 -25 4 -3 9 0 15 9 15 11 0
15 11 15 40 0 22 5 40 10 40 6 0 10 -20 10 -45z m-765 -35 c8 0 12 -6 9 -15
-5 -11 -10 -12 -25 -2 -20 12 -24 42 -11 74 5 13 8 8 10 -19 2 -25 8 -38 17
-38z m425 66 c0 -3 -5 -8 -12 -12 -7 -4 -8 -3 -4 4 7 12 16 16 16 8z m-233
-23 c-4 -3 -10 -3 -14 0 -3 4 0 7 7 7 7 0 10 -3 7 -7z m-700 -84 c51 -17 138
-15 193 4 56 20 62 15 13 -9 -28 -14 -60 -19 -118 -19 -71 0 -86 3 -134 31
-30 17 -62 41 -70 54 -13 19 -6 16 31 -12 26 -20 64 -42 85 -49z m903 31 c0
-7 34 -10 96 -9 58 1 100 -3 106 -9 8 -8 9 -31 2 -77 -10 -66 -8 -75 14 -53 6
6 14 9 17 6 4 -3 -8 -16 -24 -28 -20 -14 -31 -30 -31 -46 0 -13 -4 -24 -9 -24
-4 0 1 45 12 101 17 86 18 102 6 110 -23 14 -395 11 -407 -4 -7 -9 -7 -32 3
-77 24 -120 25 -131 15 -125 -6 3 -10 16 -10 28 0 15 -11 29 -31 41 -34 20
-33 34 1 16 21 -11 22 -10 17 11 -3 13 -9 42 -12 64 -10 59 4 67 120 66 57 -1
95 3 95 9 0 6 5 10 10 10 6 0 10 -5 10 -10z m20 -100 c23 -23 24 -33 10 -61
-12 -22 -59 -26 -78 -7 -18 18 -15 65 6 77 25 15 40 13 62 -9z m-703 4 c-3 -3
-12 -4 -19 -1 -8 3 -5 6 6 6 11 1 17 -2 13 -5z m1360 -1 c-4 -3 -10 -3 -14 0
-3 4 0 7 7 7 7 0 10 -3 7 -7z m-1320 -100 c-4 -3 -7 0 -7 7 0 7 3 10 7 7 3 -4
3 -10 0 -14z m1243 -95 c0 -16 -4 -28 -9 -28 -9 0 -21 59 -20 95 1 31 28 -33
29 -67z m-1194 56 c-3 -9 -6 -25 -6 -37 0 -25 -16 -54 -25 -46 -8 9 17 99 28
99 5 0 6 -7 3 -16z m544 -101 c0 -10 -5 -47 -10 -83 -5 -36 -10 -131 -11 -212
l-1 -146 -30 10 -31 11 6 126 c7 136 23 265 38 294 6 9 16 17 24 17 8 0 15 -8
15 -17z m95 3 c24 10 42 -88 60 -327 6 -85 6 -85 -20 -97 -14 -7 -28 -12 -30
-12 -3 0 -5 28 -5 63 0 59 -14 248 -25 347 -3 25 -2 40 1 33 3 -7 11 -10 19
-7z m598 -27 c4 -16 3 -18 -9 -8 -7 6 -11 15 -8 20 8 13 11 11 17 -12z m-1299
-13 c-3 -9 -12 -16 -20 -16 -11 0 -10 4 4 18 20 22 25 21 16 -2z m1256 -17 c0
-5 -6 -9 -14 -9 -15 0 -28 24 -19 34 7 7 33 -13 33 -25z m-1191 -8 c-3 -6 -10
-7 -18 -2 -7 5 -10 14 -6 21 9 14 29 -2 24 -19z m-24 -40 c66 -17 68 -18 38
-25 -20 -5 -48 -2 -78 8 -61 21 -70 20 -89 -9 -23 -35 -21 -42 22 -64 20 -11
31 -20 24 -21 -7 0 -31 9 -53 20 -36 19 -38 23 -28 43 41 76 49 78 164 48z
m362 12 c-14 -4 -16 -12 -11 -41 5 -30 2 -41 -15 -56 -12 -11 -24 -16 -28 -12
-4 4 3 16 17 26 20 15 22 22 14 42 -14 31 -7 48 19 47 17 -1 18 -2 4 -6z m505
-40 c-3 -34 0 -42 17 -48 12 -3 21 -11 21 -16 0 -15 -12 -11 -36 12 -18 17
-21 26 -13 46 10 26 4 47 -12 38 -5 -4 -9 -1 -9 5 0 6 8 10 18 8 13 -3 16 -12
14 -45z m477 25 c8 -13 20 -33 28 -45 14 -21 13 -23 -20 -36 -59 -25 -84 -28
-42 -6 22 12 42 23 43 25 2 1 -4 16 -14 33 -20 34 -45 39 -104 18 -19 -7 -51
-10 -70 -7 -34 6 -33 7 30 22 96 24 132 23 149 -4z m-414 -65 c-3 -9 -1 -20 6
-24 8 -5 8 -12 0 -25 -10 -18 -10 -18 -12 1 -7 76 -6 97 3 81 5 -10 7 -24 3
-33z m-650 -53 c-6 -9 -9 -9 -16 1 -10 17 0 34 13 21 6 -6 7 -16 3 -22z m-478
3 c-4 -3 -7 0 -7 7 0 7 3 10 7 7 3 -4 3 -10 0 -14z m33 -82 c-18 -39 -31 -73
-29 -75 2 -2 20 -13 39 -25 45 -27 32 -27 -20 -1 -22 11 -40 26 -40 34 0 28
63 157 73 147 6 -6 -3 -35 -23 -80z m1563 9 l36 -81 -32 -19 c-42 -26 -57 -26
-24 0 l26 20 -30 65 c-16 35 -29 71 -29 80 0 34 18 11 53 -65z m-1153 49 c0
-5 5 -7 10 -4 6 3 10 1 10 -4 0 -16 -16 -13 -30 4 -9 10 -9 15 -1 15 6 0 11
-5 11 -11z m720 -11 c0 -16 -3 -19 -11 -11 -6 6 -8 16 -5 22 11 17 16 13 16
-11z m-831 -7 c9 -6 10 -10 2 -16 -15 -8 -41 1 -41 15 0 12 20 13 39 1z m83
-5 c7 4 8 2 4 -4 -11 -18 -26 -14 -25 6 0 10 3 12 6 4 2 -6 10 -9 15 -6z m795
-23 c-3 -3 -10 -2 -16 2 -7 4 -7 10 2 20 10 11 13 11 15 -2 2 -8 1 -17 -1 -20z
m51 25 c-2 -6 -10 -14 -16 -16 -7 -2 -10 2 -6 12 7 18 28 22 22 4z m43 -11
c-13 -13 -26 -3 -16 12 3 6 11 8 17 5 6 -4 6 -10 -1 -17z m-921 0 c0 -8 -7
-14 -15 -14 -16 0 -19 9 -8 20 11 11 23 8 23 -6z m877 -71 c-7 -19 -38 -21
-55 -4 -17 17 -15 24 8 25 11 1 18 -2 15 -8 -4 -5 -1 -9 4 -9 6 0 11 8 11 17
0 13 3 14 11 6 7 -7 9 -19 6 -27z m-877 -1 c-14 -17 -46 -20 -55 -4 -10 16 4
24 17 11 14 -14 32 -16 24 -3 -4 5 0 11 6 14 19 6 22 -1 8 -18z m-383 -107
c-3 -8 -6 -5 -6 6 -1 11 2 17 5 13 3 -3 4 -12 1 -19z m1613 18 c0 -3 -4 -8
-10 -11 -5 -3 -10 -1 -10 4 0 6 5 11 10 11 6 0 10 -2 10 -4z m-42 -57 l22 -37
-46 -51 c-54 -60 -79 -69 -33 -11 l32 40 -19 36 c-19 35 -19 36 0 50 11 7 20
13 21 11 1 -1 11 -18 23 -38z m-1490 3 c2 -13 -3 -25 -12 -28 -24 -9 -19 -29
14 -67 17 -19 30 -38 30 -41 0 -16 -43 18 -70 55 -28 40 -29 41 -12 75 18 39
45 42 50 6z m609 -95 c-18 -27 -70 -55 -119 -62 -25 -4 -22 -2 13 10 25 8 61
30 80 49 38 37 50 39 26 3z m312 -54 c2 -2 0 -3 -6 -3 -6 0 -21 9 -34 21 l-24
20 30 -17 c17 -10 32 -19 34 -21z m-702 -25 c15 -14 19 -24 12 -32 -5 -6 -16
-20 -23 -31 -12 -16 -19 -18 -43 -9 -23 8 -28 15 -27 42 1 23 -3 33 -17 37
-10 4 -19 10 -19 15 0 17 94 -2 117 -22z m1117 10 c12 -47 7 -78 -13 -78 -10
0 -33 -3 -50 -6 -28 -6 -32 -3 -45 27 -13 30 -13 36 1 51 15 17 37 24 79 27
15 1 24 -6 28 -21z m-377 6 c-3 -3 -12 -4 -19 -1 -8 3 -5 6 6 6 11 1 17 -2 13
-5z m-777 -114 c43 -12 78 -36 68 -46 -4 -4 -34 1 -66 10 -32 9 -92 16 -133
16 -67 1 -72 2 -55 15 23 17 132 20 186 5z m1254 4 c34 -13 13 -24 -46 -24
-34 0 -90 -7 -126 -16 -63 -16 -85 -13 -64 8 27 27 191 49 236 32z m-1009 -41
c19 -13 19 -13 0 -13 -31 0 -85 23 -85 36 0 15 50 1 85 -23z m675 24 c0 -13
-97 -54 -106 -45 -8 9 31 36 66 46 19 6 36 11 38 11 1 1 2 -5 2 -12z m-143
-34 c-4 -3 -7 0 -7 7 0 7 3 10 7 7 3 -4 3 -10 0 -14z m-801 -9 c19 -9 34 -23
34 -30 0 -17 2 -17 -50 1 -23 8 -76 15 -116 15 -67 0 -94 10 -61 23 30 13 160
6 193 -9z m1329 1 c0 -5 -29 -11 -65 -12 -36 -2 -87 -10 -114 -18 -26 -9 -50
-14 -53 -11 -9 9 9 28 41 42 36 16 191 15 191 -1z m-2 -31 c20 -4 37 -11 37
-15 0 -5 -17 -9 -37 -9 -21 0 -65 -7 -98 -15 -87 -20 -100 9 -15 33 43 13 64
14 113 6z m-1384 -17 c34 -17 42 -42 10 -33 -13 4 -63 12 -111 18 -48 6 -85
15 -82 19 8 14 156 10 183 -4z m292 -36 l54 -8 -40 -18 c-22 -9 -57 -20 -77
-23 -31 -4 -43 0 -72 26 l-35 31 31 19 c31 20 31 20 58 0 15 -11 52 -23 81
-27z m829 9 c25 -16 58 -39 73 -50 l28 -22 -27 -47 c-15 -25 -30 -49 -33 -54
-6 -6 -161 9 -168 17 -2 1 -6 17 -9 34 l-7 32 36 -15 c49 -20 79 -19 111 6 31
24 34 64 7 78 -14 8 -23 5 -42 -15 -21 -23 -30 -25 -75 -21 -27 3 -68 13 -90
23 l-39 17 51 7 c27 4 63 15 80 23 40 22 53 21 104 -13z m-1261 0 c42 -6 71
-16 85 -29 25 -25 15 -26 -63 -7 -31 8 -73 17 -94 21 -21 3 -35 10 -32 16 8
11 22 11 104 -1z m1616 0 c3 -5 -4 -12 -17 -15 -184 -41 -178 -40 -178 -25 0
30 178 67 195 40z m-1377 -35 c-9 -19 -8 -29 6 -49 22 -35 61 -43 113 -24 45
16 49 14 34 -25 -10 -25 -19 -28 -121 -42 l-45 -6 -27 49 c-16 28 -28 55 -28
61 0 8 67 61 77 61 1 0 -2 -11 -9 -25z m-257 -26 c39 -13 89 -56 89 -76 0 -11
-6 -11 -30 2 -20 10 -58 15 -120 15 -89 0 -180 15 -180 30 0 13 102 38 156 39
28 1 66 -4 85 -10z m1764 -12 l40 -14 -25 -13 c-15 -9 -73 -16 -145 -20 -68
-3 -130 -11 -142 -18 -27 -15 -29 -5 -7 27 30 42 90 63 169 57 39 -3 88 -11
110 -19z m-2015 -32 c0 -3 -7 -17 -16 -31 -10 -15 -13 -29 -8 -34 5 -5 52 -17
104 -26 74 -13 131 -15 255 -11 140 5 365 34 421 53 14 5 16 4 8 -5 -24 -26
-338 -71 -494 -71 -98 0 -202 14 -278 35 l-52 16 20 39 c17 34 40 53 40 35z
m2095 -25 c25 -48 20 -57 -35 -69 -124 -27 -201 -33 -330 -28 -135 6 -377 39
-415 58 -15 7 -11 8 20 4 334 -44 364 -47 500 -42 138 5 255 23 255 40 0 4 -7
21 -15 37 -9 17 -11 30 -6 30 6 0 17 -13 26 -30z m-1325 -80 c0 -24 -5 -31
-27 -36 -16 -3 -44 -10 -63 -14 -19 -5 -104 -16 -188 -25 -116 -13 -163 -15
-195 -7 -23 6 -64 14 -92 17 -63 8 -244 53 -265 66 -16 11 -16 11 135 -17 155
-28 378 -14 688 45 4 0 7 -12 7 -29z m830 -20 c133 -15 356 -8 445 14 74 19
93 20 79 6 -12 -12 -279 -70 -319 -70 -14 0 -25 -5 -25 -11 0 -8 -19 -9 -63
-5 -35 4 -88 9 -118 11 -77 4 -241 25 -275 34 -23 6 -30 14 -32 38 l-3 30 99
-18 c55 -9 150 -23 212 -29z m-765 20 c3 -5 -1 -10 -9 -10 -9 0 -16 5 -16 10
0 6 4 10 9 10 6 0 13 -4 16 -10z m415 0 c0 -5 -5 -10 -11 -10 -5 0 -7 5 -4 10
3 6 8 10 11 10 2 0 4 -4 4 -10z m-1134 -78 c-27 -6 -163 27 -176 43 -8 9 19 5
91 -13 57 -15 95 -28 85 -30z m1999 39 c-19 -18 -130 -41 -215 -46 l-85 -4 65
10 c36 5 97 18 135 28 81 21 113 25 100 12z m-2215 -11 c0 -5 -7 -10 -16 -10
-8 0 -12 5 -9 10 3 6 10 10 16 10 5 0 9 -4 9 -10z m313 -37 c-13 -2 -35 -2
-50 0 -16 2 -5 4 22 4 28 0 40 -2 28 -4z"/>
<path d="M1473 1484 c-9 -24 10 -49 38 -49 20 0 24 5 24 30 0 25 -4 30 -28 33
-18 2 -29 -2 -34 -14z"/>
</g>
</svg>
