 <svg  version="1.0" xmlns="http://www.w3.org/2000/svg"  width="900.000000pt" height="1212.000000pt" viewBox="0 0 900.000000 1212.000000"  preserveAspectRatio="xMidYMid meet">  <g transform="translate(0.000000,1212.000000) scale(0.100000,-0.100000)" fill="#ff0000" stroke="none"> <path d="M4455 11931 c-22 -4 -58 -13 -80 -20 -41 -14 -78 -25 -175 -54 -276 -83 -517 -179 -775 -309 -160 -81 -399 -222 -520 -307 -38 -27 -101 -69 -139 -92 -112 -68 -162 -127 -196 -229 -5 -14 -18 -50 -30 -80 -12 -30 -25 -68 -30 -85 -5 -16 -18 -55 -30 -85 -12 -30 -25 -66 -30 -80 -5 -14 -18 -50 -30 -80 -12 -30 -25 -68 -30 -85 -5 -16 -18 -55 -30 -85 -12 -30 -25 -68 -30 -85 -11 -39 -29 -91 -46 -133 -8 -18 -14 -39 -14 -47 0 -8 -6 -29 -14 -47 -8 -18 -29 -80 -46 -138 -18 -58 -38 -123 -44 -145 -28 -90 -67 -223 -120 -410 -20 -72 -56 -214 -91 -355 -31 -128 -65 -341 -65 -410 0 -43 27 -176 41 -202 6 -10 21 -51 33 -91 31 -95 100 -247 160 -352 78 -139 155 -255 258 -392 129 -172 292 -352 306 -338 4 4 0 12 -8 18 -8 7 -33 34 -54 61 -22 26 -52 62 -68 80 -37 40 -161 201 -223 290 -97 141 -182 295 -266 481 -85 190 -115 367 -86 517 9 46 23 128 32 183 24 150 98 416 180 645 20 57 35 101 56 170 12 36 27 81 34 100 7 19 20 62 30 95 9 33 23 76 30 95 7 19 20 62 30 95 9 33 23 76 30 95 29 81 37 107 45 135 11 39 38 111 49 133 5 9 19 42 31 72 27 67 72 166 110 240 112 221 166 278 435 461 253 172 475 296 696 389 68 29 133 56 144 61 39 17 199 70 280 94 33 9 74 21 90 25 68 20 183 40 227 40 63 0 218 -32 308 -65 79 -28 106 -37 135 -45 113 -31 469 -195 630 -289 28 -16 67 -39 87 -50 21 -11 57 -33 80 -48 24 -15 51 -32 60 -38 418 -253 434 -270 591 -615 28 -61 91 -215 113 -272 38 -101 47 -125 60 -156 8 -18 14 -39 14 -47 0 -8 6 -29 14 -47 17 -42 35 -94 46 -133 8 -28 17 -55 45 -135 7 -19 27 -82 45 -140 18 -58 38 -121 45 -140 23 -64 119 -372 152 -490 9 -30 22 -75 29 -100 13 -46 34 -130 53 -211 36 -159 37 -333 1 -439 -49 -147 -212 -482 -276 -567 -13 -17 -24 -35 -24 -38 0 -4 -8 -17 -17 -30 -10 -12 -25 -33 -33 -45 -38 -57 -153 -207 -211 -272 -65 -75 -270 -282 -371 -376 -64 -59 -66 -68 -5 -19 72 57 129 109 257 237 142 141 182 185 260 285 30 39 57 72 60 75 3 3 20 28 39 55 19 28 53 77 75 110 73 105 160 257 215 370 29 61 59 122 67 137 8 14 14 33 14 42 0 9 4 24 10 34 25 43 54 147 67 236 6 42 -9 148 -32 231 -8 28 -21 82 -30 120 -41 178 -85 346 -120 460 -6 22 -20 67 -29 100 -10 33 -22 74 -28 90 -5 17 -14 44 -18 60 -36 122 -43 146 -75 235 -7 19 -42 125 -79 235 -88 268 -96 292 -129 380 -8 22 -21 58 -30 80 -8 22 -22 59 -31 83 -9 23 -23 61 -32 85 -9 23 -20 50 -25 60 -5 9 -20 50 -33 91 -14 41 -29 82 -34 92 -6 11 -13 26 -16 34 -24 60 -104 129 -275 235 -35 22 -73 47 -86 55 -13 8 -105 65 -206 126 -185 111 -424 234 -601 308 -18 8 -49 21 -68 29 -19 8 -55 23 -80 32 -25 9 -58 22 -75 29 -16 7 -77 27 -135 45 -58 19 -121 39 -140 46 -122 43 -214 58 -285 46z"/> <path d="M4410 11274 c-115 -22 -251 -73 -515 -194 -216 -99 -378 -194 -550 -324 -103 -77 -304 -278 -382 -381 -58 -77 -166 -237 -189 -280 -5 -11 -30 -56 -54 -100 -24 -44 -48 -89 -53 -100 -6 -11 -14 -27 -19 -35 -4 -8 -11 -22 -14 -30 -3 -8 -12 -27 -20 -42 -8 -14 -14 -33 -14 -41 0 -8 -7 -20 -15 -27 -18 -15 -20 -63 -2 -58 6 3 13 14 15 26 2 11 10 26 18 32 8 7 14 21 14 31 0 10 5 21 11 24 5 4 14 17 20 28 5 12 13 29 18 37 5 8 27 44 48 79 160 266 321 462 554 672 198 179 450 329 759 454 25 10 59 24 77 31 17 8 38 14 46 14 9 0 18 4 22 9 3 5 20 12 38 16 17 4 52 13 77 20 126 38 231 45 344 24 59 -11 160 -40 201 -58 11 -5 45 -19 75 -31 110 -45 300 -135 406 -194 103 -57 311 -205 394 -280 129 -119 191 -181 271 -274 49 -56 89 -106 89 -110 0 -4 10 -19 23 -32 25 -30 54 -70 112 -156 56 -85 64 -96 75 -119 6 -11 19 -33 30 -50 11 -16 24 -40 29 -52 5 -11 15 -24 20 -28 6 -3 11 -15 11 -26 0 -10 7 -19 15 -19 8 0 15 8 15 19 0 10 -7 24 -15 31 -8 7 -15 19 -15 27 0 8 -13 37 -29 66 -16 29 -39 70 -51 92 -12 22 -29 52 -38 67 -80 128 -103 163 -156 233 -184 246 -407 457 -654 619 -70 45 -134 86 -142 90 -8 4 -42 22 -75 41 -201 113 -500 232 -661 263 -70 14 -77 14 -164 -4z"/> <path d="M6410 9696 c0 -27 15 -42 25 -26 8 13 -3 50 -16 50 -5 0 -9 -11 -9 -24z"/> <path d="M2550 9623 c0 -22 2 -25 10 -13 13 20 13 40 0 40 -5 0 -10 -12 -10 -27z"/> <path d="M3476 9620 c-27 -5 -54 -14 -59 -19 -6 -6 -17 -11 -24 -11 -24 0 -122 -79 -164 -133 -86 -108 -119 -226 -99 -351 14 -88 33 -136 83 -204 68 -94 166 -158 287 -188 311 -76 599 183 549 494 -28 172 -129 308 -284 381 -53 25 -82 32 -153 36 -48 2 -109 0 -136 -5z"/> <path d="M5345 9621 c-142 -21 -274 -130 -347 -288 -30 -65 -31 -74 -32 -193 0 -122 1 -127 32 -190 79 -157 241 -255 417 -253 63 1 172 26 189 43 5 5 16 10 22 10 44 0 177 127 217 207 57 112 70 226 37 330 -39 125 -96 202 -193 266 -93 60 -222 85 -342 68z"/> <path d="M4400 8570 c-36 -4 -108 -18 -160 -30 -52 -12 -113 -25 -135 -29 -22 -5 -60 -13 -85 -20 -25 -7 -72 -19 -105 -28 -33 -8 -78 -21 -100 -27 -22 -7 -67 -21 -100 -31 -33 -9 -71 -22 -85 -27 -14 -6 -38 -14 -55 -19 -16 -4 -75 -24 -130 -44 -55 -20 -111 -40 -125 -45 -14 -5 -50 -18 -80 -30 -30 -12 -65 -24 -77 -27 -12 -3 -28 -11 -34 -19 -6 -8 -20 -14 -29 -14 -25 0 -50 -10 -50 -21 0 -15 57 -10 70 6 7 8 24 15 37 15 14 0 46 7 72 14 25 8 73 22 106 31 33 9 94 28 135 41 305 101 456 143 610 170 52 9 118 22 145 29 162 42 206 48 328 42 67 -3 138 -10 157 -16 19 -5 58 -15 85 -21 28 -6 79 -18 115 -26 66 -16 158 -37 240 -54 25 -6 56 -14 70 -19 14 -5 72 -23 130 -41 58 -18 121 -38 140 -45 19 -7 62 -20 95 -30 33 -9 78 -23 100 -30 22 -6 67 -20 100 -29 33 -10 73 -24 88 -32 16 -8 40 -14 53 -14 14 0 36 -7 49 -16 13 -9 29 -13 35 -9 16 10 1 25 -26 25 -13 0 -24 4 -24 9 0 5 -10 13 -22 16 -13 4 -48 18 -78 32 -30 14 -66 29 -80 34 -14 4 -50 17 -80 29 -110 42 -136 52 -165 60 -16 5 -61 19 -100 33 -107 37 -263 85 -335 102 -36 9 -79 20 -96 25 -16 6 -50 14 -75 19 -24 5 -64 13 -89 19 -170 41 -321 56 -440 42z"/> <path d="M7653 8458 c-53 -38 -75 -91 -71 -177 3 -72 4 -75 40 -104 32 -26 45 -30 101 -30 45 -1 73 4 91 16 24 16 26 23 26 87 0 97 -18 157 -59 197 -41 40 -82 43 -128 11z"/> <path d="M1250 8452 c-33 -5 -48 -19 -64 -57 -20 -48 -29 -111 -21 -160 8 -58 49 -85 128 -85 51 0 58 3 96 41 35 35 41 47 41 83 -1 108 -86 192 -180 178z"/> <path d="M1790 8253 c0 -33 31 -166 45 -193 7 -14 28 -42 46 -61 60 -63 45 -5 -36 140 -14 24 -25 57 -25 72 0 33 -9 59 -21 59 -5 0 -9 -8 -9 -17z"/> <path d="M1587 8186 c-10 -72 -9 -394 2 -400 17 -11 21 28 20 212 -1 201 -10 275 -22 188z"/> <path d="M1382 8125 c-48 -48 -122 -56 -177 -19 -39 27 -42 19 -49 -118 -3 -73 -10 -187 -15 -253 -5 -66 -10 -225 -10 -352 -1 -189 -4 -240 -17 -273 -18 -44 -32 -50 -56 -22 -36 40 -48 118 -48 319 0 219 0 219 -73 187 -54 -23 -94 -59 -120 -109 -19 -37 -21 -55 -20 -270 1 -212 3 -239 28 -350 15 -66 29 -145 32 -175 5 -59 21 -115 48 -167 16 -32 99 -131 122 -146 7 -4 18 -13 25 -20 7 -7 21 -16 31 -20 9 -3 17 -11 17 -17 0 -5 8 -10 18 -10 10 0 23 -5 29 -11 13 -13 45 -32 89 -52 17 -8 35 -20 38 -26 4 -6 25 -11 47 -11 21 0 39 -4 39 -10 0 -5 -24 -10 -54 -10 -40 0 -55 4 -60 16 -10 25 -28 4 -24 -28 3 -20 1 -27 -8 -24 -7 3 -30 8 -51 12 l-38 7 44 -41 c52 -48 131 -92 186 -103 22 -4 59 -13 82 -20 36 -11 50 -10 96 4 30 9 65 17 78 17 14 0 34 7 45 15 10 8 27 15 37 15 18 0 79 38 85 53 2 4 8 7 13 7 13 0 99 90 110 115 5 11 13 27 18 35 35 61 40 92 47 327 7 255 10 269 68 348 13 17 25 38 29 48 14 38 29 5 23 -47 -4 -28 -9 -80 -12 -116 l-5 -65 20 25 c25 31 29 52 37 170 8 115 -3 161 -52 218 -31 37 -41 42 -78 42 -51 0 -90 -26 -143 -96 -69 -91 -94 -114 -125 -114 -21 0 -28 5 -28 19 0 31 55 144 109 227 28 42 51 80 51 85 0 16 -76 81 -117 100 -23 10 -58 19 -77 19 -30 0 -39 -7 -68 -47 -43 -60 -69 -112 -93 -188 -23 -73 -64 -139 -89 -143 -18 -4 -19 3 -13 129 4 74 11 186 16 249 12 137 14 687 4 693 -5 2 -23 -10 -41 -28z m176 -1952 c-10 -2 -26 -2 -35 0 -10 3 -2 5 17 5 19 0 27 -2 18 -5z"/> <path d="M2985 8140 c-17 -7 -14 -9 13 -9 20 -1 31 3 27 9 -7 12 -13 12 -40 0z"/> <path d="M7580 7863 c1 -282 8 -391 37 -563 9 -58 17 -130 18 -160 0 -49 -2 -55 -21 -58 -29 -4 -47 28 -109 188 -43 112 -93 174 -157 198 -43 15 -83 1 -145 -53 -53 -45 -55 -73 -10 -125 17 -21 51 -70 74 -108 61 -103 69 -205 15 -188 -22 7 -31 18 -117 137 -85 119 -150 134 -237 51 l-36 -34 4 -140 c5 -182 21 -217 36 -78 4 38 44 39 75 3 61 -70 62 -78 48 -355 -7 -147 -6 -170 8 -192 10 -14 17 -36 17 -49 0 -13 7 -32 15 -43 8 -10 15 -27 15 -37 0 -21 143 -167 163 -167 8 0 20 -7 27 -15 7 -8 21 -15 32 -15 10 0 30 -7 44 -16 37 -25 280 -25 317 -1 15 9 33 17 40 17 8 0 22 9 32 20 10 11 22 20 27 20 14 0 52 39 45 46 -3 4 -21 0 -39 -9 -76 -36 -90 -39 -103 -20 -8 10 -12 30 -10 46 3 21 -1 27 -16 27 -34 0 -20 18 19 24 34 6 83 25 122 48 8 4 22 11 30 14 8 3 22 10 30 15 8 5 22 12 30 16 26 11 93 65 137 109 42 44 113 172 113 207 0 10 7 55 15 100 47 270 49 283 49 482 0 229 -12 290 -68 343 -34 32 -118 68 -135 57 -7 -4 -11 -51 -11 -126 0 -135 -17 -351 -31 -387 -6 -16 -15 -22 -31 -20 -41 6 -50 60 -59 373 -5 160 -13 331 -19 382 -5 50 -10 134 -10 187 0 52 -4 97 -9 100 -4 3 -26 -4 -47 -15 -50 -26 -128 -22 -171 9 -17 12 -34 22 -37 22 -3 0 -6 -120 -6 -267z m48 -1688 c-7 -8 -138 -8 -145 -1 -4 3 29 6 72 6 43 0 76 -2 73 -5z"/> <path d="M2890 8105 c-10 -12 -9 -15 8 -15 29 0 53 11 46 21 -8 14 -40 11 -54 -6z"/> <path d="M4481 7900 c-11 -16 -21 -32 -21 -36 0 -4 -6 -15 -14 -23 -7 -9 -29 -43 -47 -76 -31 -57 -32 -65 -33 -170 -1 -88 3 -118 18 -150 10 -22 27 -59 38 -83 11 -23 23 -40 27 -37 5 2 11 60 14 127 7 128 26 229 44 235 16 6 43 -153 43 -258 0 -53 3 -99 6 -102 10 -10 77 100 97 158 22 65 22 128 -2 196 -19 54 -63 141 -86 169 -7 8 -15 24 -19 35 -3 11 -14 25 -25 32 -16 10 -22 7 -40 -17z"/> <path d="M1752 7868 c-7 -7 -12 -22 -12 -35 0 -30 35 -31 50 -2 21 38 -9 66 -38 37z"/> <path d="M1577 7673 c-11 -10 -8 -61 4 -68 14 -9 79 4 79 16 0 5 -11 14 -25 19 -14 5 -28 17 -31 25 -7 16 -17 19 -27 8z"/> <path d="M7402 7637 c-9 -10 -8 -18 2 -32 18 -25 48 -13 44 17 -4 27 -30 35 -46 15z"/> <path d="M4137 7503 c-12 -12 -7 -73 8 -110 23 -53 60 -99 97 -118 35 -18 128 -45 154 -45 24 0 9 56 -45 169 -23 48 -74 86 -132 99 -58 14 -73 15 -82 5z"/> <path d="M4770 7472 c-69 -26 -89 -42 -125 -104 -30 -51 -39 -80 -36 -116 1 -18 121 -7 168 15 73 34 133 112 136 176 l2 42 -50 2 c-27 1 -70 -6 -95 -15z"/> <path d="M8334 7456 c-9 -23 10 -71 30 -74 16 -4 46 14 46 27 0 3 -16 19 -35 34 -29 23 -36 25 -41 13z"/> <path d="M612 7406 c-12 -27 -7 -36 19 -36 20 0 28 17 21 43 -6 24 -27 21 -40 -7z"/> <path d="M335 7281 c-71 -14 -165 -77 -165 -113 0 -20 45 -45 130 -73 30 -10 60 -20 65 -22 34 -14 145 -94 145 -105 0 -4 5 -8 10 -8 10 0 50 -36 50 -44 0 -3 12 -18 26 -33 14 -15 30 -37 35 -48 5 -11 13 -27 18 -35 5 -8 17 -32 27 -53 24 -49 32 -22 11 37 -18 48 -27 156 -26 308 0 59 -5 117 -11 128 -26 49 -201 83 -315 61z"/> <path d="M8510 7280 c-25 -4 -67 -16 -95 -27 l-50 -19 -1 -135 c0 -85 -5 -143 -13 -157 -7 -14 -10 -36 -6 -53 6 -28 8 -29 20 -12 12 16 17 16 36 4 20 -12 24 -11 34 3 7 9 15 16 18 16 2 0 27 21 53 46 83 79 186 140 292 174 33 10 42 18 42 36 0 25 -61 79 -121 106 -44 20 -149 29 -209 18z"/> <path d="M4200 7182 c-68 -33 -100 -54 -100 -65 0 -14 84 -47 121 -47 49 0 149 70 149 105 0 10 -75 36 -103 35 -6 -1 -37 -13 -67 -28z"/> <path d="M4492 7188 c2 -13 8 -23 13 -23 6 0 11 10 13 23 2 15 -2 22 -13 22 -11 0 -15 -7 -13 -22z"/> <path d="M4655 7192 c-16 -4 -30 -10 -30 -14 0 -7 70 -61 117 -91 33 -20 106 -32 142 -23 21 5 26 13 26 35 0 22 -10 37 -41 62 -36 28 -49 32 -112 35 -40 2 -85 0 -102 -4z"/> <path d="M4363 7087 c-61 -64 -83 -99 -83 -132 0 -30 19 -32 70 -7 50 25 80 75 80 133 0 26 -4 50 -8 53 -5 3 -31 -18 -59 -47z"/> <path d="M4577 7123 c-13 -12 6 -78 35 -123 31 -47 95 -87 122 -77 13 5 14 11 4 34 -16 37 -65 100 -108 140 -37 35 -42 37 -53 26z"/> <path d="M4477 7021 c-23 -66 -22 -147 3 -205 12 -25 25 -46 29 -46 14 0 36 41 55 101 16 52 16 59 0 104 -18 54 -43 94 -59 95 -6 0 -18 -22 -28 -49z"/> <path d="M2696 6941 c-4 -6 -3 -18 2 -27 8 -15 10 -14 16 2 8 20 -8 42 -18 25z"/> <path d="M6290 6936 c0 -8 5 -18 10 -21 6 -3 10 3 10 14 0 12 -4 21 -10 21 -5 0 -10 -6 -10 -14z"/> <path d="M6177 6813 c-4 -3 -7 -41 -7 -83 0 -92 27 -202 77 -320 44 -101 48 -119 48 -185 0 -72 -5 -87 -67 -179 -14 -23 -24 -44 -22 -48 7 -11 52 -10 73 2 27 14 161 40 209 40 36 0 44 -4 52 -25 5 -14 11 -25 14 -25 2 0 36 17 76 37 l71 37 -23 18 c-44 33 -127 52 -260 58 -5 0 -8 33 -8 73 0 52 -8 92 -26 142 -14 39 -29 81 -34 95 -45 130 -151 370 -164 370 -2 0 -6 -3 -9 -7z"/> <path d="M2814 6783 c-3 -10 -12 -31 -19 -48 -40 -87 -65 -146 -85 -195 -12 -30 -28 -68 -35 -85 -35 -82 -48 -142 -49 -228 l-1 -92 -40 -2 c-60 -4 -157 -24 -185 -39 -14 -7 -34 -15 -45 -19 -19 -6 -18 -8 8 -29 47 -38 92 -47 130 -28 47 24 90 22 285 -14 28 -6 32 -4 32 15 0 12 -11 38 -24 59 -13 21 -33 59 -45 86 -24 51 -22 62 20 174 62 163 113 401 96 446 -8 21 -36 20 -43 -1z"/> <path d="M5018 6301 c-8 -10 -25 -21 -38 -23 -21 -2 -26 -10 -32 -48 -13 -90 -30 -433 -26 -525 4 -102 0 -111 -51 -93 -13 5 -74 16 -135 25 -150 22 -362 21 -501 -1 -60 -10 -119 -19 -130 -20 -19 -1 -20 6 -23 273 -2 199 -6 278 -15 289 -6 8 -12 31 -12 50 0 19 -5 37 -11 39 -6 2 -8 -10 -6 -31 4 -35 4 -35 -27 -26 -17 4 -35 11 -40 14 -5 4 -17 -1 -25 -10 -14 -14 -16 -70 -16 -480 l0 -464 26 -10 c35 -14 98 -12 112 2 29 29 8 144 -32 177 -26 22 -19 66 15 100 32 32 56 42 110 44 l33 2 13 -83 c19 -119 77 -232 120 -232 20 0 16 15 -16 62 -45 69 -62 126 -59 198 l3 65 65 8 c69 9 405 2 433 -9 25 -9 30 -40 16 -112 -12 -66 -34 -121 -71 -175 -17 -24 -18 -28 -4 -33 44 -17 106 107 124 246 l7 55 44 -3 c24 -1 56 -12 71 -22 16 -11 33 -20 38 -20 22 0 25 -83 3 -100 -4 -3 -17 -18 -29 -34 -25 -32 -31 -113 -10 -134 15 -15 92 -16 119 -1 20 10 20 16 14 512 -3 276 -8 512 -11 525 -5 27 -28 29 -46 3z"/> <path d="M6545 6290 c10 -11 25 -20 33 -20 9 0 6 7 -11 20 -14 11 -29 20 -33 20 -4 0 1 -9 11 -20z"/> <path d="M2470 6285 c-10 -13 -9 -15 9 -15 12 0 21 6 21 15 0 8 -4 15 -9 15 -5 0 -14 -7 -21 -15z"/> <path d="M3160 6197 c-12 -39 -29 -92 -36 -116 -8 -25 -14 -53 -14 -64 0 -11 -6 -43 -14 -71 -8 -28 -22 -85 -31 -126 -23 -106 -44 -196 -61 -262 -8 -32 -21 -86 -30 -120 -43 -174 -95 -356 -131 -463 -14 -38 -27 -79 -30 -90 -4 -11 -32 -63 -63 -115 -109 -181 -120 -206 -120 -257 0 -89 91 -186 206 -219 33 -9 64 -20 69 -24 15 -11 75 -21 75 -12 0 4 -22 15 -48 24 -27 10 -60 28 -74 40 -14 13 -42 37 -62 53 -47 38 -76 84 -76 121 0 22 12 41 46 74 42 41 110 124 141 175 36 58 66 149 83 253 8 50 13 75 40 197 6 28 15 71 20 98 5 26 13 62 19 80 5 17 17 68 26 112 9 44 23 106 31 137 8 32 14 67 14 79 0 12 6 51 14 88 40 188 61 460 37 475 -5 3 -19 -27 -31 -67z"/> <path d="M5833 6244 c-10 -27 6 -322 22 -414 9 -47 22 -125 31 -175 19 -110 42 -214 60 -279 8 -26 14 -59 14 -71 0 -13 4 -35 10 -49 5 -15 14 -52 20 -84 57 -319 110 -436 284 -627 25 -27 46 -57 46 -66 0 -23 -50 -89 -91 -120 -35 -27 -160 -89 -179 -89 -5 0 -10 -5 -10 -11 0 -28 108 5 249 74 42 20 116 102 127 139 10 31 8 42 -18 94 -15 32 -34 68 -41 79 -107 170 -164 288 -201 415 -73 253 -105 371 -151 560 -7 30 -19 75 -26 100 -7 25 -15 63 -19 85 -4 22 -13 63 -20 90 -28 117 -39 164 -55 240 -10 44 -19 90 -21 103 -5 26 -22 29 -31 6z"/> <path d="M6750 6244 c-29 -16 -32 -32 -8 -48 20 -12 44 6 50 38 4 24 -10 28 -42 10z"/> <path d="M2242 6209 c2 -12 11 -27 20 -33 13 -8 23 -5 43 14 l27 25 -29 6 c-54 13 -65 10 -61 -12z"/> <path d="M6930 6195 c-46 -74 -71 -137 -77 -195 -5 -51 -3 -60 10 -60 10 0 19 12 23 28 8 32 62 140 82 164 16 19 13 90 -4 95 -7 2 -22 -12 -34 -32z"/> <path d="M2040 6199 c0 -24 43 -119 78 -169 13 -19 28 -45 33 -57 14 -36 29 -27 29 17 0 41 -45 150 -84 203 -24 32 -56 36 -56 6z"/> <path d="M895 6188 c-9 -23 2 -51 17 -46 18 6 20 22 4 43 -14 19 -15 19 -21 3z"/> <path d="M8083 6171 c-10 -15 -9 -22 2 -31 19 -16 35 -4 35 26 0 29 -20 32 -37 5z"/> <path d="M7704 6149 c-3 -6 -1 -16 5 -22 8 -8 11 -7 11 5 0 9 8 19 18 21 13 4 12 5 -5 6 -12 0 -25 -4 -29 -10z"/> <path d="M1990 6092 c0 -30 133 -252 151 -252 28 0 -8 87 -90 218 -33 52 -61 68 -61 34z"/> <path d="M7002 6076 c-12 -15 -42 -70 -67 -121 -35 -70 -44 -98 -37 -111 8 -14 10 -12 16 11 4 15 18 42 31 59 13 17 28 42 34 56 6 14 15 32 20 40 38 65 41 113 3 66z"/> <path d="M971 5961 c-11 -51 3 -162 26 -206 6 -11 20 -41 32 -66 11 -25 31 -57 44 -71 13 -14 27 -34 32 -44 4 -11 9 -14 12 -8 2 7 -5 27 -16 45 -20 35 -44 84 -75 153 -17 40 -15 88 7 114 8 10 6 22 -6 45 -9 18 -17 43 -19 56 -5 44 -26 34 -37 -18z"/> <path d="M7996 5933 c-3 -32 -10 -88 -16 -126 -19 -129 -7 -168 25 -79 35 99 42 262 10 262 -9 0 -15 -19 -19 -57z"/> <path d="M6680 5943 c-107 -75 -210 -274 -210 -404 0 -56 18 -66 37 -21 7 15 25 50 42 77 17 28 34 57 38 65 10 21 59 93 111 164 35 48 42 66 40 95 -4 42 -22 49 -58 24z"/> <path d="M2312 5938 c-22 -22 -13 -68 20 -112 18 -22 35 -43 39 -46 7 -6 65 -107 94 -164 11 -21 32 -51 47 -67 27 -30 54 -39 45 -16 -3 8 -8 40 -12 73 -12 94 -95 249 -174 321 -27 26 -42 28 -59 11z"/> <path d="M1120 5885 c0 -12 24 -55 32 -55 4 0 8 14 8 30 0 23 -4 30 -20 30 -11 0 -20 -2 -20 -5z"/> <path d="M7830 5872 c-18 -15 -20 -21 -11 -45 6 -15 14 -27 19 -27 13 0 44 60 38 76 -7 19 -19 18 -46 -4z"/> <path d="M7693 5844 c-7 -18 11 -39 26 -30 17 11 13 46 -4 46 -9 0 -18 -7 -22 -16z"/> <path d="M7885 5559 c-4 -6 -5 -13 -2 -16 7 -7 27 6 27 18 0 12 -17 12 -25 -2z"/> <path d="M7710 5189 c0 -12 -76 -129 -117 -179 -181 -222 -382 -338 -613 -354 -167 -12 -332 22 -466 95 -68 37 -75 36 -39 -1 27 -28 50 -41 145 -84 115 -51 363 -67 485 -32 118 35 235 86 276 122 8 8 19 14 22 14 23 0 209 188 231 232 3 7 15 27 26 43 40 62 76 155 59 155 -5 0 -9 -5 -9 -11z"/> <path d="M3987 5084 c-10 -11 3 -24 24 -24 10 0 19 7 19 15 0 15 -31 21 -43 9z"/> <path d="M5035 5080 c-3 -5 3 -10 15 -10 12 0 18 5 15 10 -3 6 -10 10 -15 10 -5 0 -12 -4 -15 -10z"/> <path d="M4241 5076 c12 -10 59 -15 59 -6 0 5 -14 10 -32 10 -17 0 -29 -2 -27 -4z"/> <path d="M5210 5072 c0 -12 23 -32 37 -32 11 0 11 4 1 20 -13 20 -38 28 -38 12z"/> <path d="M5610 4956 c0 -123 -4 -136 -39 -136 -45 0 -53 -12 -35 -48 18 -37 13 -36 51 -17 53 27 60 42 68 156 7 111 -1 149 -30 149 -12 0 -15 -19 -15 -104z"/> <path d="M3282 4995 c-7 -14 -12 -63 -12 -109 0 -80 1 -84 28 -102 34 -23 75 -45 76 -42 1 2 7 18 13 36 l11 32 -39 6 -39 7 0 67 c0 74 -8 130 -20 130 -4 0 -12 -11 -18 -25z"/> <path d="M4602 5008 c-7 -7 -12 -16 -12 -20 0 -15 15 -8 28 12 13 22 3 27 -16 8z"/> <path d="M3900 4960 c0 -13 28 -25 38 -16 3 4 0 11 -8 16 -20 13 -30 12 -30 0z"/> <path d="M1450 4935 c0 -27 132 -148 216 -199 69 -41 114 -60 244 -106 19 -6 94 -14 165 -17 110 -4 143 -2 215 16 114 28 170 50 227 91 60 42 41 50 -34 14 -76 -36 -137 -53 -257 -72 -245 -39 -485 38 -708 229 -53 46 -68 56 -68 44z"/> <path d="M4495 4805 c-16 -49 -3 -47 -192 -41 -98 2 -227 5 -288 5 l-110 0 -32 -37 c-51 -58 -51 -70 4 -325 21 -97 13 -110 -46 -73 -40 25 -81 34 -81 18 0 -13 29 -35 74 -57 58 -30 96 -69 96 -100 0 -44 21 -113 36 -119 21 -8 27 15 14 50 -7 16 -18 72 -27 124 -24 149 -29 178 -53 293 -25 122 -21 149 27 169 21 9 181 12 593 12 512 1 569 -1 603 -17 l39 -17 -4 -52 c-3 -29 -10 -73 -16 -98 -6 -25 -18 -81 -26 -125 -8 -44 -20 -109 -27 -145 -7 -36 -15 -85 -19 -110 -4 -25 -11 -53 -15 -62 -5 -14 -2 -18 14 -18 13 0 22 8 25 23 28 144 24 136 81 173 30 19 58 34 63 34 5 0 17 9 27 20 13 15 15 24 8 31 -8 8 -24 4 -55 -15 -57 -33 -83 -34 -74 -3 3 12 11 52 16 88 5 37 14 79 20 93 5 15 10 60 10 100 0 59 -4 78 -21 100 -40 51 -60 55 -223 45 -81 -6 -200 -8 -263 -7 -104 3 -117 5 -127 23 -20 36 -43 45 -51 20z"/> <path d="M4450 4528 c-66 -34 -85 -67 -85 -143 0 -57 4 -67 30 -95 58 -60 164 -63 221 -6 79 79 54 199 -50 247 -53 24 -63 24 -116 -3z m139 -62 c21 -22 26 -36 26 -77 0 -45 -4 -54 -33 -80 -48 -43 -100 -41 -147 6 -28 28 -35 43 -35 74 0 42 28 86 64 102 36 15 97 3 125 -25z"/> <path d="M2441 4517 c-9 -12 -7 -16 10 -20 26 -7 51 2 46 17 -5 17 -42 19 -56 3z"/> <path d="M6543 4505 c-3 -9 -3 -18 0 -22 11 -10 57 7 57 22 0 20 -49 20 -57 0z"/> <path d="M2610 4213 c0 -22 2 -25 10 -13 13 20 13 40 0 40 -5 0 -10 -12 -10 -27z"/> <path d="M6387 4215 c-8 -19 13 -31 24 -14 13 20 11 29 -5 29 -8 0 -16 -7 -19 -15z"/> <path d="M6266 4153 c-11 -11 -6 -108 8 -159 8 -27 17 -73 21 -102 7 -57 24 -73 51 -51 23 19 6 125 -44 267 -16 44 -25 56 -36 45z"/> <path d="M2730 4114 c-6 -14 -10 -31 -10 -37 0 -7 -6 -32 -14 -57 -28 -85 -45 -161 -40 -175 9 -21 37 -28 50 -11 6 8 16 48 24 88 7 40 18 100 25 132 7 33 11 65 8 73 -8 22 -33 15 -43 -13z"/> <path d="M4394 3899 c-3 -6 -1 -16 5 -22 8 -8 11 -5 11 11 0 24 -5 28 -16 11z"/> <path d="M4309 3807 c-23 -32 -59 -113 -59 -133 0 -9 -7 -53 -15 -98 -25 -139 -36 -226 -45 -361 -5 -71 -14 -175 -19 -230 -8 -83 -17 -399 -12 -442 2 -23 158 -90 174 -74 4 4 4 75 -1 157 -13 254 15 780 58 1082 15 100 13 106 -35 116 -24 4 -33 1 -46 -17z"/> <path d="M4610 3800 c0 -10 6 -63 14 -117 34 -229 76 -821 76 -1055 0 -120 3 -148 14 -148 18 0 153 67 161 80 3 5 1 70 -5 142 -6 73 -15 196 -20 273 -26 415 -58 646 -105 750 -8 17 -16 40 -20 53 -7 25 -17 27 -48 11 -18 -10 -23 -8 -35 10 -18 26 -32 27 -32 1z"/> <path d="M6437 3743 c-14 -14 -14 -18 0 -39 22 -34 33 -30 33 10 0 41 -11 51 -33 29z"/> <path d="M2567 3733 c-4 -3 -7 -16 -7 -27 -1 -26 -18 -48 -50 -63 -25 -11 -24 -12 10 -12 29 -1 39 5 58 32 24 37 29 77 9 77 -8 0 -17 -3 -20 -7z"/> <path d="M6256 3681 c-15 -16 -16 -25 -6 -60 8 -32 15 -41 33 -41 73 1 87 34 38 88 -35 37 -42 39 -65 13z"/> <path d="M2718 3673 c-16 -19 -38 -57 -38 -67 0 -8 69 -36 86 -36 25 0 18 73 -9 98 -22 21 -24 21 -39 5z"/> <path d="M6590 3538 c-36 -5 -91 -15 -122 -23 -32 -8 -66 -15 -77 -15 -10 0 -43 -7 -72 -16 -117 -33 -155 -44 -173 -46 -11 -2 -21 -9 -24 -15 -3 -10 13 -13 56 -13 32 0 73 -5 90 -11 27 -9 39 -7 84 15 28 14 61 26 72 26 12 0 42 6 67 14 25 8 72 16 105 17 l59 4 57 -85 c63 -94 69 -115 36 -126 -50 -15 -226 -105 -231 -118 -6 -15 47 -8 98 14 17 7 44 18 60 25 17 7 47 20 68 29 21 9 42 16 48 16 5 0 23 10 38 21 l29 21 -46 77 c-58 95 -120 180 -141 189 -9 5 -45 4 -81 0z"/> <path d="M5243 3527 c-23 -10 -40 -43 -28 -55 3 -3 15 -1 26 6 29 18 59 -1 59 -37 0 -16 -7 -31 -15 -35 -9 -3 -15 -18 -15 -34 0 -16 -7 -35 -15 -42 -8 -7 -15 -18 -15 -25 0 -23 131 -135 157 -135 43 0 25 40 -31 71 -27 15 -56 35 -63 45 -16 22 -10 76 13 111 19 30 18 69 -3 103 -19 33 -39 41 -70 27z"/> <path d="M2298 3468 c-76 -106 -121 -190 -110 -208 5 -8 49 -32 98 -54 49 -21 101 -45 116 -52 14 -8 33 -14 41 -14 24 0 31 19 10 27 -10 4 -37 20 -59 35 -23 15 -46 28 -51 28 -4 0 -25 11 -45 25 -44 30 -44 32 26 137 46 70 54 78 82 78 34 0 96 -17 209 -57 103 -37 110 -37 191 -18 82 19 99 31 57 41 -35 8 -112 28 -184 48 -31 9 -65 16 -77 16 -12 0 -47 7 -79 15 -31 8 -85 15 -118 15 l-61 0 -46 -62z"/> <path d="M3707 3492 c-22 -51 -22 -51 14 -95 23 -28 29 -44 25 -62 -8 -30 -57 -79 -97 -97 -46 -20 -50 -58 -7 -58 22 0 81 40 110 75 19 23 19 120 -1 169 -7 16 -11 39 -9 50 3 18 9 21 41 19 32 -2 38 0 35 15 -2 13 -15 18 -48 20 -44 3 -46 2 -63 -36z"/> <path d="M5450 3381 c0 -10 7 -24 15 -31 20 -16 19 -45 -1 -76 -12 -18 -14 -31 -7 -46 9 -20 9 -20 27 7 23 34 23 79 2 128 -17 40 -36 49 -36 18z"/> <path d="M3491 3184 c-12 -15 -20 -30 -18 -33 2 -3 11 -23 20 -44 10 -21 21 -36 26 -33 4 3 16 23 26 46 l19 41 -26 25 -25 26 -22 -28z"/> <path d="M5480 3164 c-13 -34 -13 -47 3 -68 13 -17 15 -16 36 19 12 22 19 45 16 56 -9 28 -44 24 -55 -7z"/> <path d="M2090 3135 c0 -25 4 -35 13 -32 6 2 12 16 12 32 0 16 -6 30 -12 33 -9 2 -13 -8 -13 -33z"/> <path d="M6750 3130 c-19 -12 -17 -62 5 -112 10 -24 24 -59 32 -78 22 -53 37 -87 82 -179 23 -46 41 -89 41 -97 0 -7 -20 -27 -45 -45 -25 -18 -45 -36 -45 -40 0 -3 -10 -9 -22 -13 -17 -4 -20 -8 -11 -17 8 -8 18 -7 40 4 15 9 35 18 43 21 8 4 29 15 45 26 17 11 40 24 51 29 26 12 36 36 25 59 -4 9 -15 34 -25 55 -9 20 -22 52 -30 70 -8 17 -24 52 -34 77 -54 124 -113 238 -125 243 -8 3 -20 1 -27 -3z"/> <path d="M2228 3092 c-9 -20 -30 -66 -46 -102 -71 -157 -142 -332 -137 -340 9 -15 113 -80 128 -80 8 0 20 -7 27 -15 7 -8 21 -15 32 -15 10 0 30 -7 43 -16 13 -9 29 -13 35 -9 15 9 2 25 -20 25 -10 0 -20 7 -24 15 -3 8 -12 15 -21 15 -26 0 -125 80 -125 102 0 10 17 51 39 91 21 40 55 113 76 162 20 50 44 107 52 128 15 34 15 38 -2 57 -26 28 -38 25 -57 -18z"/> <path d="M3401 3071 c-13 -8 -13 -12 -1 -28 42 -54 53 -62 71 -52 11 5 19 19 19 30 0 16 -5 18 -25 13 -14 -3 -25 -2 -25 3 0 21 -25 43 -39 34z"/> <path d="M5557 3051 c-22 -38 -21 -54 3 -76 22 -20 34 -14 36 18 1 12 5 37 9 55 6 27 5 32 -12 32 -10 0 -26 -13 -36 -29z"/> <path d="M3003 3009 c-17 -17 -16 -30 7 -57 28 -33 70 -38 103 -12 35 28 32 38 -18 57 -63 23 -79 25 -92 12z"/> <path d="M3289 3016 c-3 -3 -3 -23 -1 -45 3 -32 8 -41 22 -41 22 0 37 19 22 29 -5 3 -12 17 -13 30 -4 23 -20 37 -30 27z"/> <path d="M5710 2994 c0 -17 -6 -28 -20 -31 -23 -6 -25 -21 -6 -45 31 -42 66 -13 66 54 0 41 -3 48 -20 48 -15 0 -20 -7 -20 -26z"/> <path d="M5844 3003 c-3 -10 -10 -26 -15 -35 -14 -27 -11 -38 9 -38 23 0 66 56 58 76 -8 20 -46 18 -52 -3z"/> <path d="M5974 2995 c-32 -49 0 -82 45 -45 21 18 22 24 13 45 -15 32 -37 32 -58 0z"/> <path d="M3191 2959 c-27 -37 -22 -72 7 -45 14 11 21 13 29 5 21 -21 44 -2 37 28 -13 51 -41 56 -73 12z"/> <path d="M5840 2811 c0 -34 -31 -77 -48 -67 -15 9 -16 36 -2 36 6 0 10 5 10 10 0 14 -26 13 -51 -2 -17 -11 -22 -10 -34 5 -22 31 -28 0 -6 -36 38 -62 106 -80 174 -45 26 14 23 79 -6 106 -31 29 -37 28 -37 -7z"/> <path d="M3260 2800 c0 -6 -11 -15 -24 -20 -22 -8 -23 -11 -13 -34 7 -14 17 -26 22 -26 16 0 48 59 41 76 -6 16 -26 19 -26 4z"/> <path d="M3102 2778 c-35 -35 7 -88 69 -88 45 0 60 16 26 29 -14 6 -33 24 -43 40 -20 33 -33 38 -52 19z"/> <path d="M2087 2474 c-8 -8 2 -55 13 -67 9 -10 32 51 24 64 -6 10 -28 12 -37 3z"/> <path d="M6905 2464 c-18 -19 -15 -38 7 -42 12 -2 38 34 38 53 0 11 -30 4 -45 -11z"/> <path d="M6730 2401 c-8 -4 -28 -15 -45 -24 -23 -12 -31 -23 -33 -51 -4 -44 27 -105 67 -131 46 -30 41 -61 -21 -142 -28 -37 -69 -88 -90 -112 -37 -43 -41 -61 -12 -61 21 0 159 140 228 232 l58 77 -48 88 c-75 140 -75 139 -104 124z"/> <path d="M2256 2384 c-9 -8 -16 -19 -16 -24 0 -5 -21 -44 -46 -87 l-46 -77 18 -31 c94 -162 284 -337 284 -263 0 11 -36 57 -100 128 -84 93 -100 153 -47 178 35 17 57 60 57 112 0 35 -4 43 -32 60 -40 24 -52 25 -72 4z"/> <path d="M4135 2037 c-81 -83 -177 -149 -234 -162 -17 -4 -31 -11 -31 -16 0 -5 -19 -9 -42 -10 -53 -1 -87 -12 -69 -23 15 -10 98 2 106 15 4 5 19 9 35 9 47 0 173 65 232 119 56 51 120 151 96 151 -7 -1 -49 -38 -93 -83z"/> <path d="M4920 1973 c0 -25 146 -123 182 -123 28 0 21 19 -9 26 -25 7 -120 59 -133 73 -16 18 -40 32 -40 24z"/> <path d="M2666 1861 c-12 -19 6 -37 55 -54 50 -18 51 -19 44 -50 -24 -119 -14 -154 53 -183 44 -18 122 -25 139 -12 6 5 23 34 38 64 15 30 38 62 51 71 l24 15 -35 39 c-19 22 -35 43 -35 49 0 21 -71 44 -175 56 -133 16 -152 17 -159 5z"/> <path d="M6145 1856 c-52 -13 -95 -35 -95 -49 0 -4 -12 -19 -27 -33 -22 -20 -25 -29 -16 -42 6 -10 14 -33 18 -52 4 -19 17 -50 30 -70 12 -19 24 -43 28 -52 7 -19 44 -17 131 8 27 8 72 14 100 14 75 0 79 5 70 91 -4 41 -15 101 -24 134 l-17 60 -74 2 c-41 0 -97 -4 -124 -11z"/> <path d="M5178 1833 c12 -2 30 -2 40 0 9 3 -1 5 -23 4 -22 0 -30 -2 -17 -4z"/> <path d="M2379 1504 c-44 -15 -75 -46 -64 -64 3 -5 89 -9 198 -8 206 2 270 -7 427 -59 103 -35 158 -40 167 -18 17 46 -86 110 -217 136 -25 5 -63 13 -85 18 -65 17 -372 13 -426 -5z"/> <path d="M6245 1504 c-205 -43 -327 -101 -309 -149 10 -25 61 -28 107 -7 23 10 69 26 102 35 171 45 199 49 382 49 104 -1 185 3 188 9 14 21 -8 46 -53 62 -60 22 -312 22 -417 1z"/> <path d="M3380 1470 c-22 -13 -5 -45 33 -63 51 -26 132 -55 192 -72 85 -23 89 15 6 61 -75 43 -212 86 -231 74z"/> <path d="M5590 1468 c-147 -43 -203 -69 -233 -110 -41 -54 6 -63 109 -19 38 16 96 40 129 54 54 22 60 27 60 53 0 33 -13 37 -65 22z"/> <path d="M5214 1374 c3 -9 6 -19 6 -22 0 -9 20 21 20 31 0 4 -7 7 -16 7 -11 0 -14 -5 -10 -16z"/> <path d="M2355 1371 c-102 -10 -158 -33 -153 -64 3 -22 4 -22 223 -22 121 -1 225 -4 231 -8 6 -3 36 -13 65 -21 30 -8 85 -26 123 -40 37 -14 72 -23 77 -20 19 11 8 56 -18 80 -36 33 -68 50 -146 74 -71 23 -271 33 -402 21z"/> <path d="M6420 1371 c-74 -9 -164 -32 -206 -54 -74 -39 -118 -106 -79 -121 8 -3 45 6 82 20 163 61 302 82 491 75 92 -3 122 5 122 33 0 7 -17 20 -37 30 -43 20 -257 30 -373 17z"/> <path d="M6525 1228 c-128 -30 -225 -79 -225 -113 0 -38 71 -39 175 -3 52 18 185 36 318 43 70 4 130 11 133 17 12 20 -28 43 -94 55 -79 14 -250 14 -307 1z"/> <path d="M2118 1209 c-29 -11 -45 -38 -25 -43 13 -4 199 -21 337 -32 52 -3 121 -18 177 -36 106 -34 127 -34 131 4 2 20 -5 33 -32 54 -67 53 -119 63 -351 63 -115 -1 -222 -5 -237 -10z"/> <path d="M3154 1183 c-21 -15 -61 -42 -89 -61 -27 -19 -52 -35 -54 -37 -2 -2 13 -10 32 -18 19 -8 67 -45 107 -81 l72 -66 76 0 c73 0 116 10 240 55 45 16 55 21 115 56 53 30 34 39 -88 39 -130 0 -217 32 -318 116 -36 30 -46 30 -93 -3z"/> <path d="M5795 1186 c-40 -28 -142 -76 -206 -96 -45 -14 -92 -20 -156 -20 -95 0 -112 -8 -75 -36 27 -22 92 -51 152 -68 132 -37 181 -46 256 -46 83 0 113 11 144 54 8 12 29 37 46 56 31 34 32 34 72 21 57 -19 82 -57 82 -124 0 -50 -3 -57 -47 -104 -54 -57 -109 -83 -180 -83 -44 0 -129 20 -183 43 -27 11 -93 37 -97 37 -9 0 0 -67 12 -97 8 -19 15 -49 15 -65 0 -34 -6 -32 140 -51 394 -54 368 -54 397 8 7 17 19 39 26 50 32 51 60 101 88 155 36 72 33 81 -49 142 -67 50 -82 60 -142 89 -25 13 -71 42 -102 66 -31 24 -60 43 -64 43 -4 0 -15 6 -23 14 -25 23 -83 29 -106 12z"/> <path d="M1931 1101 c-13 -10 -20 -20 -15 -23 5 -3 47 -13 94 -22 217 -42 247 -49 418 -97 77 -21 84 -22 99 -6 16 16 15 19 -12 47 -56 59 -139 86 -315 105 -182 20 -239 19 -269 -4z"/> <path d="M6785 1105 c-60 -8 -126 -19 -145 -27 -87 -33 -149 -89 -136 -123 7 -20 29 -19 101 4 111 36 172 51 202 51 16 0 43 4 59 10 16 5 58 14 94 19 36 5 83 16 105 26 l40 16 -24 20 c-28 23 -121 24 -296 4z"/> <path d="M2960 1050 c0 -5 -9 -10 -19 -10 -11 0 -22 -4 -26 -9 -3 -6 -25 -20 -49 -31 -66 -34 -116 -84 -116 -117 0 -16 4 -33 9 -38 4 -6 31 -53 58 -106 67 -127 101 -179 116 -179 17 0 216 28 318 45 47 8 96 15 108 15 21 0 30 14 61 100 7 19 15 50 17 68 5 34 -3 39 -35 23 -9 -5 -37 -17 -62 -26 -25 -9 -60 -23 -78 -31 -49 -21 -155 -18 -200 5 -63 33 -105 80 -122 141 -10 35 10 111 38 143 14 15 14 17 -1 17 -10 0 -17 -4 -17 -10z"/> <path d="M1860 954 c-25 -2 -72 -11 -105 -20 -33 -8 -87 -22 -120 -31 -33 -8 -76 -21 -95 -29 -19 -7 -44 -14 -55 -16 -12 -2 -20 -11 -20 -22 0 -26 84 -59 200 -80 68 -12 154 -16 348 -16 l258 0 62 -31 c34 -17 70 -37 79 -46 10 -8 24 -13 32 -10 37 14 -42 144 -120 197 -103 71 -303 116 -464 104z"/> <path d="M6910 929 c-92 -26 -129 -41 -176 -71 -73 -47 -161 -175 -136 -200 9 -9 16 -8 29 4 10 8 45 28 78 44 l60 29 285 6 c295 6 361 14 460 54 95 38 74 59 -115 108 -153 40 -198 47 -307 46 -77 -1 -134 -7 -178 -20z"/> <path d="M7623 803 c-17 -6 -16 -22 0 -42 7 -9 22 -36 32 -61 11 -25 27 -56 37 -69 30 -39 11 -54 -104 -79 -333 -75 -424 -85 -773 -85 -297 0 -349 4 -710 48 -249 31 -393 52 -625 90 -152 25 -162 26 -158 8 3 -17 106 -53 153 -53 17 0 62 -6 100 -14 39 -8 115 -22 170 -31 55 -9 127 -21 160 -27 33 -6 89 -14 125 -18 36 -4 103 -13 150 -19 282 -38 323 -41 620 -41 237 0 317 4 360 15 30 8 71 15 90 15 56 0 318 49 401 75 26 8 53 15 62 15 8 0 25 9 38 19 l24 19 -24 58 c-44 114 -55 135 -77 159 -23 25 -29 27 -51 18z"/> <path d="M1364 773 c-28 -41 -42 -65 -53 -90 -6 -13 -20 -42 -31 -65 -11 -23 -20 -45 -20 -48 0 -16 116 -52 270 -84 41 -8 107 -22 146 -31 40 -8 85 -15 101 -15 16 0 74 -7 129 -15 113 -17 530 -20 654 -5 41 5 109 12 150 15 77 6 232 25 375 46 44 6 109 15 145 19 36 4 92 12 125 19 174 34 214 43 256 56 26 8 56 15 66 15 22 0 60 36 50 47 -7 6 -55 -2 -182 -32 -33 -7 -107 -21 -165 -30 -445 -70 -482 -75 -543 -75 -31 0 -103 -7 -160 -16 -153 -25 -682 -25 -827 -1 -58 10 -148 24 -200 33 -92 15 -186 35 -263 55 -21 6 -41 17 -44 25 -7 20 23 89 60 137 16 21 26 45 23 53 -9 23 -42 16 -62 -13z"/> <path d="M3687 544 c-8 -8 -137 -32 -232 -43 -38 -5 -90 -13 -115 -19 -63 -15 -169 -32 -273 -42 -48 -5 -92 -12 -97 -15 -5 -3 -62 -10 -127 -16 -65 -5 -144 -14 -176 -20 -32 -5 -218 -10 -414 -10 -364 -1 -432 5 -610 46 -34 8 -72 15 -85 15 -12 0 -52 6 -88 14 -148 32 -235 45 -243 37 -10 -10 41 -39 88 -51 438 -115 705 -172 878 -186 50 -4 83 -11 93 -21 24 -24 270 -30 396 -9 54 9 123 16 155 16 31 0 82 4 112 10 63 11 271 36 376 46 39 3 108 17 155 29 47 13 110 27 140 31 30 4 67 13 83 21 26 13 27 16 27 93 0 71 -2 80 -18 80 -10 0 -22 -3 -25 -6z"/> <path d="M5310 469 c0 -46 4 -89 8 -96 4 -6 25 -14 47 -18 22 -4 54 -11 70 -16 50 -15 319 -50 532 -69 62 -5 134 -15 160 -21 26 -6 77 -8 113 -5 40 4 100 0 155 -9 50 -8 152 -18 228 -21 134 -7 137 -7 137 14 0 18 8 21 68 27 37 3 99 12 137 20 39 8 113 21 165 30 268 46 579 119 648 152 67 33 6 56 -76 29 -97 -32 -242 -58 -482 -88 -144 -18 -771 -18 -945 1 -71 7 -160 19 -197 27 -37 8 -87 14 -111 14 -24 0 -92 9 -153 21 -60 11 -158 27 -219 35 -120 15 -240 37 -267 49 -16 6 -18 -1 -18 -76z"/> <path d="M3855 491 c-10 -33 5 -51 44 -51 20 0 43 4 51 10 12 7 10 11 -11 18 -14 6 -31 17 -38 26 -18 21 -38 20 -46 -3z"/> <path d="M5136 473 c-22 -12 -26 -17 -15 -24 22 -14 49 -11 56 7 9 25 -10 34 -41 17z"/> <path d="M1230 391 c0 -30 96 -75 220 -104 251 -58 390 -77 540 -75 l125 2 -115 6 c-107 7 -242 30 -279 49 -9 5 -35 11 -59 15 -24 3 -51 10 -60 16 -9 5 -37 14 -62 20 -25 6 -70 18 -100 25 -115 29 -166 42 -187 49 -14 4 -23 3 -23 -3z"/> <path d="M7723 380 c-23 -5 -50 -13 -60 -18 -10 -6 -61 -20 -113 -32 -52 -12 -110 -26 -127 -31 -18 -6 -54 -14 -80 -19 -27 -4 -84 -16 -128 -25 -44 -10 -134 -23 -200 -29 -115 -12 -118 -13 -70 -21 82 -13 371 14 525 50 229 54 334 95 316 124 -4 6 -10 11 -14 10 -4 -1 -26 -5 -49 -9z"/> <path d="M1062 326 c-27 -29 -16 -41 29 -31 24 5 29 11 27 28 -4 30 -29 31 -56 3z"/> </g> </svg> 