<svg width="223.636376953125" height="123.8833586774491" viewBox="0 0 350 193.8824806940752" class="looka-1j8o68f"><defs id="SvgjsDefs4779"><linearGradient id="SvgjsLinearGradient4786"><stop id="SvgjsStop4787" stop-color="#7f00ff" offset="0"></stop><stop id="SvgjsStop4788" stop-color="#e100ff" offset="1"></stop></linearGradient><linearGradient id="SvgjsLinearGradient4789"><stop id="SvgjsStop4790" stop-color="#7f00ff" offset="0"></stop><stop id="SvgjsStop4791" stop-color="#e100ff" offset="1"></stop></linearGradient></defs><g id="SvgjsG4780" featurekey="YvLwfh-0" transform="matrix(4.050925925925926,0,0,4.050925925925926,127,4.974537037037038)" fill="url(#SvgjsLinearGradient4786)"><g xmlns="http://www.w3.org/2000/svg"><path d="M19.635,16.126l-2.572-0.895c-0.188-0.064-0.397-0.013-0.533,0.134C15.269,16.742,13.66,17.5,12,17.5   s-3.269-0.758-4.53-2.134c-0.135-0.147-0.345-0.198-0.533-0.134l-2.572,0.895C1.754,17.034,0,19.501,0,22.266V23   c0,0.276,0.224,0.5,0.5,0.5h23c0.276,0,0.5-0.224,0.5-0.5v-0.734C24,19.501,22.246,17.034,19.635,16.126z"></path><g><path d="M10.5,9.5h-1C9.224,9.5,9,9.276,9,9s0.224-0.5,0.5-0.5h1C10.776,8.5,11,8.724,11,9S10.776,9.5,10.5,9.5z"></path></g><g><path d="M14.5,9.5h-1C13.224,9.5,13,9.276,13,9s0.224-0.5,0.5-0.5h1C14.776,8.5,15,8.724,15,9S14.776,9.5,14.5,9.5z"></path></g><g><path d="M12,16.5c-2.592,0-4.879-2.201-5.692-5.477c-0.066-0.268,0.097-0.54,0.365-0.606c0.267-0.067,0.539,0.096,0.606,0.365    C7.979,13.604,9.876,15.5,12,15.5s4.021-1.896,4.721-4.718c0.067-0.269,0.336-0.432,0.606-0.365    c0.268,0.066,0.431,0.338,0.365,0.606C16.879,14.299,14.592,16.5,12,16.5z"></path></g><g><path d="M17.394,7c-0.276,0-0.5-0.224-0.5-0.5c0-2.804-2.149-5-4.894-5s-4.894,2.196-4.894,5c0,0.276-0.224,0.5-0.5,0.5    s-0.5-0.224-0.5-0.5c0-3.364,2.589-6,5.894-6s5.894,2.636,5.894,6C17.894,6.776,17.67,7,17.394,7z"></path></g><g><path d="M13.965,13.5h-0.184c-0.689,0-1.288-0.467-1.455-1.136L12.17,12h-0.337l-0.182,0.436    c-0.144,0.597-0.742,1.064-1.432,1.064h-0.184c-0.502,0-0.969-0.25-1.248-0.668l-0.703-1.055c-0.153-0.23-0.091-0.54,0.139-0.693    c0.23-0.153,0.54-0.092,0.693,0.139l0.703,1.055c0.093,0.14,0.249,0.223,0.416,0.223h0.184c0.23,0,0.429-0.156,0.485-0.379    l0.334-0.814C11.117,11.121,11.298,11,11.5,11h1c0.202,0,0.383,0.121,0.461,0.307l0.311,0.743c0.08,0.294,0.279,0.45,0.509,0.45    h0.184c0.167,0,0.323-0.083,0.416-0.223l0.703-1.055c0.153-0.23,0.461-0.292,0.693-0.139c0.23,0.153,0.292,0.463,0.139,0.693    l-0.703,1.055C14.934,13.25,14.467,13.5,13.965,13.5z"></path></g><g><path d="M7,12c-0.276,0-0.5-0.224-0.5-0.5S6.724,11,7,11c1.254,0,2.413-0.257,2.768-0.443c0.246-0.129,0.546-0.033,0.675,0.211    c0.128,0.245,0.034,0.547-0.211,0.675C9.716,11.713,8.408,12,7,12z"></path></g><g><path d="M17,12c-1.408,0-2.716-0.287-3.232-0.557c-0.245-0.128-0.339-0.43-0.211-0.675c0.128-0.244,0.43-0.34,0.675-0.211    C14.587,10.743,15.746,11,17,11c0.276,0,0.5,0.224,0.5,0.5S17.276,12,17,12z"></path></g><g><path d="M11,8c-0.116,0-0.231-0.04-0.326-0.122c-0.75-0.646-1.995-1.348-2.32-1.025c-0.195,0.195-0.512,0.195-0.707,0    s-0.195-0.512,0-0.707c1.126-1.126,3.263,0.615,3.68,0.975c0.209,0.181,0.232,0.496,0.052,0.705C11.28,7.941,11.14,8,11,8z"></path></g><g><path d="M13,8c-0.141,0-0.28-0.059-0.379-0.173c-0.18-0.209-0.157-0.524,0.052-0.705c0.417-0.36,2.555-2.099,3.68-0.975    c0.195,0.195,0.195,0.512,0,0.707s-0.512,0.195-0.707,0c-0.322-0.322-1.569,0.378-2.32,1.025C13.232,7.96,13.116,8,13,8z"></path></g><g><path d="M17.207,11.402c-0.007,0-0.015,0-0.022,0c-0.276-0.012-0.49-0.245-0.478-0.521l0.279-6.559    C15.024,3.538,12.027,3.5,11.995,3.5c-0.022,0-3.02,0.038-4.981,0.822l0.279,6.559c0.012,0.276-0.202,0.509-0.478,0.521    c-0.268,0.018-0.509-0.202-0.521-0.479L6,4.021C5.992,3.82,6.105,3.633,6.288,3.547c2.137-1.003,5.563-1.046,5.708-1.047    c0.154,0.001,3.58,0.044,5.717,1.047C17.895,3.633,18.008,3.82,18,4.021l-0.293,6.902C17.695,11.192,17.473,11.402,17.207,11.402z    "></path></g><g><path d="M12,17.5c-0.245,0-0.453-0.177-0.493-0.418l-0.5-3c-0.045-0.272,0.139-0.53,0.411-0.575    c0.271-0.049,0.53,0.139,0.575,0.411L12,13.958l0.007-0.041c0.045-0.272,0.302-0.46,0.575-0.411    c0.272,0.045,0.457,0.303,0.411,0.575l-0.5,3C12.453,17.323,12.245,17.5,12,17.5z"></path></g><path d="M17.062,3.415C15.997,1.59,14.104,0.5,12,0.5S8.003,1.59,6.938,3.415C6.833,3.593,6.85,3.818,6.979,3.979   C7.108,4.141,7.324,4.207,7.52,4.144C9.457,3.532,11.979,3.5,11.995,3.5c0.025,0,2.544,0.031,4.485,0.644   c0.049,0.016,0.1,0.023,0.15,0.023c0.149,0,0.294-0.067,0.391-0.188C17.15,3.818,17.167,3.593,17.062,3.415z"></path></g></g><g id="SvgjsG4781" featurekey="JZW510-0" transform="matrix(1.8065448027064779,0,0,1.8065448027064779,-2.493031173049895,122.66656496897482)" fill="#111111"><path d="M7.5 5.720000000000001 c2.0266 0 3.62 0.62666 4.78 1.88 s1.74 2.98 1.74 5.18 c0 2.28 -0.58334 4.0534 -1.75 5.32 s-2.73 1.9 -4.69 1.9 l-6.2 0 l0 -14.28 l6.12 0 z M7.3 17.36 c1.1333 0 2.0134 -0.37334 2.64 -1.12 s0.94 -1.8067 0.94 -3.18 c0 -1.5733 -0.33666 -2.75 -1.01 -3.53 s-1.71 -1.17 -3.11 -1.17 l-2.24 0 l0 9 l2.78 0 z M20.92 9.38 c1.6533 0 2.96 0.50334 3.92 1.51 s1.44 2.3234 1.44 3.95 c0 1.64 -0.49 2.9566 -1.47 3.95 s-2.2766 1.49 -3.89 1.49 c-1.64 0 -2.94 -0.50334 -3.9 -1.51 s-1.44 -2.3166 -1.44 -3.93 c0 -1.6667 0.49 -2.9934 1.47 -3.98 s2.27 -1.48 3.87 -1.48 z M18.42 14.84 c0 1.0533 0.21334 1.8666 0.64 2.44 s1.0467 0.86 1.86 0.86 c0.84 0 1.47 -0.29334 1.89 -0.88 s0.63 -1.3933 0.63 -2.42 c0 -1.0667 -0.21666 -1.8867 -0.65 -2.46 s-1.0633 -0.86 -1.89 -0.86 c-0.8 0 -1.4133 0.28666 -1.84 0.86 s-0.64 1.3933 -0.64 2.46 z M34.06 9.38 c1.32 0 2.2766 0.33338 2.87 1 s0.89 1.7267 0.89 3.18 l0 6.44 l-2.84 0 l0 -5.86 c0 -0.85334 -0.13666 -1.4867 -0.41 -1.9 s-0.74334 -0.62 -1.41 -0.62 c-0.77334 0 -1.3333 0.23334 -1.68 0.7 s-0.52 1.2333 -0.52 2.3 l0 5.38 l-2.84 0 l0 -10.34 l2.7 0 l0 1.44 l0.06 0 c0.70666 -1.1467 1.7667 -1.72 3.18 -1.72 z M43.58 6.5600000000000005 l0.000019531 3.1 l2.08 0 l0 1.9 l-2.08 0 l0 5.12 c0 0.48 0.08 0.8 0.24 0.96 s0.48 0.24 0.96 0.24 c0.34666 0 0.64 -0.02666 0.88 -0.08 l0 2.22 c-0.4 0.06666 -0.96 0.1 -1.68 0.1 c-1.0933 0 -1.9067 -0.18666 -2.44 -0.56 s-0.8 -1.02 -0.8 -1.94 l0 -6.06 l-1.72 0 l0 -1.9 l1.72 0 l0 -3.1 l2.84 0 z M53.78 5.720000000000001 c1.52 0 2.72 0.41334 3.6 1.24 s1.32 1.94 1.32 3.34 c0 1.4133 -0.44 2.53 -1.32 3.35 s-2.0734 1.23 -3.58 1.23 l-3.34 0 l0 5.12 l-3.14 0 l0 -14.28 l6.46 0 z M52.959999999999994 12.440000000000001 c0.90666 0 1.5833 -0.16666 2.03 -0.5 s0.67 -0.88 0.67 -1.64 c0 -0.73334 -0.21666 -1.2733 -0.65 -1.62 s-1.11 -0.52 -2.03 -0.52 l-2.52 0 l0 4.28 l2.5 0 z M63.28 5.720000000000001 l0 14.28 l-2.84 0 l0 -14.28 l2.84 0 z M70.28 9.38 c3.0134 0.01334 4.52 0.9933 4.52 2.94 l0 5.48 c0 1.0133 0.12 1.7467 0.36 2.2 l-2.88 0 c-0.10666 -0.32 -0.17332 -0.65334 -0.19998 -1 c-0.84 0.85334 -2 1.28 -3.48 1.28 c-1.08 0 -1.9367 -0.27334 -2.57 -0.82 s-0.95 -1.3067 -0.95 -2.28 c0 -0.94666 0.3 -1.68 0.9 -2.2 c0.61334 -0.54666 1.7267 -0.89332 3.34 -1.04 c1.1467 -0.12 1.8733 -0.27 2.18 -0.45 s0.46 -0.45666 0.46 -0.83 c0 -0.46666 -0.14 -0.81332 -0.42 -1.04 s-0.74666 -0.34 -1.4 -0.34 c-0.6 0 -1.0533 0.12334 -1.36 0.37 s-0.48666 0.64332 -0.54 1.19 l-2.84 0 c0.06666 -1.1333 0.53332 -1.9933 1.4 -2.58 s2.0266 -0.88 3.48 -0.88 z M67.92 17.06 c0 0.88 0.58 1.32 1.74 1.32 c1.52 -0.01334 2.2866 -0.79334 2.3 -2.34 l0 -1.1 c-0.22666 0.22666 -0.8 0.39332 -1.72 0.49998 c-0.8 0.09334 -1.3867 0.25668 -1.76 0.49002 s-0.56 0.61 -0.56 1.13 z M78.84 9.66 l2.34 7.08 l0.04 0 l2.26 -7.08 l2.94 0 l-4.32 11.64 c-0.30666 0.81334 -0.73 1.4067 -1.27 1.78 s-1.29 0.56 -2.25 0.56 c-0.41334 0 -1.0067 -0.03334 -1.78 -0.1 l0 -2.34 c0.50666 0.06666 1.0067 0.1 1.5 0.1 c0.4 0 0.71 -0.12334 0.93 -0.37 s0.33 -0.55666 0.33 -0.93 c0 -0.21334 -0.04 -0.42668 -0.12 -0.64002 l-3.64 -9.7 l3.04 0 z M89.5 5.720000000000001 l2.26 9.72 l0.04 0 l2.48 -9.72 l2.94 0 l2.44 9.84 l0.04 0 l2.34 -9.84 l3.08 0 l-3.84 14.28 l-3.12 0 l-2.42 -9.72 l-0.04 0 l-2.38 9.72 l-3.18 0 l-3.78 -14.28 l3.14 0 z M109.17999999999999 5.720000000000001 l0 2.34 l-2.84 0 l0 -2.34 l2.84 0 z M109.17999999999999 9.66 l0 10.34 l-2.84 0 l0 -10.34 l2.84 0 z M115.01999999999998 6.5600000000000005 l0.000019531 3.1 l2.08 0 l0 1.9 l-2.08 0 l0 5.12 c0 0.48 0.08 0.8 0.24 0.96 s0.48 0.24 0.96 0.24 c0.34666 0 0.64 -0.02666 0.88 -0.08 l0 2.22 c-0.4 0.06666 -0.96 0.1 -1.68 0.1 c-1.0933 0 -1.9067 -0.18666 -2.44 -0.56 s-0.8 -1.02 -0.8 -1.94 l0 -6.06 l-1.72 0 l0 -1.9 l1.72 0 l0 -3.1 l2.84 0 z M121.3 5.720000000000001 l0 5.38 l0.06 0 c0.32 -0.53334 0.75334 -0.95334 1.3 -1.26 s1.1267 -0.46 1.74 -0.46 c1.32 0 2.2766 0.33334 2.87 1 s0.89 1.72 0.89 3.16 l0 6.46 l-2.84 0 l0 -5.88 c0 -0.84 -0.13666 -1.4667 -0.41 -1.88 s-0.74334 -0.62 -1.41 -0.62 c-0.76 0 -1.3167 0.23 -1.67 0.69 s-0.53 1.2167 -0.53 2.27 l0 5.42 l-2.84 0 l0 -14.28 l2.84 0 z M137.74 5.720000000000001 l5.34 14.28 l-3.26 0 l-1.08 -3.18 l-5.34 0 l-1.12 3.18 l-3.18 0 l5.42 -14.28 l3.22 0 z M136.08 9.24 l-1.86 5.24 l3.7 0 l-1.8 -5.24 l-0.04 0 z M149.96 9.38 c1.32 0 2.2766 0.33338 2.87 1 s0.89 1.7267 0.89 3.18 l0 6.44 l-2.84 0 l0 -5.86 c0 -0.85334 -0.13666 -1.4867 -0.41 -1.9 s-0.74334 -0.62 -1.41 -0.62 c-0.77334 0 -1.3333 0.23334 -1.68 0.7 s-0.52 1.2333 -0.52 2.3 l0 5.38 l-2.84 0 l0 -10.34 l2.7 0 l0 1.44 l0.06 0 c0.70666 -1.1467 1.7667 -1.72 3.18 -1.72 z M159.32000000000002 5.720000000000001 l0 14.28 l-3.14 0 l0 -14.28 l3.14 0 z M171.86 5.720000000000001 l0 14.28 l-2.7 0 l0 -1.32 l-0.04 0 c-0.61334 1.0667 -1.66 1.6 -3.14 1.6 c-1.4267 0 -2.5566 -0.52 -3.39 -1.56 s-1.25 -2.3666 -1.25 -3.98 c0 -1.5733 0.42334 -2.86 1.27 -3.86 s1.95 -1.5 3.31 -1.5 c0.62666 0 1.2167 0.13 1.77 0.39 s0.98334 0.64334 1.29 1.15 l0.04 0 l0 -5.2 l2.84 0 z M164.18 14.82 c0 0.94666 0.22332 1.7367 0.66998 2.37 s1.0567 0.95 1.83 0.95 c0.81334 0 1.4233 -0.29666 1.83 -0.89 s0.61 -1.41 0.61 -2.45 s-0.21334 -1.8467 -0.64 -2.42 s-1.0333 -0.86 -1.82 -0.86 c-0.81334 0 -1.43 0.3 -1.85 0.9 s-0.63 1.4 -0.63 2.4 z M178.78000000000003 9.38 c0.97334 0 1.84 0.22664 2.6 0.67998 s1.3567 1.11 1.79 1.97 s0.65 1.85 0.65 2.97 c0 0.10666 -0.0066602 0.28 -0.02 0.52 l-7.46 0 c0.02666 0.82666 0.24332 1.47 0.64998 1.93 s1.03 0.69 1.87 0.69 c0.52 0 0.99666 -0.13 1.43 -0.39 s0.71 -0.57666 0.83 -0.95 l2.5 0 c-0.73334 2.32 -2.3466 3.48 -4.84 3.48 c-0.94666 -0.01334 -1.8233 -0.22 -2.63 -0.62 s-1.45 -1.0233 -1.93 -1.87 s-0.72 -1.83 -0.72 -2.95 c0 -1.0533 0.24334 -2.0134 0.73 -2.88 s1.1333 -1.5133 1.94 -1.94 s1.6767 -0.64 2.61 -0.64 z M180.96 13.719999999999999 c-0.13334 -0.77334 -0.38 -1.3333 -0.74 -1.68 s-0.87334 -0.52 -1.54 -0.52 c-0.69334 0 -1.24 0.19666 -1.64 0.59 s-0.63334 0.93 -0.7 1.61 l4.62 0 z M190.24 9.38 c3.0134 0.01334 4.52 0.9933 4.52 2.94 l0 5.48 c0 1.0133 0.12 1.7467 0.36 2.2 l-2.88 0 c-0.10666 -0.32 -0.17332 -0.65334 -0.19998 -1 c-0.84 0.85334 -2 1.28 -3.48 1.28 c-1.08 0 -1.9367 -0.27334 -2.57 -0.82 s-0.95 -1.3067 -0.95 -2.28 c0 -0.94666 0.3 -1.68 0.9 -2.2 c0.61334 -0.54666 1.7267 -0.89332 3.34 -1.04 c1.1467 -0.12 1.8733 -0.27 2.18 -0.45 s0.46 -0.45666 0.46 -0.83 c0 -0.46666 -0.14 -0.81332 -0.42 -1.04 s-0.74666 -0.34 -1.4 -0.34 c-0.6 0 -1.0533 0.12334 -1.36 0.37 s-0.48666 0.64332 -0.54 1.19 l-2.84 0 c0.06666 -1.1333 0.53332 -1.9933 1.4 -2.58 s2.0266 -0.88 3.48 -0.88 z M187.88 17.06 c0 0.88 0.58 1.32 1.74 1.32 c1.52 -0.01334 2.2866 -0.79334 2.3 -2.34 l0 -1.1 c-0.22666 0.22666 -0.8 0.39332 -1.72 0.49998 c-0.8 0.09334 -1.3867 0.25668 -1.76 0.49002 s-0.56 0.61 -0.56 1.13 z"></path></g><g id="SvgjsG4782" featurekey="zdvuGz-0" transform="matrix(0.8367943701163212,0,0,0.8367943701163212,112.91216735875025,177.0629135355254)" fill="url(#SvgjsLinearGradient4789)"><path d="M9.06 7.58 l-6.02 0 l0 4.76 l4.6 0 c0.2 0 0.3 0.1 0.3 0.3 l0 0.98 c0 0.2 -0.1 0.3 -0.3 0.3 l-4.6 0 l0 4.5 l6.12 0 c0.2 0 0.3 0.1 0.3 0.3 l0 0.98 c0 0.2 -0.1 0.3 -0.3 0.3 l-7.56 0 c-0.2 0 -0.3 -0.1 -0.3 -0.3 l0 -13.4 c0 -0.2 0.1 -0.3 0.3 -0.3 l7.46 0 c0.2 0 0.3 0.1 0.3 0.3 l0 0.98 c0 0.2 -0.1 0.3 -0.3 0.3 z M23.4665 13 l3.66 6.72 c0.12 0.2 0 0.28 -0.2 0.28 l-1.26 0 c-0.2 0 -0.28 -0.08 -0.4 -0.28 l-2.7 -5.02 l-2.68 5.02 c-0.12 0.2 -0.2 0.28 -0.4 0.28 l-1.26 0 c-0.2 0 -0.32 -0.08 -0.2 -0.28 l3.66 -6.72 l-3.66 -6.72 c-0.12 -0.2 0 -0.28 0.2 -0.28 l1.26 0 c0.2 0 0.28 0.08 0.4 0.28 l2.68 5.02 l2.7 -5.02 c0.12 -0.2 0.2 -0.28 0.4 -0.28 l1.26 0 c0.2 0 0.32 0.08 0.2 0.28 z M41.353 6 c2.6 0 3.96 1.46 3.96 4 l0 1.2 c0 2.54 -1.36 4 -3.96 4 l-3.42 0 l0 4.5 c0 0.2 -0.1 0.3 -0.3 0.3 l-1.14 0 c-0.2 0 -0.3 -0.1 -0.3 -0.3 l0 -13.4 c0 -0.2 0.1 -0.3 0.3 -0.3 l1.14 0 l3.72 0 z M43.573 11.2 l0 -1.2 c0 -1.78 -0.66 -2.42 -2.22 -2.42 l-3.42 0 l0 6.04 l3.42 0 c1.56 0 2.22 -0.64 2.22 -2.42 z M61.9795 7.58 l-6.02 0 l0 4.76 l4.6 0 c0.2 0 0.3 0.1 0.3 0.3 l0 0.98 c0 0.2 -0.1 0.3 -0.3 0.3 l-4.6 0 l0 4.5 l6.12 0 c0.2 0 0.3 0.1 0.3 0.3 l0 0.98 c0 0.2 -0.1 0.3 -0.3 0.3 l-7.56 0 c-0.2 0 -0.3 -0.1 -0.3 -0.3 l0 -13.4 c0 -0.2 0.1 -0.3 0.3 -0.3 l7.46 0 c0.2 0 0.3 0.1 0.3 0.3 l0 0.98 c0 0.2 -0.1 0.3 -0.3 0.3 z M80.206 15.74 c0.22 0 0.34 0.12 0.34 0.34 c-0.12 2.64 -1.48 4.02 -4.02 4.02 l-1.54 0 c-2.64 0 -4.02 -1.5 -4.02 -4.16 l0 -5.88 c0 -2.66 1.38 -4.16 4.02 -4.16 l1.54 0 c2.54 0 3.9 1.38 4.02 4.02 c0 0.22 -0.12 0.34 -0.34 0.34 l-1.04 0 c-0.22 0 -0.36 -0.12 -0.36 -0.34 c-0.08 -1.78 -0.76 -2.44 -2.28 -2.44 l-1.54 0 c-1.62 0 -2.28 0.74 -2.28 2.58 l0 5.88 c0 1.84 0.66 2.58 2.28 2.58 l1.54 0 c1.52 0 2.2 -0.66 2.28 -2.44 c0 -0.22 0.14 -0.34 0.36 -0.34 l1.04 0 z M97.11249999999998 6 c0.2 0 0.3 0.1 0.3 0.3 l0 0.98 c0 0.2 -0.1 0.3 -0.3 0.3 l-3.16 0 l0 12.12 c0 0.2 -0.1 0.3 -0.3 0.3 l-1.14 0 c-0.2 0 -0.3 -0.1 -0.3 -0.3 l0 -12.12 l-3.18 0 c-0.2 0 -0.3 -0.1 -0.3 -0.3 l0 -0.98 c0 -0.2 0.1 -0.3 0.3 -0.3 l4.62 0 l3.46 0 z M128.7055 6 c0.22 0 0.36 0.12 0.36 0.34 l0 9.6 c0 2.68 -1.36 4.16 -4.02 4.16 l-1.7 0 c-2.66 0 -4.02 -1.48 -4.02 -4.16 l0 -9.6 c0 -0.22 0.12 -0.34 0.34 -0.34 l1.06 0 c0.22 0 0.34 0.12 0.34 0.34 l0 9.6 c0 1.78 0.72 2.58 2.28 2.58 l1.7 0 c1.56 0 2.28 -0.8 2.28 -2.58 l0 -9.6 c0 -0.22 0.12 -0.34 0.34 -0.34 l1.04 0 z M143.25199999999998 11.94 c2.2 0.48 4.44 1.2 4.44 4.06 c0 2.66 -1.38 4.1 -4.02 4.1 l-1.48 0 c-2.52 0 -3.9 -1.36 -4.02 -3.82 c0 -0.22 0.12 -0.34 0.34 -0.34 l1.04 0 c0.22 0 0.36 0.12 0.36 0.34 c0.08 1.58 0.76 2.24 2.28 2.24 l1.48 0 c1.62 0 2.28 -0.68 2.28 -2.52 s-1.24 -2.1 -2.74 -2.46 l-0.88 -0.2 c-2.36 -0.52 -4 -1.26 -4 -3.8 c0 -2.48 1.42 -3.64 4.04 -3.64 l0.98 0 c2.48 0 3.8 1.36 3.92 3.76 c0.02 0.22 -0.12 0.34 -0.34 0.34 l-1.04 0 c-0.2 0 -0.34 -0.12 -0.36 -0.34 c-0.08 -1.54 -0.72 -2.18 -2.18 -2.18 l-0.98 0 c-1.6 0 -2.3 0.38 -2.3 2.06 c0 1.62 0.72 1.84 2.3 2.2 z"></path></g></svg>
