<?xml version="1.0" standalone="no"?>
<!DOCTYPE svg PUBLIC "-//W3C//DTD SVG 20010904//EN"
 "http://www.w3.org/TR/2001/REC-SVG-20010904/DTD/svg10.dtd">
<svg version="1.0" xmlns="http://www.w3.org/2000/svg"
 width="300.000000pt" height="302.000000pt" viewBox="0 0 300.000000 302.000000"
 preserveAspectRatio="xMidYMid meet">
<metadata>
Created by potrace 1.10, written by Peter Selinger 2001-2011
</metadata>
<g transform="translate(0.000000,302.000000) scale(0.100000,-0.100000)"
fill="#000000" stroke="none">
<path d="M0 2775 l1 -244 29 -18 c17 -9 30 -22 30 -27 0 -5 2 -7 5 -4 3 3 20
-8 38 -23 17 -15 46 -39 62 -53 17 -14 27 -26 23 -26 -4 0 -43 28 -86 63 -43
35 -83 67 -90 71 -9 5 -11 -37 -9 -173 1 -98 5 -174 9 -167 5 7 8 6 8 -5 0
-13 37 -39 55 -39 2 0 6 17 8 38 l4 37 1 -42 c2 -39 6 -44 41 -63 l39 -20 4
75 c2 41 1 75 -2 75 -3 0 -3 27 -2 60 4 55 5 59 23 50 18 -10 19 -7 19 42 0
38 5 57 21 74 l20 22 -46 44 -47 44 2 135 c1 73 3 176 3 227 l2 92 -82 0 -83
0 0 -245z m68 96 c12 -10 22 -23 22 -29 0 -15 28 -23 34 -9 4 7 4 0 2 -16 -2
-15 1 -30 5 -33 15 -9 10 -24 -5 -18 -15 6 -96 105 -96 117 0 12 17 7 38 -12z
m18 -233 l29 -33 -32 29 c-18 17 -33 31 -33 33 0 8 8 1 36 -29z m-9 -125 c-4
-3 -7 0 -7 7 0 7 3 10 7 7 3 -4 3 -10 0 -14z m40 -25 c-3 -8 -6 -5 -6 6 -1 11
2 17 5 13 3 -3 4 -12 1 -19z m23 -185 c0 -13 -2 -23 -5 -23 -13 0 -95 66 -95
76 0 7 -3 20 -7 30 -4 12 12 4 50 -22 40 -27 56 -46 57 -61z"/>
<path d="M460 3016 c0 -2 9 -6 20 -9 11 -3 20 -1 20 4 0 5 -9 9 -20 9 -11 0
-20 -2 -20 -4z"/>
<path d="M520 3010 c0 -5 9 -10 20 -10 11 0 20 5 20 10 0 6 -9 10 -20 10 -11
0 -20 -4 -20 -10z"/>
<path d="M570 3016 c0 -9 40 -13 46 -5 3 5 -6 9 -20 9 -14 0 -26 -2 -26 -4z"/>
<path d="M622 3000 c-10 -17 -10 -20 4 -20 9 0 14 -7 12 -16 -2 -8 -6 -14 -10
-12 -3 2 -18 -8 -32 -21 -14 -14 -29 -21 -33 -17 -5 4 1 14 11 22 18 13 17 14
-17 14 l-37 0 0 -55 c0 -58 10 -67 41 -39 10 9 25 14 34 12 15 -3 14 -7 -7
-33 -12 -16 -22 -32 -20 -35 1 -3 -8 -7 -20 -8 -13 -2 -28 -8 -35 -13 -7 -7
-14 -6 -18 1 -3 5 -13 10 -21 10 -11 0 -14 -15 -14 -65 0 -53 3 -63 15 -59 8
4 15 1 15 -5 0 -6 -6 -11 -13 -11 -8 0 -14 -14 -15 -33 -2 -24 2 -34 13 -34 8
0 15 5 15 11 0 6 5 5 12 -2 17 -17 26 -15 31 6 4 13 5 11 6 -5 0 -13 6 -23 11
-23 7 0 7 -6 0 -19 -11 -21 -14 -48 -4 -38 6 6 34 -16 34 -26 0 -3 -8 -4 -17
-3 -10 0 -19 -7 -21 -19 -2 -11 -6 -27 -10 -35 -3 -8 -6 -22 -6 -30 -1 -8 -11
-19 -24 -25 -13 -6 -20 -16 -17 -25 3 -9 -1 -7 -10 4 -8 11 -15 14 -15 8 0 -7
-8 -12 -17 -13 -14 0 -15 -2 -3 -6 8 -3 17 -10 20 -14 9 -14 50 2 51 20 0 9 3
11 5 5 3 -6 16 -9 29 -6 19 3 25 11 28 41 l4 36 1 -36 c2 -30 6 -37 27 -41 33
-7 35 -3 35 59 0 48 -2 53 -22 53 -23 0 -23 1 2 14 22 12 27 11 45 -8 11 -12
27 -34 35 -50 22 -43 92 -114 98 -98 2 7 -1 26 -8 42 -12 30 -6 55 11 44 6 -3
8 23 6 68 -3 61 -8 78 -28 100 -39 43 -48 56 -42 62 3 3 1 12 -5 19 -7 8 -9
17 -5 21 4 4 1 11 -7 17 -13 8 -13 10 0 19 8 5 22 7 30 5 8 -3 28 9 44 26 27
28 29 29 47 13 18 -16 19 -16 19 1 0 10 10 32 23 49 44 60 63 104 49 118 -16
16 -15 28 2 28 16 0 31 17 40 48 7 21 5 22 -59 22 -60 0 -65 -1 -51 -16 26
-25 19 -37 -15 -30 -17 3 -35 6 -40 6 -5 0 -9 5 -9 10 0 6 6 10 14 10 8 0 18
5 21 10 4 6 -31 10 -97 10 -92 0 -105 -2 -116 -20z m93 -40 c4 -6 -5 -10 -19
-10 -14 0 -26 5 -26 10 0 6 9 10 19 10 11 0 23 -4 26 -10z m-165 -50 c0 -5 -5
-10 -11 -10 -5 0 -7 5 -4 10 3 6 8 10 11 10 2 0 4 -4 4 -10z m275 -79 c-3 -12
-11 -21 -16 -21 -14 0 -11 38 4 43 17 6 20 2 12 -22z m-228 -48 c-4 -3 -10 -3
-14 0 -3 4 0 7 7 7 7 0 10 -3 7 -7z m-77 -43 c0 -5 -5 -10 -11 -10 -5 0 -7 5
-4 10 3 6 8 10 11 10 2 0 4 -4 4 -10z m-37 -35 c-3 -9 -8 -14 -10 -11 -3 3 -2
9 2 15 9 16 15 13 8 -4z m24 -82 c-4 -3 -7 0 -7 7 0 7 3 10 7 7 3 -4 3 -10 0
-14z m76 -53 c-6 -7 -23 23 -23 40 0 8 6 4 13 -10 8 -14 12 -27 10 -30z m207
-119 c0 -5 -6 -14 -14 -20 -12 -10 -13 -8 -9 8 5 21 23 30 23 12z"/>
<path d="M1770 3004 c0 -8 5 -12 10 -9 6 3 10 10 10 16 0 5 -4 9 -10 9 -5 0
-10 -7 -10 -16z"/>
<path d="M1880 3006 c0 -8 5 -18 10 -21 6 -3 10 -18 9 -33 0 -24 -1 -25 -10
-7 -7 16 -8 14 -4 -10 3 -16 6 -52 7 -79 2 -29 8 -50 15 -53 11 -4 12 -40 7
-168 -4 -114 -3 -165 5 -169 11 -7 13 18 13 189 0 93 16 75 18 -20 2 -87 18
-41 21 60 1 44 4 69 8 55 4 -17 8 -1 12 45 3 46 6 3 7 -121 2 -162 0 -193 -13
-198 -12 -4 -15 4 -16 42 -1 41 -2 43 -8 17 -9 -37 -7 -77 4 -95 7 -11 10 -10
16 6 7 18 8 17 8 -3 1 -12 6 -25 13 -29 6 -4 8 -3 4 4 -3 6 -1 14 5 18 8 5 10
-1 7 -19 -3 -14 -2 -43 2 -64 l8 -38 1 37 c1 44 21 63 21 19 0 -22 4 -29 18
-27 13 2 18 16 23 57 3 30 5 63 4 74 -2 11 -3 138 -4 283 -1 167 -5 262 -11
262 -5 0 -11 -12 -11 -27 l-1 -28 -8 30 c-9 35 -14 -103 -12 -320 1 -77 -2
-167 -7 -200 -7 -43 -9 28 -7 243 3 284 2 302 -15 302 -13 0 -19 -10 -22 -32
l-4 -33 -1 33 c-2 27 -6 32 -27 32 -23 0 -25 -3 -25 -50 0 -27 -3 -50 -7 -50
-5 0 -6 22 -5 50 4 48 3 50 -22 50 -16 0 -26 -6 -26 -14z m117 -93 c-3 -10 -5
-4 -5 12 0 17 2 24 5 18 2 -7 2 -21 0 -30z m-50 -20 c-4 -3 -7 0 -7 7 0 7 3
10 7 7 3 -4 3 -10 0 -14z m70 -90 c-3 -10 -5 -4 -5 12 0 17 2 24 5 18 2 -7 2
-21 0 -30z m-76 -46 c-7 -7 -9 2 -7 29 5 52 8 56 13 15 3 -18 0 -38 -6 -44z
m126 -29 c-2 -13 -4 -3 -4 22 0 25 2 35 4 23 2 -13 2 -33 0 -45z m0 -90 c-2
-13 -4 -3 -4 22 0 25 2 35 4 23 2 -13 2 -33 0 -45z m-50 -130 c-2 -13 -4 -5
-4 17 -1 22 1 32 4 23 2 -10 2 -28 0 -40z m0 -50 c-3 -8 -6 -5 -6 6 -1 11 2
17 5 13 3 -3 4 -12 1 -19z"/>
<path d="M2561 2833 c0 -128 4 -178 10 -158 11 38 36 57 58 45 10 -5 36 -6 60
-3 36 5 45 11 56 36 7 17 11 37 8 44 -3 7 3 20 12 29 15 16 15 18 -3 36 -12
13 -34 20 -63 21 l-45 1 -1 43 c-1 36 1 43 17 43 10 0 22 5 25 10 5 9 -16 14
-52 13 -7 -1 -13 5 -13 13 0 9 -12 14 -35 14 l-35 0 1 -187z"/>
<path d="M2720 3010 c0 -7 3 -10 7 -7 3 4 3 10 0 14 -4 3 -7 0 -7 -7z"/>
<path d="M2793 3013 c4 -3 10 -3 14 0 3 4 0 7 -7 7 -7 0 -10 -3 -7 -7z"/>
<path d="M2839 3013 c-1 -5 -3 -33 -4 -63 -4 -88 -4 -90 -20 -90 -8 0 -15 -5
-15 -11 0 -5 5 -7 10 -4 14 9 32 -45 26 -77 -7 -33 -6 -33 45 -9 l40 20 -3
-21 c-2 -14 -16 -27 -36 -35 -19 -8 -31 -9 -27 -3 3 5 1 10 -5 10 -7 0 -9 -8
-5 -20 5 -15 -3 -28 -27 -51 l-33 -30 28 -23 c23 -18 27 -30 28 -73 2 -49 2
-51 23 -40 11 7 24 17 28 22 4 6 8 2 8 -7 0 -10 -6 -18 -13 -18 -26 0 -55 -38
-52 -69 1 -17 -1 -28 -5 -26 -5 3 -14 -1 -22 -8 -7 -7 -28 -19 -47 -27 -18 -7
-44 -24 -57 -37 -13 -13 -27 -23 -32 -23 -5 0 -20 -16 -33 -35 -13 -19 -29
-35 -35 -35 -15 0 -25 52 -13 64 15 16 11 26 -10 26 -11 0 -28 -14 -40 -34
-24 -38 -28 -78 -8 -70 7 2 23 -7 35 -21 12 -14 26 -25 32 -25 17 0 11 -25
-10 -43 -36 -31 -11 -53 55 -48 11 1 30 -7 42 -19 12 -11 29 -20 36 -20 23 0
40 -25 25 -37 -21 -17 -56 -24 -63 -13 -12 20 -52 11 -59 -12 -9 -37 -8 -38
40 -38 28 0 43 -4 39 -10 -4 -6 -10 -8 -15 -5 -4 3 -6 -3 -3 -13 3 -15 -4 -20
-40 -29 -43 -9 -46 -8 -56 14 -6 13 -11 35 -11 48 0 14 -4 25 -9 25 -5 0 -12
11 -15 25 -4 14 -16 35 -28 47 -20 20 -20 22 -4 34 9 6 13 15 8 18 -5 3 -12
24 -16 47 -7 44 -30 50 -32 8 -1 -61 -7 -61 -128 -3 -166 80 -201 80 -372 4
l-61 -28 15 54 c12 43 13 58 2 83 -12 29 -30 42 -30 22 0 -5 -9 -11 -19 -14
-25 -6 -34 15 -21 49 6 14 10 29 10 34 0 14 -105 88 -154 110 -24 10 -46 24
-49 32 -4 10 -6 10 -6 -1 -1 -10 -7 -7 -20 8 -12 14 -25 19 -37 15 -18 -5 -18
-5 -1 6 14 9 28 8 64 -4 55 -19 53 -19 53 -6 0 5 -11 12 -25 16 -17 4 -25 13
-26 28 0 11 -3 15 -6 9 -2 -7 -9 -13 -14 -13 -4 0 -6 6 -3 14 3 9 -1 13 -12
13 -16 -2 -22 10 -27 65 -1 14 -6 26 -12 25 -5 -1 -9 6 -9 16 1 9 -2 17 -7 17
-5 0 -16 26 -25 57 -9 31 -22 63 -28 70 -28 32 -34 41 -30 46 3 3 -9 28 -27
56 l-31 52 -44 -66 c-26 -41 -45 -83 -49 -108 -12 -94 -12 -117 0 -117 7 0 15
-7 19 -15 3 -8 14 -15 24 -15 10 0 19 -6 20 -12 0 -7 4 -64 8 -126 6 -96 10
-112 23 -109 9 2 15 9 14 15 -3 12 11 17 32 12 6 -1 22 -3 36 -5 26 -4 149
-52 159 -63 3 -3 -3 -2 -13 1 -13 5 -20 0 -27 -18 -17 -45 -61 -53 -162 -29
-20 5 -27 2 -31 -13 -4 -15 -5 -14 -6 5 -2 39 -21 23 -21 -18 0 -22 -4 -40
-10 -40 -5 0 -10 -13 -10 -30 0 -16 -5 -30 -11 -30 -6 0 -10 -16 -9 -37 4 -82
3 -85 -30 -78 -31 7 -42 -7 -17 -22 8 -4 17 -17 21 -28 6 -16 9 -17 16 -5 5 8
12 32 15 52 7 37 18 48 30 28 3 -5 12 -7 20 -4 7 3 22 1 32 -6 16 -9 15 -10
-6 -4 -16 4 -21 3 -17 -5 5 -7 -1 -11 -14 -11 -17 0 -19 -4 -14 -27 4 -16 11
-37 15 -48 7 -19 8 -19 8 -1 1 15 4 16 16 6 9 -7 15 -8 15 -2 0 11 51 32 72
28 7 -1 19 -5 26 -9 8 -6 12 -1 12 17 0 18 -6 26 -17 27 -12 0 -13 2 -5 6 18
7 42 -16 43 -41 0 -19 1 -19 11 4 9 21 12 22 15 7 4 -15 7 -16 19 -6 12 10 17
9 27 0 9 -10 6 -17 -14 -35 -15 -13 -31 -32 -37 -42 -9 -17 -6 -19 31 -18 23
1 47 2 53 3 6 1 23 13 38 27 28 29 31 28 17 -9 -9 -24 -44 -45 -363 -218 -94
-51 -118 -68 -118 -85 0 -12 6 -26 13 -32 20 -17 101 -32 112 -21 14 14 25 11
25 -6 0 -8 5 -15 10 -15 6 0 13 7 16 15 9 23 23 18 30 -10 8 -34 20 -32 28 5
5 25 10 30 36 30 24 0 30 -4 30 -21 0 -18 2 -19 15 -9 8 7 15 19 15 26 0 8 4
14 9 14 5 0 17 3 27 7 15 5 16 2 9 -33 -12 -58 -8 -82 25 -153 31 -65 35 -99
5 -42 -19 37 -52 42 -58 9 -2 -13 -5 -2 -6 23 -2 68 -19 108 -48 115 -31 8
-55 -14 -58 -53 -1 -15 -3 -41 -4 -58 -1 -25 -3 -27 -12 -12 -12 20 -38 22
-45 3 -4 -11 -11 -12 -34 -3 -16 6 -26 16 -22 21 3 6 -2 5 -11 -3 -12 -10 -17
-10 -17 -2 0 14 -48 12 -68 -3 -18 -13 -25 -3 -62 104 -72 207 -169 378 -267
471 -50 48 -150 112 -193 124 -14 3 -50 34 -81 68 l-57 62 -3 -63 -4 -62 35 0
c33 0 35 -2 37 -35 3 -29 0 -35 -17 -35 -19 0 -18 -3 9 -41 37 -50 65 -132 58
-167 -4 -23 0 -30 26 -43 31 -15 78 -79 59 -79 -5 0 -36 18 -68 40 -73 50
-114 58 -163 36 -43 -21 -113 -67 -108 -73 2 -2 28 8 58 22 66 31 130 32 192
5 89 -40 66 -51 -38 -19 -61 18 -105 5 -203 -61 -121 -81 -254 -201 -358 -322
-100 -117 -118 -151 -104 -198 9 -32 9 -32 -10 -15 -31 28 -26 97 14 202 18
48 52 147 76 218 23 72 58 162 77 201 86 174 223 301 378 350 22 7 31 13 20
13 -11 1 -49 -9 -85 -21 -122 -41 -243 -164 -339 -343 l-21 -40 0 33 c0 19 5
32 13 32 8 0 9 3 1 8 -6 4 -11 31 -11 60 -1 47 1 52 18 47 10 -4 19 -5 19 -2
0 2 -33 17 -72 32 -76 30 -95 41 -86 50 3 3 37 -8 76 -25 79 -34 97 -37 67
-13 -15 12 -16 14 -3 10 11 -4 22 3 33 19 9 14 15 27 13 29 -2 2 -56 28 -121
59 l-117 55 0 -58 c0 -50 3 -59 22 -68 19 -8 20 -10 4 -16 -10 -4 -15 -3 -11
3 3 6 1 10 -4 10 -8 0 -11 -66 -11 -199 l0 -200 38 -4 37 -4 -39 -1 -39 -2 6
-211 c7 -233 6 -228 77 -274 19 -13 45 -32 57 -44 12 -12 28 -21 35 -21 7 0
-1 -9 -19 -20 -26 -16 -53 -47 -53 -62 0 -2 28 -2 63 0 34 2 77 0 94 -5 l32
-8 -25 -32 c-17 -22 -34 -33 -50 -33 -14 0 -23 4 -19 9 3 5 -8 3 -25 -6 -29
-14 -54 -14 -142 3 l-27 5 -1 -294 c0 -230 2 -296 12 -300 10 -4 10 -6 1 -6
-10 -1 -13 -26 -13 -93 l0 -91 28 24 27 24 -27 -31 c-33 -35 -35 -49 -11 -64
17 -11 17 -11 1 -6 -15 4 -18 -1 -18 -34 l0 -40 128 1 c77 0 119 4 107 9 -12
4 -26 15 -34 23 -11 14 -8 15 25 5 46 -12 102 -4 196 28 76 26 98 29 98 16 0
-10 -49 -33 -130 -61 l-55 -20 350 0 350 0 -80 30 c-83 31 -127 59 -91 59 11
0 61 -14 113 -30 100 -32 136 -36 179 -20 40 15 41 4 3 -19 l-34 -21 859 3
c647 1 860 5 863 14 2 6 -6 13 -18 15 -15 2 -23 11 -24 26 -1 17 2 21 17 16
36 -11 53 23 51 103 -1 71 0 74 17 58 30 -27 55 -15 58 28 3 31 6 36 17 27 11
-9 12 -7 8 9 -3 12 -9 21 -14 21 -5 0 -9 8 -9 19 0 14 6 17 28 13 15 -3 23 -1
19 4 -5 5 -13 10 -18 10 -5 1 -13 2 -19 3 -12 1 -13 51 -1 70 7 11 12 7 25
-15 15 -27 16 -16 15 186 -1 145 -5 217 -13 222 -8 5 -7 8 2 8 8 0 12 23 12
80 0 48 -4 80 -10 80 -6 0 -13 -7 -16 -15 -8 -20 -24 -9 -24 16 0 14 7 19 25
19 l25 0 0 326 c0 321 0 326 -20 321 -11 -3 -18 -1 -15 3 3 5 1 11 -4 14 -11
7 -21 -28 -16 -55 2 -11 0 -17 -6 -14 -5 4 -7 10 -4 14 2 5 -2 17 -10 27 -20
26 -19 43 1 18 12 -15 15 -15 10 -2 -6 19 22 34 38 18 5 -5 14 -10 18 -10 4 0
8 301 8 670 l0 670 -80 0 c-44 0 -81 -3 -81 -7z m70 -69 c-6 -7 -15 -11 -20
-8 -5 3 -3 11 4 18 16 18 31 8 16 -10z m-34 -14 c3 -5 4 -10 1 -10 -3 0 -8 5
-11 10 -3 6 -4 10 -1 10 3 0 8 -4 11 -10z m25 -54 c0 -2 -8 -10 -17 -17 -16
-13 -17 -12 -4 4 13 16 21 21 21 13z m0 -30 c0 -3 -5 -8 -12 -12 -7 -4 -8 -3
-4 4 7 12 16 16 16 8z m4 -41 c-25 -18 -54 -26 -54 -14 0 5 4 9 10 9 5 0 7 8
4 18 -5 15 -4 15 6 -1 11 -18 13 -18 28 4 10 15 17 18 20 10 2 -7 -4 -18 -14
-26z m46 -230 c0 -2 -19 -14 -42 -26 -24 -12 -38 -16 -33 -11 9 9 65 42 73 42
1 0 2 -2 2 -5z m-40 -131 c0 -10 -6 -14 -15 -10 -8 3 -15 2 -15 -3 0 -4 -7 -8
-15 -8 -25 0 6 27 43 36 1 1 2 -6 2 -15z m-15 -44 c-3 -5 -1 -10 4 -10 14 0
14 -27 0 -35 -5 -4 -24 -1 -41 6 l-30 12 33 18 c40 22 42 22 34 9z m-40 -60
c3 -5 4 -10 1 -10 -3 0 -8 5 -11 10 -3 6 -4 10 -1 10 3 0 8 -4 11 -10z m65
-14 c0 -27 -35 -42 -55 -23 -10 10 -7 15 18 29 18 9 33 17 35 18 1 0 2 -11 2
-24z m-1217 -23 c-5 -12 -3 -14 7 -8 9 5 11 4 6 -3 -4 -7 -1 -12 6 -12 9 0 9
-3 -2 -10 -12 -8 -12 -10 -1 -10 8 0 12 -3 8 -6 -3 -3 -14 -1 -24 5 -14 8 -14
10 -3 11 13 0 13 2 1 9 -12 8 -10 41 3 41 3 0 2 -7 -1 -17z m1067 -10 c0 -17
-16 -31 -35 -33 -35 -4 -39 0 -20 20 17 19 55 28 55 13z m147 -50 c-13 -12
-70 -7 -74 7 -4 13 -3 13 6 0 9 -13 11 -13 11 1 0 8 12 20 28 25 23 8 27 7 30
-9 2 -10 1 -21 -1 -24z m-1297 27 c0 -10 -14 -14 -37 -11 -7 1 -13 -3 -13 -9
0 -5 11 -10 25 -10 21 0 25 -5 25 -30 0 -34 -19 -41 -27 -10 -3 11 -10 20 -15
20 -5 0 -6 -4 -3 -10 3 -5 1 -10 -4 -10 -6 0 -11 4 -11 9 0 6 -8 9 -17 8 -21
-1 -73 31 -73 45 0 5 10 8 23 6 12 -2 21 -8 20 -13 -1 -6 10 -11 23 -11 13 -1
24 2 24 7 0 5 -7 9 -16 9 -8 0 -12 5 -9 10 3 6 24 10 46 10 21 0 39 -4 39 -10z
m44 -21 c-28 -11 -46 -11 -39 1 4 6 10 8 15 5 5 -3 11 -1 15 5 4 6 11 7 18 3
7 -4 4 -9 -9 -14z m41 -20 c-4 -5 -1 -9 4 -9 6 0 11 5 11 12 0 6 3 8 6 5 8 -7
-14 -37 -27 -37 -5 0 -8 11 -7 24 1 14 6 22 10 20 5 -3 6 -10 3 -15z m-44 4
c-11 -5 -11 -7 0 -14 10 -6 8 -9 -8 -9 -13 0 -23 4 -23 9 0 10 18 19 35 19 6
0 4 -2 -4 -5z m1166 -13 c3 -11 13 -20 22 -20 13 -1 13 -3 -3 -15 -25 -19 -37
-19 -30 0 5 11 -1 15 -25 15 -29 0 -31 2 -21 20 6 11 20 20 31 20 12 0 23 -8
26 -20z m113 -35 c8 0 20 4 27 8 6 4 14 3 18 -2 6 -11 -25 -31 -48 -31 -8 0
-18 7 -21 16 -3 8 -11 12 -17 8 -19 -11 -29 19 -11 32 14 11 19 10 27 -9 6
-12 17 -22 25 -22z m-1214 10 c-11 -8 -25 -15 -30 -15 -6 1 0 7 14 15 32 19
40 18 16 0z m-89 -12 c-4 -3 -7 0 -7 7 0 7 3 10 7 7 3 -4 3 -10 0 -14z m33 7
c0 -5 -2 -10 -4 -10 -3 0 -8 5 -11 10 -3 6 -1 10 4 10 6 0 11 -4 11 -10z
m-263 -17 c-4 -3 -7 0 -7 7 0 7 3 10 7 7 3 -4 3 -10 0 -14z m854 -13 c96 -35
234 -113 255 -145 34 -52 144 -398 144 -454 0 -69 -107 -228 -203 -303 -25
-20 -12 -3 34 44 81 80 149 194 149 249 0 40 -97 344 -128 404 -32 59 -112
116 -231 166 -97 40 -150 37 -265 -19 -118 -58 -161 -93 -195 -159 -31 -62
-105 -292 -116 -359 -12 -78 48 -189 164 -304 36 -35 52 -55 36 -43 -40 28
-113 106 -152 163 -43 63 -64 118 -65 167 0 78 106 417 143 459 31 33 162 104
252 135 45 16 85 29 89 29 4 0 44 -13 89 -30z m729 -10 c0 -5 -9 -10 -21 -10
-11 0 -17 5 -14 10 3 6 13 10 21 10 8 0 14 -4 14 -10z m-2126 -52 c38 -23 92
-63 120 -89 84 -77 176 -249 237 -447 17 -53 48 -146 70 -207 38 -107 48 -168
30 -179 -5 -4 -7 10 -4 31 3 30 -6 62 -42 148 -26 61 -58 144 -71 185 -36 110
-135 304 -197 385 -58 77 -154 159 -232 201 -47 25 -48 26 -15 20 19 -4 66
-25 104 -48z m996 -12 c0 -3 -5 -8 -12 -12 -7 -4 -8 -3 -4 4 7 12 16 16 16 8z
m428 -63 c84 -41 167 -118 212 -196 32 -56 35 -67 20 -67 -5 0 -10 9 -10 19 0
30 -82 133 -138 174 -68 50 -154 87 -203 87 -24 0 -38 -4 -34 -10 3 -6 -1 -7
-10 -4 -26 10 -142 -54 -199 -109 -29 -29 -67 -77 -84 -107 -18 -30 -32 -50
-32 -44 0 20 71 129 112 171 65 67 216 138 268 126 14 -3 58 -21 98 -40z
m-2172 1 c8 3 14 1 14 -5 0 -6 6 -9 14 -6 8 3 17 -1 20 -9 7 -18 8 -18 -59 8
-35 13 -51 24 -44 29 7 4 19 1 27 -7 8 -9 21 -13 28 -10z m2014 -18 c0 -3 -5
-8 -12 -12 -7 -4 -8 -3 -4 4 7 12 16 16 16 8z m643 -23 c-7 -3 -13 -11 -13
-19 0 -8 -4 -14 -10 -14 -15 0 -12 11 7 32 9 10 19 15 22 12 3 -4 0 -9 -6 -11z
m-2743 -27 c0 -3 -5 -8 -12 -12 -7 -4 -8 -3 -4 4 7 12 16 16 16 8z m2337 -33
c-4 -3 -10 -3 -14 0 -3 4 0 7 7 7 7 0 10 -3 7 -7z m-2337 -72 c0 -16 3 -36 6
-45 4 -10 1 -16 -10 -16 -12 0 -15 10 -13 45 2 49 17 63 17 16z m8 -82 c-2 -6
-8 -10 -13 -10 -5 0 -11 4 -13 10 -2 6 4 11 13 11 9 0 15 -5 13 -11z m2619 4
c-4 -3 -10 -3 -14 0 -3 4 0 7 7 7 7 0 10 -3 7 -7z m-602 -35 c15 -14 28 -38
32 -60 12 -81 -96 -123 -151 -57 -34 40 -33 74 3 110 36 36 79 38 116 7z m346
-7 c33 -33 36 -58 14 -101 -42 -82 -183 -32 -160 57 18 72 95 95 146 44z
m-2294 2 c-4 -3 -10 -3 -14 0 -3 4 0 7 7 7 7 0 10 -3 7 -7z m53 -3 c0 -5 -10
-10 -22 -9 -22 0 -22 1 -3 9 11 5 21 9 23 9 1 1 2 -3 2 -9z m605 -38 c65 -22
182 -101 254 -169 l56 -54 -42 21 c-55 26 -62 25 -33 -5 21 -23 14 -21 -70 19
-115 53 -218 80 -274 72 -50 -8 -177 -51 -231 -78 -22 -12 -71 -40 -108 -64
-37 -24 -72 -44 -77 -44 -6 0 -10 -4 -10 -10 0 -5 -6 -7 -14 -4 -8 3 -25 0
-38 -6 -34 -16 94 103 196 182 90 70 194 133 244 148 44 13 93 11 147 -8z
m-628 -19 c-4 -3 -7 0 -7 7 0 7 3 10 7 7 3 -4 3 -10 0 -14z m2770 -20 c-4 -3
-10 -3 -14 0 -3 4 0 7 7 7 7 0 10 -3 7 -7z m-2787 -21 c0 -11 -8 -13 -31 -8
-17 3 -40 6 -50 6 -11 0 -19 5 -19 10 0 6 22 10 50 9 36 -2 50 -6 50 -17z
m-13 -28 c-3 -3 -12 -4 -19 -1 -8 3 -5 6 6 6 11 1 17 -2 13 -5z m2853 -8 c0
-2 -13 -6 -30 -8 -16 -3 -30 -1 -30 4 0 4 14 8 30 8 17 0 30 -2 30 -4z m-1223
-43 c-3 -10 -5 -4 -5 12 0 17 2 24 5 18 2 -7 2 -21 0 -30z m1140 30 c-4 -3
-10 -3 -14 0 -3 4 0 7 7 7 7 0 10 -3 7 -7z m-549 -55 c52 -16 92 -31 90 -33
-2 -2 -31 4 -64 15 -155 48 -214 48 -366 -1 -34 -10 -63 -17 -65 -15 -6 5 107
42 182 59 72 17 101 14 223 -25z m290 22 c-7 -10 -14 -17 -17 -15 -4 4 18 35
25 35 2 0 -1 -9 -8 -20z m99 -17 c-4 -3 -7 0 -7 7 0 7 3 10 7 7 3 -4 3 -10 0
-14z m72 -32 c-1 -14 2 -69 7 -121 l8 -95 11 54 c10 52 11 54 28 37 18 -19 21
-59 8 -160 -7 -52 -12 -64 -46 -93 -50 -43 -95 -45 -136 -4 -25 26 -29 37 -29
85 0 52 -11 73 -23 44 -3 -7 -6 1 -6 18 -1 18 6 37 15 45 14 12 20 9 40 -16
27 -34 33 -18 7 21 -14 22 -14 27 -2 35 26 16 40 9 55 -26 8 -19 15 -35 17
-35 1 0 1 55 0 122 -3 89 0 124 9 129 18 12 38 -10 37 -40z m-1189 -90 c5
-117 6 -122 18 -88 14 39 32 47 52 22 9 -11 8 -19 -4 -37 -24 -34 -19 -44 8
-18 34 31 56 21 55 -27 -1 -21 -3 -30 -6 -20 -9 34 -23 5 -23 -49 0 -72 -28
-104 -91 -104 -36 0 -48 6 -79 39 -35 37 -38 44 -45 125 -7 91 -3 121 20 130
12 4 15 -3 15 -32 0 -20 4 -43 9 -50 8 -13 25 141 22 197 -1 30 7 43 27 39 14
-3 18 -22 22 -127z m847 72 c-4 -3 -10 -3 -14 0 -3 4 0 7 7 7 7 0 10 -3 7 -7z
m476 -12 c18 -7 18 -8 1 -21 -10 -8 -15 -10 -11 -3 4 6 3 14 -3 18 -5 3 -10 2
-10 -3 0 -5 -7 -9 -15 -9 -16 0 -19 9 -8 20 8 9 22 8 46 -2z m-1249 -52 c-3
-5 -10 -7 -15 -3 -5 3 -7 10 -3 15 3 5 10 7 15 3 5 -3 7 -10 3 -15z m516 -3
c7 -14 10 -36 8 -51 -4 -19 -2 -23 5 -16 6 6 19 11 29 11 16 0 17 -3 8 -21
-17 -31 -53 -21 -61 16 l-6 30 -12 -30 c-7 -16 -10 -38 -7 -50 6 -22 -9 -53
-20 -42 -4 3 -1 14 7 23 13 16 12 16 -8 6 -15 -9 -24 -9 -28 -1 -4 6 3 13 14
16 l22 6 -21 14 c-20 14 -28 43 -11 43 5 0 17 -8 27 -17 16 -16 16 -16 9 6 -7
22 11 81 25 81 3 0 12 -11 20 -24z m643 9 c-3 -9 -8 -14 -10 -11 -3 3 -2 9 2
15 9 16 15 13 8 -4z m-2796 -17 c-3 -8 -6 -5 -6 6 -1 11 2 17 5 13 3 -3 4 -12
1 -19z m1813 3 c0 -12 -20 -25 -27 -18 -7 7 6 27 18 27 5 0 9 -4 9 -9z m-1449
-25 c-5 -6 -11 -21 -15 -32 -5 -18 -2 -23 19 -28 20 -5 25 -11 20 -26 -4 -13
0 -20 13 -24 31 -10 73 11 85 44 12 31 22 36 45 21 21 -13 -10 -65 -45 -79
-84 -31 -141 -20 -166 33 -20 41 -22 102 -5 107 23 8 59 -4 49 -16z m629 9
c10 -12 10 -25 0 -62 -15 -60 -24 -71 -69 -83 -46 -12 -105 1 -137 31 -30 28
-28 63 2 67 17 2 23 -4 27 -26 4 -20 15 -33 35 -41 59 -24 114 26 92 85 -6 14
-10 27 -10 29 0 3 21 10 41 14 4 0 12 -6 19 -14z m-310 -12 c14 -9 26 -17 28
-19 2 -1 -3 -13 -11 -26 -8 -12 -18 -34 -22 -48 l-7 -25 24 23 25 23 26 -39
c34 -52 86 -76 163 -77 l62 0 -14 -26 c-17 -34 -69 -77 -114 -97 -23 -10 -87
-18 -185 -23 -132 -6 -159 -5 -230 13 -43 11 -87 24 -97 29 -18 10 -78 105
-78 124 0 6 15 20 32 32 29 21 34 21 49 7 24 -22 89 -29 132 -15 20 7 50 28
67 48 l32 36 29 -22 c36 -26 36 -20 4 35 -24 40 -24 44 -8 53 27 15 65 13 93
-6z m979 -9 c14 -8 33 -14 41 -14 8 0 23 -12 33 -25 18 -25 18 -25 -6 -25 -14
0 -41 15 -63 35 -21 19 -46 35 -55 35 -10 0 -21 5 -24 10 -8 13 37 3 74 -16z
m1021 16 c0 -5 -5 -10 -11 -10 -5 0 -7 5 -4 10 3 6 8 10 11 10 2 0 4 -4 4 -10z
m-2690 -16 c0 -8 -5 -12 -10 -9 -6 4 -8 11 -5 16 9 14 15 11 15 -7z m1430 -24
c0 -5 -8 -10 -17 -10 -15 0 -16 2 -3 10 19 12 20 12 20 0z m1427 -7 c-4 -3 -7
0 -7 7 0 7 3 10 7 7 3 -4 3 -10 0 -14z m-2870 -10 c-4 -3 -7 0 -7 7 0 7 3 10
7 7 3 -4 3 -10 0 -14z m1345 5 c-17 -8 -26 -8 -34 0 -9 9 -4 12 23 11 32 0 33
-1 11 -11z m1275 5 c-4 -3 -10 -3 -14 0 -3 4 0 7 7 7 7 0 10 -3 7 -7z m-1191
-21 c6 -4 13 -31 16 -60 l5 -53 -18 29 c-9 16 -31 36 -48 43 -32 14 -40 34
-18 42 19 8 51 8 63 -1z m1510 -8 c16 -13 17 -16 4 -21 -8 -3 -32 -23 -54 -44
-21 -21 -35 -32 -32 -23 3 9 6 33 6 54 0 28 5 40 18 43 31 8 38 7 58 -9z
m-711 -13 c9 -16 -14 -22 -37 -10 -19 9 -21 9 -10 -2 14 -15 16 -29 3 -29 -12
0 -23 29 -15 41 7 12 51 12 59 0z m342 -8 c-4 -3 -7 0 -7 7 0 7 3 10 7 7 3 -4
3 -10 0 -14z m-800 -20 c-4 -3 -7 0 -7 7 0 7 3 10 7 7 3 -4 3 -10 0 -14z m38
-1 c-3 -3 -11 0 -18 7 -9 10 -8 11 6 5 10 -3 15 -9 12 -12z m746 8 c10 -6 19
-17 19 -25 0 -8 7 -30 16 -48 15 -32 15 -36 -1 -60 -14 -23 -20 -24 -41 -15
-13 6 -24 17 -24 24 0 7 -9 34 -20 59 -16 36 -18 51 -9 61 14 17 33 18 60 4z
m-391 -26 c0 -14 -4 -23 -10 -19 -5 3 -10 15 -10 26 0 10 5 19 10 19 6 0 10
-12 10 -26z m-790 12 c0 -2 -7 -6 -15 -10 -8 -3 -15 -1 -15 4 0 6 7 10 15 10
8 0 15 -2 15 -4z m615 -26 c-3 -5 -10 -10 -16 -10 -5 0 -9 5 -9 10 0 6 7 10
16 10 8 0 12 -4 9 -10z m514 -95 c5 -21 14 -31 29 -33 37 -6 25 -22 -16 -22
-37 0 -39 2 -39 33 0 17 -3 52 -7 77 l-6 45 16 -35 c9 -19 20 -48 23 -65z
m-660 43 c-6 -23 -12 -45 -15 -49 -3 -5 0 -18 6 -29 10 -19 8 -20 -35 -20 -28
0 -44 4 -40 10 3 6 15 10 26 10 11 0 19 7 19 17 0 24 31 103 40 103 4 0 4 -19
-1 -42z m551 38 c0 -3 -5 -8 -12 -12 -7 -4 -8 -3 -4 4 7 12 16 16 16 8z m-455
-16 c3 -5 4 -10 1 -10 -3 0 -8 5 -11 10 -3 6 -4 10 -1 10 3 0 8 -4 11 -10z
m425 -4 c0 -3 -5 -8 -12 -12 -7 -4 -8 -3 -4 4 7 12 16 16 16 8z m508 -56 c-9
-26 -9 -35 0 -38 13 -4 17 -52 5 -52 -18 1 -35 18 -24 24 7 5 7 14 0 30 -9 19
-7 29 6 50 23 34 28 28 13 -14z m79 23 c-4 -3 -10 -3 -14 0 -3 4 0 7 7 7 7 0
10 -3 7 -7z m-1703 -24 c-50 -55 -224 -153 -386 -215 -98 -38 -113 -41 -104
-19 8 22 -21 19 -33 -4 -6 -10 -18 -22 -28 -25 -12 -5 -8 3 11 23 21 22 44 33
85 41 150 28 284 84 395 167 79 58 88 63 60 32z m229 -130 l22 -2 -22 -4 c-13
-2 -23 -9 -23 -14 0 -6 9 -7 20 -4 28 9 50 -11 50 -44 0 -17 14 -44 37 -71 38
-44 35 -47 -20 -25 -10 4 -17 4 -16 -1 6 -36 -3 -64 -20 -64 -23 0 -35 16 -37
48 -2 46 -14 33 -14 -16 0 -80 -6 -77 146 -76 127 1 136 3 160 25 33 31 43 15
39 -60 l-4 -56 -38 -5 c-39 -5 -42 -10 -46 -70 -1 -14 -11 -30 -22 -35 -27
-14 -85 -6 -85 11 0 8 -5 14 -11 14 -6 0 -9 -9 -6 -20 4 -16 -1 -14 -25 10
-25 26 -51 36 -80 31 -5 0 -8 4 -8 10 0 6 -7 3 -16 -5 -8 -9 -21 -16 -27 -16
-8 0 -7 -4 2 -9 8 -5 20 -7 28 -4 7 3 13 -1 13 -8 0 -11 3 -11 10 1 8 13 10
12 10 -4 0 -15 -6 -18 -40 -14 -34 3 -40 1 -40 -15 0 -13 5 -17 15 -14 8 4 17
2 20 -3 4 -6 -3 -10 -14 -10 -18 0 -21 -6 -21 -39 0 -25 5 -41 15 -45 8 -3 15
-1 15 4 0 6 5 10 10 10 6 0 10 -7 10 -15 0 -8 -7 -15 -16 -15 -32 0 -6 -25 29
-28 54 -5 46 -26 -10 -30 -26 -2 -50 -5 -52 -8 -16 -16 38 -24 142 -21 82 3
117 0 117 -8 0 -7 -41 -12 -126 -13 -122 -2 -149 -6 -140 -21 4 -6 33 -10 106
-15 46 -2 21 -21 -30 -22 -99 -3 -98 -2 -75 -20 11 -8 32 -14 48 -11 15 2 27
0 27 -3 0 -6 26 -6 55 0 6 1 36 2 67 1 44 -1 56 -4 52 -14 -4 -10 -27 -14 -89
-13 -79 1 -85 0 -85 -19 0 -15 2 -17 9 -6 6 10 10 10 16 1 4 -7 17 -9 33 -5
22 5 24 4 13 -8 -15 -18 -80 -32 -93 -19 -5 5 -26 6 -46 3 -58 -10 -92 -3 -92
19 0 10 6 21 13 23 7 3 5 6 -5 6 -14 1 -18 -7 -18 -34 l0 -34 113 -4 112 -3
-117 -2 -118 -2 0 35 c0 28 -4 35 -20 35 -14 0 -20 -7 -20 -24 0 -39 -11 -56
-34 -55 -20 0 -20 1 2 10 18 7 23 15 20 36 -2 14 -8 28 -15 30 -7 3 -9 -4 -6
-18 5 -19 3 -20 -18 -14 -13 4 -31 14 -40 21 -8 8 -19 14 -23 14 -4 0 -24 14
-45 30 -30 25 -37 36 -33 58 2 18 -4 36 -17 52 l-21 25 15 -37 c19 -47 19 -48
-3 -48 -9 0 -42 -9 -72 -20 -30 -11 -66 -20 -80 -19 -25 1 -25 1 5 14 l30 14
-42 1 c-54 0 -73 8 -73 30 0 26 16 33 42 19 31 -17 144 -40 161 -33 8 3 14 18
13 37 -1 82 5 136 17 140 6 2 5 3 -5 2 -20 -3 -30 29 -14 50 8 12 22 14 59 9
49 -7 60 -26 18 -32 -17 -3 -21 0 -15 10 6 10 5 11 -7 2 -8 -7 -23 -14 -34
-17 -11 -2 9 -6 45 -7 36 -2 53 -5 38 -7 -16 -2 -28 -8 -28 -12 0 -11 36 -42
46 -40 21 4 34 -2 34 -14 0 -7 6 -22 14 -32 12 -16 16 -17 30 -6 13 11 16 9
21 -16 4 -15 8 -32 9 -37 4 -17 35 -15 40 2 3 10 5 52 4 95 -1 61 3 83 16 99
10 11 21 29 25 40 9 24 -12 145 -28 161 -6 6 -11 26 -11 44 0 27 -4 33 -22 34
-23 2 -23 2 1 6 21 4 23 9 18 40 -5 28 -3 34 8 29 9 -3 15 1 15 9 0 22 16 18
28 -7 8 -17 11 -19 11 -6 1 9 9 19 19 21 14 4 13 5 -4 6 -25 1 -69 47 -78 81
-7 24 -6 24 9 -2 18 -32 29 -37 20 -9 -11 34 -14 81 -5 81 5 0 14 -16 20 -35
10 -32 20 -40 43 -36 4 0 7 -9 7 -22 0 -12 9 -37 21 -56 18 -31 19 -35 5 -43
-23 -13 -20 -48 4 -48 19 0 20 7 20 93 0 61 -4 98 -12 106 -10 11 -10 14 0 18
8 3 13 34 14 96 2 90 2 90 5 20 4 -67 6 -73 26 -74z m-1334 105 c-9 -11 -7
-15 7 -20 11 -4 50 -25 88 -47 58 -33 72 -38 88 -28 17 10 17 9 7 -8 -11 -16
-16 -17 -38 -7 -55 25 -117 59 -149 83 -26 20 -31 28 -21 39 6 7 15 11 21 8 5
-3 4 -11 -3 -20z m1641 22 c0 -3 -5 -8 -12 -12 -7 -4 -8 -3 -4 4 7 12 16 16
16 8z m288 -120 c2 -92 0 -117 -10 -114 -9 3 -14 37 -16 122 -2 92 0 117 10
114 9 -3 14 -37 16 -122z m190 7 c-2 -82 -7 -118 -15 -121 -10 -3 -13 24 -13
111 0 62 3 117 7 120 19 20 23 -4 21 -110z m-373 -63 c-17 -76 -32 -122 -47
-137 -18 -19 -19 -25 -7 -39 7 -9 22 -20 34 -24 16 -7 17 -9 3 -9 -9 -1 -29
10 -45 23 l-27 24 27 53 c14 30 39 106 54 169 20 80 29 106 31 84 2 -17 -9
-82 -23 -144z m546 44 c16 -65 41 -137 54 -160 14 -24 25 -45 25 -48 0 -10
-64 -46 -80 -46 -8 1 0 7 18 15 38 16 39 26 11 64 -20 28 -51 147 -64 251 -10
82 2 56 36 -76z m-1089 91 c5 -22 2 -25 -21 -25 -14 0 -21 4 -15 8 6 4 13 15
17 25 9 23 14 21 19 -8z m368 5 c6 -11 8 -26 4 -32 -10 -15 -34 19 -27 38 7
19 10 18 23 -6z m37 13 c-4 -3 -10 -3 -14 0 -3 4 0 7 7 7 7 0 10 -3 7 -7z
m879 -51 c-3 -3 -6 1 -6 8 0 9 -5 8 -13 -5 -19 -25 -30 -4 -16 32 l11 28 15
-28 c8 -16 12 -31 9 -35z m204 54 c0 -3 -5 -8 -12 -12 -7 -4 -8 -3 -4 4 7 12
16 16 16 8z m-1557 -43 c-13 -2 -33 -2 -45 0 -13 2 -3 4 22 4 25 0 35 -2 23
-4z m237 -22 c0 -11 3 -28 6 -38 4 -14 4 -15 -4 -3 -17 27 -24 60 -13 60 6 0
11 -9 11 -19z m280 -47 c0 -8 -2 -14 -4 -14 -7 0 -46 66 -46 76 1 15 50 -46
50 -62z m749 12 c-11 -20 -23 -36 -26 -36 -7 0 8 43 25 70 24 38 26 7 1 -34z
m241 40 c0 -3 -4 -8 -10 -11 -5 -3 -10 -1 -10 4 0 6 5 11 10 11 6 0 10 -2 10
-4z m-1223 -23 c-4 -3 -7 0 -7 7 0 7 3 10 7 7 3 -4 3 -10 0 -14z m50 0 c-4 -3
-7 0 -7 7 0 7 3 10 7 7 3 -4 3 -10 0 -14z m1090 0 c-4 -3 -7 0 -7 7 0 7 3 10
7 7 3 -4 3 -10 0 -14z m100 -5 c-3 -8 -6 -5 -6 6 -1 11 2 17 5 13 3 -3 4 -12
1 -19z m48 12 c3 -5 1 -10 -4 -10 -6 0 -11 5 -11 10 0 6 2 10 4 10 3 0 8 -4
11 -10z m-1243 -45 c9 -20 9 -20 -6 -1 -9 11 -16 27 -15 35 0 14 1 14 6 1 3
-8 10 -24 15 -35z m1065 28 c-4 -3 -7 0 -7 7 0 7 3 10 7 7 3 -4 3 -10 0 -14z
m-2507 -18 c0 -15 -19 -24 -38 -17 -10 3 -9 8 4 23 18 20 34 17 34 -6z m38 13
c-6 -18 -25 -21 -25 -3 0 8 7 15 15 15 7 0 12 -5 10 -12z m1050 -38 c-6 -19
-15 -27 -24 -23 -8 3 -14 0 -14 -6 0 -6 -8 -11 -17 -10 -10 0 -13 3 -7 5 7 3
10 13 7 23 -6 24 22 51 46 44 17 -4 18 -9 9 -33z m490 6 c-30 -29 -43 -22 -16
9 12 13 25 22 30 19 5 -3 -1 -16 -14 -28z m943 7 c-12 -20 -14 -14 -5 12 4 9
9 14 11 11 3 -2 0 -13 -6 -23z m132 -13 c-3 -11 -9 -20 -14 -20 -5 0 -9 -4 -9
-10 0 -5 8 -7 18 -3 16 6 16 5 1 -13 -9 -10 -19 -26 -21 -34 -3 -8 -6 3 -6 25
0 23 7 48 15 58 20 22 22 21 16 -3z m-1756 -7 c-4 -3 -7 0 -7 7 0 7 3 10 7 7
3 -4 3 -10 0 -14z m-746 -10 c1 -5 3 -26 5 -48 1 -22 4 -49 6 -60 2 -14 -9
-25 -41 -43 -25 -13 -53 -21 -63 -19 -24 7 -23 -12 2 -38 l20 -22 -28 5 c-15
2 -55 -3 -87 -12 -61 -16 -80 -15 -48 2 31 17 125 115 172 181 42 57 59 72 62
54z m769 -55 c51 -74 148 -173 179 -183 37 -11 18 -15 -22 -4 -20 5 -37 13
-37 17 0 5 -19 28 -42 53 -44 46 -116 142 -125 166 -11 28 6 10 47 -49z m135
1 l50 -6 -47 -2 c-47 -1 -47 -1 -50 -38 l-3 -38 -31 45 c-22 33 -27 49 -20 57
8 8 17 8 31 0 11 -6 43 -14 70 -18z m408 -53 c30 -22 113 -29 152 -12 16 7 18
6 8 -4 -6 -7 -34 -15 -61 -18 -60 -5 -124 24 -152 71 -27 44 -25 57 3 17 12
-18 35 -43 50 -54z m-1066 67 c-4 -3 -10 -3 -14 0 -3 4 0 7 7 7 7 0 10 -3 7
-7z m2170 -36 c-47 -62 -140 -86 -197 -51 -17 11 -19 13 -5 9 79 -27 144 -10
191 49 36 44 46 38 11 -7z m-2212 -30 l60 -32 -3 -42 c-3 -40 -2 -43 22 -43
21 0 26 5 26 24 0 35 14 39 40 11 14 -15 20 -30 16 -41 -5 -14 -16 -16 -69
-11 -34 3 -69 8 -77 11 -33 14 -65 -84 -37 -113 10 -11 7 -12 -13 -6 -14 4
-42 16 -62 26 -34 17 -38 23 -38 58 0 23 12 62 30 97 16 32 30 67 30 77 0 22
4 21 75 -16z m1565 8 c0 -18 -5 -25 -20 -25 -15 0 -20 7 -20 25 0 18 5 25 20
25 15 0 20 -7 20 -25z m188 3 c-2 -15 -11 -24 -25 -26 -19 -3 -23 1 -23 22 0
21 5 26 26 26 21 0 25 -4 22 -22z m567 11 c11 -16 1 -19 -13 -3 -7 8 -8 14 -3
14 5 0 13 -5 16 -11z m-2098 -51 c-2 -13 -4 -5 -4 17 -1 22 1 32 4 23 2 -10 2
-28 0 -40z m1167 17 c-14 -19 -31 -35 -37 -35 -6 0 4 16 23 35 19 19 36 35 37
35 2 0 -8 -16 -23 -35z m-1294 -10 c0 -14 -4 -25 -9 -25 -4 0 -6 11 -3 25 2
14 6 25 8 25 2 0 4 -11 4 -25z m331 -122 c3 -44 1 -49 -30 -70 -47 -32 -63
-28 -24 5 44 37 51 78 24 141 -29 68 -26 88 3 24 14 -28 26 -73 27 -100z
m1956 140 c-4 -3 -10 -3 -14 0 -3 4 0 7 7 7 7 0 10 -3 7 -7z m-1843 -25 c14
-22 -29 -70 -59 -66 -30 4 -32 52 -3 72 27 19 47 17 62 -6z m1792 10 c5 -8 2
-9 -9 -5 -10 3 -17 2 -17 -4 0 -6 -5 -7 -11 -3 -8 4 -7 9 2 15 19 12 27 11 35
-3z m67 -5 c-7 -2 -19 -2 -25 0 -7 3 -2 5 12 5 14 0 19 -2 13 -5z m-2816 -9
c-3 -3 -12 -4 -19 -1 -8 3 -5 6 6 6 11 1 17 -2 13 -5z m60 -1 c-4 -3 -10 -3
-14 0 -3 4 0 7 7 7 7 0 10 -3 7 -7z m-140 -19 c-3 -3 -12 -4 -19 -1 -8 3 -5 6
6 6 11 1 17 -2 13 -5z m1760 -11 c-4 -3 -7 0 -7 7 0 7 3 10 7 7 3 -4 3 -10 0
-14z m828 -3 c8 0 11 -8 8 -20 -3 -11 0 -50 7 -86 10 -50 10 -68 1 -73 -9 -6
-9 -15 -1 -35 5 -15 10 -44 10 -64 -1 -33 -2 -35 -13 -17 -6 11 -13 38 -14 60
-8 140 -13 169 -30 189 -11 11 -25 30 -33 40 -14 18 -13 19 19 13 18 -4 39 -7
46 -7z m-2558 -6 c-3 -3 -12 -4 -19 -1 -8 3 -5 6 6 6 11 1 17 -2 13 -5z m556
-14 c-3 -11 -9 -17 -14 -15 -10 7 -1 35 11 35 5 0 6 -9 3 -20z m147 0 c0 -11
-4 -20 -10 -20 -5 0 -10 9 -10 20 0 11 5 20 10 20 6 0 10 -9 10 -20z m2020 13
c-8 -3 -18 -11 -22 -17 -12 -18 -9 -54 5 -59 7 -2 6 -3 -3 -3 -16 1 -26 47
-16 72 3 8 16 14 28 13 15 0 18 -3 8 -6z m31 -40 c12 -15 12 -16 -3 -10 -9 3
-19 1 -21 -6 -2 -7 -8 -9 -12 -5 -4 4 -1 14 6 22 17 19 14 19 30 -1z m49 7 c8
-5 11 -10 5 -10 -5 0 -17 5 -25 10 -8 5 -10 10 -5 10 6 0 17 -5 25 -10z m-943
-7 c-4 -3 -10 -3 -14 0 -3 4 0 7 7 7 7 0 10 -3 7 -7z m500 1 c-3 -3 -12 -4
-19 -1 -8 3 -5 6 6 6 11 1 17 -2 13 -5z m-1257 -13 c-19 -4 -45 -13 -57 -19
-35 -19 -50 -13 -23 8 17 13 39 19 70 19 45 -1 45 -1 10 -8z m-1117 -44 c-6
-10 -21 0 -34 25 -11 20 -11 20 14 2 14 -11 23 -22 20 -27z m326 8 c-2 -19 2
-40 9 -47 18 -18 14 -30 -7 -19 -18 10 -18 8 -8 -24 12 -39 27 -46 27 -13 0
15 3 19 10 12 17 -17 -15 -81 -42 -86 -13 -3 -31 -9 -40 -13 -16 -6 -18 -1
-18 38 0 25 -5 49 -10 52 -6 3 -7 18 -4 33 8 33 24 53 24 29 0 -11 5 -14 17
-10 11 4 13 8 5 11 -10 3 -10 7 -1 18 7 8 9 17 6 21 -6 5 20 32 31 33 2 0 2
-16 1 -35z m654 -6 c-4 -14 0 -19 14 -19 27 0 43 -48 26 -80 -7 -14 -13 -38
-12 -55 0 -16 1 -33 0 -38 -2 -17 -80 34 -90 60 -11 28 -11 28 -5 -4 3 -21 1
-33 -5 -33 -16 0 -13 52 4 77 9 12 14 28 13 35 -2 8 7 11 30 9 32 -2 33 -1 22
19 -7 12 -18 19 -26 16 -10 -4 -14 3 -14 24 0 28 2 29 24 19 16 -8 22 -17 19
-30z m808 0 c-6 -16 -10 -18 -10 -7 -1 22 12 55 16 42 2 -6 -1 -22 -6 -35z
m667 5 c-3 -14 -5 -12 -10 9 -3 19 -2 25 4 19 6 -6 8 -18 6 -28z m193 24 c1
-7 1 -16 0 -20 0 -5 3 -8 8 -8 12 0 55 -69 48 -76 -3 -3 -8 4 -12 15 -7 23
-20 27 -30 11 -3 -5 -1 -10 4 -10 6 0 11 -8 11 -17 0 -15 -3 -15 -21 4 -24 23
-40 113 -20 113 6 0 12 -6 12 -12z m-2551 -14 c0 -3 -14 -10 -30 -16 -18 -6
-38 -23 -47 -42 -9 -17 -18 -26 -20 -19 -7 20 15 49 49 66 35 17 48 21 48 11z
m565 -20 c44 -8 90 -17 103 -20 16 -3 22 0 22 13 1 17 1 17 11 -1 9 -14 7 -22
-6 -35 -10 -9 -15 -10 -11 -3 9 15 6 15 -30 -2 -32 -16 -139 -46 -164 -46 -38
0 -92 23 -107 46 -13 20 -14 30 -4 51 13 28 18 28 186 -3z m1860 6 c18 -19 17
-20 -3 -20 -14 0 -20 5 -16 14 3 8 -2 16 -13 19 -14 4 -14 5 -2 6 9 0 24 -8
34 -19z m-88 -12 c-3 -8 -6 -5 -6 6 -1 11 2 17 5 13 3 -3 4 -12 1 -19z m-550
-10 c-3 -8 -6 -5 -6 6 -1 11 2 17 5 13 3 -3 4 -12 1 -19z m30 0 c-3 -8 -6 -5
-6 6 -1 11 2 17 5 13 3 -3 4 -12 1 -19z m20 -10 c-3 -7 -5 -2 -5 12 0 14 2 19
5 13 2 -7 2 -19 0 -25z m167 10 c-4 -13 -10 -74 -13 -136 -6 -105 -7 -112 -23
-100 -16 12 -16 23 -7 117 5 57 14 112 20 122 14 27 32 24 23 -3z m64 -22 c6
-21 13 -77 15 -124 2 -70 -1 -87 -13 -89 -12 -3 -16 13 -18 84 -2 49 -7 107
-12 131 -10 54 9 53 28 -2z m179 22 c-3 -8 -6 -5 -6 6 -1 11 2 17 5 13 3 -3 4
-12 1 -19z m442 10 c11 -10 13 -10 7 0 -5 8 2 12 24 12 17 0 29 -4 25 -10 -3
-5 -13 -7 -23 -4 -9 2 -7 -1 6 -7 25 -14 30 -39 6 -39 -9 0 -12 5 -8 13 4 6
-2 4 -13 -6 -19 -17 -21 -17 -36 5 -12 18 -18 20 -25 10 -6 -9 -12 -6 -20 13
-11 23 -10 25 16 25 15 0 34 -6 41 -12z m-1524 -28 c9 -16 13 -30 11 -30 -3 0
-12 14 -21 30 -9 17 -13 30 -11 30 3 0 12 -13 21 -30z m722 8 c-3 -8 -6 -5 -6
6 -1 11 2 17 5 13 3 -3 4 -12 1 -19z m20 0 c-3 -8 -6 -5 -6 6 -1 11 2 17 5 13
3 -3 4 -12 1 -19z m270 0 c-3 -8 -6 -5 -6 6 -1 11 2 17 5 13 3 -3 4 -12 1 -19z
m20 5 c-4 -3 -7 0 -7 7 0 7 3 10 7 7 3 -4 3 -10 0 -14z m-1213 -18 c-9 -14
-19 -24 -21 -21 -7 7 16 46 28 46 5 0 2 -11 -7 -25z m1143 8 c-4 -3 -7 0 -7 7
0 7 3 10 7 7 3 -4 3 -10 0 -14z m267 2 c3 -8 1 -15 -4 -15 -6 0 -10 7 -10 15
0 8 2 15 4 15 2 0 6 -7 10 -15z m-694 -15 c0 -5 -5 -10 -11 -10 -5 0 -7 5 -4
10 3 6 8 10 11 10 2 0 4 -4 4 -10z m660 0 c0 -5 -4 -10 -10 -10 -5 0 -10 5
-10 10 0 6 5 10 10 10 6 0 10 -4 10 -10z m-2432 -37 c-14 -16 -30 -41 -36 -58
l-10 -30 -1 28 c-1 19 9 39 28 58 37 37 53 38 19 2z m1262 -46 c0 -7 -6 -3
-12 8 -6 11 -16 27 -22 35 -6 9 -1 5 12 -8 12 -13 22 -28 22 -35z m495 55 c11
-4 21 -12 22 -19 2 -9 -8 -8 -38 3 -50 17 -46 17 -53 -2 -4 -10 1 -22 11 -30
23 -17 3 -18 -21 -1 -16 12 -17 16 -5 35 14 22 43 27 84 14z m119 -2 c20 0 22
-4 18 -26 -2 -14 -13 -31 -23 -37 -11 -7 -19 -15 -19 -20 0 -4 4 -6 9 -2 5 3
12 1 15 -4 3 -5 -10 -9 -29 -9 -19 0 -35 5 -35 10 0 6 8 7 17 4 10 -4 14 -4
11 -1 -4 4 -3 17 2 30 6 16 4 29 -8 46 -15 21 -14 22 2 16 10 -4 28 -7 40 -7z
m80 -5 c-4 -8 -8 -15 -10 -15 -2 0 -4 7 -4 15 0 8 4 15 10 15 5 0 7 -7 4 -15z
m283 8 c-4 -3 -10 -3 -14 0 -3 4 0 7 7 7 7 0 10 -3 7 -7z m276 -17 c15 -22 14
-24 -9 -35 -14 -6 -30 -11 -37 -10 -7 0 0 6 16 13 24 11 26 14 14 31 -12 15
-19 16 -44 8 -17 -6 -36 -7 -43 -3 -15 9 7 17 56 19 23 1 36 -6 47 -23z m111
8 c4 -10 1 -14 -6 -12 -15 5 -23 28 -10 28 5 0 13 -7 16 -16z m163 0 c-3 -3
-12 -4 -19 -1 -8 3 -5 6 6 6 11 1 17 -2 13 -5z m-1719 -31 c3 -23 -45 -76 -60
-66 -11 6 -10 51 2 72 14 26 54 22 58 -6z m1183 -3 c5 0 9 -5 9 -11 0 -8 -5
-8 -15 1 -8 7 -14 20 -14 29 1 13 2 13 6 -1 2 -10 9 -18 14 -18z m-2053 -16
c3 -28 0 -32 -27 -36 -29 -4 -31 -2 -31 27 0 38 7 47 35 43 14 -2 21 -12 23
-34z m255 -4 c9 0 17 -5 17 -10 0 -6 19 -20 43 -31 l42 -19 -50 5 c-27 3 -69
8 -92 11 -59 9 -56 -11 5 -30 38 -12 42 -15 19 -15 -16 -1 -48 4 -73 10 -49
13 -54 26 -30 84 l15 35 43 -20 c24 -11 51 -20 61 -20z m688 -6 c-5 -16 -10
-21 -10 -12 -1 18 10 51 15 45 2 -1 -1 -16 -5 -33z m809 26 c0 -5 -5 -10 -11
-10 -5 0 -7 5 -4 10 3 6 8 10 11 10 2 0 4 -4 4 -10z m250 -10 c-11 -20 -30
-28 -30 -12 0 11 22 32 32 32 5 0 4 -9 -2 -20z m475 10 c4 -6 -5 -10 -19 -10
-14 0 -26 5 -26 10 0 6 9 10 19 10 11 0 23 -4 26 -10z m-2622 -22 c8 -28 1
-38 -27 -38 -34 0 -39 11 -14 37 27 29 34 29 41 1z m1417 -3 c0 -8 -7 -15 -15
-15 -8 0 -15 7 -15 15 0 8 7 15 15 15 8 0 15 -7 15 -15z m437 -2 c-4 -3 -7 0
-7 7 0 7 3 10 7 7 3 -4 3 -10 0 -14z m370 0 c-4 -3 -7 0 -7 7 0 7 3 10 7 7 3
-4 3 -10 0 -14z m-611 -46 c-10 -25 -11 -38 -3 -46 7 -7 7 -11 1 -11 -28 0
-32 23 -11 67 25 51 35 43 13 -10z m873 -3 c13 -37 6 -54 -24 -54 -5 0 -4 4 4
9 12 8 11 15 -3 50 -19 50 -20 57 -3 43 7 -6 19 -27 26 -48z m-2042 39 c-4 -3
-10 -3 -14 0 -3 4 0 7 7 7 7 0 10 -3 7 -7z m1398 -3 c3 -5 4 -10 1 -10 -3 0
-8 5 -11 10 -3 6 -4 10 -1 10 3 0 8 -4 11 -10z m405 6 c0 -3 -5 -8 -12 -12 -7
-4 -8 -3 -4 4 7 12 16 16 16 8z m-1651 -22 c9 -8 -105 -2 -124 6 -12 5 8 6 50
3 39 -3 72 -7 74 -9z m1668 -6 c-3 -8 -6 -5 -6 6 -1 11 2 17 5 13 3 -3 4 -12
1 -19z m33 12 c0 -5 -5 -10 -11 -10 -5 0 -7 5 -4 10 3 6 8 10 11 10 2 0 4 -4
4 -10z m17 -7 c-4 -3 -7 0 -7 7 0 7 3 10 7 7 3 -4 3 -10 0 -14z m-2012 -62
c39 4 57 -8 35 -21 -11 -7 -6 -10 19 -10 39 0 34 -9 -12 -27 -42 -15 -7 -17
46 -2 46 12 51 10 38 -23 -6 -16 -31 -36 -75 -57 -104 -52 -140 -26 -134 94 1
28 -1 56 -5 63 -17 25 4 30 28 6 19 -19 34 -25 60 -23z m549 41 c3 -5 -16 -18
-42 -30 l-47 -22 35 30 c36 31 46 35 54 22z m823 -9 c-4 -3 -7 0 -7 7 0 7 3
10 7 7 3 -4 3 -10 0 -14z m910 10 c-4 -3 -10 -3 -14 0 -3 4 0 7 7 7 7 0 10 -3
7 -7z m-1694 -38 c-3 -13 -9 -22 -14 -19 -5 3 -5 13 1 23 5 10 6 22 2 26 -4 5
-2 5 4 2 6 -4 9 -18 7 -32z m1407 23 c0 -4 -9 -8 -20 -8 -11 0 -20 4 -20 9 0
6 9 9 20 8 11 -1 20 -5 20 -9z m-983 -30 c-3 -7 -5 -2 -5 12 0 14 2 19 5 13 2
-7 2 -19 0 -25z m46 9 c-5 -9 -3 -9 8 -1 14 12 88 19 162 16 24 -1 36 -6 35
-14 -4 -20 -40 -31 -50 -16 -4 7 -8 8 -8 3 0 -6 -18 -11 -40 -11 -31 -1 -40 2
-40 15 0 14 -2 14 -10 1 -6 -10 -22 -14 -47 -11 -46 4 -49 6 -32 24 16 17 33
12 22 -6z m1272 13 c-5 -9 18 -15 28 -7 2 1 10 -3 18 -10 17 -13 62 -6 53 8
-3 5 -11 6 -17 3 -9 -5 -9 -4 0 6 6 7 16 10 21 6 11 -7 13 -24 15 -126 l2 -75
-34 3 c-23 3 -45 15 -68 38 -18 19 -44 39 -58 44 -15 6 -27 20 -30 37 -4 15
-10 35 -14 44 -7 12 -2 16 28 17 20 2 38 7 39 12 2 6 8 10 13 10 6 0 7 -4 4
-10z m-2451 -12 c-3 -5 1 -8 8 -8 16 -1 -55 -65 -96 -86 -28 -16 -72 -15 -174
3 l-33 5 22 24 c19 21 32 24 90 24 48 0 72 5 83 16 9 8 16 18 16 22 0 4 20 7
44 7 25 0 42 -3 40 -7z m2121 -64 c-62 -60 -77 -56 -18 6 25 27 50 47 55 44 5
-3 -12 -25 -37 -50z m-1706 30 c2 -2 -17 -4 -43 -4 -30 0 -45 4 -41 10 6 9 72
4 84 -6z m1058 -1 c-4 -3 -7 0 -7 7 0 7 3 10 7 7 3 -4 3 -10 0 -14z m-174 -13
c-5 -19 -33 -27 -73 -21 -8 1 -23 2 -32 2 -10 0 -18 7 -18 15 0 8 9 14 20 14
11 0 20 -5 20 -11 0 -8 4 -8 13 -1 6 5 23 12 37 15 14 2 28 5 32 6 3 0 4 -8 1
-19z m117 11 c-1 -21 -21 -32 -51 -29 -36 3 -43 22 -9 24 11 1 23 3 25 6 7 7
35 6 35 -1z m900 5 c0 -3 -4 -8 -10 -11 -5 -3 -10 -1 -10 4 0 6 5 11 10 11 6
0 10 -2 10 -4z m-1780 -54 c0 -8 17 -30 37 -50 37 -34 37 -35 6 -19 -49 26
-93 67 -93 88 0 16 3 17 25 7 14 -6 25 -18 25 -26z m177 1 c-3 -10 -5 -4 -5
12 0 17 2 24 5 18 2 -7 2 -21 0 -30z m739 11 c-5 -18 -2 -32 10 -45 9 -11 12
-19 6 -19 -6 0 -20 12 -31 26 -16 20 -18 31 -10 45 15 29 32 24 25 -7z m835 5
c9 -17 7 -25 -12 -45 -26 -28 -41 -23 -15 5 11 12 14 21 7 26 -14 8 -14 35 -1
35 5 0 14 -9 21 -21z m-1826 -40 c3 -10 17 -27 31 -38 13 -10 24 -22 24 -25 0
-3 -54 -6 -120 -6 l-120 0 0 28 c1 47 20 61 91 64 77 4 87 1 94 -23z m1400 24
c-27 -3 -49 -14 -68 -33 -26 -26 -82 -49 -93 -37 -3 2 10 7 29 11 18 3 46 20
62 36 24 25 36 30 69 28 l41 -1 -40 -4z m-532 -22 c4 -18 0 -19 -46 -18 -67 3
-75 25 -10 30 26 2 49 4 49 5 1 1 4 -7 7 -17z m630 -40 c-4 -7 -34 21 -45 43
-7 14 -2 11 18 -9 16 -16 28 -32 27 -34z m-549 34 c4 -12 -3 -15 -29 -15 -26
0 -33 3 -29 15 4 8 16 15 29 15 13 0 25 -7 29 -15z m-6 -56 c-3 -8 -7 -3 -11
10 -4 17 -3 21 5 13 5 -5 8 -16 6 -23z m796 15 c11 -30 6 -42 -21 -47 -44 -8
-61 36 -20 53 31 12 34 12 41 -6z m-2239 -13 c-3 -6 -11 -8 -17 -5 -6 4 -5 9
3 15 16 10 23 4 14 -10z m103 -43 c28 -30 24 -32 -40 -22 -43 7 -48 25 -22 63
16 22 17 22 27 5 5 -11 21 -31 35 -46z m1518 47 c4 -8 1 -22 -5 -29 -17 -21
-65 -5 -69 22 -3 19 1 22 33 22 23 0 38 -5 41 -15z m-1839 -1 c-3 -3 -12 -4
-19 -1 -8 3 -5 6 6 6 11 1 17 -2 13 -5z m103 -22 c38 -16 -4 -14 -55 3 l-40
13 35 -3 c19 -2 46 -7 60 -13z m384 -9 c7 -17 -17 -43 -38 -43 -6 0 -3 5 7 11
12 7 16 17 12 30 -8 24 10 25 19 2z m2051 -3 c3 -5 4 -10 1 -10 -3 0 -8 5 -11
10 -3 6 -4 10 -1 10 3 0 8 -4 11 -10z m-2505 -4 c0 -2 -7 -7 -16 -10 -8 -3
-12 -2 -9 4 6 10 25 14 25 6z m145 -6 c13 -5 14 -9 5 -9 -8 0 -24 4 -35 9 -13
5 -14 9 -5 9 8 0 24 -4 35 -9z m1422 -7 c-4 -3 -7 0 -7 7 0 7 3 10 7 7 3 -4 3
-10 0 -14z m469 7 c20 8 24 6 24 -10 0 -20 0 -20 21 1 11 11 27 18 36 15 8 -3
19 -6 24 -6 5 0 9 -7 9 -15 0 -8 -4 -15 -10 -15 -5 0 -10 6 -10 13 0 8 -3 9
-8 1 -13 -20 -65 -24 -80 -6 -12 16 -13 15 -8 -2 5 -14 3 -16 -6 -9 -7 5 -28
8 -47 8 l-34 -1 23 18 c15 12 27 15 33 9 6 -6 19 -6 33 -1z m141 -10 c-1 -11
-5 -20 -9 -20 -4 0 -8 9 -8 20 0 11 4 20 9 20 6 0 9 -9 8 -20z m-2117 7 c0 -2
-15 -13 -32 -26 l-33 -22 28 25 c26 24 37 31 37 23z m1590 -8 c0 -6 -7 -8 -16
-5 -8 3 -13 2 -10 -3 3 -5 -6 -8 -19 -8 -23 0 -31 7 -20 18 10 10 65 9 65 -2z
m144 1 c37 -14 34 -32 -3 -19 -17 6 -40 9 -53 6 -21 -4 -21 -4 3 -6 15 0 32
-8 40 -17 11 -14 8 -15 -27 -10 -21 3 -31 3 -21 0 35 -11 16 -25 -30 -21 -27
3 -38 3 -26 0 21 -4 54 -33 37 -33 -5 1 -34 7 -64 14 l-55 13 33 17 c18 9 30
21 27 26 -4 6 6 11 22 11 17 1 21 3 10 6 -9 2 -15 9 -12 14 8 12 87 12 119 -1z
m692 -5 c-3 -10 1 -15 12 -16 9 -1 4 -5 -13 -9 l-30 -8 30 -1 c17 -1 41 -10
54 -20 l24 -18 -39 -7 c-21 -4 -47 -9 -56 -12 -29 -9 -20 13 10 25 23 9 20 10
-20 5 -51 -7 -62 1 -25 17 17 7 14 8 -17 3 -36 -5 -38 -4 -27 10 8 9 25 17 40
17 24 2 24 2 3 6 -13 3 -36 0 -53 -6 -18 -6 -29 -6 -29 0 0 15 41 28 94 28 39
1 47 -2 42 -14z m-2366 2 c0 -1 -26 -27 -57 -57 l-58 -55 55 58 c50 53 60 62
60 54z m1784 -3 c9 -3 16 -10 16 -14 0 -10 -38 -1 -46 11 -6 10 7 12 30 3z
m316 -10 c0 -2 -7 -4 -15 -4 -8 0 -15 4 -15 10 0 5 7 7 15 4 8 -4 15 -8 15
-10z m57 0 c-16 -9 -32 -13 -35 -9 -9 9 19 25 43 24 16 0 15 -2 -8 -15z
m-2182 -52 l-49 -47 44 51 c25 27 47 49 50 47 2 -2 -18 -25 -45 -51z m438 51
c-26 -3 -33 -9 -32 -26 1 -14 3 -16 6 -7 3 13 23 16 103 18 118 2 144 -14 30
-19 -47 -3 -84 -9 -92 -17 -11 -11 -8 -11 14 -3 17 6 30 7 33 1 3 -5 27 -8 53
-5 26 2 54 0 62 -5 12 -7 11 -9 -5 -9 -96 3 -205 -5 -205 -15 0 -8 34 -10 110
-8 60 2 110 -1 110 -6 0 -10 -7 -11 -119 -12 -99 -1 -99 -18 0 -24 158 -9 157
-9 69 -17 -112 -11 -110 -11 -147 -3 -21 4 -33 12 -33 23 0 9 -9 22 -20 29
-11 7 -20 17 -20 23 0 8 4 8 14 0 11 -9 16 -9 21 0 4 6 1 15 -6 20 -10 6 -11
9 -1 9 7 0 12 13 12 30 0 28 2 30 38 28 36 -1 36 -1 5 -5z m54 0 c-4 -3 -10
-3 -14 0 -3 4 0 7 7 7 7 0 10 -3 7 -7z m101 0 c-10 -2 -26 -2 -35 0 -10 3 -2
5 17 5 19 0 27 -2 18 -5z m-708 -7 c0 -2 -8 -10 -17 -17 -16 -13 -17 -12 -4 4
13 16 21 21 21 13z m90 1 c0 -1 -21 -20 -47 -41 l-48 -39 40 41 c34 35 55 50
55 39z m207 -64 c-9 -8 -68 28 -62 38 4 5 19 0 36 -12 17 -12 28 -23 26 -26z
m1616 19 c38 -6 34 -20 -9 -28 -23 -4 -45 -2 -61 7 -23 12 -23 14 -7 26 10 8
25 10 34 7 8 -4 27 -9 43 -12z m480 -7 c41 -29 43 -34 22 -74 l-14 -28 69 -6
c37 -3 97 -2 132 3 35 5 69 10 76 10 8 0 11 9 7 28 l-6 27 15 -25 c11 -18 11
-27 3 -32 -8 -5 -7 -8 3 -8 13 0 13 -1 0 -10 -13 -9 -13 -10 0 -11 8 0 2 -7
-15 -14 -49 -22 -147 -28 -257 -16 -178 21 -179 21 -176 45 2 15 11 22 31 24
22 3 27 7 22 22 -5 16 -1 18 33 13 28 -4 42 -1 51 11 18 22 -2 47 -21 28 -19
-19 -108 -12 -108 9 0 5 10 9 23 9 12 0 29 5 37 10 22 14 32 12 73 -15z
m-2233 12 c0 -2 -12 -14 -27 -28 l-28 -24 24 28 c23 25 31 32 31 24z m801 -17
c-13 -11 -31 -20 -40 -20 -12 0 -10 5 9 20 34 27 63 26 31 0z m-726 0 c8 -13
-5 -13 -25 0 -13 8 -13 10 2 10 9 0 20 -4 23 -10z m530 0 c3 -5 1 -10 -4 -10
-6 0 -11 5 -11 10 0 6 2 10 4 10 3 0 8 -4 11 -10z m-542 -32 c44 -31 31 -40
-17 -10 -24 15 -42 30 -39 35 5 8 13 4 56 -25z m1639 -15 c32 4 39 2 36 -11
-2 -9 -14 -20 -28 -24 -27 -8 38 -1 75 8 16 4 17 3 5 -5 -10 -7 -11 -11 -2
-11 14 0 16 -26 2 -35 -5 -3 -65 -13 -132 -21 -125 -16 -219 -14 -293 7 -34
10 -37 13 -20 20 20 8 20 8 0 9 -18 1 -17 2 5 11 16 7 47 6 91 -1 65 -10 230
-3 211 9 -5 3 -17 20 -26 38 -15 30 -15 33 2 42 14 8 19 5 26 -16 8 -23 12
-25 48 -20z m-1508 23 c-6 -15 -47 -46 -61 -46 -9 0 49 57 59 59 4 1 5 -5 2
-13z m83 -8 c-3 -8 -6 -5 -6 6 -1 11 2 17 5 13 3 -3 4 -12 1 -19z m377 0 c-8
-28 -12 -33 -20 -25 -9 8 6 47 17 47 6 0 7 -10 3 -22z m253 15 c-4 -3 -10 -3
-14 0 -3 4 0 7 7 7 7 0 10 -3 7 -7z m629 -18 c49 -32 26 -36 -113 -19 -51 6
-55 20 -10 33 40 13 92 7 123 -14z m404 11 c0 -23 -16 -27 -17 -5 -1 10 2 19
8 19 5 0 9 -6 9 -14z m526 3 c29 -8 42 -15 36 -21 -11 -11 -172 -27 -172 -17
0 11 34 37 55 42 32 8 34 8 81 -4z m-556 -16 c0 -17 -32 -31 -37 -16 -3 8 -14
8 -34 3 -21 -6 -29 -5 -29 4 0 19 5 21 54 22 33 1 46 -3 46 -13z m-1910 -3 c0
-5 -4 -10 -10 -10 -5 0 -10 5 -10 10 0 6 5 10 10 10 6 0 10 -4 10 -10z m851
-10 c-13 -11 -28 -20 -35 -20 -6 1 0 10 13 20 13 11 28 20 35 20 6 -1 0 -10
-13 -20z m512 -18 c-3 -12 -9 -22 -14 -22 -12 0 -11 7 2 32 13 25 20 19 12
-10z m-1483 4 c0 -3 -5 -8 -12 -12 -7 -4 -8 -3 -4 4 7 12 16 16 16 8z m101
-17 c-24 -22 -37 -20 -28 6 4 8 16 15 29 15 l22 0 -23 -21z m2032 4 c-34 -2
-93 -2 -130 0 -37 2 -9 3 62 3 72 0 102 -1 68 -3z m-2168 -23 c-3 -5 -12 -10
-18 -10 -7 0 -6 4 3 10 19 12 23 12 15 0z m235 1 c0 -5 -7 -12 -16 -15 -14 -5
-15 -4 -4 9 14 17 20 19 20 6z m1757 -8 c-4 -3 -10 -3 -14 0 -3 4 0 7 7 7 7 0
10 -3 7 -7z m230 0 c-4 -3 -10 -3 -14 0 -3 4 0 7 7 7 7 0 10 -3 7 -7z m-2200
-10 c-4 -3 -10 -3 -14 0 -3 4 0 7 7 7 7 0 10 -3 7 -7z"/>
<path d="M591 1599 c-35 -16 -62 -32 -58 -35 3 -3 19 2 35 10 60 31 135 31
240 0 9 -3 -8 8 -38 25 -69 38 -99 38 -179 0z"/>
<path d="M1574 1478 c-4 -7 -3 -8 4 -4 7 4 12 9 12 12 0 8 -9 4 -16 -8z"/>
<path d="M696 1226 c5 -13 -1 -16 -30 -16 -29 0 -36 -4 -36 -19 0 -26 23 -42
68 -48 50 -7 59 7 35 54 -18 36 -49 61 -37 29z"/>
<path d="M433 1213 c4 -3 10 -3 14 0 3 4 0 7 -7 7 -7 0 -10 -3 -7 -7z"/>
<path d="M620 1095 c-23 -12 -18 -14 63 -17 93 -3 111 4 50 21 -50 14 -83 13
-113 -4z"/>
<path d="M2583 1195 c0 -8 4 -15 9 -15 4 0 8 7 8 15 0 8 -4 15 -8 15 -5 0 -9
-7 -9 -15z"/>
<path d="M1471 910 c0 -33 1 -34 10 -11 6 16 6 28 -1 35 -7 7 -10 -1 -9 -24z"/>
<path d="M1437 742 c-16 -3 -15 -6 8 -18 31 -16 135 -19 135 -4 0 6 -26 10
-59 10 -33 0 -61 4 -63 8 -1 4 -11 6 -21 4z"/>
<path d="M1590 720 c0 -6 23 -10 51 -10 27 0 48 4 45 9 -8 12 -96 13 -96 1z"/>
<path d="M1704 718 c-4 -7 -3 -8 4 -4 12 7 16 16 8 16 -3 0 -8 -5 -12 -12z"/>
<path d="M1337 443 c-4 -3 -7 -18 -7 -31 0 -32 11 -23 14 12 3 28 3 30 -7 19z"/>
<path d="M1390 168 c-11 -4 -20 -10 -20 -12 0 -3 7 -3 15 0 8 4 15 1 15 -5 0
-9 6 -9 22 0 16 8 23 9 26 1 2 -6 10 -8 18 -5 8 3 14 -1 14 -11 0 -9 4 -16 10
-16 5 0 8 6 6 13 -15 48 -16 49 -31 37 -8 -7 -15 -8 -15 -3 0 11 -32 11 -60 1z"/>
<path d="M1716 1097 c3 -10 9 -15 12 -12 3 3 0 11 -7 18 -10 9 -11 8 -5 -6z"/>
<path d="M2616 1095 c-9 -26 -7 -32 5 -12 6 10 9 21 6 23 -2 3 -7 -2 -11 -11z"/>
<path d="M973 603 c4 -3 10 -3 14 0 3 4 0 7 -7 7 -7 0 -10 -3 -7 -7z"/>
<path d="M1030 550 c0 -5 5 -10 10 -10 6 0 10 5 10 10 0 6 -4 10 -10 10 -5 0
-10 -4 -10 -10z"/>
<path d="M1613 473 c4 -3 10 -3 14 0 3 4 0 7 -7 7 -7 0 -10 -3 -7 -7z"/>
<path d="M1530 460 c0 -7 3 -10 7 -7 3 4 3 10 0 14 -4 3 -7 0 -7 -7z"/>
<path d="M2706 447 c3 -10 9 -15 12 -12 3 3 0 11 -7 18 -10 9 -11 8 -5 -6z"/>
<path d="M688 363 c6 -2 18 -2 25 0 6 3 1 5 -13 5 -14 0 -19 -2 -12 -5z"/>
<path d="M688 343 c6 -2 18 -2 25 0 6 3 1 5 -13 5 -14 0 -19 -2 -12 -5z"/>
<path d="M673 323 c4 -3 10 -3 14 0 3 4 0 7 -7 7 -7 0 -10 -3 -7 -7z"/>
<path d="M653 73 c4 -3 10 -3 14 0 3 4 0 7 -7 7 -7 0 -10 -3 -7 -7z"/>
<path d="M2398 83 c6 -2 18 -2 25 0 6 3 1 5 -13 5 -14 0 -19 -2 -12 -5z"/>
<path d="M2358 73 c7 -3 16 -2 19 1 4 3 -2 6 -13 5 -11 0 -14 -3 -6 -6z"/>
<path d="M2418 63 c7 -3 16 -2 19 1 4 3 -2 6 -13 5 -11 0 -14 -3 -6 -6z"/>
<path d="M2728 63 c7 -3 16 -2 19 1 4 3 -2 6 -13 5 -11 0 -14 -3 -6 -6z"/>
<path d="M2728 43 c7 -3 16 -2 19 1 4 3 -2 6 -13 5 -11 0 -14 -3 -6 -6z"/>
<path d="M2635 30 c-27 -7 -27 -8 -5 -8 14 0 36 4 50 8 20 6 21 8 5 8 -11 0
-33 -4 -50 -8z"/>
<path d="M1973 73 c4 -3 10 -3 14 0 3 4 0 7 -7 7 -7 0 -10 -3 -7 -7z"/>
<path d="M1608 63 c7 -3 16 -2 19 1 4 3 -2 6 -13 5 -11 0 -14 -3 -6 -6z"/>
<path d="M1668 53 c6 -2 18 -2 25 0 6 3 1 5 -13 5 -14 0 -19 -2 -12 -5z"/>
<path d="M1818 53 c6 -2 18 -2 25 0 6 3 1 5 -13 5 -14 0 -19 -2 -12 -5z"/>
<path d="M1608 43 c7 -3 16 -2 19 1 4 3 -2 6 -13 5 -11 0 -14 -3 -6 -6z"/>
<path d="M1648 33 c7 -3 16 -2 19 1 4 3 -2 6 -13 5 -11 0 -14 -3 -6 -6z"/>
<path d="M1693 23 c9 -2 23 -2 30 0 6 3 -1 5 -18 5 -16 0 -22 -2 -12 -5z"/>
<path d="M2500 2826 c0 -172 0 -174 -24 -189 l-24 -16 -1 76 c-1 42 -3 79 -6
81 -5 5 -10 -121 -6 -142 1 -5 -5 -4 -13 4 -10 8 -16 29 -16 57 0 54 -20 49
-21 -5 0 -20 -3 -31 -6 -24 -2 6 -9 10 -14 6 -5 -3 -10 27 -11 68 -1 56 -2 61
-5 23 -2 -27 -6 -61 -9 -75 l-6 -25 -12 24 c-11 19 -14 21 -19 7 -8 -21 -24
-20 -30 2 -3 9 -5 2 -6 -16 0 -18 -6 -43 -12 -54 -8 -14 -8 -23 -1 -27 6 -3
12 -27 15 -51 l4 -45 1 49 c3 65 21 49 24 -21 3 -71 18 -56 19 20 0 70 13 57
25 -28 6 -36 9 -43 12 -25 2 14 9 31 15 39 9 12 9 13 0 7 -9 -5 -13 1 -13 22
0 18 6 32 16 36 13 5 16 1 12 -21 -3 -16 -2 -41 2 -58 7 -29 8 -29 9 -4 0 15
10 37 21 50 l19 24 1 -45 c0 -30 3 -40 9 -31 5 7 7 30 4 50 -4 32 -1 40 20 54
l26 17 4 -43 c2 -23 4 58 5 181 1 122 0 222 -3 222 -3 0 -5 -78 -5 -174z"/>
<path d="M400 2896 c0 -49 2 -55 20 -53 17 1 20 8 20 54 0 46 -3 53 -20 53
-18 0 -20 -7 -20 -54z"/>
<path d="M460 2895 c0 -48 2 -55 20 -55 18 0 20 7 20 55 0 48 -2 55 -20 55
-18 0 -20 -7 -20 -55z"/>
<path d="M340 2892 c0 -31 4 -38 20 -39 20 -2 23 2 23 32 0 37 -4 45 -23 45
-16 0 -20 -7 -20 -38z"/>
<path d="M1737 2923 c-11 -10 -8 -43 3 -43 6 0 10 11 10 25 0 26 -2 29 -13 18z"/>
<path d="M1776 2913 c-4 -9 -2 -21 4 -27 7 -7 10 -2 10 17 0 31 -5 34 -14 10z"/>
<path d="M898 2793 c7 -3 16 -2 19 1 4 3 -2 6 -13 5 -11 0 -14 -3 -6 -6z"/>
<path d="M340 2730 c0 -57 1 -60 25 -60 24 0 25 3 25 54 0 40 -4 55 -16 60
-30 12 -34 6 -34 -54z"/>
<path d="M402 2733 c3 -51 6 -58 26 -61 19 -3 22 1 22 35 0 58 -10 83 -32 83
-17 0 -19 -6 -16 -57z"/>
<path d="M280 2725 c0 -48 2 -55 20 -55 17 0 20 7 20 45 0 34 -5 47 -20 55
-19 10 -20 8 -20 -45z"/>
<path d="M259 2748 c-8 -22 -8 -68 0 -68 6 0 11 16 11 35 0 19 -2 35 -5 35 -3
0 -5 -1 -6 -2z"/>
<path d="M1280 2705 c-7 -25 -16 -45 -20 -45 -4 0 -15 -17 -26 -37 -10 -21
-35 -53 -54 -70 -32 -30 -33 -33 -12 -33 32 0 27 -20 -8 -33 -28 -10 -30 -15
-31 -62 -2 -83 -17 -111 -18 -33 -1 37 -4 69 -8 71 -15 9 -98 -31 -117 -56
-14 -20 -17 -34 -12 -69 8 -54 96 -220 123 -232 12 -6 28 -22 37 -37 14 -23
21 -26 49 -22 33 4 57 26 57 51 0 10 8 12 30 7 21 -5 30 -3 31 7 0 7 2 32 4
56 2 23 -1 42 -6 42 -5 0 -9 7 -9 15 0 8 -5 15 -10 15 -6 0 -9 -3 -8 -7 4 -10
-5 -13 -33 -13 -23 0 -22 21 2 28 11 3 11 1 -1 -8 -13 -10 -13 -11 0 -8 8 3
15 16 15 31 1 14 -2 24 -7 21 -4 -3 -5 -10 -2 -16 4 -6 2 -8 -3 -5 -6 4 -13
20 -15 37 l-5 30 27 -25 c49 -47 50 -43 50 210 0 129 -2 235 -4 235 -2 0 -9
-20 -16 -45z m-1 -294 c11 -7 10 -11 -5 -20 -18 -10 -18 -10 1 -11 37 0 0 -19
-45 -22 -55 -4 -68 22 -23 46 32 17 52 19 72 7z m-162 -193 c-3 -8 -6 -5 -6 6
-1 11 2 17 5 13 3 -3 4 -12 1 -19z m0 -90 c-2 -13 -4 -5 -4 17 -1 22 1 32 4
23 2 -10 2 -28 0 -40z"/>
<path d="M2868 2733 c7 -3 16 -2 19 1 4 3 -2 6 -13 5 -11 0 -14 -3 -6 -6z"/>
<path d="M2234 2600 c0 -58 1 -81 3 -52 2 28 2 76 0 105 -2 28 -3 5 -3 -53z"/>
<path d="M1984 2585 c0 -49 1 -71 3 -48 2 23 2 64 0 90 -2 26 -3 8 -3 -42z"/>
<path d="M2200 2550 c0 -51 2 -91 5 -88 7 7 8 168 1 176 -3 3 -6 -37 -6 -88z"/>
<path d="M400 2577 l1 -52 24 30 c33 40 33 70 0 73 -24 2 -25 -1 -25 -51z"/>
<path d="M280 2568 c0 -33 4 -48 9 -40 4 8 12 12 17 10 15 -5 17 64 2 73 -24
16 -28 9 -28 -43z"/>
<path d="M340 2570 c0 -39 4 -50 16 -50 11 0 13 6 9 19 -3 11 -1 22 5 26 5 3
10 1 10 -6 0 -7 3 -10 6 -6 3 3 3 19 -1 36 -5 22 -12 31 -26 31 -16 0 -19 -7
-19 -50z"/>
<path d="M222 2570 c0 -14 2 -19 5 -12 2 6 2 18 0 25 -3 6 -5 1 -5 -13z"/>
<path d="M1881 2574 c0 -11 3 -14 6 -6 3 7 2 16 -1 19 -3 4 -6 -2 -5 -13z"/>
<path d="M252 2560 c0 -14 2 -19 5 -12 2 6 2 18 0 25 -3 6 -5 1 -5 -13z"/>
<path d="M2172 2530 c0 -19 2 -27 5 -17 2 9 2 25 0 35 -3 9 -5 1 -5 -18z"/>
<path d="M243 2523 c4 -3 10 -3 14 0 3 4 0 7 -7 7 -7 0 -10 -3 -7 -7z"/>
<path d="M2113 2475 c0 -27 2 -38 4 -22 2 15 2 37 0 50 -2 12 -4 0 -4 -28z"/>
<path d="M2136 2493 c-6 -14 -5 -15 5 -6 7 7 10 15 7 18 -3 3 -9 -2 -12 -12z"/>
<path d="M342 2400 c-1 -48 1 -61 9 -50 8 11 12 12 16 2 2 -6 9 -10 13 -7 11
7 1 36 -16 50 -7 6 -15 24 -17 40 -2 17 -5 1 -5 -35z"/>
<path d="M280 2400 c0 -47 2 -50 25 -50 20 0 25 5 25 24 0 16 -7 27 -21 31
-15 5 -17 10 -9 20 8 9 7 14 -5 19 -12 4 -15 -4 -15 -44z"/>
<path d="M650 2391 c0 -57 2 -63 48 -118 73 -87 76 -89 91 -47 11 30 10 38 -8
68 -12 19 -29 40 -38 47 -9 8 -34 36 -55 62 l-38 49 0 -61z"/>
<path d="M1511 2394 c0 -11 3 -14 6 -6 3 7 2 16 -1 19 -3 4 -6 -2 -5 -13z"/>
<path d="M1535 2390 c-3 -5 1 -10 9 -10 9 0 16 5 16 10 0 6 -4 10 -9 10 -6 0
-13 -4 -16 -10z"/>
<path d="M1570 2390 c0 -5 5 -10 10 -10 6 0 10 5 10 10 0 6 -4 10 -10 10 -5 0
-10 -4 -10 -10z"/>
<path d="M1600 2390 c0 -7 3 -10 7 -7 3 4 3 10 0 14 -4 3 -7 0 -7 -7z"/>
<path d="M1433 2383 c4 -3 10 -3 14 0 3 4 0 7 -7 7 -7 0 -10 -3 -7 -7z"/>
<path d="M1626 2375 c4 -9 0 -15 -10 -15 -9 0 -16 -4 -16 -9 0 -5 9 -7 20 -4
20 5 29 43 10 43 -5 0 -7 -7 -4 -15z"/>
<path d="M400 2350 c0 -7 3 -10 7 -7 3 4 3 10 0 14 -4 3 -7 0 -7 -7z"/>
<path d="M1575 2350 c-3 -5 -1 -10 4 -10 6 0 11 5 11 10 0 6 -2 10 -4 10 -3 0
-8 -4 -11 -10z"/>
<path d="M1513 2333 c4 -3 10 -3 14 0 3 4 0 7 -7 7 -7 0 -10 -3 -7 -7z"/>
<path d="M410 2326 c0 -2 9 -6 20 -9 11 -3 20 -1 20 4 0 5 -9 9 -20 9 -11 0
-20 -2 -20 -4z"/>
<path d="M460 2231 c0 -59 1 -61 25 -61 25 0 26 2 23 58 -3 50 -6 57 -25 60
-22 3 -23 0 -23 -57z"/>
<path d="M520 2230 c0 -57 1 -60 25 -60 24 0 25 3 25 60 0 57 -1 60 -25 60
-24 0 -25 -3 -25 -60z"/>
<path d="M580 2230 c0 -60 0 -60 30 -60 30 0 30 0 30 60 0 60 0 60 -30 60 -30
0 -30 0 -30 -60z"/>
<path d="M288 2273 c6 -2 18 -2 25 0 6 3 1 5 -13 5 -14 0 -19 -2 -12 -5z"/>
<path d="M340 2245 c0 -19 4 -35 9 -35 5 0 13 -9 16 -20 12 -38 25 -20 25 35
0 52 -1 55 -25 55 -22 0 -25 -4 -25 -35z"/>
<path d="M400 2225 c0 -52 1 -55 25 -55 24 0 25 3 25 55 0 52 -1 55 -25 55
-24 0 -25 -3 -25 -55z"/>
<path d="M1275 2260 c-3 -6 1 -7 9 -4 18 7 21 14 7 14 -6 0 -13 -4 -16 -10z"/>
<path d="M423 2113 c4 -3 10 -3 14 0 3 4 0 7 -7 7 -7 0 -10 -3 -7 -7z"/>
<path d="M1401 2034 c0 -11 3 -14 6 -6 3 7 2 16 -1 19 -3 4 -6 -2 -5 -13z"/>
<path d="M1654 2018 c-4 -7 -3 -8 4 -4 12 7 16 16 8 16 -3 0 -8 -5 -12 -12z"/>
<path d="M1500 2011 c0 -5 5 -13 10 -16 6 -3 10 -2 10 4 0 5 -4 13 -10 16 -5
3 -10 2 -10 -4z"/>
<path d="M1563 2003 c15 -2 37 -2 50 0 12 2 0 4 -28 4 -27 0 -38 -2 -22 -4z"/>
<path d="M1580 1980 c0 -7 3 -10 7 -7 3 4 3 10 0 14 -4 3 -7 0 -7 -7z"/>
<path d="M1570 1950 c0 -7 3 -10 7 -7 3 4 3 10 0 14 -4 3 -7 0 -7 -7z"/>
<path d="M1432 1512 c-13 -9 -6 -42 8 -42 22 0 40 14 40 31 0 20 -25 25 -48
11z"/>
<path d="M0 1117 c0 -35 5 -57 13 -60 10 -4 10 -6 0 -6 -9 -1 -13 -20 -13 -62
l0 -60 31 18 c46 27 56 43 33 49 -11 3 -26 15 -34 27 -12 20 -12 21 4 8 14
-12 19 -12 25 -2 5 7 20 14 33 14 29 2 60 27 33 27 -8 0 -15 5 -15 11 0 6 -7
9 -15 5 -8 -3 -22 2 -30 11 -15 14 -17 14 -22 -6 -3 -11 -10 -18 -15 -15 -5 4
-1 16 10 28 20 21 20 21 -9 44 l-29 24 0 -55z"/>
<path d="M73 1013 c4 -3 10 -3 14 0 3 4 0 7 -7 7 -7 0 -10 -3 -7 -7z"/>
<path d="M127 949 c7 -7 15 -10 18 -7 3 3 -2 9 -12 12 -14 6 -15 5 -6 -5z"/>
<path d="M170 949 c0 -5 5 -7 10 -4 6 3 10 8 10 11 0 2 -4 4 -10 4 -5 0 -10
-5 -10 -11z"/>
<path d="M2987 327 c-3 -8 -2 -20 3 -26 5 -9 8 -4 8 13 0 29 -3 32 -11 13z"/>
</g>
</svg>
