<?xml version="1.0" standalone="no"?>
<!DOCTYPE svg PUBLIC "-//W3C//DTD SVG 20010904//EN"
 "http://www.w3.org/TR/2001/REC-SVG-20010904/DTD/svg10.dtd">
<svg version="1.0" xmlns="http://www.w3.org/2000/svg"
 width="300.000000pt" height="302.000000pt" viewBox="0 0 300.000000 302.000000"
 preserveAspectRatio="xMidYMid meet">
<metadata>
Created by potrace 1.10, written by Peter Selinger 2001-2011
</metadata>
<g transform="translate(0.000000,302.000000) scale(0.050000,-0.050000)"
fill="#000000" stroke="none">
<path d="M37 6015 c-15 -131 -12 -157 14 -147 30 11 77 -54 55 -75 -7 -7 -2
-13 11 -13 15 0 23 44 23 130 0 125 -2 130 -50 130 -27 0 -51 -11 -53 -25z"/>
<path d="M177 5950 c-2 -49 -6 -117 -7 -149 -2 -33 3 -55 12 -50 26 16 76 -76
87 -157 13 -101 -8 -94 -135 47 -115 127 -147 131 -113 17 11 -37 18 -106 16
-152 -4 -66 6 -96 44 -137 l49 -53 12 107 11 107 4 -123 c3 -115 8 -127 78
-189 91 -80 84 -112 90 407 l5 415 -75 0 -75 0 -3 -90z"/>
<path d="M560 6021 c0 -12 32 -21 70 -21 39 0 70 7 70 16 0 9 -31 18 -70 21
-38 2 -70 -5 -70 -16z"/>
<path d="M780 6022 c0 -10 77 -19 170 -20 101 -1 170 6 170 18 0 12 -70 20
-170 20 -93 0 -170 -8 -170 -18z"/>
<path d="M1264 6016 c-13 -13 -24 -33 -23 -45 0 -12 13 -5 28 16 25 33 27 30
24 -30 -2 -55 -16 -74 -77 -107 -77 -41 -132 -26 -70 19 43 32 9 49 -66 32
-46 -10 -50 -20 -50 -116 0 -114 46 -147 90 -65 14 26 42 40 81 40 32 0 59 9
59 20 0 11 9 20 20 20 11 0 20 -13 20 -30 0 -16 -9 -30 -19 -30 -11 0 -15 -13
-8 -30 7 -20 -1 -30 -26 -31 -47 0 -103 -43 -93 -70 4 -12 35 -18 69 -13 47 7
60 2 53 -18 -11 -35 -90 -48 -122 -21 -42 35 -259 26 -246 -10 7 -17 12 -42
12 -56 0 -15 19 -31 42 -37 23 -6 36 -20 30 -31 -19 -31 19 -45 128 -48 55 -1
100 -9 100 -17 0 -37 -41 -119 -56 -111 -8 6 -15 -7 -15 -28 0 -44 22 -52 38
-14 5 14 11 3 13 -25 2 -27 8 -39 13 -25 12 30 47 14 47 -21 -1 -76 -37 -77
-107 -1 -40 42 -72 66 -72 53 -1 -13 18 -37 40 -53 51 -35 19 -62 -52 -45 -28
7 -49 4 -49 -8 0 -11 11 -20 25 -21 14 0 8 -13 -14 -30 -37 -28 -37 -29 15
-25 30 3 54 13 54 23 0 10 14 7 30 -7 34 -28 41 -69 9 -49 -30 18 -79 -28 -66
-62 6 -16 -3 -34 -21 -41 -23 -9 -26 -21 -12 -47 19 -36 9 -61 -25 -61 -9 0
-12 8 -6 18 6 10 -6 14 -28 8 -21 -5 -34 -21 -28 -35 6 -17 -7 -25 -35 -23
-24 1 -48 -9 -53 -23 -5 -14 7 -25 27 -25 19 0 29 -5 23 -12 -31 -31 -95 17
-95 71 0 31 -14 67 -30 81 -18 15 -26 41 -19 63 9 29 1 37 -40 37 -49 0 -51
-4 -51 -120 0 -66 8 -120 18 -120 10 0 33 -6 51 -12 28 -11 30 0 20 75 -9 64
-7 79 9 57 12 -16 22 -58 22 -93 0 -94 217 -103 221 -9 1 24 6 21 19 -8 9 -22
18 -29 19 -15 0 14 19 25 40 25 32 0 40 17 46 95 l8 95 3 -93 c4 -81 10 -93
54 -102 65 -12 70 -5 70 108 0 95 -9 107 -75 98 -14 -1 -25 7 -25 18 0 12 9
21 20 21 11 0 38 18 60 40 36 36 40 37 40 5 1 -27 4 -29 18 -8 12 19 21 21 31
5 7 -12 7 -32 -1 -45 -9 -14 -5 -18 9 -9 14 9 23 0 24 -22 0 -37 118 -208 120
-175 0 11 13 -8 29 -41 16 -33 44 -82 63 -110 35 -52 -170 154 -248 249 l-45
54 0 -110 c0 -164 236 -445 304 -362 14 18 42 49 61 70 55 61 43 130 -35 210
-66 69 -87 109 -56 109 8 0 34 -25 58 -55 62 -77 64 -71 69 275 4 217 14 329
34 374 16 35 22 75 14 88 -11 17 -2 21 30 12 l46 -11 -45 46 -44 47 42 42 c23
23 42 56 42 72 0 17 9 30 20 30 11 0 20 14 20 32 0 24 12 29 50 20 77 -20 58
14 -33 58 -46 22 -79 49 -75 60 7 19 26 23 125 28 24 1 33 12 26 31 -6 17 -2
35 8 42 44 27 -11 49 -124 49 -109 0 -117 -3 -88 -31 36 -37 39 -61 11 -79
-12 -7 -15 -21 -9 -31 6 -11 -4 -19 -22 -19 -22 0 -29 -11 -21 -31 6 -17 -2
-52 -19 -78 -21 -32 -24 -52 -10 -60 31 -19 26 -71 -7 -71 -16 0 -33 -11 -38
-25 -7 -18 -19 -16 -45 9 -34 32 -56 115 -31 112 61 -6 82 9 82 57 0 30 14 69
31 88 29 32 26 36 -31 56 -73 25 -120 12 -120 -36 0 -27 -20 -35 -100 -36 -93
-3 -100 1 -100 45 0 52 30 83 50 50 7 -11 31 -20 54 -20 32 0 36 6 19 26 -16
20 -16 33 1 50 19 19 3 24 -66 24 -49 0 -101 -11 -114 -24z m411 -663 c-18
-59 -26 -137 -20 -183 10 -80 10 -80 -31 -43 -23 20 -51 31 -63 24 -11 -7 -21
-3 -21 9 0 32 -52 80 -84 78 -20 -1 -20 -4 -1 -11 28 -12 34 -67 7 -67 -42 0
-38 83 5 99 39 16 40 18 7 32 -20 8 -32 26 -26 41 6 15 -7 37 -29 48 -40 22
-52 69 -23 88 9 5 42 -3 74 -20 54 -28 59 -26 116 32 l60 61 30 -43 c26 -38
26 -54 -1 -145z m-326 -96 c44 -65 49 -86 28 -99 -34 -21 -58 3 -66 64 -4 27
-13 64 -21 83 -25 60 2 38 59 -48z m198 -314 c38 -42 14 -138 -28 -112 -11 6
-14 21 -7 33 7 11 1 28 -14 38 -20 13 -21 17 -3 18 14 0 25 10 25 22 0 12 -13
17 -30 11 -16 -7 -30 -4 -30 6 0 9 -18 13 -40 7 -33 -9 -40 -1 -38 47 0 31 6
46 11 32 15 -38 67 -30 69 10 1 24 8 19 25 -18 13 -29 40 -71 60 -94z"/>
<path d="M1507 6010 c34 -34 73 -40 73 -11 0 10 16 22 35 27 19 5 -4 10 -51
12 -77 2 -84 -1 -57 -28z"/>
<path d="M3440 6012 c0 -45 55 -54 66 -11 8 29 0 39 -28 39 -21 0 -38 -13 -38
-28z"/>
<path d="M3535 6003 c-11 -42 17 -103 46 -103 10 0 19 17 19 39 0 21 9 44 20
51 11 7 20 23 20 36 0 14 -8 12 -20 -6 -13 -20 -19 -22 -20 -5 0 39 -54 29
-65 -12z"/>
<path d="M3754 6012 c-6 -15 -7 -33 -1 -38 6 -6 12 -261 14 -567 l3 -557 45
-6 c44 -7 48 1 53 84 1 21 12 42 24 46 15 5 19 -25 12 -96 -8 -82 -3 -107 23
-122 25 -13 33 -47 33 -130 0 -136 13 -131 37 15 18 106 18 107 22 29 5 -114
37 -185 41 -90 2 64 3 1278 1 1405 -1 34 -12 55 -30 55 -25 0 -29 -81 -30
-532 -1 -293 -6 -541 -12 -550 -27 -44 -49 -10 -51 77 0 52 -6 84 -11 70 -6
-14 -21 -19 -34 -11 -13 7 -10 -2 5 -21 21 -26 23 -40 5 -58 -28 -28 -26 -46
-30 209 -2 118 3 203 11 190 8 -13 16 -78 17 -144 3 -183 35 -75 40 130 2 121
8 156 20 120 10 -31 15 37 11 180 -3 127 -12 248 -20 270 -13 32 -11 34 6 10
18 -25 21 -22 22 15 0 35 -11 45 -50 45 -44 0 -50 -9 -50 -71 0 -41 8 -66 20
-59 24 15 5 -372 -20 -397 -9 -9 -13 61 -9 156 4 95 0 168 -8 163 -9 -6 -12
39 -7 99 9 109 -68 171 -102 81z m68 -684 c-1 -74 -6 -139 -12 -144 -5 -6 -10
60 -10 146 0 86 5 151 12 144 7 -6 12 -72 10 -146z m210 -521 c-24 -61 -72
-28 -69 48 l2 75 15 -70 c21 -99 32 -63 41 135 l7 135 7 -148 c4 -82 2 -160
-3 -175z"/>
<path d="M4101 5840 c-10 -799 -2 -1353 19 -1270 l15 60 3 -54 c1 -29 11 -59
22 -66 22 -13 24 92 22 820 -1 242 -2 501 -2 575 0 122 -37 201 -42 90 -2 -43
-3 -43 -18 5 -10 33 -17 -23 -19 -160z"/>
<path d="M4228 5800 c0 -137 3 -194 7 -125 4 69 4 181 0 250 -4 69 -7 13 -7
-125z"/>
<path d="M4345 5853 c-4 -162 -12 -206 -45 -248 -22 -28 -39 -65 -38 -83 1
-17 16 0 34 38 l32 70 8 -58 c4 -32 4 -106 1 -164 -4 -59 0 -99 8 -91 9 9 13
177 10 374 -3 198 -8 270 -10 162z"/>
<path d="M4399 5878 c0 -92 -1 -312 0 -488 0 -176 0 -450 1 -608 0 -159 5
-284 10 -278 14 14 15 1518 1 1532 -6 6 -11 -65 -12 -158z"/>
<path d="M4460 5910 c-5 -77 -5 -419 0 -760 8 -435 12 -520 15 -285 4 282 10
335 35 335 24 0 29 -31 28 -161 -1 -89 3 -166 8 -172 6 -6 11 73 12 175 1 102
11 195 22 206 13 13 20 -43 20 -174 0 -176 38 -294 41 -129 5 227 11 282 32
289 21 7 21 -59 2 -173 -1 -6 4 -24 11 -41 7 -16 16 -75 20 -130 6 -90 7 -87
10 31 2 72 15 143 29 158 20 21 20 24 0 13 -36 -20 -36 488 0 527 20 21 20 24
0 13 -19 -11 -25 34 -25 200 0 118 -5 210 -10 204 -6 -5 -11 -159 -11 -340 -1
-239 -8 -340 -27 -366 -25 -34 -26 -34 -25 2 4 321 -11 708 -27 708 -13 0 -20
-127 -20 -341 0 -223 -7 -337 -20 -329 -12 7 -20 145 -20 345 0 182 -6 326
-13 318 -8 -7 -13 -176 -11 -376 3 -564 -43 -586 -56 -27 -6 260 -14 367 -20
280z"/>
<path d="M4776 5577 c-6 -486 4 -723 29 -684 8 13 15 47 15 75 0 29 0 76 0
106 0 30 14 68 30 85 27 26 30 9 30 -153 0 -184 -22 -236 -78 -180 -16 16 -22
4 -22 -49 0 -64 -59 -112 -60 -49 -1 12 -15 -7 -33 -43 -22 -45 -39 -60 -55
-47 -16 14 -24 -11 -28 -88 -7 -115 24 -161 67 -102 19 26 27 28 35 8 6 -14
12 4 12 40 2 52 23 85 108 164 l106 98 -6 236 c-5 218 -2 239 34 262 39 23 40
19 43 -141 2 -91 7 -130 12 -87 9 94 105 196 105 112 0 -11 9 -20 20 -20 11 0
20 21 20 46 0 26 13 64 29 85 34 45 41 149 10 149 -12 0 -16 9 -10 19 17 26
75 2 65 -27 -13 -32 126 -38 186 -8 62 32 100 67 100 93 0 11 -11 24 -25 30
-18 7 -14 20 14 42 36 29 36 31 2 31 -30 0 -34 11 -25 70 15 94 -73 179 -115
111 -7 -11 -27 -14 -45 -7 -22 9 -28 5 -18 -11 9 -15 0 -23 -27 -23 -28 0 -41
13 -41 40 0 22 10 40 22 40 14 0 19 27 14 72 -8 68 -6 71 47 63 32 -4 59 2 65
17 12 30 -61 50 -126 34 -39 -10 -46 -6 -36 21 10 27 0 33 -57 33 l-69 0 -2
-415 c0 -228 -6 -404 -11 -390 -6 14 -18 20 -28 14 -9 -5 -12 -24 -6 -40 8
-21 2 -26 -21 -17 -46 18 -40 87 13 147 l45 51 -45 -38 -45 -38 0 297 c0 279
3 299 45 344 34 36 36 44 10 34 -19 -7 -36 -24 -37 -36 -2 -13 -10 4 -18 37
l-15 60 -3 -73 c-1 -40 -20 -94 -41 -120 l-40 -47 -3 60 c-2 33 -2 85 0 115 3
30 -5 55 -17 55 -14 0 -21 -121 -21 -367 0 -318 -4 -366 -31 -366 -26 0 -31
31 -29 201 5 399 0 532 -19 532 -12 0 -22 -183 -25 -463z m223 9 c-3 -268 -15
-321 -79 -325 -5 -1 -9 116 -9 258 1 247 24 341 83 341 4 0 6 -123 5 -274z
m366 74 c13 -22 40 -40 59 -40 38 0 67 -36 45 -56 -8 -8 -18 -3 -23 11 -7 19
-22 18 -67 -5 -71 -37 -86 -38 -73 -2 6 15 0 39 -13 52 -18 20 -17 22 5 10 18
-11 24 -7 17 12 -5 15 -21 26 -34 23 -13 -4 -18 3 -11 15 20 33 68 23 95 -20z"/>
<path d="M5686 5914 c1 -69 -5 -136 -13 -150 -9 -13 -6 -24 5 -24 11 0 25 9
32 20 7 11 22 20 33 20 12 0 1 -16 -23 -36 -37 -30 -46 -59 -48 -150 -4 -118
6 -135 48 -84 14 17 37 30 52 30 16 0 28 9 28 20 0 11 9 20 20 20 11 0 20 -17
20 -39 0 -36 5 -35 80 14 l80 52 0 217 0 216 -80 0 c-47 0 -80 -10 -80 -23 0
-24 -43 -63 -110 -100 -23 -12 -10 10 29 50 71 75 70 90 -3 51 -30 -16 -37
-16 -27 0 7 12 0 22 -16 22 -23 0 -29 -28 -27 -126z m154 11 c-1 -41 -126
-136 -137 -104 -8 23 93 139 121 139 9 0 16 -16 16 -35z m-17 -171 c-11 -13
-50 -41 -86 -62 l-67 -38 59 63 c32 35 51 63 42 63 -10 0 0 19 21 42 l38 43 7
-44 c3 -24 -3 -54 -14 -67z m26 -60 c-3 -65 -20 -87 -91 -112 -52 -18 -60 -17
-51 8 7 17 2 30 -11 30 -20 0 120 116 145 119 6 0 9 -20 8 -45z"/>
<path d="M2845 5938 c-212 -105 -714 -938 -565 -938 11 0 20 8 20 18 0 18 167
62 231 62 16 0 29 -13 29 -29 0 -29 -83 -60 -225 -84 l-75 -12 0 -358 c0 -225
-7 -357 -20 -357 -22 0 -22 -5 -32 400 -4 160 -7 296 -8 304 0 7 -25 1 -55
-15 -30 -16 -65 -29 -77 -29 -193 -1 -123 -420 116 -693 126 -144 216 -264
216 -287 0 -12 11 -16 25 -8 14 8 2 -12 -26 -44 -57 -64 -107 -167 -89 -184
31 -32 90 -22 90 15 0 22 19 44 43 52 33 10 36 17 15 31 -23 14 -23 17 -1 18
17 0 23 12 15 31 -14 37 67 20 93 -19 26 -39 16 43 -13 112 -16 36 -38 102
-49 146 -12 44 -36 131 -54 194 -26 86 -30 143 -18 230 9 64 14 132 11 151 -6
48 44 26 68 -30 11 -25 36 -48 55 -51 33 -6 35 28 37 480 2 267 3 491 4 496 1
6 27 34 58 64 l56 53 0 -57 c0 -32 -9 -81 -20 -110 -16 -41 -14 -51 5 -45 24
8 35 27 96 160 50 108 59 48 59 -405 0 -410 3 -460 32 -460 23 0 29 12 22 40
-6 22 -2 40 8 40 10 0 15 23 10 50 -11 57 -6 59 54 26 66 -35 134 -38 134 -5
0 16 -16 29 -35 29 -28 1 -29 4 -7 18 15 10 42 15 60 11 17 -3 50 -7 72 -9 22
-2 29 -8 15 -13 -14 -6 -25 -24 -25 -40 0 -16 9 -24 20 -17 11 7 20 -6 20 -29
0 -57 76 -54 100 4 17 41 19 40 15 -15 -3 -39 4 -58 20 -55 45 9 26 -33 -30
-69 -30 -19 -61 -44 -69 -56 -17 -24 -199 -25 -290 -2 -61 16 -63 14 -71 -51
l-9 -67 -3 75 c-2 46 -13 75 -29 75 -17 0 -23 -24 -17 -80 4 -50 -1 -80 -15
-80 -13 0 -23 -43 -24 -105 -2 -83 -5 -94 -18 -55 l-16 50 -4 -50 c-2 -27 -2
-84 0 -125 3 -84 -13 -92 -82 -38 -27 20 -59 33 -72 29 -16 -6 -22 22 -19 93
3 55 -2 101 -11 101 -9 0 -16 14 -16 30 0 17 -9 30 -19 30 -11 0 -14 -14 -8
-31 9 -24 1 -29 -38 -22 -63 12 -56 -126 8 -190 20 -20 37 -47 37 -60 0 -31
62 -76 107 -76 31 -1 34 -6 13 -31 -14 -16 -39 -30 -55 -30 -21 0 -14 -15 23
-50 55 -50 244 -68 273 -26 19 27 99 -55 99 -101 0 -24 13 -43 28 -43 16 0 42
-5 59 -12 23 -8 36 10 53 72 16 58 31 80 51 73 15 -6 33 -3 40 8 6 11 -32 19
-95 19 -87 0 -111 8 -133 43 -23 37 -23 41 4 31 17 -6 34 -1 39 12 7 18 15 18
35 -1 40 -38 79 -30 79 15 0 44 -31 54 -47 15 -7 -17 -10 -16 -11 5 -3 41
-122 50 -122 9 0 -16 -9 -29 -20 -29 -11 0 -20 18 -20 40 0 33 -13 40 -72 40
-56 0 -68 -6 -53 -25 11 -14 26 -53 34 -88 12 -58 -44 -80 -125 -49 -3 1 4 19
15 39 10 21 25 67 31 104 15 84 31 110 50 79 12 -19 25 -19 60 0 36 19 48 19
62 -3 14 -22 18 -21 19 3 1 17 10 10 20 -16 12 -31 27 -41 44 -31 14 9 33 17
43 17 10 0 23 12 27 26 5 15 -3 25 -18 23 -52 -7 -79 1 -67 21 7 11 30 20 51
20 68 0 44 54 -24 56 -70 2 -102 35 -85 90 6 20 0 49 -13 65 -32 39 -18 51 75
63 42 6 82 19 89 30 7 13 17 10 25 -7 9 -21 15 -21 24 -2 8 18 20 16 44 -9 25
-24 27 -35 9 -41 -14 -5 -25 -16 -25 -26 0 -9 37 0 83 20 46 21 94 33 108 28
14 -5 31 0 38 11 8 13 1 17 -18 10 -22 -9 -31 0 -31 28 0 35 35 64 79 64 20 0
15 -82 -8 -118 -12 -19 -10 -24 6 -14 13 8 23 5 23 -7 0 -11 -13 -21 -30 -21
-16 0 -29 -16 -28 -35 1 -21 5 -25 11 -10 17 41 45 28 42 -20 -3 -49 -28 -74
-74 -75 -21 0 -18 9 10 31 22 18 28 26 14 19 -34 -17 -69 7 -51 36 23 36 25
74 4 74 -10 0 -18 -13 -18 -30 0 -16 -10 -30 -21 -30 -12 0 -18 -7 -13 -15 4
-8 -8 -30 -28 -49 -25 -24 -38 -26 -45 -10 -5 13 -11 8 -11 -11 -1 -19 -11
-35 -22 -35 -11 0 -20 -13 -20 -30 0 -16 9 -30 20 -30 11 0 20 -9 20 -20 0
-11 -22 -20 -50 -20 -32 0 -50 -11 -50 -31 0 -17 11 -29 25 -28 63 9 72 -2 63
-76 -8 -69 -7 -71 14 -25 21 46 23 47 37 11 10 -26 19 -31 29 -15 20 33 72 30
72 -5 0 -15 -26 -49 -58 -75 -85 -68 -105 -145 -28 -112 31 13 70 35 88 50 17
14 40 26 51 26 11 0 34 31 52 68 18 38 51 74 74 82 53 16 61 135 8 126 -18 -3
-35 5 -38 20 -3 14 -1 16 4 5 25 -51 68 41 64 138 -2 56 3 107 10 114 7 8 13
-1 13 -20 0 -18 19 -52 43 -76 24 -24 46 -70 50 -103 9 -77 14 -82 76 -66 104
26 144 211 71 322 -28 43 -40 50 -40 25 0 -55 -77 -125 -93 -84 -7 17 -23 27
-36 22 -17 -6 -22 7 -16 39 5 26 16 43 25 38 8 -5 32 10 52 33 38 41 37 42
-38 107 -98 85 -389 230 -462 230 -18 0 -32 7 -32 16 0 9 -20 17 -45 19 -184
10 -298 85 -131 85 46 0 58 -7 48 -31 -7 -20 -3 -26 12 -17 66 42 320 -17 436
-100 20 -14 18 -7 -5 20 -19 23 -35 60 -35 82 0 23 -13 52 -28 64 -22 19 -27
16 -25 -12 2 -24 -12 -36 -44 -38 -40 -2 -44 4 -34 50 l12 52 -35 -44 -36 -44
-84 79 c-47 43 -75 79 -63 79 12 0 16 14 10 30 -7 18 0 30 16 30 16 0 34 9 41
20 7 12 6 20 -4 18 -45 -8 -87 4 -76 22 7 11 1 20 -12 20 -14 0 -19 6 -12 13
8 7 4 25 -8 40 -13 15 -17 40 -11 57 7 16 3 30 -8 30 -10 0 -19 14 -19 31 0
33 -56 152 -80 169 -36 26 -37 180 -1 180 48 0 94 -53 57 -66 -14 -5 -1 -6 29
-2 30 4 56 -2 58 -12 1 -11 3 -31 5 -45 1 -14 22 -24 47 -23 24 2 40 -4 34
-13 -5 -8 -20 -14 -34 -12 -42 7 -76 35 -65 53 6 9 2 23 -8 29 -11 6 -25 2
-32 -9 -7 -11 -21 -16 -30 -10 -9 6 -23 2 -30 -10 -7 -11 7 -20 31 -20 42 0
165 -87 148 -105 -5 -5 10 -26 34 -47 24 -21 37 -27 29 -13 -8 14 -5 25 7 25
11 0 22 -9 24 -20 1 -11 3 -28 5 -38 6 -45 28 -39 41 12 9 33 6 58 -8 62 -12
4 -16 16 -10 26 6 10 2 18 -10 18 -11 0 -21 -8 -21 -19 0 -10 -19 -17 -41 -15
-37 2 -38 5 -9 27 18 13 32 29 31 35 -5 48 3 54 28 21 17 -22 30 -31 30 -22 1
9 -28 44 -64 78 -57 53 -59 59 -18 46 42 -13 44 -11 24 27 -24 44 -53 60 -31
17 7 -14 0 -9 -15 10 -16 19 -34 29 -41 22 -7 -6 -43 7 -80 31 -87 53 -161 53
-269 0z m-297 -1152 c-34 -25 -34 -26 2 -26 79 0 -5 -42 -92 -46 -126 -6 -132
79 -8 116 97 28 159 0 98 -44z"/>
<path d="M440 5882 c0 -10 17 -14 39 -8 34 9 40 -2 46 -97 l8 -107 3 115 c4
110 2 115 -46 115 -27 0 -50 -8 -50 -18z"/>
<path d="M560 5783 c0 -113 2 -117 48 -108 48 9 49 10 21 102 -16 51 -29 95
-29 97 0 1 16 7 35 12 22 6 14 10 -20 12 -54 2 -55 0 -55 -115z"/>
<path d="M680 5790 c0 -104 3 -110 50 -110 51 0 72 100 38 188 -32 84 -88 34
-88 -78z"/>
<path d="M797 5790 c6 -102 10 -110 57 -110 38 0 47 8 38 32 -7 17 -12 67 -12
110 0 68 -6 78 -45 78 -42 0 -45 -7 -38 -110z"/>
<path d="M917 5790 c10 -164 83 -164 83 0 0 101 -4 110 -45 110 -42 0 -45 -7
-38 -110z"/>
<path d="M3440 5819 c0 -48 10 -55 83 -67 98 -16 95 -19 82 64 -14 91 -165 94
-165 3z"/>
<path d="M2011 5702 c-6 -11 14 -32 45 -47 55 -28 57 -27 48 18 -9 47 -70 66
-93 29z"/>
<path d="M3514 5606 c61 -79 78 -82 94 -15 18 70 3 85 -76 83 l-68 -2 50 -66z"/>
<path d="M1790 5600 c-23 -37 10 -60 51 -35 21 14 39 31 39 40 0 22 -76 18
-90 -5z"/>
<path d="M3367 5560 c-10 -50 -20 -58 -59 -51 -27 4 -48 0 -48 -10 0 -18 30
-27 67 -21 17 3 8 -52 -20 -131 -7 -20 -6 -30 4 -22 24 23 70 155 79 230 10
82 -7 85 -23 5z"/>
<path d="M440 5456 c0 -110 2 -116 50 -116 48 0 50 5 50 120 0 115 -2 119 -50
115 -47 -3 -50 -10 -50 -119z"/>
<path d="M560 5461 c0 -114 3 -121 47 -121 67 0 62 226 -5 236 -39 6 -42 -3
-42 -115z"/>
<path d="M680 5460 c0 -115 2 -120 50 -120 48 0 50 5 50 120 0 115 -2 120 -50
120 -48 0 -50 -5 -50 -120z"/>
<path d="M800 5460 c0 -115 2 -120 50 -120 51 0 73 118 38 208 -34 88 -88 34
-88 -88z"/>
<path d="M5924 5540 c-39 -24 -60 -50 -52 -63 9 -14 5 -18 -9 -9 -13 8 -49 -4
-80 -26 -60 -43 -99 -35 -60 12 18 21 16 24 -11 14 -19 -7 -30 -26 -24 -41 17
-43 -8 -86 -70 -118 -65 -33 -60 -73 13 -106 47 -21 49 -27 44 -221 -4 -150
-11 -194 -29 -179 -16 14 -30 8 -44 -19 -12 -23 -52 -45 -94 -53 -46 -9 -76
-27 -82 -50 -12 -45 -94 -91 -126 -71 -17 11 -21 3 -12 -24 9 -27 -5 -58 -42
-98 l-55 -58 -12 60 c-8 36 -2 78 14 104 48 80 36 108 -34 79 -66 -28 -105
-75 -129 -153 -8 -27 -37 -80 -65 -117 -40 -54 -47 -81 -37 -143 l12 -76 -195
98 c-359 180 -450 180 -815 -2 -243 -121 -334 -196 -375 -312 l-34 -98 -416
-218 c-228 -120 -449 -239 -490 -265 -78 -49 -100 -107 -42 -107 19 0 27 -7
19 -15 -8 -8 37 -25 101 -38 72 -15 124 -17 136 -5 35 33 49 19 55 -57 l7 -75
26 86 c28 95 83 89 83 -8 0 -27 9 -48 20 -48 11 0 20 20 20 45 1 97 123 151
136 60 9 -60 37 -57 52 6 7 28 35 60 61 72 26 12 54 44 60 72 7 27 16 46 20
42 5 -4 -5 -61 -20 -127 -41 -176 -36 -225 40 -376 37 -75 58 -133 45 -129
-13 4 -36 32 -50 61 -32 67 -98 72 -110 9 -5 -25 -10 -4 -11 47 -6 189 -95
295 -178 212 -30 -30 -34 -49 -43 -224 -4 -69 -7 -74 -23 -35 -17 44 -99 65
-99 26 0 -11 -14 -15 -30 -8 -17 6 -30 1 -30 -11 0 -12 -15 -22 -32 -22 -28 0
-29 5 -5 33 24 31 21 33 -39 21 -50 -10 -62 -7 -51 11 9 16 2 15 -20 -3 -29
-24 -32 -24 -22 4 9 24 2 29 -29 20 -31 -8 -42 -27 -43 -73 -1 -43 -33 26
-100 217 -254 720 -581 1150 -946 1241 -31 8 -99 65 -159 134 l-104 120 -10
-117 -10 -118 -90 -13 c-49 -7 -126 -29 -170 -48 -44 -19 -114 -33 -155 -32
-54 2 -75 -6 -75 -27 0 -19 12 -24 35 -16 19 8 -29 -49 -107 -125 -151 -149
-225 -249 -325 -439 l-63 -120 3 185 c3 178 5 185 45 173 90 -28 14 11 -153
78 -96 39 -175 62 -175 50 0 -11 -13 -15 -30 -9 -21 8 -30 -1 -30 -33 0 -24 7
-35 15 -24 25 34 107 32 199 -3 48 -18 83 -37 78 -42 -5 -5 -51 7 -101 26 -51
19 -98 28 -106 21 -18 -18 -7 -278 12 -292 8 -5 14 -39 14 -75 -1 -39 9 -65
24 -65 18 0 25 51 26 185 1 122 8 171 19 145 9 -22 18 -110 19 -195 0 -85 9
-155 19 -155 10 0 33 -5 50 -12 26 -10 33 5 35 85 l3 97 12 -80 c12 -73 -17
-203 -34 -153 -4 13 -32 16 -69 9 -43 -9 -57 -6 -47 11 8 13 2 23 -16 23 -104
0 -130 39 -137 208 -4 89 -7 47 -6 -94 l1 -257 115 -5 c98 -5 116 0 126 33 7
21 16 34 20 30 13 -13 -38 -135 -57 -135 -9 0 -10 -10 -2 -23 10 -17 -16 -20
-99 -12 -64 7 -113 4 -113 -6 0 -11 18 -19 40 -19 22 0 40 -9 40 -21 0 -11
-13 -18 -29 -15 -15 3 -28 -3 -28 -14 0 -11 12 -17 28 -14 18 4 24 -5 17 -25
-7 -17 -26 -31 -43 -31 -23 0 -25 -6 -8 -27 16 -19 16 -43 -2 -90 -19 -50 -19
-72 1 -103 14 -24 16 -40 4 -40 -11 0 -20 -16 -19 -35 0 -31 4 -31 31 5 28 36
29 63 6 149 -5 16 6 30 22 30 18 1 33 25 37 61 6 54 31 89 66 90 24 0 -29
-163 -56 -174 -15 -6 -22 -18 -16 -28 22 -35 -32 -178 -67 -180 -19 0 -24 -5
-12 -10 14 -6 18 -64 12 -164 -9 -155 45 -284 118 -284 11 0 64 -35 119 -79
55 -43 117 -84 139 -91 58 -18 49 -48 -24 -79 -95 -40 -129 -18 -72 46 l46 52
-70 -52 c-114 -85 -103 -110 44 -101 69 4 156 0 193 -10 l67 -17 -60 -65 c-34
-36 -80 -64 -106 -64 -45 0 -45 1 -7 31 22 16 1 11 -46 -12 -82 -41 -198 -44
-330 -6 -28 8 -35 -3 -35 -52 0 -67 10 -69 304 -68 52 0 90 -7 84 -16 -6 -9
-98 -18 -204 -19 -114 -1 -173 -8 -144 -16 l50 -14 -45 -29 c-61 -39 -57 -72
17 -140 33 -32 55 -68 47 -80 -9 -14 -26 -8 -52 19 -21 23 -42 42 -46 42 -4 0
-8 -176 -8 -391 l-2 -390 55 -23 c30 -12 90 -23 134 -25 44 -1 101 -14 127
-29 36 -19 44 -20 33 -1 -10 15 -6 21 9 16 13 -4 24 -17 25 -28 1 -22 156 -72
180 -57 44 28 5 -32 -75 -112 -102 -104 -105 -111 -44 -129 28 -9 36 -18 19
-24 -14 -6 -37 -1 -51 11 -19 16 -48 -2 -114 -70 -93 -95 -110 -99 -254 -56
-41 11 -45 6 -45 -60 l0 -72 255 1 c155 1 239 8 214 18 -75 31 -107 86 -37 67
100 -28 252 -11 393 42 75 29 160 52 190 52 96 0 8 -57 -187 -120 l-178 -57
720 0 720 -1 -140 46 c-77 25 -169 60 -204 79 -76 39 -298 45 -377 9 -40 -18
-61 -18 -90 0 -21 13 -62 24 -90 24 -34 0 -46 8 -37 23 8 14 -9 42 -42 69 -59
47 -46 108 22 108 18 0 28 22 28 59 l0 58 215 7 c118 4 229 0 245 -8 17 -8
-76 -15 -205 -15 -231 -1 -235 -2 -233 -46 2 -32 5 -35 12 -11 7 29 39 33 237
33 271 0 308 -30 50 -40 -113 -4 -189 -17 -205 -33 -21 -22 -17 -23 27 -7 29
11 58 15 65 8 7 -7 84 -11 172 -8 97 2 160 -5 160 -17 0 -19 -111 -26 -395
-23 -85 1 -125 -7 -125 -23 0 -18 37 -22 135 -14 176 13 385 1 385 -22 0 -10
-34 -19 -75 -19 -154 -3 -157 -32 -4 -45 82 -7 235 -41 339 -75 187 -62 245
-66 380 -27 62 19 20 -45 -49 -73 -35 -14 -31 -17 22 -18 39 -1 67 11 75 30
11 29 16 29 56 0 25 -17 72 -31 105 -31 l61 1 -50 39 c-27 22 -39 39 -26 40
13 0 29 -9 37 -21 8 -13 21 -14 36 -3 33 27 267 104 308 103 19 -1 -19 -19
-85 -40 -66 -21 -142 -57 -170 -78 -50 -39 -43 -39 1488 -35 1210 3 1540 9
1547 29 5 16 -11 25 -43 25 -43 0 -52 9 -52 52 0 44 7 51 43 42 83 -22 139
148 88 270 -35 83 -4 104 66 46 76 -64 105 -47 101 60 -6 166 0 193 42 180 23
-7 40 -4 40 9 0 11 -7 20 -15 19 -49 -8 -65 8 -65 67 1 61 29 135 45 114 4 -5
17 -31 30 -59 18 -41 23 -14 24 155 1 151 -6 205 -24 205 -17 1 -18 5 -4 15
26 18 26 362 1 403 -11 16 -7 33 10 43 19 12 12 16 -24 13 -84 -7 -140 -94
-140 -219 0 -27 -18 -35 -79 -35 -61 0 -75 6 -66 30 6 16 20 30 30 30 11 0 14
-9 7 -20 -20 -32 23 -23 50 10 21 26 20 29 -6 19 -23 -9 -30 0 -26 35 4 35 -4
47 -31 47 -45 0 -45 0 -6 -40 29 -28 29 -31 0 -31 -17 0 -31 -8 -31 -18 0 -9
-20 -23 -45 -31 -44 -13 -44 -14 -5 -29 40 -17 40 -17 0 -27 -26 -7 -20 -11
20 -9 187 5 223 -51 141 -216 -46 -91 -56 -156 -23 -144 26 10 44 -457 18
-471 -36 -20 -170 11 -181 42 -16 43 -60 78 -140 114 -55 25 -65 40 -65 98 0
44 -13 78 -37 95 -82 58 -118 193 -130 487 -2 35 -27 90 -58 127 -55 65 -74
116 -34 91 12 -7 53 -13 92 -13 68 0 71 -2 60 -63 -5 -35 0 -115 13 -179 18
-94 17 -120 -4 -133 -16 -10 -21 -27 -11 -43 9 -14 27 -76 41 -137 13 -61 25
-95 26 -75 1 20 10 32 19 26 9 -6 14 41 11 104 -21 411 -13 437 84 275 44 -73
67 -135 65 -177 -2 -35 2 -87 8 -116 6 -28 3 -64 -7 -80 -12 -20 -17 -21 -18
-3 0 14 -9 25 -20 25 -11 0 -20 -14 -20 -31 0 -17 -13 -28 -29 -25 -15 3 -29
-3 -29 -14 -1 -11 22 -22 49 -24 27 -2 45 5 38 15 -19 31 44 22 70 -10 13 -16
37 -24 52 -18 16 6 29 1 29 -11 0 -12 9 -22 20 -22 11 0 20 23 20 51 0 28 -9
46 -19 40 -10 -7 -24 22 -31 63 -25 156 -54 258 -91 322 -63 107 -53 236 20
273 52 28 57 38 47 106 -18 120 -10 207 21 232 65 51 104 233 50 233 -10 0
-13 10 -5 23 9 14 24 6 42 -25 l28 -48 -11 54 c-15 71 101 277 137 242 6 -7
12 -2 12 12 0 36 34 9 46 -38 6 -22 2 -35 -8 -29 -10 6 -18 2 -18 -10 0 -11 9
-21 20 -21 11 0 20 -10 20 -22 0 -12 -13 -17 -29 -11 -36 14 -142 -38 -115
-55 18 -10 14 -125 -6 -186 -4 -13 3 -28 16 -35 13 -6 4 -6 -21 1 -26 6 -45 1
-45 -11 0 -11 9 -21 20 -21 11 0 19 -7 18 -15 -9 -53 5 -145 22 -145 11 0 18
10 15 22 -3 13 7 27 21 33 31 11 26 -56 -6 -80 -11 -8 -1 -15 21 -15 23 0 59
-13 80 -29 62 -47 69 -38 69 80 0 101 -3 109 -31 81 -17 -18 -27 -40 -20 -50
6 -9 -2 -28 -17 -40 -22 -18 -29 -12 -37 30 -16 83 4 128 57 128 33 0 48 11
48 35 -1 30 -3 31 -20 5 -17 -26 -19 -25 -20 4 0 19 -16 44 -35 57 -28 18 -29
20 -2 12 17 -5 42 0 55 13 30 30 28 99 -3 89 -22 -7 -75 29 -75 51 0 5 17 14
39 19 27 7 35 2 27 -17 -5 -16 -2 -28 8 -28 27 0 27 84 0 118 -19 23 -19 26 1
15 19 -12 25 16 25 113 0 112 -5 130 -44 147 -30 14 -36 25 -20 35 13 8 24 5
24 -7 0 -11 8 -21 18 -21 10 0 18 144 19 320 1 285 -10 360 -45 303 -6 -10
-52 -16 -101 -14 -50 2 -92 -3 -94 -12 -9 -51 -3 -64 33 -69 22 -4 54 11 71
34 29 38 112 36 89 -3 -6 -9 -2 -22 10 -29 38 -23 23 -74 -18 -61 -21 7 -44 4
-51 -7 -6 -11 -30 -16 -52 -12 -22 4 -35 -1 -28 -11 26 -43 -51 -15 -88 32
-22 28 -45 42 -52 31 -6 -10 3 -33 20 -50 29 -29 29 -33 -1 -45 -18 -7 -41
-32 -50 -55 -12 -28 -15 -7 -10 65 12 161 -43 227 -117 141 -24 -27 -47 -36
-69 -27 -19 8 -50 15 -69 16 -19 1 -35 12 -35 25 0 13 -5 53 -12 90 -6 39 -4
58 6 45 46 -65 135 -40 129 36 -5 68 -2 73 39 62 35 -9 42 -5 33 20 -7 18 0
36 16 43 17 6 29 -1 29 -17 0 -51 40 -55 78 -8 29 35 33 59 20 105 -10 33 -14
63 -9 67 14 15 -58 88 -105 107 -26 10 -41 27 -34 38 7 11 -2 26 -19 32 -17 7
-31 34 -31 61 0 39 -8 47 -37 38 -20 -6 -63 2 -94 18 -68 35 -109 12 -109 -61
0 -43 9 -48 89 -48 94 0 128 -25 92 -68 -12 -15 -16 -42 -9 -59 7 -19 2 -33
-11 -33 -13 0 -17 10 -9 23 10 16 -15 20 -89 13 -111 -11 -166 58 -132 166 9
28 6 38 -8 30 -12 -8 -39 21 -62 65 -22 44 -51 84 -65 90 -19 8 -17 18 10 40
23 18 29 34 16 42 -12 7 -21 33 -21 57 0 24 -2 65 -5 91 -8 64 56 107 90 61
13 -17 44 -42 69 -55 63 -34 56 -54 -30 -90 -41 -17 -64 -31 -50 -32 14 -1 25
-19 25 -41 0 -33 11 -38 65 -32 36 4 77 9 91 10 15 1 23 23 20 55 -4 32 5 57
22 63 22 7 25 -5 15 -54 -14 -71 38 -142 105 -142 54 0 88 -46 57 -78 -19 -19
-11 -19 33 1 46 21 61 21 67 2 5 -14 24 -25 43 -25 35 0 82 -36 82 -64 0 -23
-108 -20 -133 5 -14 14 -20 11 -20 -10 0 -17 6 -31 14 -31 7 0 37 -24 66 -53
29 -29 53 -44 53 -35 0 10 9 5 19 -11 15 -23 28 -24 69 -5 58 26 51 84 -10 84
-60 0 -44 34 22 47 58 12 59 14 27 51 -18 21 -43 36 -55 34 -12 -3 -16 -2 -9
2 15 9 -27 106 -47 106 -24 0 -76 62 -76 91 0 44 62 34 74 -11 6 -22 22 -40
36 -40 13 0 48 -19 77 -41 29 -23 60 -37 69 -32 9 6 29 1 45 -10 21 -14 22
-23 5 -30 -13 -5 -18 -25 -11 -43 11 -30 8 -31 -22 -6 -26 21 -40 23 -58 5
-16 -16 -16 -23 -1 -23 12 0 27 -23 34 -51 7 -28 22 -45 34 -38 11 7 19 1 16
-14 -2 -15 6 -49 18 -77 17 -40 22 1 23 197 1 207 -4 244 -26 225 -37 -30
-161 -6 -134 26 13 16 6 32 -22 49 -22 14 -36 38 -30 52 8 21 -2 24 -43 13
-85 -23 -155 -16 -148 15 4 19 -6 24 -27 15 -22 -8 -47 5 -72 38 -22 27 -53
50 -68 50 -37 0 -27 69 17 121 69 80 122 44 81 -55 -16 -39 -23 -76 -15 -83 7
-7 17 -2 22 12 5 14 28 25 50 25 23 0 69 17 104 38 111 67 152 72 152 16 0
-38 -18 -55 -84 -81 -46 -18 -78 -38 -71 -44 6 -7 39 2 72 20 77 39 83 39 83
-6 0 -31 11 -35 75 -25 l75 13 5 334 c6 341 2 357 -66 306 -50 -38 -69 -38
-69 -1 0 16 18 41 40 55 90 56 32 49 -75 -9 -69 -38 -104 -50 -88 -30 16 19
81 63 145 99 65 35 118 76 118 90 0 33 -77 -4 -113 -53 -13 -18 -30 -25 -38
-18 -17 17 104 136 138 136 13 0 10 9 -7 20 -22 14 -23 19 -4 20 19 0 25 31
22 110 -3 61 -6 110 -6 110 -1 0 -32 -18 -68 -40z m56 -88 c0 -5 -45 -36 -100
-70 -122 -75 -131 -66 -15 16 80 57 115 73 115 54z m-147 -420 c-20 -53 -131
-100 -118 -50 6 24 21 36 39 29 15 -6 23 -2 17 8 -7 10 4 27 23 38 42 24 55
16 39 -25z m7 -111 c0 -51 -10 -63 -65 -77 -89 -24 -96 -10 -25 48 33 26 51
48 40 48 -11 0 -6 9 10 20 41 26 40 27 40 -39z m-4 -141 c4 -51 -5 -63 -69
-90 -40 -17 -68 -36 -62 -42 6 -6 39 3 73 21 61 32 62 31 62 -17 0 -36 -16
-54 -63 -70 -84 -29 -94 -28 -89 12 3 18 0 61 -7 95 -12 54 -6 66 58 104 93
56 92 57 97 -13z m-1276 -475 c415 -160 477 -228 633 -695 180 -538 159 -658
-173 -990 -155 -155 -386 -321 -411 -295 -6 5 41 40 105 75 173 98 406 340
493 515 70 138 105 288 47 198 -69 -105 -74 -106 -62 -13 7 52 -1 145 -19 220
-17 76 -22 134 -12 141 23 14 -85 361 -146 469 -55 96 -238 223 -453 312 -194
81 -300 73 -530 -38 -311 -151 -363 -210 -475 -543 -64 -188 -69 -214 -27
-141 34 60 37 38 9 -70 -36 -136 -41 -145 -59 -100 -20 53 -64 -100 -66 -230
-3 -186 234 -510 506 -693 71 -48 120 -87 108 -87 -112 0 -489 366 -592 574
-97 198 -75 363 118 896 100 276 219 375 609 509 182 63 199 62 397 -14z
m-3010 -21 c392 -136 695 -538 909 -1204 105 -326 239 -680 242 -640 2 17 11
-1 20 -40 9 -38 12 -103 6 -142 -7 -43 -2 -79 10 -86 27 -17 -44 -92 -87 -92
-16 0 -30 -10 -30 -22 0 -13 16 -18 36 -13 42 11 74 -20 78 -75 5 -78 16 -100
56 -111 26 -7 40 -28 41 -62 0 -28 16 -75 35 -104 33 -50 33 -54 -6 -93 -45
-45 -38 -79 16 -81 25 -1 22 -7 -11 -20 -25 -10 -45 -26 -45 -37 0 -10 -16
-23 -35 -28 -19 -5 154 -10 385 -11 275 -2 410 4 390 17 -16 10 -111 19 -210
18 -99 0 -189 1 -200 3 -11 2 -65 5 -120 6 l-100 3 -6 209 c-3 126 -15 220
-30 238 -19 23 -19 31 1 38 18 6 25 62 25 190 0 100 6 175 14 168 8 -8 12 -54
8 -103 -6 -113 11 -170 54 -171 25 -1 21 -7 -11 -20 -25 -10 -45 -23 -45 -30
0 -6 10 -5 21 2 53 33 119 -11 119 -79 0 -73 127 -239 201 -262 45 -15 53 -50
11 -50 -15 0 -33 14 -39 30 -7 17 -24 30 -40 30 -15 0 -39 13 -53 30 -44 53
-80 35 -80 -40 0 -130 -79 -96 -83 35 -5 174 -6 181 -32 190 -25 8 -38 -298
-15 -358 20 -52 541 -34 591 20 62 66 138 15 95 -64 -11 -21 -15 -69 -9 -106
l10 -67 -84 0 c-90 0 -91 -1 -97 -145 -1 -30 -13 -55 -27 -55 -14 0 -29 -8
-32 -17 -14 -34 -153 -1 -163 39 -9 32 1 38 57 38 54 0 65 7 56 32 -9 23 -17
25 -28 7 -10 -17 -57 -21 -162 -12 -81 6 -154 12 -162 12 -23 1 -18 61 5 61
11 0 20 -10 20 -22 0 -16 9 -16 29 1 16 13 46 19 67 12 21 -7 62 -3 91 8 29
11 53 12 53 3 0 -9 22 -14 50 -11 29 3 57 -8 67 -25 14 -25 19 -20 27 22 l10
52 -277 0 c-182 0 -277 -7 -277 -21 0 -12 8 -16 18 -10 10 6 24 -5 31 -24 11
-29 16 -30 32 -4 16 25 18 25 19 -1 0 -17 -19 -42 -43 -57 -46 -29 -17 -69 36
-49 15 6 27 -2 27 -17 1 -21 5 -20 20 3 16 25 19 24 20 -7 0 -30 -14 -35 -85
-30 -64 5 -85 -1 -85 -23 0 -17 15 -30 33 -30 18 0 51 -16 72 -35 41 -38 225
-50 225 -15 0 12 18 12 51 0 29 -11 78 -20 110 -20 37 0 59 -10 59 -28 0 -36
-84 -58 -104 -26 -10 16 -15 17 -16 1 0 -15 -54 -20 -173 -14 -189 8 -204 13
-170 53 26 32 11 54 -38 54 -44 0 -64 -112 -27 -149 14 -15 21 -32 14 -38 -45
-46 49 -75 218 -69 134 6 176 1 176 -18 0 -31 32 -34 50 -6 42 68 180 -19 164
-103 -8 -42 -9 -42 -11 8 l-3 55 -200 0 c-147 0 -200 7 -200 25 -1 17 -5 18
-15 4 -8 -12 -60 -24 -115 -26 -147 -7 -150 -8 -150 -34 0 -18 73 -23 290 -19
263 5 345 -6 292 -39 -11 -6 -145 -12 -299 -13 -218 -2 -278 -8 -270 -27 6
-17 55 -27 141 -29 72 -1 139 -7 148 -13 49 -31 -2 -42 -202 -44 -204 -2 -220
0 -220 36 0 32 10 36 60 26 48 -10 58 -6 50 17 -12 31 -63 35 -105 9 -17 -10
-25 -72 -25 -184 l0 -169 225 -1 c133 0 213 -7 195 -17 -16 -9 -128 -12 -247
-7 l-216 10 12 68 c7 37 5 67 -4 67 -9 0 -13 33 -8 73 5 47 1 68 -13 60 -11
-7 -25 -2 -30 12 -5 14 -10 -46 -11 -132 -1 -180 0 -179 -76 -167 -53 8 -54 9
-13 23 65 22 83 131 21 131 -12 0 -11 -11 4 -28 75 -91 -74 -54 -207 51 -53
42 -104 77 -113 77 -9 0 -12 29 -6 65 7 48 -3 82 -39 130 -31 41 -46 85 -42
120 3 30 -1 84 -11 119 -27 99 7 128 132 113 109 -13 136 -67 34 -67 -34 0
-45 8 -34 25 11 19 8 20 -14 3 -16 -13 -42 -28 -59 -34 -16 -7 22 -11 85 -10
63 2 121 -3 128 -11 8 -7 -15 -13 -50 -13 -35 0 -63 -8 -63 -17 0 -26 79 -91
93 -77 17 17 91 -24 78 -44 -21 -34 43 -92 74 -66 35 29 55 12 55 -48 0 -82
20 -109 62 -87 34 18 37 39 30 198 -8 155 -4 182 30 219 78 83 73 327 -8 418
-19 21 -27 55 -20 89 10 49 5 55 -47 58 l-57 3 53 8 c49 8 54 16 50 92 -4 96
70 138 97 55 7 -22 21 -41 31 -41 10 0 13 14 6 30 -7 20 1 30 24 30 20 0 29 7
21 15 -8 8 -26 15 -39 15 -34 0 -136 83 -140 114 -2 14 -11 37 -20 51 -8 14
-7 25 3 25 10 0 28 -20 40 -45 21 -44 21 -44 23 9 0 29 -8 59 -19 66 -11 7
-20 29 -20 49 0 38 -51 69 -82 50 -10 -6 -18 -32 -18 -56 0 -33 -19 -53 -70
-73 -98 -38 -87 -60 30 -60 55 0 100 -9 100 -20 0 -11 -45 -18 -105 -15 l-105
5 0 -85 c0 -47 -1 -85 -2 -85 -29 0 -156 218 -135 232 19 13 22 37 9 93 -11
44 -10 80 0 86 10 6 18 -7 18 -30 0 -43 29 -55 50 -21 21 34 53 0 40 -42 -10
-28 -5 -35 19 -26 23 9 31 41 31 118 0 120 12 130 152 130 80 0 88 5 91 50 2
28 4 61 5 75 1 14 -13 22 -32 19 -30 -5 -32 3 -13 55 26 76 -26 252 -80 266
-44 12 -53 -60 -13 -105 174 -192 -165 -462 -917 -732 -75 -27 -77 -26 -67 13
7 26 2 38 -13 33 -23 -8 -23 -78 -1 -249 6 -48 2 -85 -8 -85 -27 0 -38 53 -36
173 2 91 -2 101 -32 85 -64 -34 -83 -18 -37 31 47 50 195 111 271 111 155 0
812 324 761 376 -6 6 4 27 21 47 64 70 42 136 -90 263 -150 145 -190 212 -150
250 33 30 188 -102 188 -160 0 -54 41 -64 84 -21 40 40 40 40 -22 181 -34 77
-62 155 -62 172 0 41 -104 301 -183 458 -195 388 -458 666 -742 783 l-74 31
12 -60 c10 -52 6 -60 -31 -60 -40 0 -38 -6 27 -102 78 -113 120 -239 104 -317
-8 -42 2 -57 54 -83 56 -28 150 -148 130 -167 -4 -4 -74 38 -157 93 -188 125
-253 124 -450 -4 -162 -106 -157 -119 16 -40 173 78 514 50 514 -43 0 -27 -90
-20 -153 13 -170 89 -449 -57 -884 -462 -329 -306 -493 -542 -477 -685 l10
-91 -37 49 c-66 86 -66 145 1 333 35 97 111 316 169 486 287 846 796 1292
1281 1124z m3026 -236 c267 -130 459 -372 532 -669 35 -145 43 -379 13 -379
-11 0 -15 -13 -8 -30 6 -16 2 -30 -10 -30 -12 0 -17 -12 -12 -27 37 -96 -294
-432 -555 -563 -191 -96 -220 -98 -316 -27 -28 21 -69 41 -91 45 -59 12 -184
89 -197 123 -6 16 -23 29 -37 29 -15 0 -61 45 -103 100 -67 88 -126 143 -79
74 9 -14 -7 2 -37 35 -276 313 -97 1021 320 1266 273 160 349 167 580 53z
m795 -409 c20 -33 1 -40 -69 -26 -46 9 -57 18 -39 30 38 23 92 21 108 -4z
m-3419 -61 c40 4 16 -89 -28 -108 -30 -13 -43 -32 -37 -55 5 -19 1 -35 -9 -35
-10 0 -18 9 -18 20 0 11 -16 20 -35 21 -31 0 -32 3 -4 25 17 13 32 45 34 71 4
60 46 114 65 82 8 -12 22 -22 32 -21z m3434 -43 c93 -43 64 -73 -35 -35 -37
14 -51 13 -51 -5 -1 -27 -39 23 -40 50 0 23 66 18 126 -10z m-2106 -35 c21 11
42 13 48 4 5 -9 -39 -33 -99 -53 -60 -21 -109 -46 -109 -56 0 -11 -14 -14 -31
-7 -48 18 -115 -25 -99 -64 16 -43 3 -29 -57 60 -31 46 -39 69 -22 63 16 -6
29 -18 29 -26 0 -52 118 11 147 79 8 17 10 10 5 -15 -10 -54 4 -57 42 -10 27
32 28 32 19 1 -7 -23 -2 -31 16 -24 15 6 33 30 41 54 12 38 16 39 24 9 7 -27
17 -30 46 -15z m-1745 -116 c123 -47 300 -160 477 -307 78 -64 156 -117 175
-117 42 0 42 -28 1 -69 -34 -34 -77 -22 -61 18 5 15 -29 43 -84 69 l-93 43 70
-62 c85 -75 74 -72 -141 36 -93 46 -245 104 -338 127 l-168 43 -169 -43 c-295
-75 -689 -310 -923 -550 l-89 -91 34 -71 c58 -122 393 -312 844 -479 110 -41
223 -96 250 -124 l50 -49 -55 13 c-52 13 -55 10 -55 -59 0 -40 -10 -72 -21
-72 -12 0 -17 16 -12 35 40 141 25 239 -23 153 -23 -41 -244 35 -600 205 -616
295 -580 521 173 1091 366 277 548 340 758 260z m477 -56 c-66 -64 -112 -86
-112 -54 0 33 127 142 153 132 21 -8 10 -29 -41 -78z m148 -81 c0 -6 -19 -7
-43 0 -32 8 -37 5 -20 -12 13 -13 23 -32 23 -43 0 -12 -14 -1 -31 24 -40 56
-21 92 32 63 22 -11 39 -26 39 -32z m1338 -122 l-1 -115 -28 64 c-23 51 -24
76 -6 115 33 72 37 65 35 -64z m1900 -85 c0 -49 -12 -107 -29 -129 -16 -21
-29 -63 -29 -93 0 -29 -13 -59 -30 -65 -16 -7 -30 -25 -30 -41 0 -16 -18 -35
-39 -42 -21 -6 -45 -30 -52 -52 -8 -27 -24 -37 -46 -29 -29 10 -28 7 2 -16 19
-15 35 -42 35 -60 0 -17 15 -62 32 -99 45 -95 -5 -185 -84 -150 -26 12 -48 34
-48 49 0 14 -20 67 -44 117 l-44 90 81 85 c195 205 285 367 288 515 2 120 36
48 37 -80z m-3038 48 c0 -6 -26 -37 -59 -70 -70 -70 -108 -39 -40 33 42 45 99
66 99 37z m3205 -13 c6 -14 11 -106 13 -205 3 -208 19 -314 44 -299 10 6 18
56 18 110 0 77 6 95 29 87 93 -36 57 -407 -49 -513 -160 -160 -340 -74 -340
164 0 94 -24 133 -47 76 -5 -14 -11 3 -11 38 -3 100 50 127 109 56 54 -67 69
-27 18 47 -36 51 -24 84 31 84 26 0 51 -28 76 -85 l38 -85 -8 248 c-4 137 -3
261 3 275 12 34 64 35 76 2z m366 -1 c12 -31 -57 -203 -89 -223 -13 -8 -22 2
-23 23 0 35 -1 35 -28 0 -20 -27 -30 -30 -38 -10 -6 17 -15 10 -24 -19 -13
-43 -16 -44 -41 -10 -18 23 -27 26 -27 9 -1 -15 -11 -20 -23 -13 -16 10 -14
19 4 30 14 9 35 11 45 5 11 -7 14 12 7 46 -7 32 -8 47 -2 33 16 -35 48 -31 48
5 0 17 18 30 40 30 35 0 44 18 39 74 -2 14 53 42 87 45 8 0 20 -11 25 -25z
m-4346 -55 c265 -88 261 -80 87 -186 -164 -99 -266 -93 -209 12 16 30 12 44
-16 66 -50 38 -62 36 -78 -14 -8 -26 -19 -34 -27 -20 -10 16 -27 13 -58 -8
-71 -50 -55 -80 41 -74 59 4 99 -5 132 -31 l47 -37 -42 -83 c-56 -109 -53
-125 10 -58 l51 56 44 -85 c69 -135 274 -206 429 -150 46 16 46 15 17 -40
-105 -201 -273 -272 -661 -281 -315 -7 -434 -28 -162 -29 453 -1 535 15 708
137 111 79 176 193 191 335 21 207 35 230 110 173 58 -45 45 -110 -69 -353
-132 -280 -658 -452 -1015 -331 -84 28 -130 54 -122 67 9 14 1 17 -21 9 -111
-43 -301 121 -390 335 -86 206 -86 243 -4 295 l68 44 -13 -112 c-7 -62 -19
-128 -26 -146 -12 -32 -8 -32 48 -3 60 32 130 4 90 -35 -50 -50 174 -70 281
-25 55 24 156 112 138 120 -4 2 -1 19 7 38 19 50 60 43 108 -18 52 -67 54 -18
2 67 -41 67 -141 148 -267 216 -110 58 -95 72 176 162 179 59 181 59 395 -13z
m1605 -194 c0 -234 15 -303 42 -196 18 72 60 102 98 71 28 -23 28 -31 0 -72
-46 -72 -36 -100 19 -49 68 64 112 42 109 -53 -2 -65 -4 -69 -16 -26 -20 72
-42 8 -42 -123 0 -203 -186 -270 -340 -122 -97 94 -142 420 -67 495 36 36 37
35 47 -65 18 -169 70 -136 58 37 -11 149 1 237 30 226 15 -6 34 -1 41 11 8 12
7 21 -3 19 -59 -10 -93 48 -52 89 58 58 76 -1 76 -242z m2780 53 c18 -54 6
-63 -59 -47 -50 13 -51 16 -19 51 44 49 62 48 78 -4z m-5196 -70 c42 -12 43
-15 15 -69 -38 -73 -37 -75 16 -83 25 -3 45 -19 45 -36 0 -16 -14 -27 -30 -24
-20 5 -23 0 -10 -13 70 -70 204 -31 238 70 19 55 112 70 112 19 0 -91 -123
-174 -261 -175 -141 -1 -219 80 -219 229 0 93 12 104 94 82z m1285 -7 c46 -29
-7 -232 -73 -275 -115 -76 -319 -24 -380 96 -21 42 -19 50 20 72 63 35 71 32
78 -27 3 -29 30 -71 59 -92 110 -83 252 40 190 164 -27 55 -26 59 14 67 24 5
48 10 53 11 6 1 23 -6 39 -16z m1340 -54 c30 -16 54 -19 58 -7 6 20 17 11 91
-76 66 -77 -46 -57 -143 26 -45 39 -95 70 -112 70 -17 0 -36 9 -43 21 -16 25
74 5 149 -34z m-589 -35 c61 1 110 -6 110 -17 0 -10 -27 -12 -60 -5 -38 8 -82
2 -123 -18 -77 -39 -70 -39 -86 1 -7 19 -1 41 13 50 14 9 28 9 31 1 3 -8 55
-13 115 -12z m82 -67 c12 -8 27 -64 34 -125 l13 -110 -35 57 c-19 31 -70 75
-113 97 -74 38 -77 42 -41 68 41 30 107 36 142 13z m3038 -13 c36 -26 35 -29
-24 -59 -34 -17 -86 -61 -117 -97 -52 -61 -55 -62 -43 -16 8 28 14 79 14 114
0 82 94 114 170 58z m-2254 -118 c5 -23 -9 -31 -55 -30 -75 2 -82 36 -8 36 30
0 48 6 40 13 -7 8 -44 12 -83 11 -77 -3 -96 29 -25 41 54 9 123 -28 131 -71z
m64 -85 c0 -29 15 -56 35 -65 201 -82 341 -201 293 -249 -19 -19 -114 27 -163
79 l-45 48 0 -51 c0 -152 -93 -481 -153 -541 -63 -63 176 -163 413 -173 56 -2
60 -4 20 -12 -66 -12 -311 29 -405 69 -93 40 -109 88 -58 171 37 60 163 512
163 584 0 47 -42 37 -55 -14 -12 -43 -13 -42 -37 15 l-25 60 -19 -50 c-12 -30
-12 -64 -1 -85 13 -24 7 -45 -22 -74 -38 -38 -77 -23 -51 19 7 11 -10 20 -39
20 -28 0 -51 9 -51 20 0 11 23 20 50 20 34 0 50 11 50 35 0 50 65 225 84 225
9 0 16 -23 16 -51z m1299 -139 c9 -42 26 -62 57 -66 40 -6 64 -42 29 -45 -188
-15 -177 -18 -141 40 18 29 18 50 0 90 -13 29 -23 82 -22 117 l1 64 31 -70
c18 -38 38 -97 45 -130z m-2177 35 c10 -131 8 -189 -6 -198 -15 -9 -24 28 -21
88 0 14 -6 25 -14 25 -8 0 -10 27 -5 60 9 65 42 82 46 25z m2036 -269 c36
-146 88 -304 116 -351 78 -132 25 -174 -281 -224 -169 -28 -201 -13 -40 18
265 50 330 81 292 135 -63 91 -84 151 -125 356 -50 244 -53 253 -87 210 -55
-72 -173 -92 -173 -30 0 22 186 148 221 150 7 0 41 -119 77 -264z m-715 4 c-8
-245 -9 -251 -42 -231 -41 25 -27 475 14 467 31 -6 34 -30 28 -236z m373 7
c-9 -339 -56 -346 -56 -9 0 204 5 242 31 242 26 0 29 -35 25 -233z m-1088 161
c7 -17 12 -55 12 -85 l-1 -53 -41 50 c-35 43 -38 44 -19 6 30 -63 25 -85 -8
-27 -27 50 -21 109 11 90 10 -6 12 3 6 20 -7 17 -3 31 8 31 11 0 25 -14 32
-32z m1814 -115 c-20 -39 -22 -37 -12 17 l10 60 -27 -48 c-38 -66 -68 12 -32
81 l24 44 30 -56 c22 -43 24 -66 7 -98z m-2222 5 c0 -23 9 -58 21 -79 11 -22
16 -39 10 -39 -16 0 -71 115 -71 150 0 18 9 27 20 20 11 -7 20 -30 20 -52z
m529 -17 c111 -213 -42 -371 -258 -267 -79 37 -92 66 -30 66 62 0 237 172 225
221 -16 60 29 46 63 -20z m1591 49 c0 -5 -18 -39 -40 -75 -48 -78 -51 -115 -9
-115 17 0 27 7 22 16 -38 60 30 66 96 8 39 -35 94 -69 121 -76 68 -17 63 -34
-21 -74 -183 -88 -334 28 -277 213 20 67 108 151 108 103z m471 -45 c-17 -67
-61 -118 -101 -118 -17 0 -26 3 -22 8 5 5 13 5 17 2 23 -18 75 55 75 105 0 32
10 58 22 58 14 0 17 -20 9 -55z m-1208 -70 c-4 -52 -15 -95 -25 -95 -10 0 -16
11 -13 24 3 13 -22 33 -55 45 -160 57 -168 122 -15 122 l115 0 -7 -96z m889
40 l-11 -65 30 67 c38 83 64 68 29 -16 -27 -66 -40 -73 -74 -39 -17 17 -17 36
-1 70 30 66 40 60 27 -17z m-2119 -65 c-5 22 -15 56 -23 75 -8 19 -6 35 4 35
15 0 66 -111 66 -145 0 -6 -15 -9 -32 -7 -36 6 -87 84 -86 132 1 17 18 -6 40
-50 21 -44 35 -62 31 -40z m117 55 l32 -55 -10 60 c-6 33 -6 49 1 35 6 -14 19
-20 28 -14 11 6 12 -8 2 -34 -25 -67 -56 -66 -80 2 -26 76 -14 78 27 6z m2148
-22 c-12 -35 -30 -63 -39 -63 -16 0 5 78 34 124 23 38 26 0 5 -61z m-1411 -68
c22 -80 15 -91 -52 -88 -53 2 -66 -5 -71 -42 -8 -54 -174 -241 -196 -220 -8 9
12 45 46 80 34 36 68 88 76 115 22 72 88 160 121 160 16 0 29 9 29 20 0 38 35
20 47 -25z m679 -34 c-24 -22 -68 -45 -99 -52 -55 -12 -55 -11 23 58 84 74
155 68 76 -6z m-4111 26 c18 -17 35 -69 38 -115 3 -45 8 -100 11 -121 7 -46
-149 -140 -208 -124 -54 14 -44 -37 14 -75 71 -47 62 -72 -17 -48 -51 16 -93
13 -178 -12 -130 -37 -135 -38 -135 -13 0 10 16 23 36 30 110 35 442 436 401
485 -31 37 0 32 38 -7z m1527 -2 c2 -19 1 -42 0 -52 -10 -56 301 -398 396
-435 80 -32 35 -39 -86 -13 -104 22 -127 20 -234 -19 -136 -50 -155 -34 -38
31 60 34 96 42 150 32 90 -17 88 -4 -15 112 -203 229 -314 404 -200 318 30
-23 31 -23 10 1 -30 34 -32 60 -5 60 11 0 21 -16 22 -35z m1124 -226 c93 -57
173 -66 275 -31 l89 30 -47 -39 c-134 -110 -465 24 -462 188 1 34 9 27 41 -33
22 -42 69 -93 104 -115z m1026 158 c9 -14 5 -18 -9 -9 -13 8 -23 5 -23 -7 0
-45 66 -48 101 -4 54 66 63 53 48 -67 -16 -128 7 -170 91 -170 75 0 108 45 94
130 -11 64 -7 70 37 70 28 0 49 -12 49 -27 0 -15 26 -63 58 -107 l58 -80 -133
-47 c-188 -67 -497 -67 -687 0 l-132 47 58 80 c32 44 58 92 58 107 0 15 20 27
45 27 40 0 45 -10 45 -95 0 -93 1 -95 66 -101 103 -10 131 26 116 147 -6 57
-6 109 2 116 19 20 42 16 58 -10z m1221 -50 c-89 -172 -336 -251 -456 -145
-41 36 -42 39 -7 27 196 -71 316 -39 421 112 62 89 88 93 42 6z m-721 -22 c19
-41 62 -104 95 -140 78 -84 41 -85 -45 -1 -75 73 -129 168 -112 197 19 30 26
24 62 -56z m-3742 -91 l120 -64 -7 -85 c-6 -80 -3 -85 45 -85 44 0 52 9 52 60
0 75 46 80 92 10 70 -106 -64 -142 -292 -78 -27 8 -44 7 -36 -2 8 -8 1 -34
-15 -57 -35 -51 -38 -136 -5 -169 41 -41 -16 -29 -125 26 -108 55 -147 206
-69 270 16 13 45 73 63 132 40 127 26 123 177 42z m770 19 c0 -26 23 -89 50
-141 89 -167 70 -261 -67 -331 -114 -58 -129 -39 -24 31 48 31 79 66 73 81 -6
14 -2 31 9 38 30 18 23 64 -31 181 -52 114 -64 188 -30 188 11 0 20 -21 20
-47z m2365 -3 c-9 -46 -60 -68 -89 -39 -27 27 11 89 54 89 37 0 43 -9 35 -50z
m375 2 c0 -47 -47 -82 -82 -61 -43 27 -19 109 32 109 39 0 50 -10 50 -48z
m-2812 -37 c-8 -14 -28 -41 -45 -61 -27 -31 -27 -39 -3 -54 21 -13 15 -20 -25
-31 -122 -30 -129 63 -9 124 103 53 100 53 82 22z m370 -13 c41 -26 11 -119
-47 -145 -63 -29 -111 -9 -111 46 0 86 89 142 158 99z m-73 -298 c-6 -15 7
-31 29 -37 41 -10 94 -120 66 -137 -9 -6 -23 -37 -30 -69 -9 -40 -22 -55 -41
-48 -16 6 -29 1 -29 -11 0 -12 13 -22 29 -22 36 0 61 -38 38 -60 -32 -31 -147
36 -178 104 l-30 66 12 -65 c8 -41 4 -65 -9 -65 -31 0 -27 105 6 150 15 21 23
49 18 62 -5 13 1 30 13 37 11 7 21 54 21 103 l0 90 47 -36 c27 -20 43 -48 38
-62z m2959 16 c4 -33 -5 -51 -29 -56 -24 -5 -35 6 -35 33 0 106 53 125 64 23z
m-4267 -8 c-3 -37 7 -82 22 -100 14 -18 21 -39 14 -46 -7 -7 -13 -4 -13 7 0
11 -14 20 -31 20 -18 0 -26 -11 -20 -28 6 -16 17 -50 23 -77 14 -56 48 -44 48
17 0 31 6 37 22 21 34 -34 -34 -145 -103 -169 -33 -12 -59 -30 -59 -40 0 -11
-9 -14 -20 -7 -11 7 -20 51 -20 97 0 47 -9 94 -20 105 -33 33 -1 148 41 148
45 0 76 44 40 56 -18 6 -11 18 21 36 64 36 62 37 55 -40z m4433 48 c-7 -11
-27 -20 -44 -20 -28 0 -28 -5 3 -39 34 -38 34 -40 -21 -53 -51 -13 -52 -16
-17 -30 37 -14 37 -15 -5 -17 -54 -1 -80 35 -37 51 17 7 31 25 31 41 0 17 -10
23 -23 15 -13 -8 -19 -3 -13 14 5 15 31 33 57 40 72 20 83 20 69 -2z m-3470
-108 c0 -14 -14 -42 -32 -63 -24 -30 -29 -32 -21 -6 9 28 -6 26 -105 -14 -294
-119 -592 -47 -502 122 31 56 29 56 190 28 406 -70 430 -73 430 -47 0 14 -9
31 -20 38 -11 7 -20 23 -19 36 1 31 79 -63 79 -94z m-1462 48 c-40 -21 -87
-61 -105 -89 -47 -71 -81 -64 -43 8 33 65 116 119 180 119 29 0 20 -10 -32
-38z m3524 2 c13 21 17 18 18 -15 0 -33 -9 -41 -40 -33 -46 12 -45 10 -26 59
14 35 15 35 22 -1 7 -30 12 -32 26 -10z m-1148 -83 c13 -26 19 -52 12 -58 -6
-6 -16 1 -21 15 -5 14 -33 54 -62 90 l-53 64 50 -32 c28 -18 61 -54 74 -79z
m1274 89 c48 -18 41 -86 -8 -83 -27 3 -40 18 -40 49 0 50 2 52 48 34z m392
-119 c-11 -66 -20 -189 -20 -274 0 -153 -6 -169 -55 -139 -35 23 2 432 46 498
45 69 51 51 29 -85z m133 49 c40 -117 57 -439 25 -460 -50 -31 -54 -20 -56
150 -1 93 -11 216 -22 273 -25 129 -25 124 5 114 14 -4 35 -39 48 -77z m467
41 c0 -26 -14 -39 -40 -39 -25 0 -40 13 -40 36 0 21 16 37 40 39 27 2 40 -10
40 -36z m-860 -26 c0 -13 9 -9 20 7 16 24 19 22 20 -13 0 -33 -9 -41 -40 -33
-22 6 -40 21 -40 33 0 13 -9 10 -20 -7 -16 -24 -19 -22 -20 13 0 33 9 41 40
33 22 -6 40 -21 40 -33z m620 1 c0 -31 -13 -46 -40 -49 -51 -3 -55 68 -5 81
19 5 37 10 40 12 3 1 5 -19 5 -44z m100 9 c0 -20 -17 -36 -40 -38 -26 -1 -40
10 -40 32 0 20 17 36 40 38 26 1 40 -10 40 -32z m-580 -22 c0 -26 -13 -38 -40
-36 -24 2 -40 18 -40 39 0 23 15 36 40 36 26 0 40 -13 40 -39z m380 0 c0 -18
-18 -34 -40 -36 -36 -2 -55 34 -30 58 23 23 70 8 70 -22z m-4346 -66 c-65 -58
-104 -113 -123 -175 l-28 -90 3 89 c4 81 13 96 110 175 136 111 161 111 38 1z
m257 63 c14 -22 -42 -94 -60 -76 -14 15 11 98 30 98 9 0 23 -10 30 -22z m1828
7 c-1 -21 -51 -85 -66 -85 -22 0 -14 51 11 76 27 27 56 32 55 9z m265 -71 c58
-48 109 -100 112 -117 3 -17 -46 19 -110 81 -116 112 -116 112 -122 57 -7 -57
-31 -72 -55 -33 -10 15 -20 15 -35 0 -27 -27 -54 -28 -54 -2 0 11 15 20 32 20
23 0 29 12 22 40 -19 75 92 50 210 -46z m1145 28 c6 -9 69 -28 139 -42 l129
-24 -22 -53 c-13 -29 -41 -70 -64 -90 -22 -20 -30 -31 -17 -24 13 6 28 3 35
-7 15 -25 -36 -42 -87 -28 -50 13 -49 5 -13 91 34 81 8 120 -94 146 -30 7 -55
21 -55 31 0 23 34 23 49 0z m1321 -2 c7 -11 -2 -20 -20 -20 -116 0 -178 -92
-118 -177 18 -25 26 -51 19 -59 -7 -7 -22 0 -32 17 -12 20 -18 21 -19 4 0 -14
-10 -25 -21 -25 -12 0 -16 9 -9 20 7 11 3 20 -9 20 -11 0 -21 -14 -21 -31 0
-17 -9 -26 -20 -19 -12 7 -15 22 -9 32 7 11 4 31 -7 44 -65 83 -42 129 80 155
64 14 122 32 128 42 14 23 43 22 58 -3z m-944 -55 c-12 -4 -18 -23 -12 -42 10
-42 -123 -156 -144 -123 -7 11 20 39 59 62 39 23 66 50 59 61 -19 31 9 81 36
65 16 -11 17 -18 2 -23z m559 -47 c-5 -21 0 -38 13 -38 12 0 22 14 22 31 0 17
9 26 20 19 11 -7 20 -34 20 -60 0 -25 11 -51 25 -56 19 -7 19 -15 3 -33 -18
-18 -26 -11 -36 28 -7 29 -20 48 -29 43 -27 -17 -59 17 -63 68 -7 75 -1 93 18
63 9 -15 13 -44 7 -65z m561 -37 c-65 -54 -123 -58 -155 -10 -21 32 -51 49
-85 49 -78 0 -34 33 74 56 90 19 216 -53 166 -95z m-1448 49 c27 -27 26 -30
-14 -30 -24 0 -55 -18 -69 -40 -13 -22 -33 -40 -43 -40 -11 0 2 23 28 50 26
28 37 50 26 50 -12 0 -36 -23 -54 -50 -31 -46 -152 -30 -152 21 0 89 200 117
278 39z m-3190 -60 c17 -65 2 -90 -54 -91 -43 -1 -43 -2 4 -21 61 -24 48 -38
-23 -24 -50 10 -55 19 -55 94 0 137 97 168 128 42z m1752 -62 c0 -54 -8 -69
-40 -70 -22 -2 -51 -4 -65 -6 -66 -9 -75 128 -12 191 l43 43 37 -45 c20 -25
37 -76 37 -113z m1846 -53 c-13 -171 -8 -164 -136 -201 l-100 -29 110 -19 110
-20 -60 -25 c-76 -31 -256 -17 -351 28 l-71 34 50 108 c29 62 58 101 71 93 11
-7 43 -10 70 -6 44 5 46 2 22 -27 -15 -18 -39 -28 -54 -23 -15 6 -27 -2 -27
-19 0 -85 298 170 299 257 1 29 8 32 40 15 35 -19 37 -37 27 -166z m-2959 53
c177 -37 304 -22 370 44 26 26 56 42 66 36 11 -6 -4 -33 -32 -59 -80 -74 -56
-89 29 -18 56 47 149 45 156 -3 7 -47 -106 -88 -241 -88 -37 0 -78 -11 -91
-24 -19 -19 -24 -17 -24 8 0 18 11 38 25 44 14 6 -3 7 -37 1 -34 -6 -101 -2
-149 9 -116 26 -127 11 -16 -19 139 -39 56 -44 -142 -10 -211 36 -221 37 -221
13 0 -23 111 -62 177 -62 38 0 45 -6 28 -23 -16 -16 -59 -13 -165 13 -157 39
-160 43 -103 193 l21 54 103 -39 c57 -22 168 -53 246 -70z m3374 87 c0 -14 54
-82 119 -152 121 -129 180 -150 180 -64 0 69 56 45 81 -34 13 -41 36 -85 52
-98 75 -60 -344 -140 -423 -81 -37 28 -34 31 55 44 106 16 109 50 5 50 -103 0
-130 18 -130 84 0 59 44 125 68 102 6 -7 12 12 12 43 0 55 -1 55 -50 23 -54
-35 -61 -23 -37 63 12 47 66 63 68 20z m-4251 -56 c23 -105 -70 -157 -161 -90
-38 27 -37 30 20 90 76 79 124 79 141 0z m2229 8 c49 -63 52 -98 9 -115 -90
-35 -180 8 -158 75 5 18 14 47 19 63 15 47 84 35 130 -23z m991 -47 c45 0 48
-26 15 -100 -17 -39 -30 -77 -28 -85 5 -26 -31 -16 -73 20 -40 35 -40 35 1
125 23 50 45 79 50 65 4 -14 21 -25 35 -25z m1677 -46 c43 -112 47 -103 -66
-152 -107 -46 -123 -50 -117 -27 2 8 -16 53 -40 100 -44 83 -44 85 -5 85 29 0
46 -22 64 -81 40 -136 86 -74 48 66 -9 33 -7 55 5 55 11 0 25 -31 33 -70 8
-42 24 -70 42 -70 36 0 36 16 -1 80 -33 57 -38 100 -13 100 10 0 32 -39 50
-86z m-1616 -65 c-17 -41 -27 -80 -22 -85 6 -5 15 3 20 18 41 117 53 138 80
138 50 0 -31 -165 -85 -173 -24 -4 -44 2 -44 13 0 31 64 182 74 173 4 -5 -6
-43 -23 -84z m-1631 30 c0 -10 -47 -41 -105 -70 l-105 -51 85 82 c77 74 125
89 125 39z m-1207 -60 c27 -11 81 -19 118 -19 68 0 93 -27 44 -47 -14 -5 11
-11 55 -13 85 -3 76 -12 -58 -60 -97 -35 -48 -40 76 -8 194 51 173 -53 -31
-152 -214 -104 -266 -76 -269 146 -2 82 -9 160 -17 172 -7 12 -6 33 2 47 12
18 18 15 23 -11 4 -20 30 -45 57 -55z m1280 -78 c4 -65 -2 -139 -13 -165 -16
-37 -18 -30 -9 35 25 181 -27 188 -166 21 -13 -16 -40 -39 -60 -51 -32 -19
-30 -26 25 -71 85 -71 45 -62 -89 19 -95 58 -181 158 -156 183 22 22 101 -26
128 -77 l31 -60 93 93 c52 50 105 92 118 92 27 0 76 80 68 110 -4 11 0 13 9 5
8 -8 18 -68 21 -134z m-293 89 c0 -21 -20 -30 -65 -28 l-65 1 60 28 c33 15 62
28 65 28 3 1 5 -12 5 -29z m-1347 -16 c19 -19 -80 -37 -163 -30 -42 3 -80 15
-84 27 -7 22 225 25 247 3z m214 1 c-5 -8 2 -15 17 -16 14 0 -1 -24 -34 -53
-33 -29 -58 -61 -55 -70 3 -9 -2 -14 -10 -13 -31 8 -123 -50 -111 -69 7 -11 4
-15 -6 -9 -10 6 -85 16 -168 24 -248 21 -257 26 -180 91 55 47 76 53 160 44
123 -11 194 6 208 51 9 26 34 35 100 35 49 1 84 -6 79 -15z m1967 -2 c-10 -30
-114 -54 -173 -40 -125 30 -99 57 58 59 76 1 120 -6 115 -19z m-1145 -52 c19
-16 56 -71 83 -124 26 -53 66 -105 88 -117 88 -47 37 -61 -205 -56 l-245 6 4
57 c7 92 38 113 171 113 101 0 117 5 107 32 -7 17 -12 40 -12 50 0 10 -18 18
-40 18 -22 0 -40 -12 -40 -27 0 -16 -24 -28 -60 -29 l-61 -1 42 59 c46 64 106
70 168 19z m1776 -43 c-9 -35 -135 -67 -173 -43 -12 7 -51 11 -87 8 -49 -5
-62 1 -54 22 12 33 149 45 149 13 0 -11 9 -15 20 -8 12 7 17 19 12 26 -4 8 26
14 67 15 61 1 73 -6 66 -33z m235 26 c0 -47 -54 -80 -115 -70 -74 12 -88 60
-20 70 101 15 135 15 135 0z m1760 -94 c0 -12 -27 -48 -60 -80 -63 -60 -84
-50 -27 14 44 48 19 70 -49 43 -30 -12 -72 -29 -94 -37 -22 -9 10 20 70 65
110 80 160 78 160 -5z m-1581 -2 c66 -40 121 -76 121 -79 0 -13 -180 55 -191
73 -6 10 -20 18 -30 18 -30 0 -22 -52 11 -80 17 -14 30 -35 29 -47 0 -13 -27
7 -60 43 -49 54 -56 72 -39 105 27 49 16 52 159 -33z m856 -53 c72 -70 184
-86 345 -49 58 13 63 12 32 -8 -119 -74 -392 -33 -423 64 -16 53 -182 45 -213
-10 -47 -83 -221 -115 -383 -70 -107 29 -83 38 38 13 134 -28 236 -6 304 65
82 86 208 84 300 -5z m-3875 -42 c0 -4 -17 -26 -37 -50 -38 -44 -83 -57 -83
-25 0 26 52 64 67 48 7 -7 13 -2 13 11 0 13 9 23 20 23 11 0 20 -3 20 -7z
m3644 -17 c-37 -37 -29 -68 28 -106 37 -24 59 -27 74 -12 15 15 7 26 -28 40
-54 22 -13 28 58 9 29 -8 42 -23 36 -40 -8 -21 3 -25 43 -18 103 19 178 -72
123 -149 -16 -23 -18 -17 -9 27 8 37 5 52 -8 43 -12 -7 -21 -3 -21 8 0 11 -13
16 -30 9 -16 -6 -30 -1 -30 12 0 16 -11 13 -30 -6 -17 -17 -55 -27 -85 -24
-67 8 -99 -8 -63 -30 15 -9 21 -23 13 -30 -7 -8 -32 17 -56 54 -24 37 -38 51
-31 31 10 -30 4 -34 -33 -23 -25 7 -49 14 -55 14 -106 0 -106 -38 0 -80 72
-28 76 -33 45 -57 -42 -32 -8 -36 64 -8 41 15 55 13 64 -10 16 -43 -10 -107
-31 -73 -12 19 -21 18 -41 -6 -23 -28 -5 -31 162 -33 105 -1 166 -8 138 -16
-27 -7 -115 -11 -195 -8 -84 2 -146 -4 -146 -15 0 -11 85 -20 195 -22 152 -2
173 -5 95 -15 -130 -16 -410 -4 -410 18 0 9 19 11 43 5 30 -8 39 -4 29 12 -8
13 -34 23 -58 23 -36 1 -38 4 -14 20 20 13 22 19 5 20 -14 0 -25 22 -25 48 0
37 9 46 37 39 23 -7 42 3 51 24 10 27 3 32 -37 24 -64 -12 -94 87 -43 143 18
19 32 50 32 69 0 18 10 33 21 33 12 0 16 -9 10 -19 -14 -22 50 -61 100 -61 28
0 29 5 9 30 -14 17 -39 30 -56 30 -24 0 -20 12 16 50 26 28 52 50 57 50 6 0 0
-11 -13 -24z m969 -21 c-7 -25 -13 -66 -13 -92 0 -40 -5 -44 -30 -23 -36 30
-39 103 -6 136 38 38 62 28 49 -21z m-1437 -24 c20 -19 18 -30 -10 -54 -42
-36 -166 -14 -166 30 0 69 111 85 176 24z m1240 -14 c5 -43 -3 -54 -50 -63
-91 -19 -144 72 -61 106 69 28 104 15 111 -43z m375 34 c35 -26 35 -30 5 -30
-23 -1 -31 -12 -23 -32 10 -26 4 -27 -41 -6 -50 23 -66 56 -39 84 22 21 56 15
98 -16z m-4645 -116 l62 -55 -51 0 c-166 0 -211 43 -144 138 31 44 34 45 52 9
10 -20 47 -62 81 -92z m1366 53 c17 -40 28 -74 24 -77 -32 -23 -303 -91 -357
-89 l-69 2 80 27 80 26 -83 1 c-110 2 -147 18 -147 63 0 50 31 65 78 40 53
-28 302 -80 331 -69 13 6 19 38 15 79 -11 89 10 88 48 -3z m-1041 -30 c15 -48
-17 -78 -81 -77 -37 0 -37 2 6 26 50 28 40 58 -13 38 -29 -11 -29 -8 -6 21 38
46 78 43 94 -8z m2384 -42 c-9 -27 -106 -58 -124 -41 -31 31 -4 59 60 61 47 2
69 -5 64 -20z m294 4 c28 -10 51 -28 51 -39 0 -13 -17 -13 -51 -1 -29 11 -97
20 -151 20 -62 0 -96 8 -88 20 16 26 172 26 239 0z m1384 -10 c-8 -19 1 -31
23 -32 19 0 -24 -14 -95 -29 -122 -27 -164 -25 -135 4 8 7 47 20 89 28 74 14
74 14 11 17 -35 1 -86 -7 -114 -17 -29 -11 -55 -12 -61 -2 -17 26 87 58 196
59 79 2 95 -4 86 -28z m-384 -9 c-10 -10 -46 -24 -79 -31 -57 -12 -58 -11 -21
19 41 33 133 45 100 12z m-1026 -54 c24 -30 21 -32 -33 -19 -140 34 -161 36
-130 14 17 -12 46 -22 65 -22 19 0 35 -9 35 -21 0 -12 -38 -17 -95 -12 -52 4
-75 4 -51 -1 42 -8 108 -67 73 -65 -9 0 -66 13 -127 27 l-110 27 55 25 c30 15
55 38 55 53 0 42 227 37 263 -6z m-2783 -7 c46 -15 44 -16 -20 -18 -38 -1 -83
7 -100 18 -38 24 44 24 120 0z m1780 1 c0 -7 62 -12 139 -11 83 1 134 -6 127
-17 -7 -11 -1 -12 14 -3 32 19 320 23 320 4 0 -8 0 -22 0 -33 0 -10 -74 -17
-170 -15 -158 4 -170 1 -170 -36 1 -30 5 -33 18 -13 11 18 22 20 30 7 7 -12
35 -17 63 -12 44 8 47 4 28 -27 -25 -39 -199 -62 -199 -26 0 12 -17 14 -45 3
-25 -9 -72 -14 -105 -11 -33 3 -71 6 -85 7 -36 3 -31 82 5 82 17 0 31 -16 32
-35 3 -33 3 -33 12 0 9 34 46 50 46 19 0 -8 36 -13 80 -11 58 4 80 -3 80 -24
0 -16 7 -29 17 -29 9 0 12 27 7 60 -5 33 -17 60 -27 60 -11 0 -13 -10 -6 -22
10 -15 2 -16 -24 -4 -20 9 -84 17 -142 16 -95 -2 -105 2 -105 41 0 24 13 42
30 42 17 0 30 -5 30 -12z m-1976 -96 c35 -42 3 -51 -51 -15 -28 18 -61 28 -72
20 -27 -16 -101 7 -101 32 0 12 15 12 39 -1 51 -28 81 -26 34 2 -30 17 -32 25
-11 38 27 17 122 -28 162 -76z m1383 82 c7 -8 -25 -39 -71 -70 -66 -43 -170
-53 -115 -11 88 67 166 101 186 81z m3099 -12 c73 -34 68 -48 -24 -62 -43 -7
-93 -18 -110 -25 -18 -7 -32 -3 -32 9 0 12 29 31 65 42 57 18 52 19 -40 10
-111 -11 -134 1 -60 30 65 26 139 25 201 -4z m-1266 -33 c67 -13 68 -15 26
-38 -56 -31 -151 -31 -182 0 -32 32 -74 -9 -56 -55 10 -28 29 -32 103 -22 85
12 89 10 69 -27 -12 -22 -41 -40 -66 -40 -24 0 -63 -6 -85 -12 -37 -10 -94 58
-98 116 -2 31 141 113 179 103 22 -6 72 -17 110 -25z m945 -13 c82 -55 90 -79
45 -143 -24 -34 -44 -40 -105 -33 -41 6 -97 1 -125 -11 -41 -17 -30 -19 60
-12 70 6 92 4 60 -7 -60 -18 444 -13 560 7 87 15 105 29 82 66 -11 18 -61 21
-199 8 -198 -17 -224 -2 -102 61 104 54 335 3 342 -76 1 -16 3 -40 5 -54 2
-14 -6 -32 -17 -40 -13 -9 -11 -14 5 -15 74 -1 -14 -39 -137 -60 -132 -22
-468 -6 -692 33 -58 10 -114 87 -64 87 11 0 14 9 7 20 -7 12 12 15 51 7 57
-12 62 -9 51 28 -12 38 -7 41 63 31 56 -7 84 -1 104 23 36 43 -4 94 -43 55
-33 -33 -160 -30 -207 5 -37 28 -36 30 21 31 33 0 74 9 90 20 45 29 63 25 145
-31z m-4291 -107 c56 -53 52 -54 141 24 41 36 86 64 100 62 14 -1 41 -4 60 -6
30 -3 28 -9 -12 -43 -50 -41 -94 -53 -73 -19 7 12 -21 -2 -61 -30 -41 -27 -83
-50 -94 -50 -40 0 -235 124 -224 142 13 21 101 -21 163 -80z m1146 52 c0 -15
-13 -44 -29 -65 -28 -37 -30 -35 -30 26 -1 45 8 65 29 65 17 0 30 -12 30 -26z
m1755 -26 c25 -16 45 -36 45 -45 0 -18 -222 -7 -314 17 -48 12 -66 9 -75 -14
-17 -44 1 -60 84 -76 92 -18 635 -27 565 -10 -40 10 -28 16 55 27 58 8 121 19
140 26 30 9 30 7 5 -11 -20 -14 -22 -21 -5 -22 66 0 22 -75 -50 -86 -228 -36
-525 -56 -633 -45 -131 15 -276 65 -202 71 40 3 40 3 0 20 -22 9 -28 18 -14
19 15 0 21 10 13 22 -67 109 246 195 386 107z m-1355 -28 c-49 -38 -100 -52
-100 -27 0 24 70 66 110 66 37 0 36 -3 -10 -39z m-1711 -42 c-6 -10 -24 -18
-40 -18 -16 0 -29 -15 -29 -34 0 -25 -6 -28 -22 -12 -39 39 -3 101 52 91 27
-5 45 -18 39 -27z m2609 -106 c18 -22 13 -29 -27 -37 -31 -6 -45 -1 -37 11 8
13 -20 16 -82 7 -52 -7 -90 -6 -84 3 5 9 43 18 85 21 41 3 80 9 85 14 16 16
37 10 60 -19z"/>
<path d="M1231 3982 c-22 -71 -62 -157 -90 -190 l-51 -62 82 64 c105 82 135
119 119 145 -8 12 -2 21 13 21 19 1 20 5 3 15 -13 8 -26 42 -30 75 -6 52 -13
42 -46 -68z"/>
<path d="M914 3596 c-87 -74 -274 -296 -274 -324 0 -7 63 51 140 127 77 76
140 145 140 153 0 9 24 41 54 72 76 79 52 68 -60 -28z"/>
<path d="M2450 2140 c-13 -22 4 -32 85 -49 42 -9 65 -6 65 7 0 12 17 22 39 22
21 0 44 8 50 18 6 11 -41 19 -108 19 -66 1 -125 -7 -131 -17z"/>
<path d="M2225 536 c12 -36 111 -56 210 -42 l89 12 -64 27 c-82 34 -247 37
-235 3z"/>
<path d="M4332 4062 c-6 -9 22 -23 63 -29 41 -7 98 -18 125 -23 33 -7 22 3
-30 29 -86 43 -141 51 -158 23z"/>
<path d="M4078 3989 c-72 -39 -171 -113 -220 -164 l-88 -93 97 86 c53 47 154
112 223 144 70 31 133 66 140 78 21 34 -14 22 -152 -51z"/>
<path d="M4196 3952 c-369 -156 -543 -405 -545 -782 -2 -355 164 -585 565
-788 l124 -63 85 43 c492 248 727 670 583 1048 -17 44 -36 98 -43 120 -6 22
-26 52 -43 66 -18 15 -20 21 -5 13 22 -11 23 -6 4 29 -12 23 -27 42 -33 42 -6
0 -3 -11 5 -25 8 -14 -35 27 -98 90 -203 208 -419 283 -599 207z m246 -183
l60 -31 -63 -79 c-75 -95 -109 -98 -196 -18 -124 112 33 214 199 128z m158
-49 c-19 -35 -80 -80 -109 -80 -32 0 -3 41 54 78 80 51 81 51 55 2z m-493
-241 c134 -106 32 -354 -126 -305 -163 51 -210 180 -103 288 71 70 154 76 229
17z m695 -17 c138 -139 -10 -349 -192 -273 -84 35 -117 95 -101 182 27 144
189 194 293 91z m-103 -413 c199 -65 298 -108 249 -109 -12 0 -76 18 -143 40
-337 110 -577 114 -895 11 -170 -54 -219 -63 -170 -30 26 17 404 141 510 167
76 18 239 -11 449 -79z m-303 -309 c-8 -55 -7 -55 38 -25 26 17 53 25 59 19
22 -22 -11 -75 -58 -93 l-45 -18 44 -2 c45 -1 79 -34 58 -56 -6 -6 -36 0 -67
13 -54 25 -54 25 -17 -16 32 -35 33 -42 7 -42 -34 0 -59 46 -45 85 5 14 1 57
-8 95 l-16 70 -24 -59 c-26 -63 -15 -151 18 -151 11 0 20 -22 20 -50 0 -27 -9
-50 -20 -50 -11 0 -20 18 -20 39 0 27 -10 36 -30 28 -36 -14 -39 15 -5 53 21
24 20 24 -10 2 -38 -29 -105 -15 -85 18 7 11 32 21 56 22 30 1 34 5 14 13 -35
13 -59 45 -60 80 0 37 55 30 79 -10 16 -27 18 -20 8 30 -8 44 -1 81 23 118
l35 54 30 -56 c16 -31 25 -81 21 -111z"/>
<path d="M1190 3201 c-88 -43 -148 -78 -134 -79 14 -1 52 12 84 28 104 54 275
59 410 14 158 -54 159 -44 5 31 -188 91 -189 91 -365 6z"/>
<path d="M1392 2452 c12 -32 -16 -41 -97 -33 -112 11 -14 -118 102 -133 99
-13 116 14 69 108 -36 73 -98 121 -74 58z"/>
<path d="M1250 2191 c-56 -26 -49 -28 120 -29 184 -1 200 23 30 45 -58 7 -111
2 -150 -16z"/>
<path d="M2000 1340 c-19 -35 -15 -40 30 -40 45 0 49 5 30 40 -12 22 -25 40
-30 40 -5 0 -18 -18 -30 -40z"/>
<path d="M3533 1210 c-18 -47 -17 -50 25 -50 20 0 48 14 62 30 15 18 17 30 4
30 -11 0 -34 5 -50 11 -16 6 -34 -3 -41 -21z"/>
<path d="M2134 5525 c-9 -14 -42 -25 -73 -25 -61 0 -88 -37 -60 -82 14 -22 22
-23 42 -3 36 36 57 31 57 -14 0 -21 8 -44 18 -50 10 -6 16 5 13 24 -3 19 3 40
13 47 11 7 16 38 13 70 -5 38 -13 49 -23 33z"/>
<path d="M4226 5410 c0 -66 4 -91 8 -55 5 36 5 90 0 120 -4 30 -8 1 -8 -65z"/>
<path d="M3430 5438 c0 -30 5 -54 10 -54 38 3 46 -8 20 -26 -25 -17 -25 -20
-1 -13 45 12 51 128 7 139 -28 8 -36 -2 -36 -46z"/>
<path d="M0 5377 c0 -14 52 -80 115 -146 l115 -121 -115 109 -115 110 0 -66
c0 -61 43 -134 65 -111 13 13 135 -96 135 -121 0 -12 -8 -9 -18 6 -12 20 -19
16 -28 -17 -10 -41 -9 -41 37 -11 46 30 49 29 61 -19 7 -27 20 -45 30 -39 35
22 107 -71 109 -141 l2 -68 -61 42 c-34 24 -123 91 -197 150 l-134 107 7 -105
c7 -98 13 -109 87 -156 153 -96 185 -128 185 -184 l0 -54 -118 81 c-107 74
-185 90 -148 31 15 -24 21 -86 24 -255 2 -82 8 -92 65 -114 l62 -24 -9 125
c-6 68 -3 142 5 164 10 25 17 -26 18 -131 l1 -172 80 -45 80 -45 0 140 c0 134
2 139 45 131 31 -6 27 -2 -12 14 -44 18 -54 32 -45 65 6 24 12 76 12 116 0 47
11 77 31 85 17 6 27 4 21 -4 -5 -9 -1 -29 9 -45 21 -33 25 -4 19 128 -2 56 9
90 42 125 25 26 41 50 36 54 -4 3 -118 102 -253 221 -135 119 -245 204 -245
190z"/>
<path d="M920 5366 c0 -32 9 -41 30 -33 17 6 30 1 30 -11 0 -12 -12 -22 -26
-22 -15 0 -28 -29 -31 -72 -3 -51 2 -67 20 -56 17 10 20 4 9 -23 -8 -21 -7
-31 2 -22 9 9 27 49 41 90 13 40 20 49 15 20 -6 -34 2 -62 24 -80 29 -24 32
-22 20 22 -7 27 -3 60 8 73 14 18 8 28 -24 39 -34 10 -37 17 -16 31 33 21 -15
64 -48 44 -10 -6 -26 1 -36 16 -13 21 -17 17 -18 -16z"/>
<path d="M3376 5388 c-6 -10 -17 -49 -23 -88 l-13 -70 27 58 c28 60 59 44 65
-33 6 -69 8 -74 38 -62 48 18 39 127 -11 127 -23 0 -47 18 -56 43 -9 24 -21
36 -27 25z"/>
<path d="M2008 5262 c15 -108 48 -152 65 -87 6 25 20 40 29 34 10 -6 18 -3 18
8 0 11 6 36 14 56 12 32 9 34 -19 10 -29 -23 -35 -20 -46 22 -23 94 -75 59
-61 -43z"/>
<path d="M3967 5180 c0 -93 3 -132 8 -85 4 47 4 123 0 170 -5 47 -8 9 -8 -85z"/>
<path d="M4333 5147 c3 -75 6 -240 6 -365 1 -126 5 -224 11 -219 17 17 13 626
-5 674 -12 32 -16 5 -12 -90z"/>
<path d="M800 5150 c0 -60 7 -110 15 -110 86 2 122 220 36 220 -49 0 -51 -5
-51 -110z"/>
<path d="M440 5135 c0 -88 4 -95 50 -95 46 0 50 7 50 95 0 88 -4 95 -50 95
-46 0 -50 -7 -50 -95z"/>
<path d="M560 5130 c0 -168 88 -168 94 0 3 104 1 110 -45 110 -46 0 -49 -7
-49 -110z"/>
<path d="M680 5130 c0 -104 3 -110 50 -110 47 0 50 6 50 110 0 104 -3 110 -50
110 -47 0 -50 -6 -50 -110z"/>
<path d="M2 5117 c-1 -18 20 -47 47 -65 61 -40 73 -40 58 -3 -6 17 -17 29 -24
28 -39 -5 -49 6 -23 25 26 19 25 20 -4 11 -18 -6 -38 0 -43 13 -6 14 -11 10
-11 -9z"/>
<path d="M4275 5073 c-24 -58 -19 -145 6 -120 12 12 19 52 15 89 -5 53 -9 60
-21 31z"/>
<path d="M5360 5070 c0 -16 -13 -30 -30 -30 -59 0 -121 -82 -80 -105 29 -16
48 -6 102 57 74 87 82 108 38 108 -16 0 -30 -13 -30 -30z"/>
<path d="M4216 4838 c-3 -133 1 -252 9 -265 8 -13 15 96 15 242 0 332 -16 347
-24 23z"/>
<path d="M279 4874 c80 -86 73 -83 89 -43 6 17 3 26 -7 20 -10 -6 -30 0 -44
14 -73 68 -99 74 -38 9z"/>
<path d="M560 4800 c0 -93 3 -100 50 -100 47 0 50 7 50 100 0 93 -3 100 -50
100 -47 0 -50 -7 -50 -100z"/>
<path d="M501 4761 c-28 -51 -26 -61 9 -61 19 0 30 19 30 50 0 60 -11 63 -39
11z"/>
<path d="M468 4566 c-25 -8 -13 -100 14 -117 31 -20 19 -86 -17 -95 -22 -6
-14 -10 20 -12 58 -2 77 48 33 92 -15 15 -15 25 0 35 54 33 9 118 -50 97z"/>
<path d="M560 4460 c0 -115 2 -120 50 -120 48 0 50 5 50 120 0 115 -2 120 -50
120 -48 0 -50 -5 -50 -120z"/>
<path d="M680 4461 c0 -116 2 -121 51 -121 74 0 68 226 -6 236 -42 6 -45 0
-45 -115z"/>
<path d="M920 4460 c0 -115 2 -120 50 -120 62 0 79 205 18 228 -60 23 -68 11
-68 -108z"/>
<path d="M1040 4460 c0 -115 2 -120 50 -120 48 0 50 5 50 120 0 115 -2 120
-50 120 -48 0 -50 -5 -50 -120z"/>
<path d="M1160 4460 c0 -120 0 -120 60 -120 60 0 60 0 60 120 0 120 0 120 -60
120 -60 0 -60 0 -60 -120z"/>
<path d="M800 4450 c0 -104 3 -110 50 -110 47 0 50 6 50 110 0 104 -3 110 -50
110 -47 0 -50 -6 -50 -110z"/>
<path d="M1820 4469 c0 -30 11 -49 30 -49 17 0 30 17 30 38 0 21 -13 43 -30
49 -22 9 -30 -2 -30 -38z"/>
<path d="M0 4199 c0 -73 4 -80 40 -69 24 7 40 4 40 -10 0 -12 11 -20 25 -18
14 2 43 -2 65 -11 22 -8 65 -24 95 -35 30 -12 55 -28 55 -37 0 -9 19 -22 42
-29 22 -8 37 -17 33 -22 -5 -5 -48 5 -95 22 -120 42 -122 24 -2 -27 104 -45
151 -54 134 -27 -5 9 3 42 19 73 17 32 27 60 24 63 -8 8 -457 208 -467 208 -4
0 -8 -37 -8 -81z"/>
<path d="M560 4184 c0 -71 37 -112 74 -81 49 41 33 137 -24 137 -41 0 -50 -10
-50 -56z"/>
<path d="M29 4069 c21 -16 50 -29 63 -29 14 0 41 -5 61 -11 21 -6 6 7 -33 29
-84 48 -151 57 -91 11z"/>
<path d="M2640 3930 c0 -18 -9 -27 -22 -19 -15 10 -15 1 1 -29 12 -23 30 -42
39 -42 9 0 22 -27 29 -60 9 -43 23 -60 53 -60 59 0 56 119 -5 174 -70 63 -95
72 -95 36z"/>
<path d="M2863 3760 c1 -110 1 -110 19 -33 11 47 11 89 -1 110 -15 24 -19 3
-18 -77z"/>
<path d="M2614 3748 c-26 -26 57 -127 102 -123 40 3 42 7 15 27 -17 12 -31 32
-31 45 0 25 -70 67 -86 51z"/>
<path d="M5804 3676 c-17 -17 -17 -31 1 -53 14 -17 16 -25 4 -18 -13 8 -21
-14 -21 -56 0 -38 9 -69 19 -69 11 0 3 -18 -17 -40 -19 -21 -43 -34 -52 -28
-10 5 -13 -2 -7 -18 10 -26 -8 -33 -96 -36 -32 0 -38 -9 -34 -53 2 -22 66 -5
86 22 16 22 12 4 -20 -82 -7 -19 27 3 75 50 50 47 117 90 153 97 45 9 65 24
65 50 0 49 -43 144 -75 164 -14 9 -25 29 -25 44 0 39 -29 53 -56 26z"/>
<path d="M2874 3037 c-38 -21 -41 -35 -16 -74 24 -38 102 -10 102 36 0 45 -41
63 -86 38z"/>
<path d="M28 2265 c-28 -19 -32 -145 -5 -145 12 0 17 12 11 26 -5 15 6 37 26
49 29 19 38 16 46 -14 6 -25 -3 -41 -28 -47 -21 -6 -38 -20 -38 -33 0 -36 49
-44 112 -19 32 14 65 23 73 21 9 -2 5 14 -9 36 -13 21 -29 38 -35 37 -38 -3
-57 10 -77 54 -24 52 -39 59 -76 35z"/>
<path d="M14 2068 c-72 -72 30 -193 109 -129 46 37 46 38 7 52 -22 8 -54 32
-71 53 -17 21 -37 31 -45 24z"/>
<path d="M240 1897 c0 -9 32 -17 70 -17 39 0 70 9 70 19 0 11 -31 19 -70 17
-38 -1 -70 -10 -70 -19z"/>
<path d="M5736 1715 c14 -17 49 -24 94 -19 88 10 84 15 -28 32 -72 11 -84 9
-66 -13z"/>
<path d="M5620 870 c-14 -93 -11 -100 37 -103 27 -2 39 3 27 10 -12 8 -31 36
-42 64 -11 27 -21 40 -22 29z"/>
<path d="M0 549 c0 -75 0 -75 42 -37 23 21 48 38 55 38 7 0 10 8 7 18 -3 10 6
8 22 -4 15 -13 34 -17 43 -9 8 8 9 -21 2 -64 l-12 -80 57 55 c66 63 95 71 60
15 -13 -21 -31 -34 -39 -29 -8 5 -20 0 -27 -12 -26 -41 40 -18 94 34 53 50 83
41 32 -10 -37 -37 6 -28 52 11 23 19 -32 -46 -121 -145 l-162 -180 62 -3 c51
-3 56 -1 23 13 -44 19 -42 21 29 29 54 5 309 263 290 292 -6 10 -61 -39 -124
-107 -62 -68 -131 -137 -154 -152 -23 -15 -4 12 42 60 213 227 213 227 72 248
-30 5 -100 22 -155 40 -64 20 -102 24 -107 10 -9 -27 -44 -26 -38 3 3 12 -6
26 -20 31 -17 6 -25 -14 -25 -65z"/>
<path d="M34 472 c-32 -25 -29 -27 29 -22 36 2 69 15 73 27 10 32 -58 28 -102
-5z"/>
<path d="M35 418 c-19 -11 -35 -29 -35 -39 0 -11 25 -4 55 14 l55 35 -55 -60
c-88 -96 -64 -125 30 -37 l85 79 -85 -91 c-124 -132 -104 -166 24 -40 110 108
124 145 51 131 -22 -4 -44 1 -51 11 -14 24 -30 23 -74 -3z"/>
<path d="M179 307 c-71 -72 -111 -122 -89 -111 52 27 241 220 228 233 -6 5
-68 -49 -139 -122z"/>
<path d="M1229 222 c7 -11 62 -20 122 -19 141 2 126 25 -21 33 -74 4 -109 -1
-101 -14z"/>
<path d="M5843 46 c15 -19 17 -28 3 -20 -13 8 -28 7 -34 -2 -5 -9 35 -19 89
-21 100 -5 142 36 67 65 -74 28 -155 14 -125 -22z"/>
</g>
</svg>
